<?plantuml 1.2026.1?><svg xmlns="http://www.w3.org/2000/svg" xmlns:xlink="http://www.w3.org/1999/xlink" contentStyleType="text/css" data-diagram-type="ACTIVITY" height="1149px" preserveAspectRatio="none" style="width:789px;height:1149px;background:#FFFFFF;" version="1.1" viewBox="0 0 789 1149" width="789px" zoomAndPan="magnify"><title>ADR-021 - Heterogeneous GP-GPU Compute and Scheduler Governance</title><defs/><g><g class="title" data-source-line="18"><text fill="#000000" font-family="DejaVu Sans" font-size="22" font-weight="bold" lengthAdjust="spacing" textLength="756.7119" x="15" y="35.6357">ADR-021 - Heterogeneous GP-GPU Compute and Scheduler Governance</text></g><ellipse cx="382.9211" cy="61.2979" fill="#145A32" rx="10" ry="10" style="stroke:#000000;stroke-width:1;"/><rect fill="#FFFFFF" height="163.2939" rx="6" ry="6" style="stroke:#000000;stroke-width:1;" width="334.123" x="215.8596" y="81.2979"/><path d="M348.0315,81.2979 L348.0315,90.3965 L338.0315,100.3965 L215.8596,100.3965" fill="none" style="stroke:#000000;stroke-width:1;"/><text fill="#000000" font-family="DejaVu Sans" font-size="14" lengthAdjust="spacing" textLength="122.1719" x="218.8596" y="95.4297">Capability inventory</text><rect fill="#FDFEFE" height="47.5977" rx="6" ry="6" style="stroke:#566573;stroke-width:1;" width="314.123" x="225.8596" y="117.3965"/><text fill="#000000" font-family="DejaVu Sans" font-size="12" lengthAdjust="spacing" textLength="294.123" x="235.8596" y="138.6523">Discover accelerator vendor/model, HBM, interconnect,</text><text fill="#000000" font-family="DejaVu Sans" font-size="12" lengthAdjust="spacing" textLength="264.0703" x="235.8596" y="152.4512">collectives, precision, MIG/SR-IOV, driver/runtime</text><rect fill="#FDFEFE" height="47.5977" rx="6" ry="6" style="stroke:#566573;stroke-width:1;" width="246.0723" x="259.885" y="184.9941"/><text fill="#000000" font-family="DejaVu Sans" font-size="12" lengthAdjust="spacing" textLength="226.0723" x="269.885" y="206.25">Attach DPU/NIC/CXL/root-complex locality</text><text fill="#000000" font-family="DejaVu Sans" font-size="12" lengthAdjust="spacing" textLength="184.1016" x="269.885" y="220.0488">and qualified software stack profile</text><rect fill="#FFFFFF" height="319.6184" rx="6" ry="6" style="stroke:#000000;stroke-width:1;" width="660.9238" x="63.6404" y="254.5918"/><path d="M155.3367,254.5918 L155.3367,263.6904 L145.3367,273.6904 L63.6404,273.6904" fill="none" style="stroke:#000000;stroke-width:1;"/><text fill="#000000" font-family="DejaVu Sans" font-size="14" lengthAdjust="spacing" textLength="81.6963" x="66.6404" y="268.7236">Profile match</text><polygon fill="#FCF3CF" points="269.8086,290.6904,496.0337,290.6904,508.0337,302.6904,496.0337,314.6904,269.8086,314.6904,257.8086,302.6904,269.8086,290.6904" style="stroke:#B7950B;stroke-width:1;"/><text fill="#000000" font-family="DejaVu Sans" font-size="11" lengthAdjust="spacing" textLength="226.2251" x="269.8086" y="306.6838">model runtime qualified for accelerator profile?</text><text fill="#000000" font-family="DejaVu Sans" font-size="11" lengthAdjust="spacing" textLength="40.9761" x="216.8325" y="300.3594">qualified</text><text fill="#000000" font-family="DejaVu Sans" font-size="11" lengthAdjust="spacing" textLength="59.3237" x="508.0337" y="300.3594">not qualified</text><rect fill="#FDFEFE" height="47.5977" rx="6" ry="6" style="stroke:#566573;stroke-width:1;" width="278.0996" x="83.6404" y="324.6904"/><text fill="#000000" font-family="DejaVu Sans" font-size="12" lengthAdjust="spacing" textLength="258.0996" x="93.6404" y="345.9463">Compute admission score by HBM, KV capacity,</text><text fill="#000000" font-family="DejaVu Sans" font-size="12" lengthAdjust="spacing" textLength="212.7773" x="93.6404" y="359.7451">collective topology, rail affinity, and SLO</text><rect fill="#FDFEFE" height="33.7988" rx="6" ry="6" style="stroke:#566573;stroke-width:1;" width="322.8242" x="381.74" y="324.6904"/><text fill="#000000" font-family="DejaVu Sans" font-size="12" lengthAdjust="spacing" textLength="302.8242" x="391.74" y="345.9463">Exclude from production placement; allow lab profile only</text><polygon fill="#FCF3CF" points="382.9211,378.2881,394.9211,390.2881,382.9211,402.2881,370.9211,390.2881,382.9211,378.2881" style="stroke:#B7950B;stroke-width:1;"/><rect fill="#FDFEFE" height="47.5977" rx="6" ry="6" style="stroke:#566573;stroke-width:1;" width="324.125" x="220.8586" y="470.6125"/><text fill="#000000" font-family="DejaVu Sans" font-size="12" lengthAdjust="spacing" textLength="304.125" x="230.8586" y="491.8684">Require explicit HCCL/NCCL/RCCL/oneCCL qualification</text><text fill="#000000" font-family="DejaVu Sans" font-size="12" lengthAdjust="spacing" textLength="195.4395" x="230.8586" y="505.6672">with latency and failure drill evidence</text><polygon fill="#FCF3CF" points="290.2805,422.2881,475.5618,422.2881,487.5618,434.2881,475.5618,446.2881,290.2805,446.2881,278.2805,434.2881,290.2805,422.2881" style="stroke:#B7950B;stroke-width:1;"/><text fill="#000000" font-family="DejaVu Sans" font-size="11" lengthAdjust="spacing" textLength="29.3423" x="386.9211" y="456.606">mixed</text><text fill="#000000" font-family="DejaVu Sans" font-size="11" lengthAdjust="spacing" textLength="185.2813" x="290.2805" y="438.2815">mixed-vendor collective path needed?</text><polygon fill="#FCF3CF" points="382.9211,538.2102,394.9211,550.2102,382.9211,562.2102,370.9211,550.2102,382.9211,538.2102" style="stroke:#B7950B;stroke-width:1;"/><rect fill="#FFFFFF" height="145.8975" rx="6" ry="6" style="stroke:#000000;stroke-width:1;" width="683.4165" x="53.1477" y="584.2102"/><path d="M129.2922,584.2102 L129.2922,593.3088 L119.2922,603.3088 L53.1477,603.3088" fill="none" style="stroke:#000000;stroke-width:1;"/><text fill="#000000" font-family="DejaVu Sans" font-size="14" lengthAdjust="spacing" textLength="66.1445" x="56.1477" y="598.342">Placement</text><polygon fill="#FCF3CF" points="249.6213,620.3088,516.2209,620.3088,528.2209,632.3088,516.2209,644.3088,249.6213,644.3088,237.6213,632.3088,249.6213,620.3088" style="stroke:#B7950B;stroke-width:1;"/><text fill="#000000" font-family="DejaVu Sans" font-size="11" lengthAdjust="spacing" textLength="266.5996" x="249.6213" y="636.3022">same pod has model, KV, CXL pool, and healthy rails?</text><text fill="#000000" font-family="DejaVu Sans" font-size="11" lengthAdjust="spacing" textLength="22.623" x="214.9983" y="629.9778">local</text><text fill="#000000" font-family="DejaVu Sans" font-size="11" lengthAdjust="spacing" textLength="57.4707" x="528.2209" y="629.9778">remote/cold</text><rect fill="#FDFEFE" height="33.7988" rx="6" ry="6" style="stroke:#566573;stroke-width:1;" width="285.4473" x="73.1477" y="654.3088"/><text fill="#000000" font-family="DejaVu Sans" font-size="12" lengthAdjust="spacing" textLength="265.4473" x="83.1477" y="675.5647">Admit to local GPU/xPU set with Coherence lease</text><rect fill="#FDFEFE" height="33.7988" rx="6" ry="6" style="stroke:#566573;stroke-width:1;" width="342.752" x="378.595" y="654.3088"/><text fill="#000000" font-family="DejaVu Sans" font-size="12" lengthAdjust="spacing" textLength="322.752" x="388.595" y="675.5647">Prewarm, migrate model, or reject if TTFT/TPOT budget fails</text><polygon fill="#FCF3CF" points="382.9211,694.1077,394.9211,706.1077,382.9211,718.1077,370.9211,706.1077,382.9211,694.1077" style="stroke:#B7950B;stroke-width:1;"/><rect fill="#FFFFFF" height="163.2939" rx="6" ry="6" style="stroke:#000000;stroke-width:1;" width="324.1094" x="220.8665" y="740.1077"/><path d="M307.135,740.1077 L307.135,749.2063 L297.135,759.2063 L220.8665,759.2063" fill="none" style="stroke:#000000;stroke-width:1;"/><text fill="#000000" font-family="DejaVu Sans" font-size="14" lengthAdjust="spacing" textLength="76.2686" x="223.8665" y="754.2395">Governance</text><rect fill="#FDFEFE" height="47.5977" rx="6" ry="6" style="stroke:#566573;stroke-width:1;" width="258.1426" x="253.8499" y="776.2063"/><text fill="#000000" font-family="DejaVu Sans" font-size="12" lengthAdjust="spacing" textLength="237.4746" x="263.8499" y="797.4622">Publish only capability class and health state</text><text fill="#000000" font-family="DejaVu Sans" font-size="12" lengthAdjust="spacing" textLength="238.1426" x="263.8499" y="811.261">not vendor-specific hidden topology to actors</text><rect fill="#FDFEFE" height="47.5977" rx="6" ry="6" style="stroke:#566573;stroke-width:1;" width="304.1094" x="230.8665" y="843.804"/><text fill="#000000" font-family="DejaVu Sans" font-size="12" lengthAdjust="spacing" textLength="284.1094" x="240.8665" y="865.0598">Continuously demote on driver drift, ECC/RAS errors,</text><text fill="#000000" font-family="DejaVu Sans" font-size="12" lengthAdjust="spacing" textLength="228.7383" x="240.8665" y="878.8586">thermal throttling, rail errors, or DPU failure</text><ellipse cx="382.9211" cy="934.4016" fill="none" rx="11" ry="11" style="stroke:#000000;stroke-width:1;"/><ellipse cx="382.9211" cy="934.4016" fill="#FFFFFF" rx="6" ry="6" style="stroke:#000000;stroke-width:1;"/><line style="stroke:#34495E;stroke-width:1;" x1="382.9211" x2="382.9211" y1="164.9941" y2="184.9941"/><polygon fill="#34495E" points="378.9211,174.9941,382.9211,184.9941,386.9211,174.9941,382.9211,178.9941" style="stroke:#34495E;stroke-width:1;"/><line style="stroke:#34495E;stroke-width:1;" x1="382.9211" x2="382.9211" y1="71.2979" y2="117.3965"/><polygon fill="#34495E" points="378.9211,107.3965,382.9211,117.3965,386.9211,107.3965,382.9211,111.3965" style="stroke:#34495E;stroke-width:1;"/><line style="stroke:#34495E;stroke-width:1;" x1="257.8086" x2="222.6902" y1="302.6904" y2="302.6904"/><line style="stroke:#34495E;stroke-width:1;" x1="222.6902" x2="222.6902" y1="302.6904" y2="324.6904"/><polygon fill="#34495E" points="218.6902,314.6904,222.6902,324.6904,226.6902,314.6904,222.6902,318.6904" style="stroke:#34495E;stroke-width:1;"/><line style="stroke:#34495E;stroke-width:1;" x1="508.0337" x2="543.1521" y1="302.6904" y2="302.6904"/><line style="stroke:#34495E;stroke-width:1;" x1="543.1521" x2="543.1521" y1="302.6904" y2="324.6904"/><polygon fill="#34495E" points="539.1521,314.6904,543.1521,324.6904,547.1521,314.6904,543.1521,318.6904" style="stroke:#34495E;stroke-width:1;"/><line style="stroke:#34495E;stroke-width:1;" x1="222.6902" x2="222.6902" y1="372.2881" y2="390.2881"/><line style="stroke:#34495E;stroke-width:1;" x1="222.6902" x2="370.9211" y1="390.2881" y2="390.2881"/><polygon fill="#34495E" points="360.9211,386.2881,370.9211,390.2881,360.9211,394.2881,364.9211,390.2881" style="stroke:#34495E;stroke-width:1;"/><line style="stroke:#34495E;stroke-width:1;" x1="543.1521" x2="543.1521" y1="358.4893" y2="390.2881"/><line style="stroke:#34495E;stroke-width:1;" x1="543.1521" x2="394.9211" y1="390.2881" y2="390.2881"/><polygon fill="#34495E" points="404.9211,386.2881,394.9211,390.2881,404.9211,394.2881,400.9211,390.2881" style="stroke:#34495E;stroke-width:1;"/><line style="stroke:#34495E;stroke-width:1;" x1="382.9211" x2="382.9211" y1="446.2881" y2="470.6125"/><polygon fill="#34495E" points="378.9211,460.6125,382.9211,470.6125,386.9211,460.6125,382.9211,464.6125" style="stroke:#34495E;stroke-width:1;"/><line style="stroke:#34495E;stroke-width:1;" x1="487.5618" x2="554.9836" y1="434.2881" y2="434.2881"/><polygon fill="#34495E" points="550.9836,484.4114,554.9836,494.4114,558.9836,484.4114,554.9836,488.4114" style="stroke:#34495E;stroke-width:1;"/><line style="stroke:#34495E;stroke-width:1;" x1="554.9836" x2="554.9836" y1="434.2881" y2="550.2102"/><line style="stroke:#34495E;stroke-width:1;" x1="554.9836" x2="394.9211" y1="550.2102" y2="550.2102"/><polygon fill="#34495E" points="404.9211,546.2102,394.9211,550.2102,404.9211,554.2102,400.9211,550.2102" style="stroke:#34495E;stroke-width:1;"/><line style="stroke:#34495E;stroke-width:1;" x1="382.9211" x2="382.9211" y1="518.2102" y2="538.2102"/><polygon fill="#34495E" points="378.9211,528.2102,382.9211,538.2102,386.9211,528.2102,382.9211,532.2102" style="stroke:#34495E;stroke-width:1;"/><line style="stroke:#34495E;stroke-width:1;" x1="382.9211" x2="382.9211" y1="402.2881" y2="422.2881"/><polygon fill="#34495E" points="378.9211,412.2881,382.9211,422.2881,386.9211,412.2881,382.9211,416.2881" style="stroke:#34495E;stroke-width:1;"/><line style="stroke:#34495E;stroke-width:1;" x1="382.9211" x2="382.9211" y1="232.5918" y2="290.6904"/><polygon fill="#34495E" points="378.9211,280.6904,382.9211,290.6904,386.9211,280.6904,382.9211,284.6904" style="stroke:#34495E;stroke-width:1;"/><line style="stroke:#34495E;stroke-width:1;" x1="237.6213" x2="215.8713" y1="632.3088" y2="632.3088"/><line style="stroke:#34495E;stroke-width:1;" x1="215.8713" x2="215.8713" y1="632.3088" y2="654.3088"/><polygon fill="#34495E" points="211.8713,644.3088,215.8713,654.3088,219.8713,644.3088,215.8713,648.3088" style="stroke:#34495E;stroke-width:1;"/><line style="stroke:#34495E;stroke-width:1;" x1="528.2209" x2="549.9709" y1="632.3088" y2="632.3088"/><line style="stroke:#34495E;stroke-width:1;" x1="549.9709" x2="549.9709" y1="632.3088" y2="654.3088"/><polygon fill="#34495E" points="545.9709,644.3088,549.9709,654.3088,553.9709,644.3088,549.9709,648.3088" style="stroke:#34495E;stroke-width:1;"/><line style="stroke:#34495E;stroke-width:1;" x1="215.8713" x2="215.8713" y1="688.1077" y2="706.1077"/><line style="stroke:#34495E;stroke-width:1;" x1="215.8713" x2="370.9211" y1="706.1077" y2="706.1077"/><polygon fill="#34495E" points="360.9211,702.1077,370.9211,706.1077,360.9211,710.1077,364.9211,706.1077" style="stroke:#34495E;stroke-width:1;"/><line style="stroke:#34495E;stroke-width:1;" x1="549.9709" x2="549.9709" y1="688.1077" y2="706.1077"/><line style="stroke:#34495E;stroke-width:1;" x1="549.9709" x2="394.9211" y1="706.1077" y2="706.1077"/><polygon fill="#34495E" points="404.9211,702.1077,394.9211,706.1077,404.9211,710.1077,400.9211,706.1077" style="stroke:#34495E;stroke-width:1;"/><line style="stroke:#34495E;stroke-width:1;" x1="382.9211" x2="382.9211" y1="562.2102" y2="620.3088"/><polygon fill="#34495E" points="378.9211,610.3088,382.9211,620.3088,386.9211,610.3088,382.9211,614.3088" style="stroke:#34495E;stroke-width:1;"/><line style="stroke:#34495E;stroke-width:1;" x1="382.9211" x2="382.9211" y1="823.804" y2="843.804"/><polygon fill="#34495E" points="378.9211,833.804,382.9211,843.804,386.9211,833.804,382.9211,837.804" style="stroke:#34495E;stroke-width:1;"/><line style="stroke:#34495E;stroke-width:1;" x1="382.9211" x2="382.9211" y1="718.1077" y2="776.2063"/><polygon fill="#34495E" points="378.9211,766.2063,382.9211,776.2063,386.9211,766.2063,382.9211,770.2063" style="stroke:#34495E;stroke-width:1;"/><line style="stroke:#34495E;stroke-width:1;" x1="382.9211" x2="382.9211" y1="891.4016" y2="923.4016"/><polygon fill="#34495E" points="378.9211,913.4016,382.9211,923.4016,386.9211,913.4016,382.9211,917.4016" style="stroke:#34495E;stroke-width:1;"/><g class="legend" data-source-line="20"><rect fill="none" height="187.085" rx="6" ry="6" style="stroke:#000000;stroke-width:1;" width="577.1367" x="152.4275" y="949.4016"/><text fill="#000000" font-family="DejaVu Sans" font-size="14" lengthAdjust="spacing" textLength="368.0537" x="157.4275" y="967.5334">Design defaults for diagrams unless an ADR narrows them:</text><text fill="#000000" font-family="DejaVu Sans" font-size="14" lengthAdjust="spacing" textLength="528.3633" x="157.4275" y="983.6321">- Actor/API: HTTPS 443 or 8443; OpenAI-compatible API plus Coherence-native API.</text><text fill="#000000" font-family="DejaVu Sans" font-size="14" lengthAdjust="spacing" textLength="510.4258" x="157.4275" y="999.7307">- RoCEv2: UDP destination 4791; jumbo MTU 9000; PFC only on RDMA priorities.</text><text fill="#000000" font-family="DejaVu Sans" font-size="14" lengthAdjust="spacing" textLength="554.7432" x="157.4275" y="1015.8293">- NVMe-oF: discovery/controller service on TCP/RDMA port 4420; DPU-mediated targets.</text><text fill="#000000" font-family="DejaVu Sans" font-size="14" lengthAdjust="spacing" textLength="544.7012" x="157.4275" y="1031.928">- Telemetry: OTLP gRPC 4317, OTLP HTTP 4318, Prometheus 9090/9100, gNMI 9339.</text><text fill="#000000" font-family="DejaVu Sans" font-size="14" lengthAdjust="spacing" textLength="519.8252" x="157.4275" y="1048.0266">- Timing: PTP event/general UDP 319/320 on an isolated timing/management class.</text><text fill="#000000" font-family="DejaVu Sans" font-size="14" lengthAdjust="spacing" textLength="454.4121" x="157.4275" y="1064.1252">- VLAN plan: site-specific IDs are allowed, but classes must stay isolated:</text><text fill="#000000" font-family="DejaVu Sans" font-size="14" lengthAdjust="spacing" textLength="559.3574" x="165.2068" y="1080.2239">mgmt/OOB, frontend/API, RDMA rail-A, RDMA rail-B, storage/NVMe-oF, telemetry, timing.</text><text fill="#000000" font-family="DejaVu Sans" font-size="14" lengthAdjust="spacing" textLength="507.3564" x="157.4275" y="1096.3225">- Trunks: 802.1Q tagged uplinks; rail-A and rail-B must not share a failure domain.</text><text fill="#000000" font-family="DejaVu Sans" font-size="14" lengthAdjust="spacing" textLength="464.4951" x="157.4275" y="1112.4211">- Buffers: kv_hbm_active, kv_dram_warm, kv_cxl_warm, kv_rdma_staging,</text><text fill="#000000" font-family="DejaVu Sans" font-size="14" lengthAdjust="spacing" textLength="392.2119" x="165.2068" y="1128.5198">zfs_slog, zfs_arc, zfs_l2arc, object_cache, vector_head_cache.</text></g><?plantuml-src TLNRSjis47tNLspJbtI62dMnuqX-wCYK56lY2olBdZvunWCHIn8n22W0A5ljvD-x02bPIISl4d5Rd7FsxE8tLsA5i95Cg8vz5ch33Al0beph5w4Ao9cqUBHYTArufer20_t1qGB7dDNIpRLoDun2Jl4hUwZXZYbxj6jYZ7v9jDG6VX-Ud8nEPqUBB7DYAzmE_kq0NB3ikGYtjTldq_biFlChsd0qxUpfnu-dPqEQdGfMQSN_VooP3vFvqORZqnTdezFU1ItUEMPSEza_EPqC1pGvEmGP3GONWtxd-n5OfHt-0kXiFfgT_GoqlUfxnmad4IRJPRStw4CNBj6XqGKgrBM5psdtSteFYQusDLt058Uxh4HUInByizwYKKnbsEb8f2CSZ2XArvcY5ONQvy12JZTomGe2Qg5M4gsbKFvIKCodm89F_BZJXKdcj8adwM8CbwjLUWSd9qEWuv_e_nnkDwWcYsv6S9WJQmyyNP1T26cYIpH8MBgAbhPXvGC5NEfajXsCuNwQ4Y3hX5_M2axEHlrp-5fNQmtNgtiOzNgzSqZd2MWbT_G3o-dr13P6Q2ESGEk3tJnSOrVFnyJ6PfxzBix8OKPBhuT5inKP-hEh98sRyzeuuZ2WsDFqlbiXwU2G0oMuG1U2hb2IwPtPZU5sTPL2iKmJE1dspw9cx7NmuqyHf4RJpXA9xwWtwiMZVgyNGN5plO3HS3WAqKH5XJA6b0xX5fMBVIuDaq61ONyK3mSz3v4I8AoM3PfmAAwOOWLXKGuooMn0zt0rkV45gSPWXSEktM0cSf71Oaf9DEG9AVKByWZMTNiCBLIrTM0Tsntk69C3gw9oyUtjHGIv8Td8C3xJKQEqOK9s9yS3scV93GGfReMFmEt5YbhGWREfrRCTmwVUu4F_BzAsA8XKlP62fi_RoC6yJTm67fMCxooU0lKL8MlwuhgYrkDZNjHvZeQ2Fc-VodNr5Be1Hdx8oSTFBynKOPIzohU1uHLx8ju58Ok8yJ-vVR9I5r7uOYPhFkGWVEhrLypSKyQef2BOelV-KucCDrCVEgHGKrYTZlKjeKF5JWNh_VikOHks5j8tAA5yehNPlGijO3njtKajB2Ez3ACr2gyubLQbESe8BY-k8pf7jKu6LdHpzAWoR-D0qqPaVCgpfPiYk5vyZk-MtSNjGmJSqBA9IN2I7y_zRHFd2AstTtopIEBaxwlOQEr2bKfy1Qapvc4-Af-1RpKDSa7viJftBrv-efOzquKw5v92VZzccJQpK36NbGqzaSFxm09Q54SnVQSv9jq6_VCFts0Kl3_i_8C24VP3O-ELi9uja784QRrh5Fho01dfd17y7mG2fpVKI0koeRSKi3mNoczgMkJLhLS6wQs2zzvcFryxUyrapT6NGUKnyZeBTAdEib1_vqrPWMJhFOVGbq9OnKM-rq6y8kysgOKZUDGUIr287Fc1UzZR0bZYjreGJtob8Y5sS9aaL_6D_rdw7wsG_lQuiz0o7zMBeAY-cbMs2qGFPME4bDHk1FST-0taZwdSatjBe_LFyqPpA1drZCQPNyXbv26QrhAHaof2kd8NbBO7Ei5MBPq9fSzHJXglqQjr7x_IisNHGS1yU1n08hFubXo35JsSrCJbNfdKO5FDbQ3tYgpHmY9z3VfozS1Ng_agNgMtAsfwdFfu4CB-WlVRCzcMPrglfR1byz1aRsKSckSHOryO3X-LTr2JuhVkMmfEMXziwBaptpu22B8r5OQgwGMd6tZWw5j-Kxp-BtSHp98aNaxk0Ea5DfRiJRgQYkHpfT7EIT_26dUtExm6LENxhFjAfVwy-Gy0?></g></svg>