<?plantuml 1.2026.1?><svg xmlns="http://www.w3.org/2000/svg" xmlns:xlink="http://www.w3.org/1999/xlink" contentStyleType="text/css" data-diagram-type="DESCRIPTION" height="161px" preserveAspectRatio="none" style="width:1897px;height:161px;background:#FFFFFF;" version="1.1" viewBox="0 0 1897 161" width="1897px" zoomAndPan="magnify"><title>13. Failure Semantics and Fencing</title><defs/><g><g class="title" data-source-line="2"><text fill="#000000" font-family="DejaVu Sans" font-size="22" font-weight="bold" lengthAdjust="spacing" textLength="360.6689" x="763.7073" y="35.6357">13. Failure Semantics and Fencing</text></g><!--entity N1--><g class="entity" data-qualified-name="N1" data-source-line="8" id="ent0002"><rect fill="#D6EAF8" height="36.0986" rx="6" ry="6" style="stroke:#000000;stroke-width:1;" width="117.2686" x="12" y="58.2979"/><text fill="#000000" font-family="DejaVu Sans" font-size="14" lengthAdjust="spacing" textLength="97.2686" x="22" y="81.4297">Failure detector</text></g><!--entity N2--><g class="entity" data-qualified-name="N2" data-source-line="9" id="ent0003"><rect fill="#D5F5E3" height="36.0986" rx="6" ry="6" style="stroke:#000000;stroke-width:1;" width="116.4961" x="253.27" y="58.2979"/><text fill="#000000" font-family="DejaVu Sans" font-size="14" lengthAdjust="spacing" textLength="96.4961" x="263.27" y="81.4297">Fence authority</text></g><!--entity N3--><g class="entity" data-qualified-name="N3" data-source-line="10" id="ent0004"><rect fill="#FCF3CF" height="36.0986" rx="6" ry="6" style="stroke:#000000;stroke-width:1;" width="129.7373" x="532.76" y="58.2979"/><text fill="#000000" font-family="DejaVu Sans" font-size="14" lengthAdjust="spacing" textLength="109.7373" x="542.76" y="81.4297">Coherence scope</text></g><!--entity N4--><g class="entity" data-qualified-name="N4" data-source-line="11" id="ent0005"><rect fill="#E8DAEF" height="36.0986" rx="6" ry="6" style="stroke:#000000;stroke-width:1;" width="140.6064" x="791.5" y="58.2979"/><text fill="#000000" font-family="DejaVu Sans" font-size="14" lengthAdjust="spacing" textLength="120.6064" x="801.5" y="81.4297">Storage/fabric/DPU</text></g><!--entity N5--><g class="entity" data-qualified-name="N5" data-source-line="12" id="ent0006"><rect fill="#FADBD8" height="36.0986" rx="6" ry="6" style="stroke:#000000;stroke-width:1;" width="137.4756" x="1425.36" y="58.2979"/><text fill="#000000" font-family="DejaVu Sans" font-size="14" lengthAdjust="spacing" textLength="117.4756" x="1435.36" y="81.4297">Recovery workflow</text></g><g class="entity" data-qualified-name="GMN11" data-source-line="20" id="ent0012"><path d="M1098.11,135.8679 L1098.11,148.8166 A6,6 0 0 0 1104.11,154.8166 L1884.0836,154.8166 A6,6 0 0 0 1890.0836,148.8166 L1890.0836,139.8679 L1880.0836,129.8679 L1498.1,129.8679 L1494.1,94.5979 L1490.1,129.8679 L1104.11,129.8679 A6,6 0 0 0 1098.11,135.8679" fill="#FFFFFF" style="stroke:#000000;stroke-width:1;"/><path d="M1880.0836,129.8679 L1880.0836,136.8679 A3,3 0 0 0 1883.0836,139.8679 L1890.0836,139.8679 L1880.0836,129.8679" fill="#FFFFFF" style="stroke:#000000;stroke-width:1;"/><text fill="#000000" font-family="DejaVu Sans" font-size="13" lengthAdjust="spacing" textLength="770.9736" x="1104.11" y="147.0617">Actor-facing contract: lower-layer resource identifiers remain hidden unless the ADR explicitly defines them as operator-only evidence.</text></g><!--link N1 to N2--><g class="link" data-entity-1="ent0002" data-entity-2="ent0003" data-link-type="dependency" data-source-line="14" id="lnk7"><path d="M129.77,76.3479 C167.19,76.3479 209.64,76.3479 246.95,76.3479" fill="none" id="N1-to-N2" style="stroke:#000000;stroke-width:1;"/><polygon fill="#000000" points="252.95,76.3479,243.95,72.3479,247.95,76.3479,243.95,80.3479,252.95,76.3479" style="stroke:#000000;stroke-width:1;"/><text fill="#000000" font-family="DejaVu Sans" font-size="13" lengthAdjust="spacing" textLength="62.1499" x="160.27" y="73.5417">fault signal</text></g><!--link N2 to N3--><g class="link" data-entity-1="ent0003" data-entity-2="ent0004" data-link-type="dependency" data-source-line="15" id="lnk8"><path d="M370.01,76.3479 C417.03,76.3479 477.49,76.3479 526.28,76.3479" fill="none" id="N2-to-N3" style="stroke:#000000;stroke-width:1;"/><polygon fill="#000000" points="532.28,76.3479,523.28,72.3479,527.28,76.3479,523.28,80.3479,532.28,76.3479" style="stroke:#000000;stroke-width:1;"/><text fill="#000000" font-family="DejaVu Sans" font-size="13" lengthAdjust="spacing" textLength="101.8862" x="400.76" y="73.5417">ownership revoke</text></g><!--link N3 to N4--><g class="link" data-entity-1="ent0004" data-entity-2="ent0005" data-link-type="dependency" data-source-line="16" id="lnk9"><path d="M662.77,76.3479 C701.73,76.3479 745.47,76.3479 785.36,76.3479" fill="none" id="N3-to-N4" style="stroke:#000000;stroke-width:1;"/><polygon fill="#000000" points="791.36,76.3479,782.36,72.3479,786.36,76.3479,782.36,80.3479,791.36,76.3479" style="stroke:#000000;stroke-width:1;"/><text fill="#000000" font-family="DejaVu Sans" font-size="13" lengthAdjust="spacing" textLength="67.209" x="693.5" y="73.5417">scope drain</text></g><!--link N4 to N5--><g class="link" data-entity-1="ent0005" data-entity-2="ent0006" data-link-type="dependency" data-source-line="17" id="lnk10"><path d="M932.36,76.3479 C1054.18,76.3479 1298.63,76.3479 1419.24,76.3479" fill="none" id="N4-to-N5" style="stroke:#000000;stroke-width:1;"/><polygon fill="#000000" points="1425.24,76.3479,1416.24,72.3479,1420.24,76.3479,1416.24,80.3479,1425.24,76.3479" style="stroke:#000000;stroke-width:1;"/><text fill="#000000" font-family="DejaVu Sans" font-size="13" lengthAdjust="spacing" textLength="104.7617" x="963.11" y="73.5417">lower-layer isolate</text></g><?plantuml-src LL91Rjim4Bpp5Tlux0IEuiBeeO1gMSUWYD7UD-HAOarnXILbrx_lKaO1-qRC33d3dVsI1ne9fe0-cknp8DXKpz2Y3xCG76d4cBrDWD51Iz7ws9jqyd52mH7IW8ulYa678T4T8pn7PraY2MnUxmX77SuXjnppEwfrGt_mzmn7ZCa4wZ9a1l7zaC5v8PizHsFA0MElwPx-HtEK5MHv0apmle5Ly_LGjxi7gUObm3aFB3vVRyfNLMxRxQ6wL-vv85dKoV94DsK5gtRVLllsNdbKI-pffSDFyVQb-Vdh9dw3rM7Nr8S7yGTPFfDSuS9owW9VRjgjFbmtFvgTCHfylVvUKds3PIwGV1yn64KMebA2Bph5DFW9XCvy8gFeGhufkGG69wL01HPygxYwaQm3NhK0dpXW9cCYPu9Fpfb7KvVfhJiibOBLEWHjVhmdb7WMdOftf6lGUOsXuAXUC7Yd8CmnK4gWQmHrym7qTmhUwXvTIz4-qaADvTiQKx1OSbIMpkLDIy-6TBDAhdy0?></g></svg>