<?plantuml 1.2026.1?><svg xmlns="http://www.w3.org/2000/svg" xmlns:xlink="http://www.w3.org/1999/xlink" contentStyleType="text/css" data-diagram-type="ACTIVITY" height="1157px" preserveAspectRatio="none" style="width:641px;height:1157px;background:#FFFFFF;" version="1.1" viewBox="0 0 641 1157" width="641px" zoomAndPan="magnify"><title>ADR-001 - Inference SLO Contract and Storage Admission</title><defs/><g><g class="title" data-source-line="18"><text fill="#000000" font-family="DejaVu Sans" font-size="22" font-weight="bold" lengthAdjust="spacing" textLength="608.7813" x="15" y="35.6357">ADR-001 - Inference SLO Contract and Storage Admission</text></g><ellipse cx="314.8821" cy="61.2979" fill="#145A32" rx="10" ry="10" style="stroke:#000000;stroke-width:1;"/><rect fill="#FFFFFF" height="177.0928" rx="6" ry="6" style="stroke:#000000;stroke-width:1;" width="248.8105" x="190.4768" y="81.2979"/><path d="M295.4211,81.2979 L295.4211,90.3965 L285.4211,100.3965 L190.4768,100.3965" fill="none" style="stroke:#000000;stroke-width:1;"/><text fill="#000000" font-family="DejaVu Sans" font-size="14" lengthAdjust="spacing" textLength="94.9443" x="193.4768" y="95.4297">Actor boundary</text><rect fill="#FDFEFE" height="61.3965" rx="6" ry="6" style="stroke:#566573;stroke-width:1;" width="201.4238" x="214.1702" y="117.3965"/><text fill="#000000" font-family="DejaVu Sans" font-size="12" lengthAdjust="spacing" textLength="171.416" x="224.1702" y="138.6523">Client submits inference request</text><text fill="#000000" font-family="DejaVu Sans" font-size="12" lengthAdjust="spacing" textLength="168.7441" x="224.1702" y="152.4512">OpenAI-compatible HTTPS 443</text><text fill="#000000" font-family="DejaVu Sans" font-size="12" lengthAdjust="spacing" textLength="181.4238" x="224.1702" y="166.25">or Coherence-native HTTPS 8443</text><rect fill="#FDFEFE" height="47.5977" rx="6" ry="6" style="stroke:#566573;stroke-width:1;" width="228.8105" x="200.4768" y="198.793"/><text fill="#000000" font-family="DejaVu Sans" font-size="12" lengthAdjust="spacing" textLength="208.8105" x="210.4768" y="220.0488">Attach tenant_id, model_id, adapter_id,</text><text fill="#000000" font-family="DejaVu Sans" font-size="12" lengthAdjust="spacing" textLength="189.4219" x="210.4768" y="233.8477">slo_class, privacy_domain, trace_id</text><rect fill="#FFFFFF" height="303.2939" rx="6" ry="6" style="stroke:#000000;stroke-width:1;" width="561.8447" x="27.803" y="268.3906"/><path d="M170.0852,268.3906 L170.0852,277.4893 L160.0852,287.4893 L27.803,287.4893" fill="none" style="stroke:#000000;stroke-width:1;"/><text fill="#000000" font-family="DejaVu Sans" font-size="14" lengthAdjust="spacing" textLength="132.2822" x="30.803" y="282.5225">Coherence-CE policy</text><polygon fill="#FCF3CF" points="226.2161,304.4893,403.5481,304.4893,415.5481,316.4893,403.5481,328.4893,226.2161,328.4893,214.2161,316.4893,226.2161,304.4893" style="stroke:#B7950B;stroke-width:1;"/><text fill="#000000" font-family="DejaVu Sans" font-size="11" lengthAdjust="spacing" textLength="177.332" x="226.2161" y="320.4827">SLO class declared and authorized?</text><text fill="#000000" font-family="DejaVu Sans" font-size="11" lengthAdjust="spacing" textLength="17.1177" x="197.0984" y="314.1582">yes</text><text fill="#000000" font-family="DejaVu Sans" font-size="11" lengthAdjust="spacing" textLength="12.2354" x="415.5481" y="314.1582">no</text><rect fill="#FDFEFE" height="47.5977" rx="6" ry="6" style="stroke:#566573;stroke-width:1;" width="258.1309" x="64.429" y="338.4893"/><text fill="#000000" font-family="DejaVu Sans" font-size="12" lengthAdjust="spacing" textLength="151.3652" x="74.429" y="359.7451">Map request to TTFT/TPOT,</text><text fill="#000000" font-family="DejaVu Sans" font-size="12" lengthAdjust="spacing" textLength="238.1309" x="74.429" y="373.5439">KV residency, retrieval, and durability budget</text><rect fill="#FDFEFE" height="47.5977" rx="6" ry="6" style="stroke:#566573;stroke-width:1;" width="187.4199" x="342.5598" y="338.4893"/><text fill="#000000" font-family="DejaVu Sans" font-size="12" lengthAdjust="spacing" textLength="167.4199" x="352.5598" y="359.7451">Use conservative default profile</text><text fill="#000000" font-family="DejaVu Sans" font-size="12" lengthAdjust="spacing" textLength="160.7461" x="352.5598" y="373.5439">or reject policy-unsafe request</text><polygon fill="#FCF3CF" points="314.8821,392.0869,326.8821,404.0869,314.8821,416.0869,302.8821,404.0869,314.8821,392.0869" style="stroke:#B7950B;stroke-width:1;"/><polygon fill="#FCF3CF" points="200.843,436.0869,428.9211,436.0869,440.9211,448.0869,428.9211,460.0869,200.843,460.0869,188.843,448.0869,200.843,436.0869" style="stroke:#B7950B;stroke-width:1;"/><text fill="#000000" font-family="DejaVu Sans" font-size="11" lengthAdjust="spacing" textLength="228.0781" x="200.843" y="452.0803">Hot path requires storage knowledge by actor?</text><text fill="#000000" font-family="DejaVu Sans" font-size="11" lengthAdjust="spacing" textLength="17.1177" x="171.7253" y="445.7559">yes</text><text fill="#000000" font-family="DejaVu Sans" font-size="11" lengthAdjust="spacing" textLength="12.2354" x="440.9211" y="445.7559">no</text><rect fill="#FDFEFE" height="47.5977" rx="6" ry="6" style="stroke:#566573;stroke-width:1;" width="262.0801" x="47.803" y="470.0869"/><text fill="#000000" font-family="DejaVu Sans" font-size="12" lengthAdjust="spacing" textLength="178.752" x="57.803" y="491.3428">Reject contract: actors never bind</text><text fill="#000000" font-family="DejaVu Sans" font-size="12" lengthAdjust="spacing" textLength="242.0801" x="57.803" y="505.1416">to OpenZFS, DPU, RoCEv2, CXL, or UA-Link</text><ellipse cx="178.843" cy="548.6846" fill="none" rx="11" ry="11" style="stroke:#000000;stroke-width:1;"/><ellipse cx="178.843" cy="548.6846" fill="#FFFFFF" rx="6" ry="6" style="stroke:#000000;stroke-width:1;"/><rect fill="#FDFEFE" height="33.7988" rx="6" ry="6" style="stroke:#566573;stroke-width:1;" width="237.4531" x="332.1946" y="470.0869"/><text fill="#000000" font-family="DejaVu Sans" font-size="12" lengthAdjust="spacing" textLength="217.4531" x="342.1946" y="491.3428">Keep lower layers behind Coherence-CE</text><rect fill="#FFFFFF" height="159.6963" rx="6" ry="6" style="stroke:#000000;stroke-width:1;" width="576.1543" x="37.824" y="581.6846"/><path d="M176.2234,581.6846 L176.2234,590.7832 L166.2234,600.7832 L37.824,600.7832" fill="none" style="stroke:#000000;stroke-width:1;"/><text fill="#000000" font-family="DejaVu Sans" font-size="14" lengthAdjust="spacing" textLength="128.3994" x="40.824" y="595.8164">Resource placement</text><polygon fill="#FCF3CF" points="226.8311,617.7832,402.9331,617.7832,414.9331,629.7832,402.9331,641.7832,226.8311,641.7832,214.8311,629.7832,226.8311,617.7832" style="stroke:#B7950B;stroke-width:1;"/><text fill="#000000" font-family="DejaVu Sans" font-size="11" lengthAdjust="spacing" textLength="176.1021" x="226.8311" y="633.7766">kv_hbm_active and model resident?</text><text fill="#000000" font-family="DejaVu Sans" font-size="11" lengthAdjust="spacing" textLength="15.2915" x="199.5396" y="627.4521">hot</text><text fill="#000000" font-family="DejaVu Sans" font-size="11" lengthAdjust="spacing" textLength="50.123" x="414.9331" y="627.4521">warm/cold</text><rect fill="#FDFEFE" height="47.5977" rx="6" ry="6" style="stroke:#566573;stroke-width:1;" width="232.0391" x="57.824" y="651.7832"/><text fill="#000000" font-family="DejaVu Sans" font-size="12" lengthAdjust="spacing" textLength="161.4141" x="67.824" y="673.0391">Admit to local accelerator path</text><text fill="#000000" font-family="DejaVu Sans" font-size="12" lengthAdjust="spacing" textLength="212.0391" x="67.824" y="686.8379">HBM/DRAM, same NUMA/root complex</text><rect fill="#FDFEFE" height="47.5977" rx="6" ry="6" style="stroke:#566573;stroke-width:1;" width="292.1152" x="309.863" y="651.7832"/><text fill="#000000" font-family="DejaVu Sans" font-size="12" lengthAdjust="spacing" textLength="225.4043" x="319.863" y="673.0391">Plan warm hydration from kv_dram_warm,</text><text fill="#000000" font-family="DejaVu Sans" font-size="12" lengthAdjust="spacing" textLength="272.1152" x="319.863" y="686.8379">kv_cxl_warm, object_cache, or OpenZFS substrate</text><polygon fill="#FCF3CF" points="314.8821,705.3809,326.8821,717.3809,314.8821,729.3809,302.8821,717.3809,314.8821,705.3809" style="stroke:#B7950B;stroke-width:1;"/><rect fill="#FFFFFF" height="159.6963" rx="6" ry="6" style="stroke:#000000;stroke-width:1;" width="535.9199" x="43.6599" y="751.3809"/><path d="M175.825,751.3809 L175.825,760.4795 L165.825,770.4795 L43.6599,770.4795" fill="none" style="stroke:#000000;stroke-width:1;"/><text fill="#000000" font-family="DejaVu Sans" font-size="14" lengthAdjust="spacing" textLength="122.165" x="46.6599" y="765.5127">Admission outcome</text><polygon fill="#FCF3CF" points="233.8645,787.4795,395.8997,787.4795,407.8997,799.4795,395.8997,811.4795,233.8645,811.4795,221.8645,799.4795,233.8645,787.4795" style="stroke:#B7950B;stroke-width:1;"/><text fill="#000000" font-family="DejaVu Sans" font-size="11" lengthAdjust="spacing" textLength="162.0352" x="233.8645" y="803.4729">all budgets have fresh telemetry?</text><text fill="#000000" font-family="DejaVu Sans" font-size="11" lengthAdjust="spacing" textLength="81.2915" x="140.573" y="797.1484">GREEN/AMBER</text><text fill="#000000" font-family="DejaVu Sans" font-size="11" lengthAdjust="spacing" textLength="60.5054" x="407.8997" y="797.1484">RED/DRAIN</text><rect fill="#FDFEFE" height="47.5977" rx="6" ry="6" style="stroke:#566573;stroke-width:1;" width="244.4844" x="63.6599" y="821.4795"/><text fill="#000000" font-family="DejaVu Sans" font-size="12" lengthAdjust="spacing" textLength="224.4844" x="73.6599" y="842.7354">Return admission lease + deadline budget</text><text fill="#000000" font-family="DejaVu Sans" font-size="12" lengthAdjust="spacing" textLength="182.7773" x="73.6599" y="856.5342">without leaking topology identifiers</text><rect fill="#FDFEFE" height="47.5977" rx="6" ry="6" style="stroke:#566573;stroke-width:1;" width="231.4355" x="328.1443" y="821.4795"/><text fill="#000000" font-family="DejaVu Sans" font-size="12" lengthAdjust="spacing" textLength="211.4355" x="338.1443" y="842.7354">Throttle, queue, move model, or fail fast</text><text fill="#000000" font-family="DejaVu Sans" font-size="12" lengthAdjust="spacing" textLength="162.0703" x="338.1443" y="856.5342">with retryable Coherence error</text><polygon fill="#FCF3CF" points="314.8821,875.0771,326.8821,887.0771,314.8821,899.0771,302.8821,887.0771,314.8821,875.0771" style="stroke:#B7950B;stroke-width:1;"/><ellipse cx="314.8821" cy="942.0771" fill="none" rx="11" ry="11" style="stroke:#000000;stroke-width:1;"/><ellipse cx="314.8821" cy="942.0771" fill="#FFFFFF" rx="6" ry="6" style="stroke:#000000;stroke-width:1;"/><line style="stroke:#34495E;stroke-width:1;" x1="314.8821" x2="314.8821" y1="178.793" y2="198.793"/><polygon fill="#34495E" points="310.8821,188.793,314.8821,198.793,318.8821,188.793,314.8821,192.793" style="stroke:#34495E;stroke-width:1;"/><line style="stroke:#34495E;stroke-width:1;" x1="314.8821" x2="314.8821" y1="71.2979" y2="117.3965"/><polygon fill="#34495E" points="310.8821,107.3965,314.8821,117.3965,318.8821,107.3965,314.8821,111.3965" style="stroke:#34495E;stroke-width:1;"/><line style="stroke:#34495E;stroke-width:1;" x1="214.2161" x2="193.4944" y1="316.4893" y2="316.4893"/><line style="stroke:#34495E;stroke-width:1;" x1="193.4944" x2="193.4944" y1="316.4893" y2="338.4893"/><polygon fill="#34495E" points="189.4944,328.4893,193.4944,338.4893,197.4944,328.4893,193.4944,332.4893" style="stroke:#34495E;stroke-width:1;"/><line style="stroke:#34495E;stroke-width:1;" x1="415.5481" x2="436.2698" y1="316.4893" y2="316.4893"/><line style="stroke:#34495E;stroke-width:1;" x1="436.2698" x2="436.2698" y1="316.4893" y2="338.4893"/><polygon fill="#34495E" points="432.2698,328.4893,436.2698,338.4893,440.2698,328.4893,436.2698,332.4893" style="stroke:#34495E;stroke-width:1;"/><line style="stroke:#34495E;stroke-width:1;" x1="193.4944" x2="193.4944" y1="386.0869" y2="404.0869"/><line style="stroke:#34495E;stroke-width:1;" x1="193.4944" x2="302.8821" y1="404.0869" y2="404.0869"/><polygon fill="#34495E" points="292.8821,400.0869,302.8821,404.0869,292.8821,408.0869,296.8821,404.0869" style="stroke:#34495E;stroke-width:1;"/><line style="stroke:#34495E;stroke-width:1;" x1="436.2698" x2="436.2698" y1="386.0869" y2="404.0869"/><line style="stroke:#34495E;stroke-width:1;" x1="436.2698" x2="326.8821" y1="404.0869" y2="404.0869"/><polygon fill="#34495E" points="336.8821,400.0869,326.8821,404.0869,336.8821,408.0869,332.8821,404.0869" style="stroke:#34495E;stroke-width:1;"/><line style="stroke:#34495E;stroke-width:1;" x1="178.843" x2="178.843" y1="517.6846" y2="537.6846"/><polygon fill="#34495E" points="174.843,527.6846,178.843,537.6846,182.843,527.6846,178.843,531.6846" style="stroke:#34495E;stroke-width:1;"/><line style="stroke:#34495E;stroke-width:1;" x1="188.843" x2="178.843" y1="448.0869" y2="448.0869"/><line style="stroke:#34495E;stroke-width:1;" x1="178.843" x2="178.843" y1="448.0869" y2="470.0869"/><polygon fill="#34495E" points="174.843,460.0869,178.843,470.0869,182.843,460.0869,178.843,464.0869" style="stroke:#34495E;stroke-width:1;"/><line style="stroke:#34495E;stroke-width:1;" x1="440.9211" x2="450.9211" y1="448.0869" y2="448.0869"/><line style="stroke:#34495E;stroke-width:1;" x1="450.9211" x2="450.9211" y1="448.0869" y2="470.0869"/><polygon fill="#34495E" points="446.9211,460.0869,450.9211,470.0869,454.9211,460.0869,450.9211,464.0869" style="stroke:#34495E;stroke-width:1;"/><line style="stroke:#34495E;stroke-width:1;" x1="450.9211" x2="450.9211" y1="503.8857" y2="564.6846"/><line style="stroke:#34495E;stroke-width:1;" x1="450.9211" x2="314.8821" y1="564.6846" y2="564.6846"/><line style="stroke:#34495E;stroke-width:1;" x1="314.8821" x2="314.8821" y1="564.6846" y2="617.7832"/><polygon fill="#34495E" points="310.8821,607.7832,314.8821,617.7832,318.8821,607.7832,314.8821,611.7832" style="stroke:#34495E;stroke-width:1;"/><line style="stroke:#34495E;stroke-width:1;" x1="314.8821" x2="314.8821" y1="416.0869" y2="436.0869"/><polygon fill="#34495E" points="310.8821,426.0869,314.8821,436.0869,318.8821,426.0869,314.8821,430.0869" style="stroke:#34495E;stroke-width:1;"/><line style="stroke:#34495E;stroke-width:1;" x1="314.8821" x2="314.8821" y1="246.3906" y2="304.4893"/><polygon fill="#34495E" points="310.8821,294.4893,314.8821,304.4893,318.8821,294.4893,314.8821,298.4893" style="stroke:#34495E;stroke-width:1;"/><line style="stroke:#34495E;stroke-width:1;" x1="214.8311" x2="173.8435" y1="629.7832" y2="629.7832"/><line style="stroke:#34495E;stroke-width:1;" x1="173.8435" x2="173.8435" y1="629.7832" y2="651.7832"/><polygon fill="#34495E" points="169.8435,641.7832,173.8435,651.7832,177.8435,641.7832,173.8435,645.7832" style="stroke:#34495E;stroke-width:1;"/><line style="stroke:#34495E;stroke-width:1;" x1="414.9331" x2="455.9207" y1="629.7832" y2="629.7832"/><line style="stroke:#34495E;stroke-width:1;" x1="455.9207" x2="455.9207" y1="629.7832" y2="651.7832"/><polygon fill="#34495E" points="451.9207,641.7832,455.9207,651.7832,459.9207,641.7832,455.9207,645.7832" style="stroke:#34495E;stroke-width:1;"/><line style="stroke:#34495E;stroke-width:1;" x1="173.8435" x2="173.8435" y1="699.3809" y2="717.3809"/><line style="stroke:#34495E;stroke-width:1;" x1="173.8435" x2="302.8821" y1="717.3809" y2="717.3809"/><polygon fill="#34495E" points="292.8821,713.3809,302.8821,717.3809,292.8821,721.3809,296.8821,717.3809" style="stroke:#34495E;stroke-width:1;"/><line style="stroke:#34495E;stroke-width:1;" x1="455.9207" x2="455.9207" y1="699.3809" y2="717.3809"/><line style="stroke:#34495E;stroke-width:1;" x1="455.9207" x2="326.8821" y1="717.3809" y2="717.3809"/><polygon fill="#34495E" points="336.8821,713.3809,326.8821,717.3809,336.8821,721.3809,332.8821,717.3809" style="stroke:#34495E;stroke-width:1;"/><line style="stroke:#34495E;stroke-width:1;" x1="221.8645" x2="185.9021" y1="799.4795" y2="799.4795"/><line style="stroke:#34495E;stroke-width:1;" x1="185.9021" x2="185.9021" y1="799.4795" y2="821.4795"/><polygon fill="#34495E" points="181.9021,811.4795,185.9021,821.4795,189.9021,811.4795,185.9021,815.4795" style="stroke:#34495E;stroke-width:1;"/><line style="stroke:#34495E;stroke-width:1;" x1="407.8997" x2="443.8621" y1="799.4795" y2="799.4795"/><line style="stroke:#34495E;stroke-width:1;" x1="443.8621" x2="443.8621" y1="799.4795" y2="821.4795"/><polygon fill="#34495E" points="439.8621,811.4795,443.8621,821.4795,447.8621,811.4795,443.8621,815.4795" style="stroke:#34495E;stroke-width:1;"/><line style="stroke:#34495E;stroke-width:1;" x1="185.9021" x2="185.9021" y1="869.0771" y2="887.0771"/><line style="stroke:#34495E;stroke-width:1;" x1="185.9021" x2="302.8821" y1="887.0771" y2="887.0771"/><polygon fill="#34495E" points="292.8821,883.0771,302.8821,887.0771,292.8821,891.0771,296.8821,887.0771" style="stroke:#34495E;stroke-width:1;"/><line style="stroke:#34495E;stroke-width:1;" x1="443.8621" x2="443.8621" y1="869.0771" y2="887.0771"/><line style="stroke:#34495E;stroke-width:1;" x1="443.8621" x2="326.8821" y1="887.0771" y2="887.0771"/><polygon fill="#34495E" points="336.8821,883.0771,326.8821,887.0771,336.8821,891.0771,332.8821,887.0771" style="stroke:#34495E;stroke-width:1;"/><line style="stroke:#34495E;stroke-width:1;" x1="314.8821" x2="314.8821" y1="729.3809" y2="787.4795"/><polygon fill="#34495E" points="310.8821,777.4795,314.8821,787.4795,318.8821,777.4795,314.8821,781.4795" style="stroke:#34495E;stroke-width:1;"/><line style="stroke:#34495E;stroke-width:1;" x1="314.8821" x2="314.8821" y1="899.0771" y2="931.0771"/><polygon fill="#34495E" points="310.8821,921.0771,314.8821,931.0771,318.8821,921.0771,314.8821,925.0771" style="stroke:#34495E;stroke-width:1;"/><g class="legend" data-source-line="20"><rect fill="none" height="187.085" rx="6" ry="6" style="stroke:#000000;stroke-width:1;" width="577.1367" x="30.8223" y="957.0771"/><text fill="#000000" font-family="DejaVu Sans" font-size="14" lengthAdjust="spacing" textLength="368.0537" x="35.8223" y="975.209">Design defaults for diagrams unless an ADR narrows them:</text><text fill="#000000" font-family="DejaVu Sans" font-size="14" lengthAdjust="spacing" textLength="528.3633" x="35.8223" y="991.3076">- Actor/API: HTTPS 443 or 8443; OpenAI-compatible API plus Coherence-native API.</text><text fill="#000000" font-family="DejaVu Sans" font-size="14" lengthAdjust="spacing" textLength="510.4258" x="35.8223" y="1007.4063">- RoCEv2: UDP destination 4791; jumbo MTU 9000; PFC only on RDMA priorities.</text><text fill="#000000" font-family="DejaVu Sans" font-size="14" lengthAdjust="spacing" textLength="554.7432" x="35.8223" y="1023.5049">- NVMe-oF: discovery/controller service on TCP/RDMA port 4420; DPU-mediated targets.</text><text fill="#000000" font-family="DejaVu Sans" font-size="14" lengthAdjust="spacing" textLength="544.7012" x="35.8223" y="1039.6035">- Telemetry: OTLP gRPC 4317, OTLP HTTP 4318, Prometheus 9090/9100, gNMI 9339.</text><text fill="#000000" font-family="DejaVu Sans" font-size="14" lengthAdjust="spacing" textLength="519.8252" x="35.8223" y="1055.7021">- Timing: PTP event/general UDP 319/320 on an isolated timing/management class.</text><text fill="#000000" font-family="DejaVu Sans" font-size="14" lengthAdjust="spacing" textLength="454.4121" x="35.8223" y="1071.8008">- VLAN plan: site-specific IDs are allowed, but classes must stay isolated:</text><text fill="#000000" font-family="DejaVu Sans" font-size="14" lengthAdjust="spacing" textLength="559.3574" x="43.6016" y="1087.8994">mgmt/OOB, frontend/API, RDMA rail-A, RDMA rail-B, storage/NVMe-oF, telemetry, timing.</text><text fill="#000000" font-family="DejaVu Sans" font-size="14" lengthAdjust="spacing" textLength="507.3564" x="35.8223" y="1103.998">- Trunks: 802.1Q tagged uplinks; rail-A and rail-B must not share a failure domain.</text><text fill="#000000" font-family="DejaVu Sans" font-size="14" lengthAdjust="spacing" textLength="464.4951" x="35.8223" y="1120.0967">- Buffers: kv_hbm_active, kv_dram_warm, kv_cxl_warm, kv_rdma_staging,</text><text fill="#000000" font-family="DejaVu Sans" font-size="14" lengthAdjust="spacing" textLength="392.2119" x="43.6016" y="1136.1953">zfs_slog, zfs_arc, zfs_l2arc, object_cache, vector_head_cache.</text></g><?plantuml-src TLRRSjis57pNLvocBycKYcvs7CaF7LqJJInRbMLFf-CP3KH2968GK05GZjB9ltS1qf9SDoyISJiuP_Viah-uZEUSjf89LREFGcsPOJdPZ2NwIQYKDanQVh9YTA6IM1l53RNQ9mi9tx12kebMxfeXv8X_PVS5tJ9bJtRrZT5FGosreLyxPsVTy_798ekTs0ctftzgH0CMFwRXjchxP3GPJyP-HPk4cshs_CE7yuiEPaU2vLebhuyD9vtXv6J3wUd1HVUyES3YhMF6LPEji_D-fut9yI58jzqUj5kr7oV9AktuJn8TJxhZY_ycMbtre-Q4avpweqMzsMnHdQPgmmrNCQVRgniQ0Zy388Yf15bfmr9iJd9XhT2gLfCyvLWn8irSRSIjIDKpz9Osk2WHB4L-bWebkRM8u-yYnJpobZpVlLgT-Z5YD_hpQOy-BvVpMpexwn2EVyJ_9TrikUfFwx7Ejyo9jSztFaMN51O9PcMwTOMbNLXvZu0BFHplsZsw6ysHa7N2Bsj5PnVTrYLzBVArfjdoZhhDPlEIvfCXQINt-A75QDQdhH7Q22UuzS6kxsUyhYSzL6DZlUDctuWzC5fAz9tbPYU05yukX_D6ULuRXnhQY3sQtzLp3XmSJmYyfjo5e4ikqUlEx7jqixoQKxgO3-ciqxg8oh77mOy_HZGt6ZipZdgxpMwpqMqrcn6brxCfTJkTReWcSkYZHtCSuZkkN0F4SCDaGA3JwZOwxQPF4GG8gsMPJJZKo9a2hJaEKIoP3TdTN_MllGvLZwnml6wtF1OR4TDq118D9oQbVk99HEkYEiOjvOLrP1tR7-xeeV7oD7UDcvj1H1i3sD0mdkceHDem8Ulzqm7ssRBJ6XNm4RbdiA8gwL2pATIZxT77PljzwmzWcwOegjXAWUdBAdBet39kcHwKuWt5bm0x4RB0Kw9pE8wFEIWsw7y4VTojidM-2YR08pzCqCUh9sRoC8g_oUF093bReUuKcKMe-Fl6hgpKQHIUc8dB1zaEZthzbSTk5RCuG-GTzxs_oZXBogdtDI1K2gjMizu9Qj0uTEhxzqrG2gszm9dPlmcQxmsbyEpPOfqB24ySD6putmMw_q6zbj11PmyA0L_fg5mE-lCtz9r3Rk11CULM0hpdEk4oFB64RHqt_lb1eUnLQ8V8YsZ7ulsgH1VCmKauTbt2TaugEbuz74CuKiHLMM93Rxq9XN1GCVuD2FQ4ii9b4EXtdlp-pfk8ehTxRj_X47ATiUrpuUGqBPUJPMCvlraYko_tMB4YmNLe9OEE4dp7P1I29eLXQo6zvQ-B13hrbNEySEYjqbNiEuoWVQ_v4gVAxL2itWZ90vY6UuAhMkg5icnpe2B4L8dOL0L-HZk2aYoi2oJttFpqgFIJvCY3rdl_CjBcVsfTb5V5bK_toesM54m0RI9Kyg20WQV_hybjvDqegimnek6VLv5tsRj-_GgQkGmXSVtsTTrVED-ILxmXoVPG2ArvXkXqojwnjXS4BxZLXOd3UpqEFdFazuNC0WkXhvvPSeUIC-sgLFph9n0hTGn_Ot4CSp3Coy83-Q0-3sQDqQ8_Wu_uL__rtQpVC5fxbFAjvD-Ej7e1myfbKeMUm_38JrAsXzn3-l2i_ANy7zGB_R-KCxAemFPoj635yP_WSdYFaYuSSkD7ME2kLGzQoXYGsG2Gx6Y31rW-BSRZwqP_DXWl3XtX2WEVFmINdA7Mtz2fB84ryYhmWteI417S6niU_SSLYCV7GGhpziZ3xK7p4Ql5UEHHdLvNzompens-7I92NnVS6mBo3Em55BotuiTM5mMnxPbtdaFB4CTNW3b5npVVlm00?></g></svg>