<?plantuml 1.2026.1?><svg xmlns="http://www.w3.org/2000/svg" xmlns:xlink="http://www.w3.org/1999/xlink" contentStyleType="text/css" data-diagram-type="ACTIVITY" height="1271px" preserveAspectRatio="none" style="width:600px;height:1271px;background:#FFFFFF;" version="1.1" viewBox="0 0 600 1271" width="600px" zoomAndPan="magnify"><title>ADR-020 - CXL Memory Pools for Pod-Scale Systems</title><defs/><g><g class="title" data-source-line="18"><text fill="#000000" font-family="DejaVu Sans" font-size="22" font-weight="bold" lengthAdjust="spacing" textLength="556.2627" x="20.437" y="35.6357">ADR-020 - CXL Memory Pools for Pod-Scale Systems</text></g><ellipse cx="300.2242" cy="61.2979" fill="#145A32" rx="10" ry="10" style="stroke:#000000;stroke-width:1;"/><rect fill="#FFFFFF" height="271.3936" rx="6" ry="6" style="stroke:#000000;stroke-width:1;" width="389.4902" x="111.4791" y="81.2979"/><path d="M212.5201,81.2979 L212.5201,90.3965 L202.5201,100.3965 L111.4791,100.3965" fill="none" style="stroke:#000000;stroke-width:1;"/><text fill="#000000" font-family="DejaVu Sans" font-size="14" lengthAdjust="spacing" textLength="91.041" x="114.4791" y="95.4297">Pool discovery</text><rect fill="#FDFEFE" height="47.5977" rx="6" ry="6" style="stroke:#566573;stroke-width:1;" width="296.7734" x="151.8375" y="117.3965"/><text fill="#000000" font-family="DejaVu Sans" font-size="12" lengthAdjust="spacing" textLength="276.7734" x="161.8375" y="138.6523">Discover CXL type, capacity, switch/fabric manager,</text><text fill="#000000" font-family="DejaVu Sans" font-size="12" lengthAdjust="spacing" textLength="266.7891" x="161.8375" y="152.4512">root-complex distance, RAS, poison, thermal state</text><rect fill="#FDFEFE" height="33.7988" rx="6" ry="6" style="stroke:#566573;stroke-width:1;" width="337.4902" x="131.4791" y="234.6165"/><text fill="#000000" font-family="DejaVu Sans" font-size="12" lengthAdjust="spacing" textLength="317.4902" x="141.4791" y="255.8723">Reject latency-sensitive placement; require explicit topology</text><ellipse cx="300.2242" cy="307.6914" fill="none" rx="11" ry="11" style="stroke:#000000;stroke-width:1;"/><ellipse cx="300.2242" cy="307.6914" fill="#FFFFFF" rx="6" ry="6" style="stroke:#000000;stroke-width:1;"/><polygon fill="#FCF3CF" points="208.1906,184.9941,392.2579,184.9941,404.2579,197.6431,392.2579,210.292,208.1906,210.292,196.1906,197.6431,208.1906,184.9941" style="stroke:#B7950B;stroke-width:1;"/><text fill="#000000" font-family="DejaVu Sans" font-size="11" lengthAdjust="spacing" textLength="26.8984" x="304.2242" y="220.6099">reject</text><text fill="#000000" font-family="DejaVu Sans" font-size="11" lengthAdjust="spacing" textLength="180.9897" x="208.1906" y="195.312">device is behind hidden switch layers</text><text fill="#000000" font-family="DejaVu Sans" font-size="11" lengthAdjust="spacing" textLength="184.0674" x="208.1906" y="207.9609">or auto-bifurcated unknown topology?</text><rect fill="#FFFFFF" height="227.2939" rx="6" ry="6" style="stroke:#000000;stroke-width:1;" width="543.4136" x="22.1688" y="362.6914"/><path d="M189.3749,362.6914 L189.3749,371.79 L179.3749,381.79 L22.1688,381.79" fill="none" style="stroke:#000000;stroke-width:1;"/><text fill="#000000" font-family="DejaVu Sans" font-size="14" lengthAdjust="spacing" textLength="157.2061" x="25.1688" y="376.8232">Ownership and allocation</text><rect fill="#FDFEFE" height="47.5977" rx="6" ry="6" style="stroke:#566573;stroke-width:1;" width="254.1465" x="173.151" y="398.79"/><text fill="#000000" font-family="DejaVu Sans" font-size="12" lengthAdjust="spacing" textLength="234.1465" x="183.151" y="420.0459">CXL pool manager grants ownership_epoch</text><text fill="#000000" font-family="DejaVu Sans" font-size="12" lengthAdjust="spacing" textLength="212.1152" x="183.151" y="433.8447">to Coherence-CE, not to inference actor</text><polygon fill="#FCF3CF" points="185.8925,466.3877,414.556,466.3877,426.556,478.3877,414.556,490.3877,185.8925,490.3877,173.8925,478.3877,185.8925,466.3877" style="stroke:#B7950B;stroke-width:1;"/><text fill="#000000" font-family="DejaVu Sans" font-size="11" lengthAdjust="spacing" textLength="228.6636" x="185.8925" y="482.3811">pool is same pod/root-complex as target GPU?</text><text fill="#000000" font-family="DejaVu Sans" font-size="11" lengthAdjust="spacing" textLength="44.6338" x="129.2587" y="476.0566">preferred</text><text fill="#000000" font-family="DejaVu Sans" font-size="11" lengthAdjust="spacing" textLength="34.2354" x="426.556" y="476.0566">remote</text><rect fill="#FDFEFE" height="47.5977" rx="6" ry="6" style="stroke:#566573;stroke-width:1;" width="243.4473" x="42.1688" y="500.3877"/><text fill="#000000" font-family="DejaVu Sans" font-size="12" lengthAdjust="spacing" textLength="223.4473" x="52.1688" y="521.6436">Allocate kv_cxl_warm/vector_head_cache</text><text fill="#000000" font-family="DejaVu Sans" font-size="12" lengthAdjust="spacing" textLength="178.0781" x="52.1688" y="535.4424">with NUMA-aware latency budget</text><rect fill="#FDFEFE" height="47.5977" rx="6" ry="6" style="stroke:#566573;stroke-width:1;" width="218.0527" x="327.5297" y="500.3877"/><text fill="#000000" font-family="DejaVu Sans" font-size="12" lengthAdjust="spacing" textLength="198.0527" x="337.5297" y="521.6436">Use only for lower-priority warm state</text><text fill="#000000" font-family="DejaVu Sans" font-size="12" lengthAdjust="spacing" textLength="152.0859" x="337.5297" y="535.4424">or reject for SLO-bound path</text><polygon fill="#FCF3CF" points="300.2242,553.9854,312.2242,565.9854,300.2242,577.9854,288.2242,565.9854,300.2242,553.9854" style="stroke:#B7950B;stroke-width:1;"/><rect fill="#FFFFFF" height="255.6184" rx="6" ry="6" style="stroke:#000000;stroke-width:1;" width="372.1035" x="114.1725" y="599.9854"/><path d="M182.5309,599.9854 L182.5309,609.084 L172.5309,619.084 L114.1725,619.084" fill="none" style="stroke:#000000;stroke-width:1;"/><text fill="#000000" font-family="DejaVu Sans" font-size="14" lengthAdjust="spacing" textLength="58.3584" x="117.1725" y="614.1172">Data flow</text><rect fill="#FDFEFE" height="47.5977" rx="6" ry="6" style="stroke:#566573;stroke-width:1;" width="352.1035" x="124.1725" y="636.084"/><text fill="#000000" font-family="DejaVu Sans" font-size="12" lengthAdjust="spacing" textLength="332.1035" x="134.1725" y="657.3398">Coherence moves warm KV: kv_dram_warm &lt;-&gt; kv_cxl_warm</text><text fill="#000000" font-family="DejaVu Sans" font-size="12" lengthAdjust="spacing" textLength="237.4688" x="134.1725" y="671.1387">then hydrates kv_hbm_active when admitted</text><rect fill="#FDFEFE" height="47.5977" rx="6" ry="6" style="stroke:#566573;stroke-width:1;" width="285.4355" x="157.5065" y="752.0061"/><text fill="#000000" font-family="DejaVu Sans" font-size="12" lengthAdjust="spacing" textLength="265.4355" x="167.5065" y="773.262">Flush to DPU/OpenZFS; CXL pool is capacity tier,</text><text fill="#000000" font-family="DejaVu Sans" font-size="12" lengthAdjust="spacing" textLength="151.4297" x="167.5065" y="787.0608">not the durable storage ACK</text><polygon fill="#FCF3CF" points="210.0436,703.6816,390.4049,703.6816,402.4049,715.6816,390.4049,727.6816,210.0436,727.6816,198.0436,715.6816,210.0436,703.6816" style="stroke:#B7950B;stroke-width:1;"/><text fill="#000000" font-family="DejaVu Sans" font-size="11" lengthAdjust="spacing" textLength="36.6953" x="304.2242" y="737.9995">durable</text><text fill="#000000" font-family="DejaVu Sans" font-size="11" lengthAdjust="spacing" textLength="180.3613" x="210.0436" y="719.675">durability class requires persistence?</text><polygon fill="#FCF3CF" points="300.2242,819.6038,312.2242,831.6038,300.2242,843.6038,288.2242,831.6038,300.2242,819.6038" style="stroke:#B7950B;stroke-width:1;"/><rect fill="#FFFFFF" height="159.6963" rx="6" ry="6" style="stroke:#000000;stroke-width:1;" width="579.7991" x="10.1688" y="865.6038"/><path d="M94.0995,865.6038 L94.0995,874.7024 L84.0995,884.7024 L10.1688,884.7024" fill="none" style="stroke:#000000;stroke-width:1;"/><text fill="#000000" font-family="DejaVu Sans" font-size="14" lengthAdjust="spacing" textLength="73.9307" x="13.1688" y="879.7356">Failure gate</text><polygon fill="#FCF3CF" points="178.5529,901.7024,421.8956,901.7024,433.8956,913.7024,421.8956,925.7024,178.5529,925.7024,166.5529,913.7024,178.5529,901.7024" style="stroke:#B7950B;stroke-width:1;"/><text fill="#000000" font-family="DejaVu Sans" font-size="11" lengthAdjust="spacing" textLength="243.3428" x="178.5529" y="917.6958">poison, link flap, fabric-manager loss, or p99 drift?</text><text fill="#000000" font-family="DejaVu Sans" font-size="11" lengthAdjust="spacing" textLength="40.3691" x="126.1837" y="911.3713">degrade</text><text fill="#000000" font-family="DejaVu Sans" font-size="11" lengthAdjust="spacing" textLength="35.4707" x="433.8956" y="911.3713">healthy</text><rect fill="#FDFEFE" height="47.5977" rx="6" ry="6" style="stroke:#566573;stroke-width:1;" width="262.8125" x="25.1466" y="935.7024"/><text fill="#000000" font-family="DejaVu Sans" font-size="12" lengthAdjust="spacing" textLength="242.8125" x="35.1466" y="956.9583">Fence ownership_epoch, copy out if possible,</text><text fill="#000000" font-family="DejaVu Sans" font-size="12" lengthAdjust="spacing" textLength="168.0352" x="35.1466" y="970.7571">mark pool AMBER/RED/DRAIN</text><rect fill="#FDFEFE" height="33.7988" rx="6" ry="6" style="stroke:#566573;stroke-width:1;" width="268.1445" x="309.8234" y="935.7024"/><text fill="#000000" font-family="DejaVu Sans" font-size="12" lengthAdjust="spacing" textLength="248.1445" x="319.8234" y="956.9583">Expose pool pressure and locality to scheduler</text><polygon fill="#FCF3CF" points="300.2242,989.3,312.2242,1001.3,300.2242,1013.3,288.2242,1001.3,300.2242,989.3" style="stroke:#B7950B;stroke-width:1;"/><ellipse cx="300.2242" cy="1056.3" fill="none" rx="11" ry="11" style="stroke:#000000;stroke-width:1;"/><ellipse cx="300.2242" cy="1056.3" fill="#FFFFFF" rx="6" ry="6" style="stroke:#000000;stroke-width:1;"/><line style="stroke:#34495E;stroke-width:1;" x1="300.2242" x2="300.2242" y1="268.4153" y2="296.6914"/><polygon fill="#34495E" points="296.2242,286.6914,300.2242,296.6914,304.2242,286.6914,300.2242,290.6914" style="stroke:#34495E;stroke-width:1;"/><line style="stroke:#34495E;stroke-width:1;" x1="300.2242" x2="300.2242" y1="210.292" y2="234.6165"/><polygon fill="#34495E" points="296.2242,224.6165,300.2242,234.6165,304.2242,224.6165,300.2242,228.6165" style="stroke:#34495E;stroke-width:1;"/><line style="stroke:#34495E;stroke-width:1;" x1="404.2579" x2="478.9694" y1="197.6431" y2="197.6431"/><polygon fill="#34495E" points="474.9694,266.6914,478.9694,276.6914,482.9694,266.6914,478.9694,270.6914" style="stroke:#34495E;stroke-width:1;"/><line style="stroke:#34495E;stroke-width:1;" x1="478.9694" x2="478.9694" y1="197.6431" y2="340.6914"/><line style="stroke:#34495E;stroke-width:1;" x1="478.9694" x2="300.2242" y1="340.6914" y2="340.6914"/><line style="stroke:#34495E;stroke-width:1;" x1="300.2242" x2="300.2242" y1="340.6914" y2="398.79"/><polygon fill="#34495E" points="296.2242,388.79,300.2242,398.79,304.2242,388.79,300.2242,392.79" style="stroke:#34495E;stroke-width:1;"/><line style="stroke:#34495E;stroke-width:1;" x1="300.2242" x2="300.2242" y1="164.9941" y2="184.9941"/><polygon fill="#34495E" points="296.2242,174.9941,300.2242,184.9941,304.2242,174.9941,300.2242,178.9941" style="stroke:#34495E;stroke-width:1;"/><line style="stroke:#34495E;stroke-width:1;" x1="300.2242" x2="300.2242" y1="71.2979" y2="117.3965"/><polygon fill="#34495E" points="296.2242,107.3965,300.2242,117.3965,304.2242,107.3965,300.2242,111.3965" style="stroke:#34495E;stroke-width:1;"/><line style="stroke:#34495E;stroke-width:1;" x1="173.8925" x2="163.8925" y1="478.3877" y2="478.3877"/><line style="stroke:#34495E;stroke-width:1;" x1="163.8925" x2="163.8925" y1="478.3877" y2="500.3877"/><polygon fill="#34495E" points="159.8925,490.3877,163.8925,500.3877,167.8925,490.3877,163.8925,494.3877" style="stroke:#34495E;stroke-width:1;"/><line style="stroke:#34495E;stroke-width:1;" x1="426.556" x2="436.556" y1="478.3877" y2="478.3877"/><line style="stroke:#34495E;stroke-width:1;" x1="436.556" x2="436.556" y1="478.3877" y2="500.3877"/><polygon fill="#34495E" points="432.556,490.3877,436.556,500.3877,440.556,490.3877,436.556,494.3877" style="stroke:#34495E;stroke-width:1;"/><line style="stroke:#34495E;stroke-width:1;" x1="163.8925" x2="163.8925" y1="547.9854" y2="565.9854"/><line style="stroke:#34495E;stroke-width:1;" x1="163.8925" x2="288.2242" y1="565.9854" y2="565.9854"/><polygon fill="#34495E" points="278.2242,561.9854,288.2242,565.9854,278.2242,569.9854,282.2242,565.9854" style="stroke:#34495E;stroke-width:1;"/><line style="stroke:#34495E;stroke-width:1;" x1="436.556" x2="436.556" y1="547.9854" y2="565.9854"/><line style="stroke:#34495E;stroke-width:1;" x1="436.556" x2="312.2242" y1="565.9854" y2="565.9854"/><polygon fill="#34495E" points="322.2242,561.9854,312.2242,565.9854,322.2242,569.9854,318.2242,565.9854" style="stroke:#34495E;stroke-width:1;"/><line style="stroke:#34495E;stroke-width:1;" x1="300.2242" x2="300.2242" y1="446.3877" y2="466.3877"/><polygon fill="#34495E" points="296.2242,456.3877,300.2242,466.3877,304.2242,456.3877,300.2242,460.3877" style="stroke:#34495E;stroke-width:1;"/><line style="stroke:#34495E;stroke-width:1;" x1="300.2242" x2="300.2242" y1="727.6816" y2="752.0061"/><polygon fill="#34495E" points="296.2242,742.0061,300.2242,752.0061,304.2242,742.0061,300.2242,746.0061" style="stroke:#34495E;stroke-width:1;"/><line style="stroke:#34495E;stroke-width:1;" x1="402.4049" x2="452.942" y1="715.6816" y2="715.6816"/><polygon fill="#34495E" points="448.942,765.8049,452.942,775.8049,456.942,765.8049,452.942,769.8049" style="stroke:#34495E;stroke-width:1;"/><line style="stroke:#34495E;stroke-width:1;" x1="452.942" x2="452.942" y1="715.6816" y2="831.6038"/><line style="stroke:#34495E;stroke-width:1;" x1="452.942" x2="312.2242" y1="831.6038" y2="831.6038"/><polygon fill="#34495E" points="322.2242,827.6038,312.2242,831.6038,322.2242,835.6038,318.2242,831.6038" style="stroke:#34495E;stroke-width:1;"/><line style="stroke:#34495E;stroke-width:1;" x1="300.2242" x2="300.2242" y1="799.6038" y2="819.6038"/><polygon fill="#34495E" points="296.2242,809.6038,300.2242,819.6038,304.2242,809.6038,300.2242,813.6038" style="stroke:#34495E;stroke-width:1;"/><line style="stroke:#34495E;stroke-width:1;" x1="300.2242" x2="300.2242" y1="683.6816" y2="703.6816"/><polygon fill="#34495E" points="296.2242,693.6816,300.2242,703.6816,304.2242,693.6816,300.2242,697.6816" style="stroke:#34495E;stroke-width:1;"/><line style="stroke:#34495E;stroke-width:1;" x1="300.2242" x2="300.2242" y1="577.9854" y2="636.084"/><polygon fill="#34495E" points="296.2242,626.084,300.2242,636.084,304.2242,626.084,300.2242,630.084" style="stroke:#34495E;stroke-width:1;"/><line style="stroke:#34495E;stroke-width:1;" x1="166.5529" x2="156.5529" y1="913.7024" y2="913.7024"/><line style="stroke:#34495E;stroke-width:1;" x1="156.5529" x2="156.5529" y1="913.7024" y2="935.7024"/><polygon fill="#34495E" points="152.5529,925.7024,156.5529,935.7024,160.5529,925.7024,156.5529,929.7024" style="stroke:#34495E;stroke-width:1;"/><line style="stroke:#34495E;stroke-width:1;" x1="433.8956" x2="443.8956" y1="913.7024" y2="913.7024"/><line style="stroke:#34495E;stroke-width:1;" x1="443.8956" x2="443.8956" y1="913.7024" y2="935.7024"/><polygon fill="#34495E" points="439.8956,925.7024,443.8956,935.7024,447.8956,925.7024,443.8956,929.7024" style="stroke:#34495E;stroke-width:1;"/><line style="stroke:#34495E;stroke-width:1;" x1="156.5529" x2="156.5529" y1="983.3" y2="1001.3"/><line style="stroke:#34495E;stroke-width:1;" x1="156.5529" x2="288.2242" y1="1001.3" y2="1001.3"/><polygon fill="#34495E" points="278.2242,997.3,288.2242,1001.3,278.2242,1005.3,282.2242,1001.3" style="stroke:#34495E;stroke-width:1;"/><line style="stroke:#34495E;stroke-width:1;" x1="443.8956" x2="443.8956" y1="969.5012" y2="1001.3"/><line style="stroke:#34495E;stroke-width:1;" x1="443.8956" x2="312.2242" y1="1001.3" y2="1001.3"/><polygon fill="#34495E" points="322.2242,997.3,312.2242,1001.3,322.2242,1005.3,318.2242,1001.3" style="stroke:#34495E;stroke-width:1;"/><line style="stroke:#34495E;stroke-width:1;" x1="300.2242" x2="300.2242" y1="843.6038" y2="901.7024"/><polygon fill="#34495E" points="296.2242,891.7024,300.2242,901.7024,304.2242,891.7024,300.2242,895.7024" style="stroke:#34495E;stroke-width:1;"/><line style="stroke:#34495E;stroke-width:1;" x1="300.2242" x2="300.2242" y1="1013.3" y2="1045.3"/><polygon fill="#34495E" points="296.2242,1035.3,300.2242,1045.3,304.2242,1035.3,300.2242,1039.3" style="stroke:#34495E;stroke-width:1;"/><g class="legend" data-source-line="20"><rect fill="none" height="187.085" rx="6" ry="6" style="stroke:#000000;stroke-width:1;" width="577.1367" x="10" y="1071.3"/><text fill="#000000" font-family="DejaVu Sans" font-size="14" lengthAdjust="spacing" textLength="368.0537" x="15" y="1089.4319">Design defaults for diagrams unless an ADR narrows them:</text><text fill="#000000" font-family="DejaVu Sans" font-size="14" lengthAdjust="spacing" textLength="528.3633" x="15" y="1105.5305">- Actor/API: HTTPS 443 or 8443; OpenAI-compatible API plus Coherence-native API.</text><text fill="#000000" font-family="DejaVu Sans" font-size="14" lengthAdjust="spacing" textLength="510.4258" x="15" y="1121.6292">- RoCEv2: UDP destination 4791; jumbo MTU 9000; PFC only on RDMA priorities.</text><text fill="#000000" font-family="DejaVu Sans" font-size="14" lengthAdjust="spacing" textLength="554.7432" x="15" y="1137.7278">- NVMe-oF: discovery/controller service on TCP/RDMA port 4420; DPU-mediated targets.</text><text fill="#000000" font-family="DejaVu Sans" font-size="14" lengthAdjust="spacing" textLength="544.7012" x="15" y="1153.8264">- Telemetry: OTLP gRPC 4317, OTLP HTTP 4318, Prometheus 9090/9100, gNMI 9339.</text><text fill="#000000" font-family="DejaVu Sans" font-size="14" lengthAdjust="spacing" textLength="519.8252" x="15" y="1169.925">- Timing: PTP event/general UDP 319/320 on an isolated timing/management class.</text><text fill="#000000" font-family="DejaVu Sans" font-size="14" lengthAdjust="spacing" textLength="454.4121" x="15" y="1186.0237">- VLAN plan: site-specific IDs are allowed, but classes must stay isolated:</text><text fill="#000000" font-family="DejaVu Sans" font-size="14" lengthAdjust="spacing" textLength="559.3574" x="22.7793" y="1202.1223">mgmt/OOB, frontend/API, RDMA rail-A, RDMA rail-B, storage/NVMe-oF, telemetry, timing.</text><text fill="#000000" font-family="DejaVu Sans" font-size="14" lengthAdjust="spacing" textLength="507.3564" x="15" y="1218.2209">- Trunks: 802.1Q tagged uplinks; rail-A and rail-B must not share a failure domain.</text><text fill="#000000" font-family="DejaVu Sans" font-size="14" lengthAdjust="spacing" textLength="464.4951" x="15" y="1234.3196">- Buffers: kv_hbm_active, kv_dram_warm, kv_cxl_warm, kv_rdma_staging,</text><text fill="#000000" font-family="DejaVu Sans" font-size="14" lengthAdjust="spacing" textLength="392.2119" x="22.7793" y="1250.4182">zfs_slog, zfs_arc, zfs_l2arc, object_cache, vector_head_cache.</text></g><?plantuml-src TLLhRzis5FtkNt7NVUa0gV8ZQMfxsE3uiGNDmxEJO1W26BH4IsmaKYCfEzxG_xv3IdRSTlrYYw_BUyyzv_07c_62Kvap8LlcMSYIQLQGoLYYTaAcj66vuIShMbKoYPMMN5EdUxAGy0shSZjJqjuoX9pmJ-oneYMJvcJNI6kr6wjSQVgnTtRMFv-UBBBOYgsmU_gtHNJ9ukVKtzPidqrcqzdKhIYTSDtCdhz_VtxHm-n4i4B9vDjZurblF3lPS7hwyg9_thx4uj8oRPl9pjdvgDV5vFGOfD_jNdOxhSydoKfb-NSIdSxwqukl4ssk-joomkQSHfD5sEwsAQJndzTqmmkbzpHNAZUqmVQvIi9bpB1nkJUM5wRLoddAPK9Qf9bjJRWHgJo0Nfz914kHcQ5AvjmOOjBTGf8vp0svJWzQ8OrYgtGqcbyDwFVx-_cIpivwXECVy3-akvBBqLKOgw9aLgnTflChyACoD5OPrrp6F9HOslgLTmYuKEFfjZkWXyaS2HahtBAIT7RHxmpfKrMi5TtSFr2_tMuFQJuRavBv7Z-qcDoCgDH2QM45DoxOxUCD3zLiW6fChBPSxwCObD8gpy4um_LMnDoTlH_Fe_gyqXOrT15xCdy82muSB4y87KsvzK7lUGwMMxqVqDtzzPpInNnCPxtEHL2F7Gvk_26WkLROcN7Kss_tsr6_qsu7bDxUN56_r-lxQAA0CWOqno6-vT96Q0pNBFS8z3hzg8V68aKqG1YLrzduGr7194kHYxGKvypux1wlHxTEWN90HbWUcfB7OYDYkfgWYPeJotEruqb0wwevnWqLbR5aBDiVxnY0SaLQsEZkxZAWZGPi88phT50ZhPd8mz7f0FiCs82KeWRuWEm1hA19sjUiA_bi1lIXtNtN-GFOfYcAgifSO7hOH4R1IHEtJWyQSLRYIe2HYBp2Lw8AU8sBULbjDbmZwFDsbQsBbPS_3zmm0OzNEwOBFufVyjU1JWgsGjqfCWjGyJyRipAvIWF_nNHSV-HT_wdMdtXiLp6BCqJUSiVzLSPPKa-zQm6XMbYjbd4Uq8AweL37tpTEZgyyVEFLFfWqOwzRkoyHDcObY-5R07CdR9n56xRMw5_TR1qyIQsKzPhA-OkBQ1baX4QCbW7uYmRAmEbJ5o0H5YqVuYgneRS9ztmNXjOy4u0t4qd2PNCHvMmF19yavCiggyArs5GwzeH3lwJQIRAgX06b-rz_SZT8UgkvW-GdN81g5dv0ZZyoteU6Ir3GQHjyZ3rFqLp-ToNGEVw2TgFEOyYXZm42bVW0X683Upl1xsu7MPXCb9uOZiMnTuO6IGTWwI1kS2AubuINgSEn5IzLd3r9gqwyPpmDFAymAUIcddGlXz87p7nC86RSCrIg9Fe2VMOQPw3VvWz7K4hD4KlpfC5bL2VBJ-aNVKEV9uasP7JxS3CAsSxnl04IIarmXSk8u_rqe1TuBvhW3uRN5kXSsqbRXuq9xibTL5F0TxLkbj-ulBuBr-wP8JXpDln_o2VCGcg8US3uW1iL8Asfmtzy77mXClev_EMqK23kGCdss65nw0jzqiwjiQGG5ZGxyhJIR2roLu4tg0Df39Ne9GZlSZYYxNVd1pXcU5morq_OT-JUdxzcoo4TsO5E7WG6G_9oyltFu2Lrd8E7qMZyyJkup1htIL5G3KtDb5fwpiM06YjXcrwwuO6IkJ8cSAzZsUzJeiN6lXR1mTVaM8G7-IlgmXfKYPSEjethIiHoBoeAA9X-hgiRtLnE5z5YEeacYz7LxIjZmBBSPlic_FG5ftbz15mrnXNZLELewc47VWQKJ2gyawSWE7d-1m00?></g></svg>