<?plantuml 1.2026.1?><svg xmlns="http://www.w3.org/2000/svg" xmlns:xlink="http://www.w3.org/1999/xlink" contentStyleType="text/css" data-diagram-type="DESCRIPTION" height="161px" preserveAspectRatio="none" style="width:1908px;height:161px;background:#FFFFFF;" version="1.1" viewBox="0 0 1908 161" width="1908px" zoomAndPan="magnify"><title>10. Coherence Write Policy</title><defs/><g><g class="title" data-source-line="2"><text fill="#000000" font-family="DejaVu Sans" font-size="22" font-weight="bold" lengthAdjust="spacing" textLength="282.4336" x="808.375" y="35.6357">10. Coherence Write Policy</text></g><!--entity N1--><g class="entity" data-qualified-name="N1" data-source-line="8" id="ent0002"><rect fill="#D6EAF8" height="36.0986" rx="6" ry="6" style="stroke:#000000;stroke-width:1;" width="96.2617" x="12" y="58.2979"/><text fill="#000000" font-family="DejaVu Sans" font-size="14" lengthAdjust="spacing" textLength="76.2617" x="22" y="81.4297">KV mutation</text></g><!--entity N2--><g class="entity" data-qualified-name="N2" data-source-line="9" id="ent0003"><rect fill="#D5F5E3" height="36.0986" rx="6" ry="6" style="stroke:#000000;stroke-width:1;" width="136.6963" x="241.26" y="58.2979"/><text fill="#000000" font-family="DejaVu Sans" font-size="14" lengthAdjust="spacing" textLength="116.6963" x="251.26" y="81.4297">Durability classifier</text></g><!--entity N3--><g class="entity" data-qualified-name="N3" data-source-line="10" id="ent0004"><rect fill="#FCF3CF" height="36.0986" rx="6" ry="6" style="stroke:#000000;stroke-width:1;" width="185.751" x="503.96" y="58.2979"/><text fill="#000000" font-family="DejaVu Sans" font-size="14" lengthAdjust="spacing" textLength="165.751" x="513.96" y="81.4297">Write-around/back/through</text></g><!--entity N4--><g class="entity" data-qualified-name="N4" data-source-line="11" id="ent0005"><rect fill="#E8DAEF" height="36.0986" rx="6" ry="6" style="stroke:#000000;stroke-width:1;" width="144.5029" x="814.71" y="58.2979"/><text fill="#000000" font-family="DejaVu Sans" font-size="14" lengthAdjust="spacing" textLength="124.5029" x="824.71" y="81.4297">OpenZFS sync path</text></g><!--entity N5--><g class="entity" data-qualified-name="N5" data-source-line="12" id="ent0006"><rect fill="#FADBD8" height="36.0986" rx="6" ry="6" style="stroke:#000000;stroke-width:1;" width="83.0205" x="1463.69" y="58.2979"/><text fill="#000000" font-family="DejaVu Sans" font-size="14" lengthAdjust="spacing" textLength="63.0205" x="1473.69" y="81.4297">Ack policy</text></g><g class="entity" data-qualified-name="GMN11" data-source-line="20" id="ent0012"><path d="M1109.21,135.8679 L1109.21,148.8166 A6,6 0 0 0 1115.21,154.8166 L1895.1836,154.8166 A6,6 0 0 0 1901.1836,148.8166 L1901.1836,139.8679 L1891.1836,129.8679 L1509.2,129.8679 L1505.2,94.5979 L1501.2,129.8679 L1115.21,129.8679 A6,6 0 0 0 1109.21,135.8679" fill="#FFFFFF" style="stroke:#000000;stroke-width:1;"/><path d="M1891.1836,129.8679 L1891.1836,136.8679 A3,3 0 0 0 1894.1836,139.8679 L1901.1836,139.8679 L1891.1836,129.8679" fill="#FFFFFF" style="stroke:#000000;stroke-width:1;"/><text fill="#000000" font-family="DejaVu Sans" font-size="13" lengthAdjust="spacing" textLength="770.9736" x="1115.21" y="147.0617">Actor-facing contract: lower-layer resource identifiers remain hidden unless the ADR explicitly defines them as operator-only evidence.</text></g><!--link N1 to N2--><g class="link" data-entity-1="ent0002" data-entity-2="ent0003" data-link-type="dependency" data-source-line="14" id="lnk7"><path d="M108.55,76.3479 C146.03,76.3479 192.82,76.3479 234.77,76.3479" fill="none" id="N1-to-N2" style="stroke:#000000;stroke-width:1;"/><polygon fill="#000000" points="240.77,76.3479,231.77,72.3479,235.77,76.3479,231.77,80.3479,240.77,76.3479" style="stroke:#000000;stroke-width:1;"/><text fill="#000000" font-family="DejaVu Sans" font-size="13" lengthAdjust="spacing" textLength="71.5571" x="139.26" y="73.5417">state update</text></g><!--link N2 to N3--><g class="link" data-entity-1="ent0003" data-entity-2="ent0004" data-link-type="dependency" data-source-line="15" id="lnk8"><path d="M378.2,76.3479 C415.68,76.3479 456.82,76.3479 497.64,76.3479" fill="none" id="N2-to-N3" style="stroke:#000000;stroke-width:1;"/><polygon fill="#000000" points="503.64,76.3479,494.64,72.3479,498.64,76.3479,494.64,80.3479,503.64,76.3479" style="stroke:#000000;stroke-width:1;"/><text fill="#000000" font-family="DejaVu Sans" font-size="13" lengthAdjust="spacing" textLength="64.2891" x="408.96" y="73.5417">KV-D class</text></g><!--link N3 to N4--><g class="link" data-entity-1="ent0004" data-entity-2="ent0005" data-link-type="dependency" data-source-line="16" id="lnk9"><path d="M690.19,76.3479 C730.51,76.3479 771.08,76.3479 808.67,76.3479" fill="none" id="N3-to-N4" style="stroke:#000000;stroke-width:1;"/><polygon fill="#000000" points="814.67,76.3479,805.67,72.3479,809.67,76.3479,805.67,80.3479,814.67,76.3479" style="stroke:#000000;stroke-width:1;"/><text fill="#000000" font-family="DejaVu Sans" font-size="13" lengthAdjust="spacing" textLength="63.5781" x="720.71" y="73.5417">write mode</text></g><!--link N4 to N5--><g class="link" data-entity-1="ent0005" data-entity-2="ent0006" data-link-type="dependency" data-source-line="17" id="lnk10"><path d="M959.55,76.3479 C1089.59,76.3479 1354.62,76.3479 1457.45,76.3479" fill="none" id="N4-to-N5" style="stroke:#000000;stroke-width:1;"/><polygon fill="#000000" points="1463.45,76.3479,1454.45,72.3479,1458.45,76.3479,1454.45,80.3479,1463.45,76.3479" style="stroke:#000000;stroke-width:1;"/><text fill="#000000" font-family="DejaVu Sans" font-size="13" lengthAdjust="spacing" textLength="88.8672" x="990.21" y="73.5417">durable commit</text></g><?plantuml-src LLB1Rjim3BthAxZcx7PfaY7eeO0NnvS2NR426T0R8z6n5bao97gP_xwKlODtalJUayYdno_SKaVGExHUiML7iFvw3uVGKYIl2Nv5omHlmLazgdIrliU87QGMJRXPVu46NQ854yFWZGxHKuJruu8mrE3Wk0wUNr5gLlGRJmEyeq_AKSF00QAzj0p6Hj9iWrSgRz1VfAsxbnDq0sF6xm0JlAvXLNqxblL-gQg6Y6VhB8-W7QPa6qjnrZ-AVbVlZfkbVl9NuDJrmndrzO5RELpQ-Su6LlMXtXpgvPqVFVcF-XtIw3NqoF-qMrWTzrLv_4zRwYlqq-_DefqyM5RVgxrIOg0eddDVJv346C7G6rcK81En4UBbL5Ip4oNd2TuAV9jYwO8HzNQ6TmARx5xAwj1rbfNoGLJdm1mwLMeEiMXGvzIqf11HynEuSADOE1mbhqWf355IjuOyJr-N1EnaEA2rHa0OlAEKGCO6okedqDzUlCdSZ3bVwscYkcmrz1GnbmnUMFgJtzHqhyWRo7rz0W00?></g></svg>