<?plantuml 1.2026.1?><svg xmlns="http://www.w3.org/2000/svg" xmlns:xlink="http://www.w3.org/1999/xlink" contentStyleType="text/css" data-diagram-type="DESCRIPTION" height="161px" preserveAspectRatio="none" style="width:1921px;height:161px;background:#FFFFFF;" version="1.1" viewBox="0 0 1921 161" width="1921px" zoomAndPan="magnify"><title>07. Scheduler Locality and Admission</title><defs/><g><g class="title" data-source-line="2"><text fill="#000000" font-family="DejaVu Sans" font-size="22" font-weight="bold" lengthAdjust="spacing" textLength="396.1074" x="758.0231" y="35.6357">07. Scheduler Locality and Admission</text></g><!--entity N1--><g class="entity" data-qualified-name="N1" data-source-line="8" id="ent0002"><rect fill="#D6EAF8" height="36.0986" rx="6" ry="6" style="stroke:#000000;stroke-width:1;" width="129.7168" x="12" y="58.2979"/><text fill="#000000" font-family="DejaVu Sans" font-size="14" lengthAdjust="spacing" textLength="109.7168" x="22" y="81.4297">Workload request</text></g><!--entity N2--><g class="entity" data-qualified-name="N2" data-source-line="9" id="ent0003"><rect fill="#D5F5E3" height="36.0986" rx="6" ry="6" style="stroke:#000000;stroke-width:1;" width="137.4893" x="298.72" y="58.2979"/><text fill="#000000" font-family="DejaVu Sans" font-size="14" lengthAdjust="spacing" textLength="117.4893" x="308.72" y="81.4297">Coherence metrics</text></g><!--entity N3--><g class="entity" data-qualified-name="N3" data-source-line="10" id="ent0004"><rect fill="#FCF3CF" height="36.0986" rx="6" ry="6" style="stroke:#000000;stroke-width:1;" width="184.9307" x="536.21" y="58.2979"/><text fill="#000000" font-family="DejaVu Sans" font-size="14" lengthAdjust="spacing" textLength="164.9307" x="546.21" y="81.4297">Fabric/CXL/DPU telemetry</text></g><!--entity N4--><g class="entity" data-qualified-name="N4" data-source-line="11" id="ent0005"><rect fill="#E8DAEF" height="36.0986" rx="6" ry="6" style="stroke:#000000;stroke-width:1;" width="83.041" x="850.14" y="58.2979"/><text fill="#000000" font-family="DejaVu Sans" font-size="14" lengthAdjust="spacing" textLength="63.041" x="860.14" y="81.4297">Scheduler</text></g><!--entity N5--><g class="entity" data-qualified-name="N5" data-source-line="12" id="ent0006"><rect fill="#FADBD8" height="36.0986" rx="6" ry="6" style="stroke:#000000;stroke-width:1;" width="141.3994" x="1447.46" y="58.2979"/><text fill="#000000" font-family="DejaVu Sans" font-size="14" lengthAdjust="spacing" textLength="121.3994" x="1457.46" y="81.4297">Placement decision</text></g><g class="entity" data-qualified-name="GMN11" data-source-line="20" id="ent0012"><path d="M1122.18,135.8679 L1122.18,148.8166 A6,6 0 0 0 1128.18,154.8166 L1908.1536,154.8166 A6,6 0 0 0 1914.1536,148.8166 L1914.1536,139.8679 L1904.1536,129.8679 L1522.16,129.8679 L1518.16,94.5979 L1514.16,129.8679 L1128.18,129.8679 A6,6 0 0 0 1122.18,135.8679" fill="#FFFFFF" style="stroke:#000000;stroke-width:1;"/><path d="M1904.1536,129.8679 L1904.1536,136.8679 A3,3 0 0 0 1907.1536,139.8679 L1914.1536,139.8679 L1904.1536,129.8679" fill="#FFFFFF" style="stroke:#000000;stroke-width:1;"/><text fill="#000000" font-family="DejaVu Sans" font-size="13" lengthAdjust="spacing" textLength="770.9736" x="1128.18" y="147.0617">Actor-facing contract: lower-layer resource identifiers remain hidden unless the ADR explicitly defines them as operator-only evidence.</text></g><!--link N1 to N2--><g class="link" data-entity-1="ent0002" data-entity-2="ent0003" data-link-type="dependency" data-source-line="14" id="lnk7"><path d="M141.91,76.3479 C188.32,76.3479 244.98,76.3479 292.31,76.3479" fill="none" id="N1-to-N2" style="stroke:#000000;stroke-width:1;"/><polygon fill="#000000" points="298.31,76.3479,289.31,72.3479,293.31,76.3479,289.31,80.3479,298.31,76.3479" style="stroke:#000000;stroke-width:1;"/><text fill="#000000" font-family="DejaVu Sans" font-size="13" lengthAdjust="spacing" textLength="95.3926" x="172.72" y="73.5417">model/KV needs</text></g><!--link N2 to N3--><g class="link" data-entity-1="ent0003" data-entity-2="ent0004" data-link-type="dependency" data-source-line="15" id="lnk8"><path d="M436.57,76.3479 C467.02,76.3479 497.36,76.3479 530.14,76.3479" fill="none" id="N2-to-N3" style="stroke:#000000;stroke-width:1;"/><polygon fill="#000000" points="536.14,76.3479,527.14,72.3479,531.14,76.3479,527.14,80.3479,536.14,76.3479" style="stroke:#000000;stroke-width:1;"/><text fill="#000000" font-family="DejaVu Sans" font-size="13" lengthAdjust="spacing" textLength="38.2954" x="467.21" y="73.5417">rollups</text></g><!--link N3 to N4--><g class="link" data-entity-1="ent0004" data-entity-2="ent0005" data-link-type="dependency" data-source-line="16" id="lnk9"><path d="M721.32,76.3479 C765.23,76.3479 809.61,76.3479 843.92,76.3479" fill="none" id="N3-to-N4" style="stroke:#000000;stroke-width:1;"/><polygon fill="#000000" points="849.92,76.3479,840.92,72.3479,844.92,76.3479,840.92,80.3479,849.92,76.3479" style="stroke:#000000;stroke-width:1;"/><text fill="#000000" font-family="DejaVu Sans" font-size="13" lengthAdjust="spacing" textLength="67.2153" x="752.14" y="73.5417">health state</text></g><!--link N4 to N5--><g class="link" data-entity-1="ent0005" data-entity-2="ent0006" data-link-type="dependency" data-source-line="17" id="lnk10"><path d="M933.63,76.3479 C1038.24,76.3479 1310.13,76.3479 1441.06,76.3479" fill="none" id="N4-to-N5" style="stroke:#000000;stroke-width:1;"/><polygon fill="#000000" points="1447.06,76.3479,1438.06,72.3479,1442.06,76.3479,1438.06,80.3479,1447.06,76.3479" style="stroke:#000000;stroke-width:1;"/><text fill="#000000" font-family="DejaVu Sans" font-size="13" lengthAdjust="spacing" textLength="127.1309" x="964.18" y="73.5417">GREEN/AMBER/RED</text></g><?plantuml-src LLB1Rjim3BthAxZcd7gjcoteOO0Rspki2ueKQtjb9JhMAakUHA_Btu-AWS6x2Uyzaa_a-y0z3GIZG-iLMtO47pzVmgFkoKoE8jm7ZSxo2T0RgCnWKxB1g_Hc_OWH1qWzcl1k_H4wT8aMJ0oJDpf4BsskhXU4eGudnstml4UPNjDFV9hW4NrIZZe63X3jiMSmDfBcF53b1_gZ6Bnu3l7D1JGGwTT4YIy04-olO5L_QgfskvJkGa-Hl2OOYAFLQTPUYtRJRffogMtnLHJ5xkM-g1z-09EZN7IQIqfOjRkstBNBadzxcZKti6gsTTNyftbmgAMHbz-GjdbxitWZ3Qlwhjug9TxNwo_PrYqCmP0hlZs19p992NQcIg5YS6uQ1Ijdx4Qmdj1n3ucHIGbo9ZP2V3qqpRweljyrX-BGr4hvm0IlWJaCgj8Suhf3dU-cvGuHDT-22-yKrmvFSh58AKnH5cUDUBUTfPW472Geq5iZ84pUKKeW4OAgFW3z6PtLag5Jlh3rTAQ6_DamKiGyCdXXwNVkgUbIaOGg-_eB?></g></svg>