<?plantuml 1.2026.1?><svg xmlns="http://www.w3.org/2000/svg" xmlns:xlink="http://www.w3.org/1999/xlink" contentStyleType="text/css" data-diagram-type="DESCRIPTION" height="161px" preserveAspectRatio="none" style="width:1870px;height:161px;background:#FFFFFF;" version="1.1" viewBox="0 0 1870 161" width="1870px" zoomAndPan="magnify"><title>05. DPU Offload Boundary</title><defs/><g><g class="title" data-source-line="2"><text fill="#000000" font-family="DejaVu Sans" font-size="22" font-weight="bold" lengthAdjust="spacing" textLength="275.0322" x="793.2607" y="35.6357">05. DPU Offload Boundary</text></g><!--entity N1--><g class="entity" data-qualified-name="N1" data-source-line="8" id="ent0002"><rect fill="#D6EAF8" height="36.0986" rx="6" ry="6" style="stroke:#000000;stroke-width:1;" width="104.0205" x="12" y="58.2979"/><text fill="#000000" font-family="DejaVu Sans" font-size="14" lengthAdjust="spacing" textLength="84.0205" x="22" y="81.4297">Host services</text></g><!--entity N2--><g class="entity" data-qualified-name="N2" data-source-line="9" id="ent0003"><rect fill="#D5F5E3" height="36.0986" rx="6" ry="6" style="stroke:#000000;stroke-width:1;" width="114.8965" x="230.02" y="58.2979"/><text fill="#000000" font-family="DejaVu Sans" font-size="14" lengthAdjust="spacing" textLength="94.8965" x="240.02" y="81.4297">DPU/SmartNIC</text></g><!--entity N3--><g class="entity" data-qualified-name="N3" data-source-line="10" id="ent0004"><rect fill="#FCF3CF" height="36.0986" rx="6" ry="6" style="stroke:#000000;stroke-width:1;" width="174.8271" x="445.92" y="58.2979"/><text fill="#000000" font-family="DejaVu Sans" font-size="14" lengthAdjust="spacing" textLength="154.8271" x="455.92" y="81.4297">RDMA/NVMe-oF queues</text></g><!--entity N4--><g class="entity" data-qualified-name="N4" data-source-line="11" id="ent0005"><rect fill="#E8DAEF" height="36.0986" rx="6" ry="6" style="stroke:#000000;stroke-width:1;" width="118.8408" x="781.74" y="58.2979"/><text fill="#000000" font-family="DejaVu Sans" font-size="14" lengthAdjust="spacing" textLength="98.8408" x="791.74" y="81.4297">Tenant isolation</text></g><!--entity N5--><g class="entity" data-qualified-name="N5" data-source-line="12" id="ent0006"><rect fill="#FADBD8" height="36.0986" rx="6" ry="6" style="stroke:#000000;stroke-width:1;" width="82.2344" x="1426.45" y="58.2979"/><text fill="#000000" font-family="DejaVu Sans" font-size="14" lengthAdjust="spacing" textLength="62.2344" x="1436.45" y="81.4297">Telemetry</text></g><g class="entity" data-qualified-name="GMN11" data-source-line="20" id="ent0012"><path d="M1071.58,135.8679 L1071.58,148.8166 A6,6 0 0 0 1077.58,154.8166 L1857.5536,154.8166 A6,6 0 0 0 1863.5536,148.8166 L1863.5536,139.8679 L1853.5536,129.8679 L1471.57,129.8679 L1467.57,94.5979 L1463.57,129.8679 L1077.58,129.8679 A6,6 0 0 0 1071.58,135.8679" fill="#FFFFFF" style="stroke:#000000;stroke-width:1;"/><path d="M1853.5536,129.8679 L1853.5536,136.8679 A3,3 0 0 0 1856.5536,139.8679 L1863.5536,139.8679 L1853.5536,129.8679" fill="#FFFFFF" style="stroke:#000000;stroke-width:1;"/><text fill="#000000" font-family="DejaVu Sans" font-size="13" lengthAdjust="spacing" textLength="770.9736" x="1077.58" y="147.0617">Actor-facing contract: lower-layer resource identifiers remain hidden unless the ADR explicitly defines them as operator-only evidence.</text></g><!--link N1 to N2--><g class="link" data-entity-1="ent0002" data-entity-2="ent0003" data-link-type="dependency" data-source-line="14" id="lnk7"><path d="M116.37,76.3479 C150.23,76.3479 188.61,76.3479 223.55,76.3479" fill="none" id="N1-to-N2" style="stroke:#000000;stroke-width:1;"/><polygon fill="#000000" points="229.55,76.3479,220.55,72.3479,224.55,76.3479,220.55,80.3479,229.55,76.3479" style="stroke:#000000;stroke-width:1;"/><text fill="#000000" font-family="DejaVu Sans" font-size="13" lengthAdjust="spacing" textLength="52.749" x="147.02" y="73.5417">I/O intent</text></g><!--link N2 to N3--><g class="link" data-entity-1="ent0003" data-entity-2="ent0004" data-link-type="dependency" data-source-line="15" id="lnk8"><path d="M345.34,76.3479 C375.17,76.3479 406.36,76.3479 439.7,76.3479" fill="none" id="N2-to-N3" style="stroke:#000000;stroke-width:1;"/><polygon fill="#000000" points="445.7,76.3479,436.7,72.3479,440.7,76.3479,436.7,80.3479,445.7,76.3479" style="stroke:#000000;stroke-width:1;"/><text fill="#000000" font-family="DejaVu Sans" font-size="13" lengthAdjust="spacing" textLength="39.0317" x="375.92" y="73.5417">offload</text></g><!--link N3 to N4--><g class="link" data-entity-1="ent0004" data-entity-2="ent0005" data-link-type="dependency" data-source-line="16" id="lnk9"><path d="M621.15,76.3479 C672.54,76.3479 730.26,76.3479 775.7,76.3479" fill="none" id="N3-to-N4" style="stroke:#000000;stroke-width:1;"/><polygon fill="#000000" points="781.7,76.3479,772.7,72.3479,776.7,76.3479,772.7,80.3479,781.7,76.3479" style="stroke:#000000;stroke-width:1;"/><text fill="#000000" font-family="DejaVu Sans" font-size="13" lengthAdjust="spacing" textLength="99.0171" x="651.74" y="73.5417">queue ownership</text></g><!--link N4 to N5--><g class="link" data-entity-1="ent0005" data-entity-2="ent0006" data-link-type="dependency" data-source-line="17" id="lnk10"><path d="M900.91,76.3479 C1026.59,76.3479 1312.87,76.3479 1420.15,76.3479" fill="none" id="N4-to-N5" style="stroke:#000000;stroke-width:1;"/><polygon fill="#000000" points="1426.15,76.3479,1417.15,72.3479,1421.15,76.3479,1417.15,80.3479,1426.15,76.3479" style="stroke:#000000;stroke-width:1;"/><text fill="#000000" font-family="DejaVu Sans" font-size="13" lengthAdjust="spacing" textLength="109.1099" x="931.58" y="73.5417">policy enforcement</text></g><?plantuml-src NLB1Rjim3BthAxZcx6PjwY7eOO0RnrWFJOTswvsJwLYRB7eItSn_Fyh1W60twRqdlYUI7wIdWM3qw88H9vxWOtaDzTVlyDnrdh651vv2Yt4swPSB8qOS8FNOyic58tJe4rqmCOijnq0HRculY9OwdBmq7EI0wbZJJtoRu1L3Cfuw0M68xjWBj2wI5SV1c7p0SDHGLryu2IIAxyvIkW9CSBY1LVrfNpNRIvqcNxyE6ENmk3lBRbLMDkL-SobxgP-gzU7jYGfkuFT4qx-Y6rWrksQpQoxLtoXW4729FUPaP-aThFRRkjh_9_NQK8dpMLDgkQf-gBV6QDwY-9pptCFZ-XbS40fYzBx06uNvt7AZbmMxKsm91tpIZgRUZKR1XIkL6zaxEmE5ZgDLMord0Wl13nRXmLHME1OTsZmggwsFQEKUF9ye5Xvd7LAan9C-1jVgSzSvjL5mq7s0thKAmXGyfGIwAL3LBq1_HdNLLPdpK5sWXHhoTtcaYDcIWxBqdcjQkZOKMiYv_W80?></g></svg>