<?plantuml 1.2026.1?><svg xmlns="http://www.w3.org/2000/svg" xmlns:xlink="http://www.w3.org/1999/xlink" contentStyleType="text/css" data-diagram-type="DESCRIPTION" height="161px" preserveAspectRatio="none" style="width:1895px;height:161px;background:#FFFFFF;" version="1.1" viewBox="0 0 1895 161" width="1895px" zoomAndPan="magnify"><title>12. vLLM Adapter API Contract</title><defs/><g><g class="title" data-source-line="2"><text fill="#000000" font-family="DejaVu Sans" font-size="22" font-weight="bold" lengthAdjust="spacing" textLength="322.7168" x="781.8634" y="35.6357">12. vLLM Adapter API Contract</text></g><!--entity N1--><g class="entity" data-qualified-name="N1" data-source-line="8" id="ent0002"><rect fill="#D6EAF8" height="36.0986" rx="6" ry="6" style="stroke:#000000;stroke-width:1;" width="105.6064" x="12" y="58.2979"/><text fill="#000000" font-family="DejaVu Sans" font-size="14" lengthAdjust="spacing" textLength="85.6064" x="22" y="81.4297">vLLM adapter</text></g><!--entity N2--><g class="entity" data-qualified-name="N2" data-source-line="9" id="ent0003"><rect fill="#D5F5E3" height="36.0986" rx="6" ry="6" style="stroke:#000000;stroke-width:1;" width="166.2959" x="265.61" y="58.2979"/><text fill="#000000" font-family="DejaVu Sans" font-size="14" lengthAdjust="spacing" textLength="146.2959" x="275.61" y="81.4297">OpenAI-compatible API</text></g><!--entity N3--><g class="entity" data-qualified-name="N3" data-source-line="10" id="ent0004"><rect fill="#FCF3CF" height="36.0986" rx="6" ry="6" style="stroke:#000000;stroke-width:1;" width="156.9648" x="547.9" y="58.2979"/><text fill="#000000" font-family="DejaVu Sans" font-size="14" lengthAdjust="spacing" textLength="136.9648" x="557.9" y="81.4297">Coherence-native API</text></g><!--entity N4--><g class="entity" data-qualified-name="N4" data-source-line="11" id="ent0005"><rect fill="#E8DAEF" height="36.0986" rx="6" ry="6" style="stroke:#000000;stroke-width:1;" width="112.5996" x="825.87" y="58.2979"/><text fill="#000000" font-family="DejaVu Sans" font-size="14" lengthAdjust="spacing" textLength="92.5996" x="835.87" y="81.4297">Coherence-CE</text></g><!--entity N5--><g class="entity" data-qualified-name="N5" data-source-line="12" id="ent0006"><rect fill="#FADBD8" height="36.0986" rx="6" ry="6" style="stroke:#000000;stroke-width:1;" width="145.2959" x="1419.81" y="58.2979"/><text fill="#000000" font-family="DejaVu Sans" font-size="14" lengthAdjust="spacing" textLength="125.2959" x="1429.81" y="81.4297">Lower layers hidden</text></g><g class="entity" data-qualified-name="GMN11" data-source-line="20" id="ent0012"><path d="M1096.47,135.8679 L1096.47,148.8166 A6,6 0 0 0 1102.47,154.8166 L1882.4436,154.8166 A6,6 0 0 0 1888.4436,148.8166 L1888.4436,139.8679 L1878.4436,129.8679 L1496.45,129.8679 L1492.45,94.5979 L1488.45,129.8679 L1102.47,129.8679 A6,6 0 0 0 1096.47,135.8679" fill="#FFFFFF" style="stroke:#000000;stroke-width:1;"/><path d="M1878.4436,129.8679 L1878.4436,136.8679 A3,3 0 0 0 1881.4436,139.8679 L1888.4436,139.8679 L1878.4436,129.8679" fill="#FFFFFF" style="stroke:#000000;stroke-width:1;"/><text fill="#000000" font-family="DejaVu Sans" font-size="13" lengthAdjust="spacing" textLength="770.9736" x="1102.47" y="147.0617">Actor-facing contract: lower-layer resource identifiers remain hidden unless the ADR explicitly defines them as operator-only evidence.</text></g><!--link N1 to N2--><g class="link" data-entity-1="ent0002" data-entity-2="ent0003" data-link-type="dependency" data-source-line="14" id="lnk7"><path d="M117.85,76.3479 C159.14,76.3479 211.63,76.3479 259.28,76.3479" fill="none" id="N1-to-N2" style="stroke:#000000;stroke-width:1;"/><polygon fill="#000000" points="265.28,76.3479,256.28,72.3479,260.28,76.3479,256.28,80.3479,265.28,76.3479" style="stroke:#000000;stroke-width:1;"/><text fill="#000000" font-family="DejaVu Sans" font-size="13" lengthAdjust="spacing" textLength="86.7026" x="148.61" y="73.5417">request/stream</text></g><!--link N2 to N3--><g class="link" data-entity-1="ent0003" data-entity-2="ent0004" data-link-type="dependency" data-source-line="15" id="lnk8"><path d="M432.08,76.3479 C468.72,76.3479 505.65,76.3479 541.73,76.3479" fill="none" id="N2-to-N3" style="stroke:#000000;stroke-width:1;"/><polygon fill="#000000" points="547.73,76.3479,538.73,72.3479,542.73,76.3479,538.73,80.3479,547.73,76.3479" style="stroke:#000000;stroke-width:1;"/><text fill="#000000" font-family="DejaVu Sans" font-size="13" lengthAdjust="spacing" textLength="54.2026" x="462.9" y="73.5417">metadata</text></g><!--link N3 to N4--><g class="link" data-entity-1="ent0004" data-entity-2="ent0005" data-link-type="dependency" data-source-line="16" id="lnk9"><path d="M705.25,76.3479 C744.16,76.3479 784.32,76.3479 819.6,76.3479" fill="none" id="N3-to-N4" style="stroke:#000000;stroke-width:1;"/><polygon fill="#000000" points="825.6,76.3479,816.6,72.3479,820.6,76.3479,816.6,80.3479,825.6,76.3479" style="stroke:#000000;stroke-width:1;"/><text fill="#000000" font-family="DejaVu Sans" font-size="13" lengthAdjust="spacing" textLength="59.2617" x="735.87" y="73.5417">native ops</text></g><!--link N4 to N5--><g class="link" data-entity-1="ent0005" data-entity-2="ent0006" data-link-type="dependency" data-source-line="17" id="lnk10"><path d="M938.76,76.3479 C1049.33,76.3479 1290.73,76.3479 1413.5,76.3479" fill="none" id="N4-to-N5" style="stroke:#000000;stroke-width:1;"/><polygon fill="#000000" points="1419.5,76.3479,1410.5,72.3479,1414.5,76.3479,1410.5,80.3479,1419.5,76.3479" style="stroke:#000000;stroke-width:1;"/><text fill="#000000" font-family="DejaVu Sans" font-size="13" lengthAdjust="spacing" textLength="96.8271" x="969.47" y="73.5417">placement/policy</text></g><?plantuml-src RP9FRzim3CNl-XHSStQB9CqGz530yn-WGDOE6z0xAzEnDflo93fTldqf9mSFwCrwxvdy4UGNwMWW67jqRCH9Jx3UtCBfSFWEUOEZK83ynnCKdYMW5HF_E1unu02nmyQ_Epv2YtsaXHFyn8trWVNdzMPXDDJYr4kjnPvHsvRq6ryd-8KSJK-jW7W8xjW9D2wG5UVPcFI1V5IocnaBBrWtW16Urx0glrPvlL_6NaRY_2cpVXXHt9jAEi8blz7yhjvLssM-y1q5OaiPQ_wqY6zXLHVrjgW_ZnVL9NOFgsfVvjL_iOD_r_bxF5E8qBcc8RwaTreqBx-LUsEKFyiU4zO31FexKPIxA85mCAhDrbQjWKId5ZJwciLx5Q-iVen6txEyKrbNQNMbB7UZxvqz6yDU2DwyY1zCRiM7h4MRzcQlIts0Fh5cCwjoH3y5I-2KM5ph4d-WGI_aEWPCt5ECeBS3UVaJwD-edVHupcd3ZccsXZIi7obWQkbPNJgbcfPk3N43YUi3?></g></svg>