<?plantuml 1.2026.1?><svg xmlns="http://www.w3.org/2000/svg" xmlns:xlink="http://www.w3.org/1999/xlink" contentStyleType="text/css" data-diagram-type="DESCRIPTION" height="161px" preserveAspectRatio="none" style="width:1958px;height:161px;background:#FFFFFF;" version="1.1" viewBox="0 0 1958 161" width="1958px" zoomAndPan="magnify"><title>11. KV Durability Classes</title><defs/><g><g class="title" data-source-line="2"><text fill="#000000" font-family="DejaVu Sans" font-size="22" font-weight="bold" lengthAdjust="spacing" textLength="264.1182" x="842.9277" y="35.6357">11. KV Durability Classes</text></g><!--entity N1--><g class="entity" data-qualified-name="N1" data-source-line="8" id="ent0002"><rect fill="#D6EAF8" height="36.0986" rx="6" ry="6" style="stroke:#000000;stroke-width:1;" width="79.9238" x="12" y="58.2979"/><text fill="#000000" font-family="DejaVu Sans" font-size="14" lengthAdjust="spacing" textLength="59.9238" x="22" y="81.4297">KV object</text></g><!--entity N2--><g class="entity" data-qualified-name="N2" data-source-line="9" id="ent0003"><rect fill="#D5F5E3" height="36.0986" rx="6" ry="6" style="stroke:#000000;stroke-width:1;" width="149.9307" x="195.92" y="58.2979"/><text fill="#000000" font-family="DejaVu Sans" font-size="14" lengthAdjust="spacing" textLength="129.9307" x="205.92" y="81.4297">KV-D0..KV-D5 policy</text></g><!--entity N3--><g class="entity" data-qualified-name="N3" data-source-line="10" id="ent0004"><rect fill="#FCF3CF" height="36.0986" rx="6" ry="6" style="stroke:#000000;stroke-width:1;" width="156.9717" x="485.85" y="58.2979"/><text fill="#000000" font-family="DejaVu Sans" font-size="14" lengthAdjust="spacing" textLength="136.9717" x="495.85" y="81.4297">Coherence placement</text></g><!--entity N4--><g class="entity" data-qualified-name="N4" data-source-line="11" id="ent0005"><rect fill="#E8DAEF" height="36.0986" rx="6" ry="6" style="stroke:#000000;stroke-width:1;" width="156.1719" x="834.83" y="58.2979"/><text fill="#000000" font-family="DejaVu Sans" font-size="14" lengthAdjust="spacing" textLength="136.1719" x="844.83" y="81.4297">OpenZFS persistence</text></g><!--entity N5--><g class="entity" data-qualified-name="N5" data-source-line="12" id="ent0006"><rect fill="#FADBD8" height="36.0986" rx="6" ry="6" style="stroke:#000000;stroke-width:1;" width="146.041" x="1482.96" y="58.2979"/><text fill="#000000" font-family="DejaVu Sans" font-size="14" lengthAdjust="spacing" textLength="126.041" x="1492.96" y="81.4297">Recovery semantics</text></g><g class="entity" data-qualified-name="GMN11" data-source-line="20" id="ent0012"><path d="M1160,135.8679 L1160,148.8166 A6,6 0 0 0 1166,154.8166 L1945.9736,154.8166 A6,6 0 0 0 1951.9736,148.8166 L1951.9736,139.8679 L1941.9736,129.8679 L1559.98,129.8679 L1555.98,94.5979 L1551.98,129.8679 L1166,129.8679 A6,6 0 0 0 1160,135.8679" fill="#FFFFFF" style="stroke:#000000;stroke-width:1;"/><path d="M1941.9736,129.8679 L1941.9736,136.8679 A3,3 0 0 0 1944.9736,139.8679 L1951.9736,139.8679 L1941.9736,129.8679" fill="#FFFFFF" style="stroke:#000000;stroke-width:1;"/><text fill="#000000" font-family="DejaVu Sans" font-size="13" lengthAdjust="spacing" textLength="770.9736" x="1166" y="147.0617">Actor-facing contract: lower-layer resource identifiers remain hidden unless the ADR explicitly defines them as operator-only evidence.</text></g><!--link N1 to N2--><g class="link" data-entity-1="ent0002" data-entity-2="ent0003" data-link-type="dependency" data-source-line="14" id="lnk7"><path d="M92.25,76.3479 C121.06,76.3479 155.05,76.3479 189.8,76.3479" fill="none" id="N1-to-N2" style="stroke:#000000;stroke-width:1;"/><polygon fill="#000000" points="195.8,76.3479,186.8,72.3479,190.8,76.3479,186.8,80.3479,195.8,76.3479" style="stroke:#000000;stroke-width:1;"/><text fill="#000000" font-family="DejaVu Sans" font-size="13" lengthAdjust="spacing" textLength="42.6182" x="122.92" y="73.5417">classify</text></g><!--link N2 to N3--><g class="link" data-entity-1="ent0003" data-entity-2="ent0004" data-link-type="dependency" data-source-line="15" id="lnk8"><path d="M346.19,76.3479 C388.77,76.3479 436.17,76.3479 479.36,76.3479" fill="none" id="N2-to-N3" style="stroke:#000000;stroke-width:1;"/><polygon fill="#000000" points="485.36,76.3479,476.36,72.3479,480.36,76.3479,476.36,80.3479,485.36,76.3479" style="stroke:#000000;stroke-width:1;"/><text fill="#000000" font-family="DejaVu Sans" font-size="13" lengthAdjust="spacing" textLength="78.7808" x="376.85" y="73.5417">retention goal</text></g><!--link N3 to N4--><g class="link" data-entity-1="ent0004" data-entity-2="ent0005" data-link-type="dependency" data-source-line="16" id="lnk9"><path d="M643.12,76.3479 C700.2,76.3479 771.38,76.3479 828.39,76.3479" fill="none" id="N3-to-N4" style="stroke:#000000;stroke-width:1;"/><polygon fill="#000000" points="834.39,76.3479,825.39,72.3479,829.39,76.3479,825.39,80.3479,834.39,76.3479" style="stroke:#000000;stroke-width:1;"/><text fill="#000000" font-family="DejaVu Sans" font-size="13" lengthAdjust="spacing" textLength="130.7744" x="673.83" y="73.5417">memory/storage target</text></g><!--link N4 to N5--><g class="link" data-entity-1="ent0005" data-entity-2="ent0006" data-link-type="dependency" data-source-line="17" id="lnk10"><path d="M991.24,76.3479 C1116.29,76.3479 1355.14,76.3479 1476.81,76.3479" fill="none" id="N4-to-N5" style="stroke:#000000;stroke-width:1;"/><polygon fill="#000000" points="1482.81,76.3479,1473.81,72.3479,1477.81,76.3479,1473.81,80.3479,1482.81,76.3479" style="stroke:#000000;stroke-width:1;"/><text fill="#000000" font-family="DejaVu Sans" font-size="13" lengthAdjust="spacing" textLength="107.6753" x="1022" y="73.5417">durability evidence</text></g><?plantuml-src LLB1Rjim3BthAxZcx7HfwY7eOO0NnvS17T02FUp6oBIjJXODYMxdln_b36XwaiJtA3u-yeiCD19C7bqmuiGJx7PR-Fa2zHpnxBoJ1OuUKw9aqXyN9emuGXgmvNSNUkZG9xf28i-XjHm3HTZTNG4jTJXxQJZ88sh9cbxnPOPd3CbuwWI48Rf-46XT92kEWp7vWg5NLJSgYS-l-hu1JF2uWqtzxLGrXy-SelwwtUQZX8cziyk5VQViiYbF-slsaGUA5EpQlbKRml-_zx1fZit-s5opVqqKVZVFC55CBadEkx3lONCwrDNf4_k9BBzHN23HY46SJHTogLzNzO_wO8osK1JVixO7iDbXror6Nsjmhy58MYNx03sZDnfReNk5HXevBhT9E69F81Xx4gFGoYYLqNwCZzvSc-KQ4rW8pYp2ewci9XSTsZn5grE9QEK1FBzJB3mkEhz8YUUe_kHySPtJrZKuwgx0u5eDmXmyfGIwHL3LJq1_9pLTrsZ9ytQ1LcZChRCQXxaa1_-XQMiej91r_GC0?></g></svg>