<?plantuml 1.2026.1?><svg xmlns="http://www.w3.org/2000/svg" xmlns:xlink="http://www.w3.org/1999/xlink" contentStyleType="text/css" data-diagram-type="ACTIVITY" height="1228px" preserveAspectRatio="none" style="width:600px;height:1228px;background:#FFFFFF;" version="1.1" viewBox="0 0 600 1228" width="600px" zoomAndPan="magnify"><title>ADR-006 - OpenZFS NVMe-oF and Media Layout</title><defs/><g><g class="title" data-source-line="18"><text fill="#000000" font-family="DejaVu Sans" font-size="22" font-weight="bold" lengthAdjust="spacing" textLength="502.3691" x="47.3838" y="35.6357">ADR-006 - OpenZFS NVMe-oF and Media Layout</text></g><ellipse cx="293.0505" cy="61.2979" fill="#145A32" rx="10" ry="10" style="stroke:#000000;stroke-width:1;"/><rect fill="#FFFFFF" height="338.0178" rx="6" ry="6" style="stroke:#000000;stroke-width:1;" width="339.5039" x="129.2986" y="81.2979"/><path d="M316.7527,81.2979 L316.7527,90.3965 L306.7527,100.3965 L129.2986,100.3965" fill="none" style="stroke:#000000;stroke-width:1;"/><text fill="#000000" font-family="DejaVu Sans" font-size="14" lengthAdjust="spacing" textLength="177.4541" x="132.2986" y="95.4297">Namespace and pool design</text><rect fill="#FDFEFE" height="47.5977" rx="6" ry="6" style="stroke:#566573;stroke-width:1;" width="229.4668" x="178.3171" y="117.3965"/><text fill="#000000" font-family="DejaVu Sans" font-size="12" lengthAdjust="spacing" textLength="175.3828" x="188.3171" y="138.6523">Create mirrored NAND vdev sets</text><text fill="#000000" font-family="DejaVu Sans" font-size="12" lengthAdjust="spacing" textLength="209.4668" x="188.3171" y="152.4512">across independent storage nodes/rails</text><rect fill="#FDFEFE" height="47.5977" rx="6" ry="6" style="stroke:#566573;stroke-width:1;" width="237.4531" x="174.324" y="184.9941"/><text fill="#000000" font-family="DejaVu Sans" font-size="12" lengthAdjust="spacing" textLength="217.4531" x="184.324" y="206.25">Expose zvol/object backing through DPU</text><text fill="#000000" font-family="DejaVu Sans" font-size="12" lengthAdjust="spacing" textLength="200.1035" x="184.324" y="220.0488">NVMe-oF port 4420 on storage VLAN</text><rect fill="#FDFEFE" height="33.7988" rx="6" ry="6" style="stroke:#566573;stroke-width:1;" width="287.5039" x="149.2986" y="300.9163"/><text fill="#000000" font-family="DejaVu Sans" font-size="12" lengthAdjust="spacing" textLength="267.5039" x="159.2986" y="322.1721">Reject layout; failure domains are not independent</text><ellipse cx="293.0505" cy="374.3157" fill="none" rx="11" ry="11" style="stroke:#000000;stroke-width:1;"/><ellipse cx="293.0505" cy="374.3157" fill="#FFFFFF" rx="6" ry="6" style="stroke:#000000;stroke-width:1;"/><polygon fill="#FCF3CF" points="187.3018,252.5918,398.7993,252.5918,410.7993,264.5918,398.7993,276.5918,187.3018,276.5918,175.3018,264.5918,187.3018,252.5918" style="stroke:#B7950B;stroke-width:1;"/><text fill="#000000" font-family="DejaVu Sans" font-size="11" lengthAdjust="spacing" textLength="31.1846" x="297.0505" y="286.9097">invalid</text><text fill="#000000" font-family="DejaVu Sans" font-size="11" lengthAdjust="spacing" textLength="211.4976" x="187.3018" y="268.5852">mirror legs share rack, PSU, switch, or rail?</text><rect fill="#FFFFFF" height="213.4951" rx="6" ry="6" style="stroke:#000000;stroke-width:1;" width="498.877" x="37.2913" y="429.3157"/><path d="M111.0911,429.3157 L111.0911,438.4143 L101.0911,448.4143 L37.2913,448.4143" fill="none" style="stroke:#000000;stroke-width:1;"/><text fill="#000000" font-family="DejaVu Sans" font-size="14" lengthAdjust="spacing" textLength="63.7998" x="40.2913" y="443.4475">Write path</text><rect fill="#FDFEFE" height="33.7988" rx="6" ry="6" style="stroke:#566573;stroke-width:1;" width="339.1367" x="123.4822" y="465.4143"/><text fill="#000000" font-family="DejaVu Sans" font-size="12" lengthAdjust="spacing" textLength="319.1367" x="133.4822" y="486.6702">Coherence durable object -&gt; DPU -&gt; NVMe-oF -&gt; OpenZFS</text><polygon fill="#FCF3CF" points="244.7483,519.2131,341.3528,519.2131,353.3528,531.2131,341.3528,543.2131,244.7483,543.2131,232.7483,531.2131,244.7483,519.2131" style="stroke:#B7950B;stroke-width:1;"/><text fill="#000000" font-family="DejaVu Sans" font-size="11" lengthAdjust="spacing" textLength="96.6045" x="244.7483" y="535.2065">sync/durable class?</text><text fill="#000000" font-family="DejaVu Sans" font-size="11" lengthAdjust="spacing" textLength="22.6177" x="210.1306" y="528.8821">sync</text><text fill="#000000" font-family="DejaVu Sans" font-size="11" lengthAdjust="spacing" textLength="98.4414" x="353.3528" y="528.8821">async/recomputable</text><rect fill="#FDFEFE" height="47.5977" rx="6" ry="6" style="stroke:#566573;stroke-width:1;" width="232.0801" x="57.2913" y="553.2131"/><text fill="#000000" font-family="DejaVu Sans" font-size="12" lengthAdjust="spacing" textLength="212.0801" x="67.2913" y="574.469">Commit via zfs_slog and checksum tree</text><text fill="#000000" font-family="DejaVu Sans" font-size="12" lengthAdjust="spacing" textLength="105.3984" x="67.2913" y="588.2678">before durable ACK</text><rect fill="#FDFEFE" height="47.5977" rx="6" ry="6" style="stroke:#566573;stroke-width:1;" width="206.7969" x="309.3713" y="553.2131"/><text fill="#000000" font-family="DejaVu Sans" font-size="12" lengthAdjust="spacing" textLength="158.0684" x="319.3713" y="574.469">Buffer under write-back policy</text><text fill="#000000" font-family="DejaVu Sans" font-size="12" lengthAdjust="spacing" textLength="186.7969" x="319.3713" y="588.2678">with flush deadline and loss budget</text><polygon fill="#FCF3CF" points="293.0505,606.8108,305.0505,618.8108,293.0505,630.8108,281.0505,618.8108,293.0505,606.8108" style="stroke:#B7950B;stroke-width:1;"/><rect fill="#FFFFFF" height="159.6963" rx="6" ry="6" style="stroke:#000000;stroke-width:1;" width="524.166" x="23.2786" y="652.8108"/><path d="M97.885,652.8108 L97.885,661.9094 L87.885,671.9094 L23.2786,671.9094" fill="none" style="stroke:#000000;stroke-width:1;"/><text fill="#000000" font-family="DejaVu Sans" font-size="14" lengthAdjust="spacing" textLength="64.6064" x="26.2786" y="666.9426">Read path</text><polygon fill="#FCF3CF" points="229.1641,688.9094,356.937,688.9094,368.937,700.9094,356.937,712.9094,229.1641,712.9094,217.1641,700.9094,229.1641,688.9094" style="stroke:#B7950B;stroke-width:1;"/><text fill="#000000" font-family="DejaVu Sans" font-size="11" lengthAdjust="spacing" textLength="127.7729" x="229.1641" y="704.9028">hit in zfs_arc or zfs_l2arc?</text><text fill="#000000" font-family="DejaVu Sans" font-size="11" lengthAdjust="spacing" textLength="44.0269" x="173.1372" y="698.5784">cache hit</text><text fill="#000000" font-family="DejaVu Sans" font-size="11" lengthAdjust="spacing" textLength="29.96" x="368.937" y="698.5784">media</text><rect fill="#FDFEFE" height="33.7988" rx="6" ry="6" style="stroke:#566573;stroke-width:1;" width="247.4609" x="43.2786" y="722.9094"/><text fill="#000000" font-family="DejaVu Sans" font-size="12" lengthAdjust="spacing" textLength="227.4609" x="53.2786" y="744.1653">Serve to object_cache or kv_rdma_staging</text><rect fill="#FDFEFE" height="47.5977" rx="6" ry="6" style="stroke:#566573;stroke-width:1;" width="216.7051" x="310.7395" y="722.9094"/><text fill="#000000" font-family="DejaVu Sans" font-size="12" lengthAdjust="spacing" textLength="196.7051" x="320.7395" y="744.1653">Read NAND mirror, verify checksum,</text><text fill="#000000" font-family="DejaVu Sans" font-size="12" lengthAdjust="spacing" textLength="179.4375" x="320.7395" y="757.9641">repair from good replica if needed</text><polygon fill="#FCF3CF" points="293.0505,776.5071,305.0505,788.5071,293.0505,800.5071,281.0505,788.5071,293.0505,776.5071" style="stroke:#B7950B;stroke-width:1;"/><rect fill="#FFFFFF" height="159.6963" rx="6" ry="6" style="stroke:#000000;stroke-width:1;" width="577.5796" x="11.2786" y="822.5071"/><path d="M89.761,822.5071 L89.761,831.6057 L79.761,841.6057 L11.2786,841.6057" fill="none" style="stroke:#000000;stroke-width:1;"/><text fill="#000000" font-family="DejaVu Sans" font-size="14" lengthAdjust="spacing" textLength="68.4824" x="14.2786" y="836.6389">Operations</text><polygon fill="#FCF3CF" points="200.7375,858.6057,385.3635,858.6057,397.3635,870.6057,385.3635,882.6057,200.7375,882.6057,188.7375,870.6057,200.7375,858.6057" style="stroke:#B7950B;stroke-width:1;"/><text fill="#000000" font-family="DejaVu Sans" font-size="11" lengthAdjust="spacing" textLength="184.626" x="200.7375" y="874.5991">resilver/scrub/degraded mirror active?</text><text fill="#000000" font-family="DejaVu Sans" font-size="11" lengthAdjust="spacing" textLength="46.4868" x="142.2507" y="868.2747">degraded</text><text fill="#000000" font-family="DejaVu Sans" font-size="11" lengthAdjust="spacing" textLength="33.623" x="397.3635" y="868.2747">normal</text><rect fill="#FDFEFE" height="47.5977" rx="6" ry="6" style="stroke:#566573;stroke-width:1;" width="240.7871" x="31.2566" y="892.6057"/><text fill="#000000" font-family="DejaVu Sans" font-size="12" lengthAdjust="spacing" textLength="217.4355" x="41.2566" y="913.8616">Lower admission, reserve rail bandwidth,</text><text fill="#000000" font-family="DejaVu Sans" font-size="12" lengthAdjust="spacing" textLength="220.7871" x="41.2566" y="927.6604">block hot inference placement if p99 rises</text><rect fill="#FDFEFE" height="33.7988" rx="6" ry="6" style="stroke:#566573;stroke-width:1;" width="284.8145" x="292.0437" y="892.6057"/><text fill="#000000" font-family="DejaVu Sans" font-size="12" lengthAdjust="spacing" textLength="264.8145" x="302.0437" y="913.8616">Permit scheduled scrubs and snapshot replication</text><polygon fill="#FCF3CF" points="293.0505,946.2034,305.0505,958.2034,293.0505,970.2034,281.0505,958.2034,293.0505,946.2034" style="stroke:#B7950B;stroke-width:1;"/><ellipse cx="293.0505" cy="1013.2034" fill="none" rx="11" ry="11" style="stroke:#000000;stroke-width:1;"/><ellipse cx="293.0505" cy="1013.2034" fill="#FFFFFF" rx="6" ry="6" style="stroke:#000000;stroke-width:1;"/><line style="stroke:#34495E;stroke-width:1;" x1="293.0505" x2="293.0505" y1="164.9941" y2="184.9941"/><polygon fill="#34495E" points="289.0505,174.9941,293.0505,184.9941,297.0505,174.9941,293.0505,178.9941" style="stroke:#34495E;stroke-width:1;"/><line style="stroke:#34495E;stroke-width:1;" x1="293.0505" x2="293.0505" y1="334.7151" y2="363.3157"/><polygon fill="#34495E" points="289.0505,353.3157,293.0505,363.3157,297.0505,353.3157,293.0505,357.3157" style="stroke:#34495E;stroke-width:1;"/><line style="stroke:#34495E;stroke-width:1;" x1="293.0505" x2="293.0505" y1="276.5918" y2="300.9163"/><polygon fill="#34495E" points="289.0505,290.9163,293.0505,300.9163,297.0505,290.9163,293.0505,294.9163" style="stroke:#34495E;stroke-width:1;"/><line style="stroke:#34495E;stroke-width:1;" x1="410.7993" x2="446.8025" y1="264.5918" y2="264.5918"/><polygon fill="#34495E" points="442.8025,333.3157,446.8025,343.3157,450.8025,333.3157,446.8025,337.3157" style="stroke:#34495E;stroke-width:1;"/><line style="stroke:#34495E;stroke-width:1;" x1="446.8025" x2="446.8025" y1="264.5918" y2="407.3157"/><line style="stroke:#34495E;stroke-width:1;" x1="446.8025" x2="293.0505" y1="407.3157" y2="407.3157"/><line style="stroke:#34495E;stroke-width:1;" x1="293.0505" x2="293.0505" y1="407.3157" y2="465.4143"/><polygon fill="#34495E" points="289.0505,455.4143,293.0505,465.4143,297.0505,455.4143,293.0505,459.4143" style="stroke:#34495E;stroke-width:1;"/><line style="stroke:#34495E;stroke-width:1;" x1="293.0505" x2="293.0505" y1="232.5918" y2="252.5918"/><polygon fill="#34495E" points="289.0505,242.5918,293.0505,252.5918,297.0505,242.5918,293.0505,246.5918" style="stroke:#34495E;stroke-width:1;"/><line style="stroke:#34495E;stroke-width:1;" x1="293.0505" x2="293.0505" y1="71.2979" y2="117.3965"/><polygon fill="#34495E" points="289.0505,107.3965,293.0505,117.3965,297.0505,107.3965,293.0505,111.3965" style="stroke:#34495E;stroke-width:1;"/><line style="stroke:#34495E;stroke-width:1;" x1="232.7483" x2="173.3313" y1="531.2131" y2="531.2131"/><line style="stroke:#34495E;stroke-width:1;" x1="173.3313" x2="173.3313" y1="531.2131" y2="553.2131"/><polygon fill="#34495E" points="169.3313,543.2131,173.3313,553.2131,177.3313,543.2131,173.3313,547.2131" style="stroke:#34495E;stroke-width:1;"/><line style="stroke:#34495E;stroke-width:1;" x1="353.3528" x2="412.7698" y1="531.2131" y2="531.2131"/><line style="stroke:#34495E;stroke-width:1;" x1="412.7698" x2="412.7698" y1="531.2131" y2="553.2131"/><polygon fill="#34495E" points="408.7698,543.2131,412.7698,553.2131,416.7698,543.2131,412.7698,547.2131" style="stroke:#34495E;stroke-width:1;"/><line style="stroke:#34495E;stroke-width:1;" x1="173.3313" x2="173.3313" y1="600.8108" y2="618.8108"/><line style="stroke:#34495E;stroke-width:1;" x1="173.3313" x2="281.0505" y1="618.8108" y2="618.8108"/><polygon fill="#34495E" points="271.0505,614.8108,281.0505,618.8108,271.0505,622.8108,275.0505,618.8108" style="stroke:#34495E;stroke-width:1;"/><line style="stroke:#34495E;stroke-width:1;" x1="412.7698" x2="412.7698" y1="600.8108" y2="618.8108"/><line style="stroke:#34495E;stroke-width:1;" x1="412.7698" x2="305.0505" y1="618.8108" y2="618.8108"/><polygon fill="#34495E" points="315.0505,614.8108,305.0505,618.8108,315.0505,622.8108,311.0505,618.8108" style="stroke:#34495E;stroke-width:1;"/><line style="stroke:#34495E;stroke-width:1;" x1="293.0505" x2="293.0505" y1="499.2131" y2="519.2131"/><polygon fill="#34495E" points="289.0505,509.2131,293.0505,519.2131,297.0505,509.2131,293.0505,513.2131" style="stroke:#34495E;stroke-width:1;"/><line style="stroke:#34495E;stroke-width:1;" x1="217.1641" x2="167.009" y1="700.9094" y2="700.9094"/><line style="stroke:#34495E;stroke-width:1;" x1="167.009" x2="167.009" y1="700.9094" y2="722.9094"/><polygon fill="#34495E" points="163.009,712.9094,167.009,722.9094,171.009,712.9094,167.009,716.9094" style="stroke:#34495E;stroke-width:1;"/><line style="stroke:#34495E;stroke-width:1;" x1="368.937" x2="419.092" y1="700.9094" y2="700.9094"/><line style="stroke:#34495E;stroke-width:1;" x1="419.092" x2="419.092" y1="700.9094" y2="722.9094"/><polygon fill="#34495E" points="415.092,712.9094,419.092,722.9094,423.092,712.9094,419.092,716.9094" style="stroke:#34495E;stroke-width:1;"/><line style="stroke:#34495E;stroke-width:1;" x1="167.009" x2="167.009" y1="756.7083" y2="788.5071"/><line style="stroke:#34495E;stroke-width:1;" x1="167.009" x2="281.0505" y1="788.5071" y2="788.5071"/><polygon fill="#34495E" points="271.0505,784.5071,281.0505,788.5071,271.0505,792.5071,275.0505,788.5071" style="stroke:#34495E;stroke-width:1;"/><line style="stroke:#34495E;stroke-width:1;" x1="419.092" x2="419.092" y1="770.5071" y2="788.5071"/><line style="stroke:#34495E;stroke-width:1;" x1="419.092" x2="305.0505" y1="788.5071" y2="788.5071"/><polygon fill="#34495E" points="315.0505,784.5071,305.0505,788.5071,315.0505,792.5071,311.0505,788.5071" style="stroke:#34495E;stroke-width:1;"/><line style="stroke:#34495E;stroke-width:1;" x1="293.0505" x2="293.0505" y1="630.8108" y2="688.9094"/><polygon fill="#34495E" points="289.0505,678.9094,293.0505,688.9094,297.0505,678.9094,293.0505,682.9094" style="stroke:#34495E;stroke-width:1;"/><line style="stroke:#34495E;stroke-width:1;" x1="188.7375" x2="151.6501" y1="870.6057" y2="870.6057"/><line style="stroke:#34495E;stroke-width:1;" x1="151.6501" x2="151.6501" y1="870.6057" y2="892.6057"/><polygon fill="#34495E" points="147.6501,882.6057,151.6501,892.6057,155.6501,882.6057,151.6501,886.6057" style="stroke:#34495E;stroke-width:1;"/><line style="stroke:#34495E;stroke-width:1;" x1="397.3635" x2="434.4509" y1="870.6057" y2="870.6057"/><line style="stroke:#34495E;stroke-width:1;" x1="434.4509" x2="434.4509" y1="870.6057" y2="892.6057"/><polygon fill="#34495E" points="430.4509,882.6057,434.4509,892.6057,438.4509,882.6057,434.4509,886.6057" style="stroke:#34495E;stroke-width:1;"/><line style="stroke:#34495E;stroke-width:1;" x1="151.6501" x2="151.6501" y1="940.2034" y2="958.2034"/><line style="stroke:#34495E;stroke-width:1;" x1="151.6501" x2="281.0505" y1="958.2034" y2="958.2034"/><polygon fill="#34495E" points="271.0505,954.2034,281.0505,958.2034,271.0505,962.2034,275.0505,958.2034" style="stroke:#34495E;stroke-width:1;"/><line style="stroke:#34495E;stroke-width:1;" x1="434.4509" x2="434.4509" y1="926.4045" y2="958.2034"/><line style="stroke:#34495E;stroke-width:1;" x1="434.4509" x2="305.0505" y1="958.2034" y2="958.2034"/><polygon fill="#34495E" points="315.0505,954.2034,305.0505,958.2034,315.0505,962.2034,311.0505,958.2034" style="stroke:#34495E;stroke-width:1;"/><line style="stroke:#34495E;stroke-width:1;" x1="293.0505" x2="293.0505" y1="800.5071" y2="858.6057"/><polygon fill="#34495E" points="289.0505,848.6057,293.0505,858.6057,297.0505,848.6057,293.0505,852.6057" style="stroke:#34495E;stroke-width:1;"/><line style="stroke:#34495E;stroke-width:1;" x1="293.0505" x2="293.0505" y1="970.2034" y2="1002.2034"/><polygon fill="#34495E" points="289.0505,992.2034,293.0505,1002.2034,297.0505,992.2034,293.0505,996.2034" style="stroke:#34495E;stroke-width:1;"/><g class="legend" data-source-line="20"><rect fill="none" height="187.085" rx="6" ry="6" style="stroke:#000000;stroke-width:1;" width="577.1367" x="10" y="1028.2034"/><text fill="#000000" font-family="DejaVu Sans" font-size="14" lengthAdjust="spacing" textLength="368.0537" x="15" y="1046.3352">Design defaults for diagrams unless an ADR narrows them:</text><text fill="#000000" font-family="DejaVu Sans" font-size="14" lengthAdjust="spacing" textLength="528.3633" x="15" y="1062.4338">- Actor/API: HTTPS 443 or 8443; OpenAI-compatible API plus Coherence-native API.</text><text fill="#000000" font-family="DejaVu Sans" font-size="14" lengthAdjust="spacing" textLength="510.4258" x="15" y="1078.5325">- RoCEv2: UDP destination 4791; jumbo MTU 9000; PFC only on RDMA priorities.</text><text fill="#000000" font-family="DejaVu Sans" font-size="14" lengthAdjust="spacing" textLength="554.7432" x="15" y="1094.6311">- NVMe-oF: discovery/controller service on TCP/RDMA port 4420; DPU-mediated targets.</text><text fill="#000000" font-family="DejaVu Sans" font-size="14" lengthAdjust="spacing" textLength="544.7012" x="15" y="1110.7297">- Telemetry: OTLP gRPC 4317, OTLP HTTP 4318, Prometheus 9090/9100, gNMI 9339.</text><text fill="#000000" font-family="DejaVu Sans" font-size="14" lengthAdjust="spacing" textLength="519.8252" x="15" y="1126.8284">- Timing: PTP event/general UDP 319/320 on an isolated timing/management class.</text><text fill="#000000" font-family="DejaVu Sans" font-size="14" lengthAdjust="spacing" textLength="454.4121" x="15" y="1142.927">- VLAN plan: site-specific IDs are allowed, but classes must stay isolated:</text><text fill="#000000" font-family="DejaVu Sans" font-size="14" lengthAdjust="spacing" textLength="559.3574" x="22.7793" y="1159.0256">mgmt/OOB, frontend/API, RDMA rail-A, RDMA rail-B, storage/NVMe-oF, telemetry, timing.</text><text fill="#000000" font-family="DejaVu Sans" font-size="14" lengthAdjust="spacing" textLength="507.3564" x="15" y="1175.1243">- Trunks: 802.1Q tagged uplinks; rail-A and rail-B must not share a failure domain.</text><text fill="#000000" font-family="DejaVu Sans" font-size="14" lengthAdjust="spacing" textLength="464.4951" x="15" y="1191.2229">- Buffers: kv_hbm_active, kv_dram_warm, kv_cxl_warm, kv_rdma_staging,</text><text fill="#000000" font-family="DejaVu Sans" font-size="14" lengthAdjust="spacing" textLength="392.2119" x="22.7793" y="1207.3215">zfs_slog, zfs_arc, zfs_l2arc, object_cache, vector_head_cache.</text></g><?plantuml-src TLRRRjj647tNLqpJbmIWGjqSXnBGGjO5DUgBwaiA50QC5JaYDrxk4hjBAKgHV-_CafBLj7cnzZfxvioPG__a2omHAYMaxhWNgIjXHGck49dPIPt3HYY79plMr3fBZTLeeJyusSXm8shbbqRx6q4Xv_XPVAhXNcXtScfghTdDZ38MVXwEHidPucHJf5vkfT_3tns02v6-vE6rzlXolbmi5xnZR8QsNJtxyE7iV4YhSobAexF_NfijXxFboO7JsnVdoLdlWZRllR2-NUoFpgR30IqkZa6ImU1YqEzyEm6hZSSV05qiayNvzq3RfxvrlFGAOJg_w_Pw7w0BjnNglvRtSFFf6hjc2K9dS8sP570bzgRsdOx276dHohpmdJawcUi3tGus59mEvuJ9GQqLEaSXE3vemMmxu1gFErsOfjxOUBgw7CDl3m-hUnYDXa3NFzBl9E2ONdPJKrR2opLZN5sICce7CrEWHPrYLzFMDkoyfu1tPhRO3iRmE5yH8ESbRniDe_EaFu7FTRasSFtm24clrvl0QZa3ezMU_i3T_7eAbPN6IY_HSR0s_p5burApHRkFKnAJDKgHrXpQhKoHxpxCLd5ptrXFEGmezdprs2sPD8yPK2rpz27e0ohIjxVxCTm-NAqWlrlDO3JidqVDd7dW-SS8LjRGoG8ftwINzEAat-j5aDzSNq8o72OXcYof9yQmeakuHUrZAWnQeG83mtuI3mSzXaW5aCwe1asu59T2YvomQ0-f4YwW-tGrlU7UqsDmqcFNLPZAZKpXSav5j0X2ARF3B89rtLv31sNjF3WlziStnYIsCYzzV7jx4S764cqa6Avqr31jXLJTwUc4pZbI0q6AM-8Zy0UoeXPqoDdM-iMDuMDlyBx_1t6RvvHKNIb9ovCsSX1j4xU1Hzt19i8fa8L8LTCeCoMv3CUyg3SRj1JqPVjShCldqFWOyJGZ7J_lX2t3BFsYNYSsAyKpvPqJieWo_hfnpqwPF0eZOTDce0PXQDQVCVNFgKWBYhn5rlvpWI9hbjvtYA6ciJeTnztVeRwctcJzlc47SvKWlN5YbJ6AzKrzzoQq_7XcaNY7KbA3MQBZPdepXss6MzAfTqzQfDPG7qgT8NLLnaLlsIPcA5BCNBa9XrfygOn3-BerAcummveSXRtN5sGhUS7YVj87UpYAddLs2Cf2ucXo0syRK42vkRO4bkAHlkyVgUOxwTCYugvd2B--OtFGy5RghL0oUqSn2DCT1Xmg-C_akm8sokG2dwGt2HS9JaK3Mf8RSheJGl-aFgVFZF35WS63fK1MMy5kqoRV_ONpvPz3nZHiFVAGejlhD3xS2srnJ8ItsYncfYobXoqvwK4gePnK_VJ5rILuY_YarqWM-WfZElkTdq7wxC5R4LwooAPOUzvlOpSA9hybWuST9zVbgb5rb4ptJvfeBc13tbcGS4H6pT98IR4irdL6_ZJvVwRkwFW9KPnk8PdhWygvTaUT7_CEeWOwsGAy9xz4yEPVVS1Nlskarro3VHu585fHDshY1h9oipzo5prfYvMGbjscXDmOwdyaKqW5GzQ86MO_o92AQSDtmhscQAcx5BqHkzJMwpX3-fvHXFRvvZy3F2Pxs6xHNf57qfcibCvHs8YGk90-IvowIMSxcVc2CA-LeI8LGRkRLd_alsdZomIaIXBwpfBBllAYZIs5QfzQeMLDEU8XgnK137XTgAtJed8SkoM2KpobWBlZ7m00?></g></svg>