<?plantuml 1.2026.1?><svg xmlns="http://www.w3.org/2000/svg" xmlns:xlink="http://www.w3.org/1999/xlink" contentStyleType="text/css" data-diagram-type="DESCRIPTION" height="161px" preserveAspectRatio="none" style="width:1924px;height:161px;background:#FFFFFF;" version="1.1" viewBox="0 0 1924 161" width="1924px" zoomAndPan="magnify"><title>17. Research Metadata Workflow</title><defs/><g><g class="title" data-source-line="2"><text fill="#000000" font-family="DejaVu Sans" font-size="22" font-weight="bold" lengthAdjust="spacing" textLength="342.332" x="786.3408" y="35.6357">17. Research Metadata Workflow</text></g><!--entity N1--><g class="entity" data-qualified-name="N1" data-source-line="8" id="ent0002"><rect fill="#D6EAF8" height="36.0986" rx="6" ry="6" style="stroke:#000000;stroke-width:1;" width="160.0752" x="12" y="58.2979"/><text fill="#000000" font-family="DejaVu Sans" font-size="14" lengthAdjust="spacing" textLength="140.0752" x="22" y="81.4297">arXiv API/S3/bulk data</text></g><!--entity N2--><g class="entity" data-qualified-name="N2" data-source-line="9" id="ent0003"><rect fill="#D5F5E3" height="36.0986" rx="6" ry="6" style="stroke:#000000;stroke-width:1;" width="136.7168" x="288.08" y="58.2979"/><text fill="#000000" font-family="DejaVu Sans" font-size="14" lengthAdjust="spacing" textLength="116.7168" x="298.08" y="81.4297">Local RAG archive</text></g><!--entity N3--><g class="entity" data-qualified-name="N3" data-source-line="10" id="ent0004"><rect fill="#FCF3CF" height="36.0986" rx="6" ry="6" style="stroke:#000000;stroke-width:1;" width="115.7305" x="573.79" y="58.2979"/><text fill="#000000" font-family="DejaVu Sans" font-size="14" lengthAdjust="spacing" textLength="95.7305" x="583.79" y="81.4297">Metadata index</text></g><!--entity N4--><g class="entity" data-qualified-name="N4" data-source-line="11" id="ent0005"><rect fill="#E8DAEF" height="36.0986" rx="6" ry="6" style="stroke:#000000;stroke-width:1;" width="179.5166" x="836.52" y="58.2979"/><text fill="#000000" font-family="DejaVu Sans" font-size="14" lengthAdjust="spacing" textLength="159.5166" x="846.52" y="81.4297">Markdown/LaTeX/BibTeX</text></g><!--entity N5--><g class="entity" data-qualified-name="N5" data-source-line="12" id="ent0006"><rect fill="#FADBD8" height="36.0986" rx="6" ry="6" style="stroke:#000000;stroke-width:1;" width="145.3096" x="1448.37" y="58.2979"/><text fill="#000000" font-family="DejaVu Sans" font-size="14" lengthAdjust="spacing" textLength="125.3096" x="1458.37" y="81.4297">Publication package</text></g><g class="entity" data-qualified-name="GMN11" data-source-line="20" id="ent0012"><path d="M1125.04,135.8679 L1125.04,148.8166 A6,6 0 0 0 1131.04,154.8166 L1911.0136,154.8166 A6,6 0 0 0 1917.0136,148.8166 L1917.0136,139.8679 L1907.0136,129.8679 L1525.03,129.8679 L1521.03,94.5979 L1517.03,129.8679 L1131.04,129.8679 A6,6 0 0 0 1125.04,135.8679" fill="#FFFFFF" style="stroke:#000000;stroke-width:1;"/><path d="M1907.0136,129.8679 L1907.0136,136.8679 A3,3 0 0 0 1910.0136,139.8679 L1917.0136,139.8679 L1907.0136,129.8679" fill="#FFFFFF" style="stroke:#000000;stroke-width:1;"/><text fill="#000000" font-family="DejaVu Sans" font-size="13" lengthAdjust="spacing" textLength="770.9736" x="1131.04" y="147.0617">Actor-facing contract: lower-layer resource identifiers remain hidden unless the ADR explicitly defines them as operator-only evidence.</text></g><!--link N1 to N2--><g class="link" data-entity-1="ent0002" data-entity-2="ent0003" data-link-type="dependency" data-source-line="14" id="lnk7"><path d="M172.48,76.3479 C209.28,76.3479 246.56,76.3479 281.78,76.3479" fill="none" id="N1-to-N2" style="stroke:#000000;stroke-width:1;"/><polygon fill="#000000" points="287.78,76.3479,278.78,72.3479,282.78,76.3479,278.78,80.3479,287.78,76.3479" style="stroke:#000000;stroke-width:1;"/><text fill="#000000" font-family="DejaVu Sans" font-size="13" lengthAdjust="spacing" textLength="54.2026" x="203.08" y="73.5417">metadata</text></g><!--link N2 to N3--><g class="link" data-entity-1="ent0003" data-entity-2="ent0004" data-link-type="dependency" data-source-line="15" id="lnk8"><path d="M424.97,76.3479 C470.64,76.3479 524.29,76.3479 567.58,76.3479" fill="none" id="N2-to-N3" style="stroke:#000000;stroke-width:1;"/><polygon fill="#000000" points="573.58,76.3479,564.58,72.3479,568.58,76.3479,564.58,80.3479,573.58,76.3479" style="stroke:#000000;stroke-width:1;"/><text fill="#000000" font-family="DejaVu Sans" font-size="13" lengthAdjust="spacing" textLength="87.4136" x="455.79" y="73.5417">PDF/source tar</text></g><!--link N3 to N4--><g class="link" data-entity-1="ent0004" data-entity-2="ent0005" data-link-type="dependency" data-source-line="16" id="lnk9"><path d="M689.77,76.3479 C731.35,76.3479 782.48,76.3479 830.05,76.3479" fill="none" id="N3-to-N4" style="stroke:#000000;stroke-width:1;"/><polygon fill="#000000" points="836.05,76.3479,827.05,72.3479,831.05,76.3479,827.05,80.3479,836.05,76.3479" style="stroke:#000000;stroke-width:1;"/><text fill="#000000" font-family="DejaVu Sans" font-size="13" lengthAdjust="spacing" textLength="85.2554" x="720.52" y="73.5417">SQLite/JSONL</text></g><!--link N4 to N5--><g class="link" data-entity-1="ent0005" data-entity-2="ent0006" data-link-type="dependency" data-source-line="17" id="lnk10"><path d="M1016.34,76.3479 C1134.14,76.3479 1333.49,76.3479 1442.03,76.3479" fill="none" id="N4-to-N5" style="stroke:#000000;stroke-width:1;"/><polygon fill="#000000" points="1448.03,76.3479,1439.03,72.3479,1443.03,76.3479,1439.03,80.3479,1448.03,76.3479" style="stroke:#000000;stroke-width:1;"/><text fill="#000000" font-family="DejaVu Sans" font-size="13" lengthAdjust="spacing" textLength="47.6899" x="1047.04" y="73.5417">citations</text></g><?plantuml-src LL91Rjim4Bpp5Tlux0YEujR8eO0IMKKBrtNjeirrJQqiLXGfa2id-NsNjb4u9r4pG-uCPZzmIpt1OD4unOOjmUpJBMmf4WRTmdTYh94H_lZGDTQ_gDWPDs307cABjNynxW0DsaXNJF2ZgxKFZWBCxgw8cXeSBLVUyHfbRab_yVS8EtHHMMeOs4CmXvQXDe4q6--KIWTq1x5sW-7P7A7OVCrsUROVRGV9t0rWXFKC9kN7PL4jhY-il4OBs-8Bf3ZcI6VjdMZdrNoPNsl_PpMkfjUpC8T9zLJbJzKx8OPEahjiXR_eENiqU_cSzVSmMIxAOlbElndtrcXCQM10tU7XOcCkhnVbOxbGIknFfv-JimVeBqQK_9t0NC1DMMNHZq4JC0Obs8cw5shtSsMOic-x7-kL4kH4p8NGXazJerBECy7UC_jU5Pfzc3QeKtTQkWYe-G6aNGfJYs_IMg3BB5EJOzCO2b70NjO4MbCB2AEp52F80a5HRe5U1maf6_IMMZQEJbIVSlg10gQHtWbBn_Icfbj5heRawny0?></g></svg>