<?plantuml 1.2026.1?><svg xmlns="http://www.w3.org/2000/svg" xmlns:xlink="http://www.w3.org/1999/xlink" contentStyleType="text/css" data-diagram-type="DESCRIPTION" height="161px" preserveAspectRatio="none" style="width:1732px;height:161px;background:#FFFFFF;" version="1.1" viewBox="0 0 1732 161" width="1732px" zoomAndPan="magnify"><title>04. RDMA and GPU-Direct Paths</title><defs/><g><g class="title" data-source-line="2"><text fill="#000000" font-family="DejaVu Sans" font-size="22" font-weight="bold" lengthAdjust="spacing" textLength="337.4014" x="693.2911" y="35.6357">04. RDMA and GPU-Direct Paths</text></g><!--entity N1--><g class="entity" data-qualified-name="N1" data-source-line="8" id="ent0002"><rect fill="#D6EAF8" height="36.0986" rx="6" ry="6" style="stroke:#000000;stroke-width:1;" width="112.5996" x="12" y="58.2979"/><text fill="#000000" font-family="DejaVu Sans" font-size="14" lengthAdjust="spacing" textLength="92.5996" x="22" y="81.4297">Coherence-CE</text></g><!--entity N2--><g class="entity" data-qualified-name="N2" data-source-line="9" id="ent0003"><rect fill="#D5F5E3" height="36.0986" rx="6" ry="6" style="stroke:#000000;stroke-width:1;" width="110.2549" x="239.6" y="58.2979"/><text fill="#000000" font-family="DejaVu Sans" font-size="14" lengthAdjust="spacing" textLength="90.2549" x="249.6" y="81.4297">RoCEv2 fabric</text></g><!--entity N3--><g class="entity" data-qualified-name="N3" data-source-line="10" id="ent0004"><rect fill="#FCF3CF" height="36.0986" rx="6" ry="6" style="stroke:#000000;stroke-width:1;" width="119.5996" x="509.85" y="58.2979"/><text fill="#000000" font-family="DejaVu Sans" font-size="14" lengthAdjust="spacing" textLength="99.5996" x="519.85" y="81.4297">GPU direct path</text></g><!--entity N4--><g class="entity" data-qualified-name="N4" data-source-line="11" id="ent0005"><rect fill="#E8DAEF" height="36.0986" rx="6" ry="6" style="stroke:#000000;stroke-width:1;" width="77.5586" x="755.45" y="58.2979"/><text fill="#000000" font-family="DejaVu Sans" font-size="14" lengthAdjust="spacing" textLength="57.5586" x="765.45" y="81.4297">DPU/NIC</text></g><!--entity N5--><g class="entity" data-qualified-name="N5" data-source-line="12" id="ent0006"><rect fill="#FADBD8" height="36.0986" rx="6" ry="6" style="stroke:#000000;stroke-width:1;" width="160.8545" x="1249.57" y="58.2979"/><text fill="#000000" font-family="DejaVu Sans" font-size="14" lengthAdjust="spacing" textLength="140.8545" x="1259.57" y="81.4297">Remote storage/object</text></g><g class="entity" data-qualified-name="GMN11" data-source-line="20" id="ent0012"><path d="M934.01,135.8679 L934.01,148.8166 A6,6 0 0 0 940.01,154.8166 L1719.9836,154.8166 A6,6 0 0 0 1725.9836,148.8166 L1725.9836,139.8679 L1715.9836,129.8679 L1334,129.8679 L1330,94.5979 L1326,129.8679 L940.01,129.8679 A6,6 0 0 0 934.01,135.8679" fill="#FFFFFF" style="stroke:#000000;stroke-width:1;"/><path d="M1715.9836,129.8679 L1715.9836,136.8679 A3,3 0 0 0 1718.9836,139.8679 L1725.9836,139.8679 L1715.9836,129.8679" fill="#FFFFFF" style="stroke:#000000;stroke-width:1;"/><text fill="#000000" font-family="DejaVu Sans" font-size="13" lengthAdjust="spacing" textLength="770.9736" x="940.01" y="147.0617">Actor-facing contract: lower-layer resource identifiers remain hidden unless the ADR explicitly defines them as operator-only evidence.</text></g><!--link N1 to N2--><g class="link" data-entity-1="ent0002" data-entity-2="ent0003" data-link-type="dependency" data-source-line="14" id="lnk7"><path d="M125.06,76.3479 C159.99,76.3479 198.77,76.3479 233.41,76.3479" fill="none" id="N1-to-N2" style="stroke:#000000;stroke-width:1;"/><polygon fill="#000000" points="239.41,76.3479,230.41,72.3479,234.41,76.3479,230.41,80.3479,239.41,76.3479" style="stroke:#000000;stroke-width:1;"/><text fill="#000000" font-family="DejaVu Sans" font-size="13" lengthAdjust="spacing" textLength="53.479" x="155.6" y="73.5417">hydration</text></g><!--link N2 to N3--><g class="link" data-entity-1="ent0003" data-entity-2="ent0004" data-link-type="dependency" data-source-line="15" id="lnk8"><path d="M350.3,76.3479 C396.35,76.3479 456.13,76.3479 503.44,76.3479" fill="none" id="N2-to-N3" style="stroke:#000000;stroke-width:1;"/><polygon fill="#000000" points="509.44,76.3479,500.44,72.3479,504.44,76.3479,500.44,80.3479,509.44,76.3479" style="stroke:#000000;stroke-width:1;"/><text fill="#000000" font-family="DejaVu Sans" font-size="13" lengthAdjust="spacing" textLength="98.9663" x="380.85" y="73.5417">RDMA read/write</text></g><!--link N3 to N4--><g class="link" data-entity-1="ent0004" data-entity-2="ent0005" data-link-type="dependency" data-source-line="16" id="lnk9"><path d="M629.72,76.3479 C669.51,76.3479 714.83,76.3479 749.27,76.3479" fill="none" id="N3-to-N4" style="stroke:#000000;stroke-width:1;"/><polygon fill="#000000" points="755.27,76.3479,746.27,72.3479,750.27,76.3479,746.27,80.3479,755.27,76.3479" style="stroke:#000000;stroke-width:1;"/><text fill="#000000" font-family="DejaVu Sans" font-size="13" lengthAdjust="spacing" textLength="64.2891" x="660.45" y="73.5417">direct DMA</text></g><!--link N4 to N5--><g class="link" data-entity-1="ent0005" data-entity-2="ent0006" data-link-type="dependency" data-source-line="17" id="lnk10"><path d="M833.19,76.3479 C919.65,76.3479 1126.73,76.3479 1243.44,76.3479" fill="none" id="N4-to-N5" style="stroke:#000000;stroke-width:1;"/><polygon fill="#000000" points="1249.44,76.3479,1240.44,72.3479,1244.44,76.3479,1240.44,80.3479,1249.44,76.3479" style="stroke:#000000;stroke-width:1;"/><text fill="#000000" font-family="DejaVu Sans" font-size="13" lengthAdjust="spacing" textLength="39.0317" x="864.01" y="73.5417">offload</text></g><?plantuml-src LPBBRkCm34Nt-WfEitOppMCGT360wyTW5Ws259qz8z6nMbaq9Bbf_hwqquLd9zrx85wA_95QwWXwXzQhP9CZ-BcvXsFvd0Dw0tyEhrbf0-a41qnjLF7T-Xu3TX1RD7on_WmDkaWp9_3WZURWAS33QcOOQd1mgMQVzYXbIth3VmEye8_AKPCWCGHxRXEOgQPbhzHuG7-MP7S5jnJ8QygAwWummlu15kMlAgztS-p8HVMnabYdOFMDMmcthRVLUiv9Sz-5e9VcRkGQ5dLHhujwJfQ7r-N-Rt4ZDh2eTcLU_KSSgUD441C7FDEIJs_YtVYjl9YNJ-LEAScRPR_7E8_GNat0gKMvJkfQrEdd0w5PNe9Df4ISl8rutrc5K7AVvAt8t3IEqIZbnmGdJeaxbMj9aZMenm5f-V20EZs2umk5pE5LHXCeyX0qWJNaasqiXIXY9wi0hJKYmk0TnGYo992NHw3FtbajMt8THsazJLOtTiazIJTIahsuz36-gUbUaIpHcEiB?></g></svg>