<?plantuml 1.2026.1?><svg xmlns="http://www.w3.org/2000/svg" xmlns:xlink="http://www.w3.org/1999/xlink" contentStyleType="text/css" data-diagram-type="DESCRIPTION" height="161px" preserveAspectRatio="none" style="width:1996px;height:161px;background:#FFFFFF;" version="1.1" viewBox="0 0 1996 161" width="1996px" zoomAndPan="magnify"><title>06. OpenZFS Media Layout</title><defs/><g><g class="title" data-source-line="2"><text fill="#000000" font-family="DejaVu Sans" font-size="22" font-weight="bold" lengthAdjust="spacing" textLength="281.1553" x="852.9842" y="35.6357">06. OpenZFS Media Layout</text></g><!--entity N1--><g class="entity" data-qualified-name="N1" data-source-line="8" id="ent0002"><rect fill="#D6EAF8" height="36.0986" rx="6" ry="6" style="stroke:#000000;stroke-width:1;" width="161.6201" x="12" y="58.2979"/><text fill="#000000" font-family="DejaVu Sans" font-size="14" lengthAdjust="spacing" textLength="141.6201" x="22" y="81.4297">Coherence write policy</text></g><!--entity N2--><g class="entity" data-qualified-name="N2" data-source-line="9" id="ent0003"><rect fill="#D5F5E3" height="36.0986" rx="6" ry="6" style="stroke:#000000;stroke-width:1;" width="113.3447" x="315.62" y="58.2979"/><text fill="#000000" font-family="DejaVu Sans" font-size="14" lengthAdjust="spacing" textLength="93.3447" x="325.62" y="81.4297">DPU NVMe-oF</text></g><!--entity N3--><g class="entity" data-qualified-name="N3" data-source-line="10" id="ent0004"><rect fill="#FCF3CF" height="36.0986" rx="6" ry="6" style="stroke:#000000;stroke-width:1;" width="118.0479" x="578.96" y="58.2979"/><text fill="#000000" font-family="DejaVu Sans" font-size="14" lengthAdjust="spacing" textLength="98.0479" x="588.96" y="81.4297">OpenZFS zpool</text></g><!--entity N4--><g class="entity" data-qualified-name="N4" data-source-line="11" id="ent0005"><rect fill="#E8DAEF" height="36.0986" rx="6" ry="6" style="stroke:#000000;stroke-width:1;" width="156.1377" x="883.01" y="58.2979"/><text fill="#000000" font-family="DejaVu Sans" font-size="14" lengthAdjust="spacing" textLength="136.1377" x="893.01" y="81.4297">Mirrored NAND vdevs</text></g><!--entity N5--><g class="entity" data-qualified-name="N5" data-source-line="12" id="ent0006"><rect fill="#FADBD8" height="36.0986" rx="6" ry="6" style="stroke:#000000;stroke-width:1;" width="105.5791" x="1540.35" y="58.2979"/><text fill="#000000" font-family="DejaVu Sans" font-size="14" lengthAdjust="spacing" textLength="85.5791" x="1550.35" y="81.4297">Scrub/resilver</text></g><g class="entity" data-qualified-name="GMN11" data-source-line="20" id="ent0012"><path d="M1197.15,135.8679 L1197.15,148.8166 A6,6 0 0 0 1203.15,154.8166 L1983.1236,154.8166 A6,6 0 0 0 1989.1236,148.8166 L1989.1236,139.8679 L1979.1236,129.8679 L1597.14,129.8679 L1593.14,94.5979 L1589.14,129.8679 L1203.15,129.8679 A6,6 0 0 0 1197.15,135.8679" fill="#FFFFFF" style="stroke:#000000;stroke-width:1;"/><path d="M1979.1236,129.8679 L1979.1236,136.8679 A3,3 0 0 0 1982.1236,139.8679 L1989.1236,139.8679 L1979.1236,129.8679" fill="#FFFFFF" style="stroke:#000000;stroke-width:1;"/><text fill="#000000" font-family="DejaVu Sans" font-size="13" lengthAdjust="spacing" textLength="770.9736" x="1203.15" y="147.0617">Actor-facing contract: lower-layer resource identifiers remain hidden unless the ADR explicitly defines them as operator-only evidence.</text></g><!--link N1 to N2--><g class="link" data-entity-1="ent0002" data-entity-2="ent0003" data-link-type="dependency" data-source-line="14" id="lnk7"><path d="M174.07,76.3479 C219.37,76.3479 268.84,76.3479 309.41,76.3479" fill="none" id="N1-to-N2" style="stroke:#000000;stroke-width:1;"/><polygon fill="#000000" points="315.41,76.3479,306.41,72.3479,310.41,76.3479,306.41,80.3479,315.41,76.3479" style="stroke:#000000;stroke-width:1;"/><text fill="#000000" font-family="DejaVu Sans" font-size="13" lengthAdjust="spacing" textLength="80.9263" x="204.62" y="73.5417">durable writes</text></g><!--link N2 to N3--><g class="link" data-entity-1="ent0003" data-entity-2="ent0004" data-link-type="dependency" data-source-line="15" id="lnk8"><path d="M429.22,76.3479 C473.21,76.3479 528.31,76.3479 572.86,76.3479" fill="none" id="N2-to-N3" style="stroke:#000000;stroke-width:1;"/><polygon fill="#000000" points="578.86,76.3479,569.86,72.3479,573.86,76.3479,569.86,80.3479,578.86,76.3479" style="stroke:#000000;stroke-width:1;"/><text fill="#000000" font-family="DejaVu Sans" font-size="13" lengthAdjust="spacing" textLength="88.1563" x="459.96" y="73.5417">namespace I/O</text></g><!--link N3 to N4--><g class="link" data-entity-1="ent0004" data-entity-2="ent0005" data-link-type="dependency" data-source-line="16" id="lnk9"><path d="M697.51,76.3479 C749.42,76.3479 819.64,76.3479 876.6,76.3479" fill="none" id="N3-to-N4" style="stroke:#000000;stroke-width:1;"/><polygon fill="#000000" points="882.6,76.3479,873.6,72.3479,877.6,76.3479,873.6,80.3479,882.6,76.3479" style="stroke:#000000;stroke-width:1;"/><text fill="#000000" font-family="DejaVu Sans" font-size="13" lengthAdjust="spacing" textLength="124.2681" x="728.01" y="73.5417">checksummed blocks</text></g><!--link N4 to N5--><g class="link" data-entity-1="ent0005" data-entity-2="ent0006" data-link-type="dependency" data-source-line="17" id="lnk10"><path d="M1039.34,76.3479 C1169.46,76.3479 1422.99,76.3479 1533.91,76.3479" fill="none" id="N4-to-N5" style="stroke:#000000;stroke-width:1;"/><polygon fill="#000000" points="1539.91,76.3479,1530.91,72.3479,1534.91,76.3479,1530.91,80.3479,1539.91,76.3479" style="stroke:#000000;stroke-width:1;"/><text fill="#000000" font-family="DejaVu Sans" font-size="13" lengthAdjust="spacing" textLength="96.8018" x="1070.15" y="73.5417">mirror replication</text></g><?plantuml-src LP9DRzim38Rl-XLSStQxDaqHz330YsDWmE8E2zR3Ref4nrfbqQ3aPDcl7sMlG7OJ-BmKNtvyI1ts28FNBgZaaaVu-7GBBmE6d_KUTcYTXg_wGcDIySs5GRFk8NRQqjc58xJQHxmYJ6EmXZWWm_t35R3Owj6dca9gj5Iiy9T-7M6lGrGUsmI9WDsnIs0TeqcEWbBveSDHJDrig4F6O13Ex98u9k_CvGPqXEOU5jNJjgpNrmdLjn_GlEwme7fMFOXgLQ-soslLUwD_1Y8_wvQmg3VrSbDVwtQEcHWjD6LJmSdYASxgHrXirrMv_K-zDpmUxXYZyoVaMRYIRylgSxLMIWmNnQViw1dioFhW_tKLbSGcj1GKP4vnqDBobxiN9Q69F0en7PgtEFQz63fuahUI-8HNWll9B30ECYCzZpAG3Er0AL6lIfE8YrQRl44Z6s5jqZDuEYCNNbymvqOQMKexYo6vrY572VPo9j0vAq4OWySOGGu8okexuEzSJIxeadVj0awepxtJWAnpIGf2yPJ_D7YhC5Z8llu2?></g></svg>