<?plantuml 1.2026.1?><svg xmlns="http://www.w3.org/2000/svg" xmlns:xlink="http://www.w3.org/1999/xlink" contentStyleType="text/css" data-diagram-type="ACTIVITY" height="1121px" preserveAspectRatio="none" style="width:658px;height:1121px;background:#FFFFFF;" version="1.1" viewBox="0 0 658 1121" width="658px" zoomAndPan="magnify"><title>ADR-018 - UA-Link Pod-Scale Fabric and Compute Domains</title><defs/><g><g class="title" data-source-line="18"><text fill="#000000" font-family="DejaVu Sans" font-size="22" font-weight="bold" lengthAdjust="spacing" textLength="625.8721" x="15" y="35.6357">ADR-018 - UA-Link Pod-Scale Fabric and Compute Domains</text></g><ellipse cx="339.965" cy="61.2979" fill="#145A32" rx="10" ry="10" style="stroke:#000000;stroke-width:1;"/><rect fill="#FFFFFF" height="213.4951" rx="6" ry="6" style="stroke:#000000;stroke-width:1;" width="601.6733" x="9.9423" y="81.2979"/><path d="M101.6727,81.2979 L101.6727,90.3965 L91.6727,100.3965 L9.9423,100.3965" fill="none" style="stroke:#000000;stroke-width:1;"/><text fill="#000000" font-family="DejaVu Sans" font-size="14" lengthAdjust="spacing" textLength="81.7305" x="12.9423" y="95.4297">Pod topology</text><rect fill="#FDFEFE" height="47.5977" rx="6" ry="6" style="stroke:#566573;stroke-width:1;" width="282.0605" x="198.9347" y="117.3965"/><text fill="#000000" font-family="DejaVu Sans" font-size="12" lengthAdjust="spacing" textLength="250.1133" x="208.9347" y="138.6523">Inventory accelerator nodes, UA-Link switches,</text><text fill="#000000" font-family="DejaVu Sans" font-size="12" lengthAdjust="spacing" textLength="262.0605" x="208.9347" y="152.4512">PCIe root complexes, GPU memory, NICs, DPUs</text><polygon fill="#FCF3CF" points="210.0302,184.9941,469.8998,184.9941,481.8998,196.9941,469.8998,208.9941,210.0302,208.9941,198.0302,196.9941,210.0302,184.9941" style="stroke:#B7950B;stroke-width:1;"/><text fill="#000000" font-family="DejaVu Sans" font-size="11" lengthAdjust="spacing" textLength="259.8696" x="210.0302" y="200.9875">compute domain has mixed unqualified accelerators?</text><text fill="#000000" font-family="DejaVu Sans" font-size="11" lengthAdjust="spacing" textLength="33.0269" x="165.0033" y="194.6631">unsafe</text><text fill="#000000" font-family="DejaVu Sans" font-size="11" lengthAdjust="spacing" textLength="40.9761" x="481.8998" y="194.6631">qualified</text><rect fill="#FDFEFE" height="33.7988" rx="6" ry="6" style="stroke:#566573;stroke-width:1;" width="332.1758" x="21.9423" y="218.9941"/><text fill="#000000" font-family="DejaVu Sans" font-size="12" lengthAdjust="spacing" textLength="312.1758" x="31.9423" y="240.25">Separate into capability pools until collective profile passes</text><rect fill="#FDFEFE" height="33.7988" rx="6" ry="6" style="stroke:#566573;stroke-width:1;" width="199.4316" x="392.184" y="218.9941"/><text fill="#000000" font-family="DejaVu Sans" font-size="12" lengthAdjust="spacing" textLength="179.4316" x="402.184" y="240.25">Create pod-local scale-up domain</text><polygon fill="#FCF3CF" points="339.965,258.793,351.965,270.793,339.965,282.793,327.965,270.793,339.965,258.793" style="stroke:#B7950B;stroke-width:1;"/><rect fill="#FFFFFF" height="309.4172" rx="6" ry="6" style="stroke:#000000;stroke-width:1;" width="386.7949" x="152.5675" y="304.793"/><path d="M270.7257,304.793 L270.7257,313.8916 L260.7257,323.8916 L152.5675,323.8916" fill="none" style="stroke:#000000;stroke-width:1;"/><text fill="#000000" font-family="DejaVu Sans" font-size="14" lengthAdjust="spacing" textLength="108.1582" x="155.5675" y="318.9248">Traffic separation</text><rect fill="#FDFEFE" height="47.5977" rx="6" ry="6" style="stroke:#566573;stroke-width:1;" width="252.1074" x="213.9113" y="340.8916"/><text fill="#000000" font-family="DejaVu Sans" font-size="12" lengthAdjust="spacing" textLength="232.1074" x="223.9113" y="362.1475">UA-Link handles accelerator scale-up traffic</text><text fill="#000000" font-family="DejaVu Sans" font-size="12" lengthAdjust="spacing" textLength="108.082" x="223.9113" y="375.9463">inside pod boundary</text><rect fill="#FDFEFE" height="47.5977" rx="6" ry="6" style="stroke:#566573;stroke-width:1;" width="260.8027" x="209.5636" y="408.4893"/><text fill="#000000" font-family="DejaVu Sans" font-size="12" lengthAdjust="spacing" textLength="240.8027" x="219.5636" y="429.7451">RoCEv2/Ethernet handles scale-out, storage,</text><text fill="#000000" font-family="DejaVu Sans" font-size="12" lengthAdjust="spacing" textLength="232.7871" x="219.5636" y="443.5439">management, telemetry, and frontend traffic</text><rect fill="#FDFEFE" height="33.7988" rx="6" ry="6" style="stroke:#566573;stroke-width:1;" width="334.7949" x="172.5675" y="524.4114"/><text fill="#000000" font-family="DejaVu Sans" font-size="12" lengthAdjust="spacing" textLength="314.7949" x="182.5675" y="545.6672">Reject design; storage remains DPU/RDMA/OpenZFS path</text><polygon fill="#FCF3CF" points="247.6439,476.0869,432.286,476.0869,444.286,488.0869,432.286,500.0869,247.6439,500.0869,235.6439,488.0869,247.6439,476.0869" style="stroke:#B7950B;stroke-width:1;"/><text fill="#000000" font-family="DejaVu Sans" font-size="11" lengthAdjust="spacing" textLength="31.1846" x="343.965" y="510.4048">invalid</text><text fill="#000000" font-family="DejaVu Sans" font-size="11" lengthAdjust="spacing" textLength="184.6421" x="247.6439" y="492.0803">storage traffic attempts UA-Link path?</text><polygon fill="#FCF3CF" points="339.965,578.2102,351.965,590.2102,339.965,602.2102,327.965,590.2102,339.965,578.2102" style="stroke:#B7950B;stroke-width:1;"/><rect fill="#FFFFFF" height="145.8975" rx="6" ry="6" style="stroke:#000000;stroke-width:1;" width="620.9141" x="28.0157" y="624.2102"/><path d="M147.7394,624.2102 L147.7394,633.3088 L137.7394,643.3088 L28.0157,643.3088" fill="none" style="stroke:#000000;stroke-width:1;"/><text fill="#000000" font-family="DejaVu Sans" font-size="14" lengthAdjust="spacing" textLength="109.7236" x="31.0157" y="638.342">Scheduler locality</text><polygon fill="#FCF3CF" points="254.6747,660.3088,425.2552,660.3088,437.2552,672.3088,425.2552,684.3088,254.6747,684.3088,242.6747,672.3088,254.6747,660.3088" style="stroke:#B7950B;stroke-width:1;"/><text fill="#000000" font-family="DejaVu Sans" font-size="11" lengthAdjust="spacing" textLength="170.5806" x="254.6747" y="676.3022">KV/model/collective fits same pod?</text><text fill="#000000" font-family="DejaVu Sans" font-size="11" lengthAdjust="spacing" textLength="22.623" x="220.0516" y="669.9778">local</text><text fill="#000000" font-family="DejaVu Sans" font-size="11" lengthAdjust="spacing" textLength="34.2354" x="437.2552" y="669.9778">remote</text><rect fill="#FDFEFE" height="33.7988" rx="6" ry="6" style="stroke:#566573;stroke-width:1;" width="279.4414" x="48.0157" y="694.3088"/><text fill="#000000" font-family="DejaVu Sans" font-size="12" lengthAdjust="spacing" textLength="259.4414" x="58.0157" y="715.5647">Prefer same UA-Link island and same rail affinity</text><rect fill="#FDFEFE" height="33.7988" rx="6" ry="6" style="stroke:#566573;stroke-width:1;" width="289.4727" x="347.4572" y="694.3088"/><text fill="#000000" font-family="DejaVu Sans" font-size="12" lengthAdjust="spacing" textLength="269.4727" x="357.4572" y="715.5647">Account for RoCE hydration and cross-pod latency</text><polygon fill="#FCF3CF" points="339.965,734.1077,351.965,746.1077,339.965,758.1077,327.965,746.1077,339.965,734.1077" style="stroke:#B7950B;stroke-width:1;"/><rect fill="#FFFFFF" height="95.6963" rx="6" ry="6" style="stroke:#000000;stroke-width:1;" width="264.7891" x="207.5704" y="780.1077"/><path d="M313.2872,780.1077 L313.2872,789.2063 L303.2872,799.2063 L207.5704,799.2063" fill="none" style="stroke:#000000;stroke-width:1;"/><text fill="#000000" font-family="DejaVu Sans" font-size="14" lengthAdjust="spacing" textLength="95.7168" x="210.5704" y="794.2395">Admission gate</text><rect fill="#FDFEFE" height="47.5977" rx="6" ry="6" style="stroke:#566573;stroke-width:1;" width="244.7891" x="217.5704" y="816.2063"/><text fill="#000000" font-family="DejaVu Sans" font-size="12" lengthAdjust="spacing" textLength="224.7891" x="227.5704" y="837.4622">Expose only pod locality, capability profile,</text><text fill="#000000" font-family="DejaVu Sans" font-size="12" lengthAdjust="spacing" textLength="216.1465" x="227.5704" y="851.261">and health state to Coherence/scheduler</text><ellipse cx="339.965" cy="906.804" fill="none" rx="11" ry="11" style="stroke:#000000;stroke-width:1;"/><ellipse cx="339.965" cy="906.804" fill="#FFFFFF" rx="6" ry="6" style="stroke:#000000;stroke-width:1;"/><line style="stroke:#34495E;stroke-width:1;" x1="198.0302" x2="188.0302" y1="196.9941" y2="196.9941"/><line style="stroke:#34495E;stroke-width:1;" x1="188.0302" x2="188.0302" y1="196.9941" y2="218.9941"/><polygon fill="#34495E" points="184.0302,208.9941,188.0302,218.9941,192.0302,208.9941,188.0302,212.9941" style="stroke:#34495E;stroke-width:1;"/><line style="stroke:#34495E;stroke-width:1;" x1="481.8998" x2="491.8998" y1="196.9941" y2="196.9941"/><line style="stroke:#34495E;stroke-width:1;" x1="491.8998" x2="491.8998" y1="196.9941" y2="218.9941"/><polygon fill="#34495E" points="487.8998,208.9941,491.8998,218.9941,495.8998,208.9941,491.8998,212.9941" style="stroke:#34495E;stroke-width:1;"/><line style="stroke:#34495E;stroke-width:1;" x1="188.0302" x2="188.0302" y1="252.793" y2="270.793"/><line style="stroke:#34495E;stroke-width:1;" x1="188.0302" x2="327.965" y1="270.793" y2="270.793"/><polygon fill="#34495E" points="317.965,266.793,327.965,270.793,317.965,274.793,321.965,270.793" style="stroke:#34495E;stroke-width:1;"/><line style="stroke:#34495E;stroke-width:1;" x1="491.8998" x2="491.8998" y1="252.793" y2="270.793"/><line style="stroke:#34495E;stroke-width:1;" x1="491.8998" x2="351.965" y1="270.793" y2="270.793"/><polygon fill="#34495E" points="361.965,266.793,351.965,270.793,361.965,274.793,357.965,270.793" style="stroke:#34495E;stroke-width:1;"/><line style="stroke:#34495E;stroke-width:1;" x1="339.965" x2="339.965" y1="164.9941" y2="184.9941"/><polygon fill="#34495E" points="335.965,174.9941,339.965,184.9941,343.965,174.9941,339.965,178.9941" style="stroke:#34495E;stroke-width:1;"/><line style="stroke:#34495E;stroke-width:1;" x1="339.965" x2="339.965" y1="71.2979" y2="117.3965"/><polygon fill="#34495E" points="335.965,107.3965,339.965,117.3965,343.965,107.3965,339.965,111.3965" style="stroke:#34495E;stroke-width:1;"/><line style="stroke:#34495E;stroke-width:1;" x1="339.965" x2="339.965" y1="388.4893" y2="408.4893"/><polygon fill="#34495E" points="335.965,398.4893,339.965,408.4893,343.965,398.4893,339.965,402.4893" style="stroke:#34495E;stroke-width:1;"/><line style="stroke:#34495E;stroke-width:1;" x1="339.965" x2="339.965" y1="500.0869" y2="524.4114"/><polygon fill="#34495E" points="335.965,514.4114,339.965,524.4114,343.965,514.4114,339.965,518.4114" style="stroke:#34495E;stroke-width:1;"/><line style="stroke:#34495E;stroke-width:1;" x1="444.286" x2="517.3624" y1="488.0869" y2="488.0869"/><polygon fill="#34495E" points="513.3624,531.3108,517.3624,541.3108,521.3624,531.3108,517.3624,535.3108" style="stroke:#34495E;stroke-width:1;"/><line style="stroke:#34495E;stroke-width:1;" x1="517.3624" x2="517.3624" y1="488.0869" y2="590.2102"/><line style="stroke:#34495E;stroke-width:1;" x1="517.3624" x2="351.965" y1="590.2102" y2="590.2102"/><polygon fill="#34495E" points="361.965,586.2102,351.965,590.2102,361.965,594.2102,357.965,590.2102" style="stroke:#34495E;stroke-width:1;"/><line style="stroke:#34495E;stroke-width:1;" x1="339.965" x2="339.965" y1="558.2102" y2="578.2102"/><polygon fill="#34495E" points="335.965,568.2102,339.965,578.2102,343.965,568.2102,339.965,572.2102" style="stroke:#34495E;stroke-width:1;"/><line style="stroke:#34495E;stroke-width:1;" x1="339.965" x2="339.965" y1="456.0869" y2="476.0869"/><polygon fill="#34495E" points="335.965,466.0869,339.965,476.0869,343.965,466.0869,339.965,470.0869" style="stroke:#34495E;stroke-width:1;"/><line style="stroke:#34495E;stroke-width:1;" x1="339.965" x2="339.965" y1="282.793" y2="340.8916"/><polygon fill="#34495E" points="335.965,330.8916,339.965,340.8916,343.965,330.8916,339.965,334.8916" style="stroke:#34495E;stroke-width:1;"/><line style="stroke:#34495E;stroke-width:1;" x1="242.6747" x2="187.7365" y1="672.3088" y2="672.3088"/><line style="stroke:#34495E;stroke-width:1;" x1="187.7365" x2="187.7365" y1="672.3088" y2="694.3088"/><polygon fill="#34495E" points="183.7365,684.3088,187.7365,694.3088,191.7365,684.3088,187.7365,688.3088" style="stroke:#34495E;stroke-width:1;"/><line style="stroke:#34495E;stroke-width:1;" x1="437.2552" x2="492.1935" y1="672.3088" y2="672.3088"/><line style="stroke:#34495E;stroke-width:1;" x1="492.1935" x2="492.1935" y1="672.3088" y2="694.3088"/><polygon fill="#34495E" points="488.1935,684.3088,492.1935,694.3088,496.1935,684.3088,492.1935,688.3088" style="stroke:#34495E;stroke-width:1;"/><line style="stroke:#34495E;stroke-width:1;" x1="187.7365" x2="187.7365" y1="728.1077" y2="746.1077"/><line style="stroke:#34495E;stroke-width:1;" x1="187.7365" x2="327.965" y1="746.1077" y2="746.1077"/><polygon fill="#34495E" points="317.965,742.1077,327.965,746.1077,317.965,750.1077,321.965,746.1077" style="stroke:#34495E;stroke-width:1;"/><line style="stroke:#34495E;stroke-width:1;" x1="492.1935" x2="492.1935" y1="728.1077" y2="746.1077"/><line style="stroke:#34495E;stroke-width:1;" x1="492.1935" x2="351.965" y1="746.1077" y2="746.1077"/><polygon fill="#34495E" points="361.965,742.1077,351.965,746.1077,361.965,750.1077,357.965,746.1077" style="stroke:#34495E;stroke-width:1;"/><line style="stroke:#34495E;stroke-width:1;" x1="339.965" x2="339.965" y1="602.2102" y2="660.3088"/><polygon fill="#34495E" points="335.965,650.3088,339.965,660.3088,343.965,650.3088,339.965,654.3088" style="stroke:#34495E;stroke-width:1;"/><line style="stroke:#34495E;stroke-width:1;" x1="339.965" x2="339.965" y1="758.1077" y2="816.2063"/><polygon fill="#34495E" points="335.965,806.2063,339.965,816.2063,343.965,806.2063,339.965,810.2063" style="stroke:#34495E;stroke-width:1;"/><line style="stroke:#34495E;stroke-width:1;" x1="339.965" x2="339.965" y1="863.804" y2="895.804"/><polygon fill="#34495E" points="335.965,885.804,339.965,895.804,343.965,885.804,339.965,889.804" style="stroke:#34495E;stroke-width:1;"/><g class="legend" data-source-line="20"><rect fill="none" height="187.085" rx="6" ry="6" style="stroke:#000000;stroke-width:1;" width="577.1367" x="64.7931" y="921.804"/><text fill="#000000" font-family="DejaVu Sans" font-size="14" lengthAdjust="spacing" textLength="368.0537" x="69.7931" y="939.9358">Design defaults for diagrams unless an ADR narrows them:</text><text fill="#000000" font-family="DejaVu Sans" font-size="14" lengthAdjust="spacing" textLength="528.3633" x="69.7931" y="956.0344">- Actor/API: HTTPS 443 or 8443; OpenAI-compatible API plus Coherence-native API.</text><text fill="#000000" font-family="DejaVu Sans" font-size="14" lengthAdjust="spacing" textLength="510.4258" x="69.7931" y="972.1331">- RoCEv2: UDP destination 4791; jumbo MTU 9000; PFC only on RDMA priorities.</text><text fill="#000000" font-family="DejaVu Sans" font-size="14" lengthAdjust="spacing" textLength="554.7432" x="69.7931" y="988.2317">- NVMe-oF: discovery/controller service on TCP/RDMA port 4420; DPU-mediated targets.</text><text fill="#000000" font-family="DejaVu Sans" font-size="14" lengthAdjust="spacing" textLength="544.7012" x="69.7931" y="1004.3303">- Telemetry: OTLP gRPC 4317, OTLP HTTP 4318, Prometheus 9090/9100, gNMI 9339.</text><text fill="#000000" font-family="DejaVu Sans" font-size="14" lengthAdjust="spacing" textLength="519.8252" x="69.7931" y="1020.429">- Timing: PTP event/general UDP 319/320 on an isolated timing/management class.</text><text fill="#000000" font-family="DejaVu Sans" font-size="14" lengthAdjust="spacing" textLength="454.4121" x="69.7931" y="1036.5276">- VLAN plan: site-specific IDs are allowed, but classes must stay isolated:</text><text fill="#000000" font-family="DejaVu Sans" font-size="14" lengthAdjust="spacing" textLength="559.3574" x="77.5724" y="1052.6262">mgmt/OOB, frontend/API, RDMA rail-A, RDMA rail-B, storage/NVMe-oF, telemetry, timing.</text><text fill="#000000" font-family="DejaVu Sans" font-size="14" lengthAdjust="spacing" textLength="507.3564" x="69.7931" y="1068.7249">- Trunks: 802.1Q tagged uplinks; rail-A and rail-B must not share a failure domain.</text><text fill="#000000" font-family="DejaVu Sans" font-size="14" lengthAdjust="spacing" textLength="464.4951" x="69.7931" y="1084.8235">- Buffers: kv_hbm_active, kv_dram_warm, kv_cxl_warm, kv_rdma_staging,</text><text fill="#000000" font-family="DejaVu Sans" font-size="14" lengthAdjust="spacing" textLength="392.2119" x="77.5724" y="1100.9221">zfs_slog, zfs_arc, zfs_l2arc, object_cache, vector_head_cache.</text></g><?plantuml-src TLNRSjis47tNLspJbsH6YgwEBVcX8-lIQkeBQzb-w6J60v4WXHW4M02KhNRoxprBKehIJXui4xVTWxDd3tuAMvbBAhHGfkLVb2c44pdvhKZigp8PfK9xURBYR6cIs3eZ7VK79mk9J4MfmzAQS2iGSYw_YAUIriBuarrJv-php6hhwEVXQ3G-MvmiYZYedGfx-gT5T2NYbwpArcnVpfUBvO9Nh4kaQsRFFdqwEnzYTgv4Rato_sEpvN2sFDbmUlhgV7pMkyBYEWWNcid-w6mw761oSGmo7Wok1ltMrnEmnWRv0w2BvNXn_b-WJQglhQ22bZITttTw_GlgqEEqSwtC2qKswQnZWRMbs3WLap09pMnUb4Wqjpagv5ijBJE9UQUoRMZDfLUPEL3lAKMYH8aC-3oLHall4OLpaH7Cl2UkzwJLeMaShEjEezM4VdjuYDOq6Wq9no_m_vBk2cccgqwCx2Ae3UEDLb19wO5eAvqqiUmOBEsgbOy8U6zdYzrWGe_p281yKBni3OtEn_rB-bBc6qit3uyqxlLwbnGjPsIDtkE7xkStKogSiau59Jq7ktswaHsxdE0sFhOxwVRT6C9oLclepaktKx7aim-pg5kVjoxW3WF4daUFdLo2Xo0JGbqp6QgW3r93wy7j9tJtS1rHTX_DQ3JidxVhCVF0uuisHSvYvrRYlkFUkDSTztkzDcMtDoiQ3uVZAfhAqHyJYd18xgG9NHH6Eg4h1eRzSNSuw354541vgsiqrQ5kBep8WCK4YhNm5Rgdw-ajzw6Pa5T1TdmXOvL21givYkWa2QtjgqpQj2cROz9JNlf0FeZzCSS4mikpF7JlxgxQb3hG1i5mfTirqquetPcU3h3FGms0r6s8RrCuaDLkG5TtTgLvyHEww0q-zly0jrc6IvM5XdxzPHEvqcqTjuQ7Jc53uIl0JfGkyPLKUkQOLsMQIeUWBxldxIP_han0jdcOGCVFhyBbrIX-qzy6Bid5C-wT0LaRD_uxzSzUswnTVGaNrnzwK7tQpHSPX-TOn5j4tadM_lDMYgIU-jW2GtLZjLgUdQ257aUVidxVeIyfs09TdEtVLHq_MHakk7LxM5OCefp00FU4xjl7VlQlAY2uRtysqMmbuPpWWJjAopVUzslqIBdCBLDykvfX1iBrbuYlKdeVDurV4qLRWLghDsRR_5KA3MNW-oIx_-K3zxQXzwNn8fKV40T8rvBT2d4Ky58i2h5HcYssi5QpHmIb0GfjLT6EDhIfGhiNbRmOZ8J_q_jZpYRkp4cEMi2pj8LfaMVdwfH50xWwQHALml1Ek7nm8cLD-neMvXf63wHj1LV2VyVhCNIeJtysS4ALLDbfmyOht9uJJceFwYv011weS8nMHx1bE0eTHVdMXD-fdTLxw9f3naDHciE7QH8XoBo0yHxWmostnq8eimDf1yRk9MkGhH6MVNd0GKvMniwrhuoiozRxvt9TXVe1Ysl8AYdP2IlkKSwQHORu-rCtXmvrzwIegG94puyo63l2gyusu28dKpPMtdEuY_AQkU2_QfvRclZU1Wc_AGCNm4lOn9d6CUeHgeU8Yq7RVLBNkOeJE-jzXyl6LcNY_GykE4rovJr_PjZNI6JnLbWlwrUZ2j7SlVsTh6lzehoS3oskmvRz4Lg5_ezlLzSVABpaHntj_Iy0?></g></svg>