<?plantuml 1.2026.1?><svg xmlns="http://www.w3.org/2000/svg" xmlns:xlink="http://www.w3.org/1999/xlink" contentStyleType="text/css" data-diagram-type="DESCRIPTION" height="161px" preserveAspectRatio="none" style="width:1985px;height:161px;background:#FFFFFF;" version="1.1" viewBox="0 0 1985 161" width="1985px" zoomAndPan="magnify"><title>18. UA-Link Pod Domain</title><defs/><g><g class="title" data-source-line="2"><text fill="#000000" font-family="DejaVu Sans" font-size="22" font-weight="bold" lengthAdjust="spacing" textLength="255.4707" x="860.6965" y="35.6357">18. UA-Link Pod Domain</text></g><!--entity N1--><g class="entity" data-qualified-name="N1" data-source-line="8" id="ent0002"><rect fill="#D6EAF8" height="36.0986" rx="6" ry="6" style="stroke:#000000;stroke-width:1;" width="145.2822" x="12" y="58.2979"/><text fill="#000000" font-family="DejaVu Sans" font-size="14" lengthAdjust="spacing" textLength="125.2822" x="22" y="81.4297">xPU/GPU endpoints</text></g><!--entity N2--><g class="entity" data-qualified-name="N2" data-source-line="9" id="ent0003"><rect fill="#D5F5E3" height="36.0986" rx="6" ry="6" style="stroke:#000000;stroke-width:1;" width="127.3652" x="324.28" y="58.2979"/><text fill="#000000" font-family="DejaVu Sans" font-size="14" lengthAdjust="spacing" textLength="107.3652" x="334.28" y="81.4297">UA-Link switches</text></g><!--entity N3--><g class="entity" data-qualified-name="N3" data-source-line="10" id="ent0004"><rect fill="#FCF3CF" height="36.0986" rx="6" ry="6" style="stroke:#000000;stroke-width:1;" width="151.5234" x="584.65" y="58.2979"/><text fill="#000000" font-family="DejaVu Sans" font-size="14" lengthAdjust="spacing" textLength="131.5234" x="594.65" y="81.4297">Pod scale-up domain</text></g><!--entity N4--><g class="entity" data-qualified-name="N4" data-source-line="11" id="ent0005"><rect fill="#E8DAEF" height="36.0986" rx="6" ry="6" style="stroke:#000000;stroke-width:1;" width="129.7236" x="894.17" y="58.2979"/><text fill="#000000" font-family="DejaVu Sans" font-size="14" lengthAdjust="spacing" textLength="109.7236" x="904.17" y="81.4297">Scheduler locality</text></g><!--entity N5--><g class="entity" data-qualified-name="N5" data-source-line="12" id="ent0006"><rect fill="#FADBD8" height="36.0986" rx="6" ry="6" style="stroke:#000000;stroke-width:1;" width="112.5996" x="1526.58" y="58.2979"/><text fill="#000000" font-family="DejaVu Sans" font-size="14" lengthAdjust="spacing" textLength="92.5996" x="1536.58" y="81.4297">Coherence-CE</text></g><g class="entity" data-qualified-name="GMN11" data-source-line="20" id="ent0012"><path d="M1186.89,135.8679 L1186.89,148.8166 A6,6 0 0 0 1192.89,154.8166 L1972.8636,154.8166 A6,6 0 0 0 1978.8636,148.8166 L1978.8636,139.8679 L1968.8636,129.8679 L1586.88,129.8679 L1582.88,94.5979 L1578.88,129.8679 L1192.89,129.8679 A6,6 0 0 0 1186.89,135.8679" fill="#FFFFFF" style="stroke:#000000;stroke-width:1;"/><path d="M1968.8636,129.8679 L1968.8636,136.8679 A3,3 0 0 0 1971.8636,139.8679 L1978.8636,139.8679 L1968.8636,129.8679" fill="#FFFFFF" style="stroke:#000000;stroke-width:1;"/><text fill="#000000" font-family="DejaVu Sans" font-size="13" lengthAdjust="spacing" textLength="770.9736" x="1192.89" y="147.0617">Actor-facing contract: lower-layer resource identifiers remain hidden unless the ADR explicitly defines them as operator-only evidence.</text></g><!--link N1 to N2--><g class="link" data-entity-1="ent0002" data-entity-2="ent0003" data-link-type="dependency" data-source-line="14" id="lnk7"><path d="M157.43,76.3479 C208.09,76.3479 269.31,76.3479 317.9,76.3479" fill="none" id="N1-to-N2" style="stroke:#000000;stroke-width:1;"/><polygon fill="#000000" points="323.9,76.3479,314.9,72.3479,318.9,76.3479,314.9,80.3479,323.9,76.3479" style="stroke:#000000;stroke-width:1;"/><text fill="#000000" font-family="DejaVu Sans" font-size="13" lengthAdjust="spacing" textLength="105.4917" x="188.28" y="73.5417">load/store/atomics</text></g><!--link N2 to N3--><g class="link" data-entity-1="ent0003" data-entity-2="ent0004" data-link-type="dependency" data-source-line="15" id="lnk8"><path d="M452.03,76.3479 C491.52,76.3479 536.62,76.3479 578.21,76.3479" fill="none" id="N2-to-N3" style="stroke:#000000;stroke-width:1;"/><polygon fill="#000000" points="584.21,76.3479,575.21,72.3479,579.21,76.3479,575.21,80.3479,584.21,76.3479" style="stroke:#000000;stroke-width:1;"/><text fill="#000000" font-family="DejaVu Sans" font-size="13" lengthAdjust="spacing" textLength="71.519" x="482.65" y="73.5417">switch fabric</text></g><!--link N3 to N4--><g class="link" data-entity-1="ent0004" data-entity-2="ent0005" data-link-type="dependency" data-source-line="16" id="lnk9"><path d="M736.64,76.3479 C785.22,76.3479 841.73,76.3479 887.94,76.3479" fill="none" id="N3-to-N4" style="stroke:#000000;stroke-width:1;"/><polygon fill="#000000" points="893.94,76.3479,884.94,72.3479,888.94,76.3479,884.94,80.3479,893.94,76.3479" style="stroke:#000000;stroke-width:1;"/><text fill="#000000" font-family="DejaVu Sans" font-size="13" lengthAdjust="spacing" textLength="96.8271" x="767.17" y="73.5417">pod membership</text></g><!--link N4 to N5--><g class="link" data-entity-1="ent0005" data-entity-2="ent0006" data-link-type="dependency" data-source-line="17" id="lnk10"><path d="M1024.24,76.3479 C1146.5,76.3479 1404.82,76.3479 1520.16,76.3479" fill="none" id="N4-to-N5" style="stroke:#000000;stroke-width:1;"/><polygon fill="#000000" points="1526.16,76.3479,1517.16,72.3479,1521.16,76.3479,1517.16,80.3479,1526.16,76.3479" style="stroke:#000000;stroke-width:1;"/><text fill="#000000" font-family="DejaVu Sans" font-size="13" lengthAdjust="spacing" textLength="101.1626" x="1054.89" y="73.5417">placement affinity</text></g><?plantuml-src LP91Rzim38Nl-XLSStQ3DCqGx330Y-rTXY9OaTqPYOwvofGXoKlpxqSb6v3U17vFv7kYFkM1HeB98ul9d3t1Qli8XxhwmV86--2W2ME1wOrbmeWZf05TEBESe4UVw8x4C8kp8Gf5M3tT0KSzpZvtGV8Bwho6VkEl6LvHal7KPyW18f-638uZsSn1Z2a7b9DQUdZV7vRVzmSWSLDWoUa1CC7B2XRDvxRkjlVQ_zxJcRCTw9_qIQMRRjEkxwKbNhBegPedSDUSD_KQ5jskM--wU_MhTdEprsm-w2NEbvlu6HRjjgdR3-9T62YIMAfsxKssqPvrywtP6gF6g-fhCVL5Uw5RfXmYBJ67aMqoMh_YjU9R2dtfOsHhj7GbpqecDJ_IUAIO1fwCrgveKv17gskL3DZtBEhK60cPu1YopZ2rrNbLZxOiqUfI8jfSh9mfLXul6Z5I2dEq1Eoq3_UiOxHOdWW6Tbg4MJob1Fg3e6v-0hrFdgr-eKjPDmjTqLYoXuaYbf51bDAVqjFIez5rGl7r5m00?></g></svg>