<?plantuml 1.2026.1?><svg xmlns="http://www.w3.org/2000/svg" xmlns:xlink="http://www.w3.org/1999/xlink" contentStyleType="text/css" data-diagram-type="DESCRIPTION" height="161px" preserveAspectRatio="none" style="width:1844px;height:161px;background:#FFFFFF;" version="1.1" viewBox="0 0 1844 161" width="1844px" zoomAndPan="magnify"><title>19. Pod Network and RoCEv2 Tuning</title><defs/><g><g class="title" data-source-line="2"><text fill="#000000" font-family="DejaVu Sans" font-size="22" font-weight="bold" lengthAdjust="spacing" textLength="386.2676" x="724.623" y="35.6357">19. Pod Network and RoCEv2 Tuning</text></g><!--entity N1--><g class="entity" data-qualified-name="N1" data-source-line="8" id="ent0002"><rect fill="#D6EAF8" height="36.0986" rx="6" ry="6" style="stroke:#000000;stroke-width:1;" width="109.4619" x="12" y="58.2979"/><text fill="#000000" font-family="DejaVu Sans" font-size="14" lengthAdjust="spacing" textLength="89.4619" x="22" y="81.4297">Traffic classes</text></g><!--entity N2--><g class="entity" data-qualified-name="N2" data-source-line="9" id="ent0003"><rect fill="#D5F5E3" height="36.0986" rx="6" ry="6" style="stroke:#000000;stroke-width:1;" width="110.2549" x="249.46" y="58.2979"/><text fill="#000000" font-family="DejaVu Sans" font-size="14" lengthAdjust="spacing" textLength="90.2549" x="259.46" y="81.4297">RoCEv2 fabric</text></g><!--entity N3--><g class="entity" data-qualified-name="N3" data-source-line="10" id="ent0004"><rect fill="#FCF3CF" height="36.0986" rx="6" ry="6" style="stroke:#000000;stroke-width:1;" width="136.6689" x="507.72" y="58.2979"/><text fill="#000000" font-family="DejaVu Sans" font-size="14" lengthAdjust="spacing" textLength="116.6689" x="517.72" y="81.4297">PFC/ECN/DCQCN</text></g><!--entity N4--><g class="entity" data-qualified-name="N4" data-source-line="11" id="ent0005"><rect fill="#E8DAEF" height="36.0986" rx="6" ry="6" style="stroke:#000000;stroke-width:1;" width="135.1582" x="811.39" y="58.2979"/><text fill="#000000" font-family="DejaVu Sans" font-size="14" lengthAdjust="spacing" textLength="115.1582" x="821.39" y="81.4297">Rail/DPU mapping</text></g><!--entity N5--><g class="entity" data-qualified-name="N5" data-source-line="12" id="ent0006"><rect fill="#FADBD8" height="36.0986" rx="6" ry="6" style="stroke:#000000;stroke-width:1;" width="146.041" x="1368.51" y="58.2979"/><text fill="#000000" font-family="DejaVu Sans" font-size="14" lengthAdjust="spacing" textLength="126.041" x="1378.51" y="81.4297">Admission telemetry</text></g><g class="entity" data-qualified-name="GMN11" data-source-line="20" id="ent0012"><path d="M1045.54,135.8679 L1045.54,148.8166 A6,6 0 0 0 1051.54,154.8166 L1831.5136,154.8166 A6,6 0 0 0 1837.5136,148.8166 L1837.5136,139.8679 L1827.5136,129.8679 L1445.53,129.8679 L1441.53,94.5979 L1437.53,129.8679 L1051.54,129.8679 A6,6 0 0 0 1045.54,135.8679" fill="#FFFFFF" style="stroke:#000000;stroke-width:1;"/><path d="M1827.5136,129.8679 L1827.5136,136.8679 A3,3 0 0 0 1830.5136,139.8679 L1837.5136,139.8679 L1827.5136,129.8679" fill="#FFFFFF" style="stroke:#000000;stroke-width:1;"/><text fill="#000000" font-family="DejaVu Sans" font-size="13" lengthAdjust="spacing" textLength="770.9736" x="1051.54" y="147.0617">Actor-facing contract: lower-layer resource identifiers remain hidden unless the ADR explicitly defines them as operator-only evidence.</text></g><!--link N1 to N2--><g class="link" data-entity-1="ent0002" data-entity-2="ent0003" data-link-type="dependency" data-source-line="14" id="lnk7"><path d="M121.84,76.3479 C160.06,76.3479 205.07,76.3479 243.32,76.3479" fill="none" id="N1-to-N2" style="stroke:#000000;stroke-width:1;"/><polygon fill="#000000" points="249.32,76.3479,240.32,72.3479,244.32,76.3479,240.32,80.3479,249.32,76.3479" style="stroke:#000000;stroke-width:1;"/><text fill="#000000" font-family="DejaVu Sans" font-size="13" lengthAdjust="spacing" textLength="66.46" x="152.46" y="73.5417">DSCP/PCP</text></g><!--link N2 to N3--><g class="link" data-entity-1="ent0003" data-entity-2="ent0004" data-link-type="dependency" data-source-line="15" id="lnk8"><path d="M360.12,76.3479 C402.72,76.3479 456.13,76.3479 501.7,76.3479" fill="none" id="N2-to-N3" style="stroke:#000000;stroke-width:1;"/><polygon fill="#000000" points="507.7,76.3479,498.7,72.3479,502.7,76.3479,498.7,80.3479,507.7,76.3479" style="stroke:#000000;stroke-width:1;"/><text fill="#000000" font-family="DejaVu Sans" font-size="13" lengthAdjust="spacing" textLength="86.6899" x="390.72" y="73.5417">RDMA packets</text></g><!--link N3 to N4--><g class="link" data-entity-1="ent0004" data-entity-2="ent0005" data-link-type="dependency" data-source-line="16" id="lnk9"><path d="M644.58,76.3479 C694.23,76.3479 755.39,76.3479 804.92,76.3479" fill="none" id="N3-to-N4" style="stroke:#000000;stroke-width:1;"/><polygon fill="#000000" points="810.92,76.3479,801.92,72.3479,805.92,76.3479,801.92,80.3479,810.92,76.3479" style="stroke:#000000;stroke-width:1;"/><text fill="#000000" font-family="DejaVu Sans" font-size="13" lengthAdjust="spacing" textLength="105.5107" x="675.39" y="73.5417">congestion control</text></g><!--link N4 to N5--><g class="link" data-entity-1="ent0005" data-entity-2="ent0006" data-link-type="dependency" data-source-line="17" id="lnk10"><path d="M947.03,76.3479 C1053.1,76.3479 1252.74,76.3479 1362.08,76.3479" fill="none" id="N4-to-N5" style="stroke:#000000;stroke-width:1;"/><polygon fill="#000000" points="1368.08,76.3479,1359.08,72.3479,1363.08,76.3479,1359.08,80.3479,1368.08,76.3479" style="stroke:#000000;stroke-width:1;"/><text fill="#000000" font-family="DejaVu Sans" font-size="13" lengthAdjust="spacing" textLength="37.5718" x="977.54" y="73.5417">affinity</text></g><?plantuml-src LLBBSjim3BppAz3ux7XinnqtXyweedIhHdMItX4AibbJf8Q4ulhl2yezE3TmTmai7b_uH0F1wD1wnPOTmVhR8xIXWuRu4k8Pq7Tm26NriO7NoLj_LEbi_OWH1qWdxC95CEZH9RfZOfXyPqBq566zkICwwd5oN0VF3KffJN_mzmGlw9Dor3DmW6YF9uREHZ9iWrSg1-YFukxXDMBVMmF6OKgK7W0JD6jOwAzLKU_lbVzDz_WUhRdfDgBRrRjgUwzhwt9LbSrAbx_AvgRRmg8kwsrPVyg7rgrq-mO3ZgFqV9C-mQBQwwBw92swmQOare79oO0vNc_gdIGkz0-zLqfCBvVViwTdq2zbkshBLibh1hS27lJF0aOqP-Aa19c99o5Cy4TAUJ8vv1YS4docTqBd-NZBLwLyO8Btm1m6LHWESTcZoTkQlw7XPt3XGd7fy2fxYfJ250s1xSYpxIt59E0Wjm4dsma8atUK4iZLGA4FG7z7PusSpJNlrNgQgI6t6aQAc4i6Bonzv9o67XN9EMLV_m00?></g></svg>