<?plantuml 1.2026.1?><svg xmlns="http://www.w3.org/2000/svg" xmlns:xlink="http://www.w3.org/1999/xlink" contentStyleType="text/css" data-diagram-type="DESCRIPTION" height="161px" preserveAspectRatio="none" style="width:1825px;height:161px;background:#FFFFFF;" version="1.1" viewBox="0 0 1825 161" width="1825px" zoomAndPan="magnify"><title>03. Model/Object/Corpus Tiers</title><defs/><g><g class="title" data-source-line="2"><text fill="#000000" font-family="DejaVu Sans" font-size="22" font-weight="bold" lengthAdjust="spacing" textLength="316.626" x="749.6888" y="35.6357">03. Model/Object/Corpus Tiers</text></g><!--entity N1--><g class="entity" data-qualified-name="N1" data-source-line="8" id="ent0002"><rect fill="#D6EAF8" height="36.0986" rx="6" ry="6" style="stroke:#000000;stroke-width:1;" width="107.917" x="12" y="58.2979"/><text fill="#000000" font-family="DejaVu Sans" font-size="14" lengthAdjust="spacing" textLength="87.917" x="22" y="81.4297">Model registry</text></g><!--entity N2--><g class="entity" data-qualified-name="N2" data-source-line="9" id="ent0003"><rect fill="#D5F5E3" height="36.0986" rx="6" ry="6" style="stroke:#000000;stroke-width:1;" width="95.4756" x="285.92" y="58.2979"/><text fill="#000000" font-family="DejaVu Sans" font-size="14" lengthAdjust="spacing" textLength="75.4756" x="295.92" y="81.4297">Object store</text></g><!--entity N3--><g class="entity" data-qualified-name="N3" data-source-line="10" id="ent0004"><rect fill="#FCF3CF" height="36.0986" rx="6" ry="6" style="stroke:#000000;stroke-width:1;" width="122.7031" x="556.39" y="58.2979"/><text fill="#000000" font-family="DejaVu Sans" font-size="14" lengthAdjust="spacing" textLength="102.7031" x="566.39" y="81.4297">RDMA hydration</text></g><!--entity N4--><g class="entity" data-qualified-name="N4" data-source-line="11" id="ent0005"><rect fill="#E8DAEF" height="36.0986" rx="6" ry="6" style="stroke:#000000;stroke-width:1;" width="121.9375" x="787.1" y="58.2979"/><text fill="#000000" font-family="DejaVu Sans" font-size="14" lengthAdjust="spacing" textLength="101.9375" x="797.1" y="81.4297">GPU/host cache</text></g><!--entity N5--><g class="entity" data-qualified-name="N5" data-source-line="12" id="ent0006"><rect fill="#FADBD8" height="36.0986" rx="6" ry="6" style="stroke:#000000;stroke-width:1;" width="96.248" x="1373.9" y="58.2979"/><text fill="#000000" font-family="DejaVu Sans" font-size="14" lengthAdjust="spacing" textLength="76.248" x="1383.9" y="81.4297">RAG corpus</text></g><g class="entity" data-qualified-name="GMN11" data-source-line="20" id="ent0012"><path d="M1026.03,135.8679 L1026.03,148.8166 A6,6 0 0 0 1032.03,154.8166 L1812.0036,154.8166 A6,6 0 0 0 1818.0036,148.8166 L1818.0036,139.8679 L1808.0036,129.8679 L1426.02,129.8679 L1422.02,94.5979 L1418.02,129.8679 L1032.03,129.8679 A6,6 0 0 0 1026.03,135.8679" fill="#FFFFFF" style="stroke:#000000;stroke-width:1;"/><path d="M1808.0036,129.8679 L1808.0036,136.8679 A3,3 0 0 0 1811.0036,139.8679 L1818.0036,139.8679 L1808.0036,129.8679" fill="#FFFFFF" style="stroke:#000000;stroke-width:1;"/><text fill="#000000" font-family="DejaVu Sans" font-size="13" lengthAdjust="spacing" textLength="770.9736" x="1032.03" y="147.0617">Actor-facing contract: lower-layer resource identifiers remain hidden unless the ADR explicitly defines them as operator-only evidence.</text></g><!--link N1 to N2--><g class="link" data-entity-1="ent0002" data-entity-2="ent0003" data-link-type="dependency" data-source-line="14" id="lnk7"><path d="M120.41,76.3479 C168.75,76.3479 233.24,76.3479 279.52,76.3479" fill="none" id="N1-to-N2" style="stroke:#000000;stroke-width:1;"/><polygon fill="#000000" points="285.52,76.3479,276.52,72.3479,280.52,76.3479,276.52,80.3479,285.52,76.3479" style="stroke:#000000;stroke-width:1;"/><text fill="#000000" font-family="DejaVu Sans" font-size="13" lengthAdjust="spacing" textLength="104.0571" x="150.92" y="73.5417">versioned weights</text></g><!--link N2 to N3--><g class="link" data-entity-1="ent0003" data-entity-2="ent0004" data-link-type="dependency" data-source-line="15" id="lnk8"><path d="M381.87,76.3479 C429.71,76.3479 497.9,76.3479 550.07,76.3479" fill="none" id="N2-to-N3" style="stroke:#000000;stroke-width:1;"/><polygon fill="#000000" points="556.07,76.3479,547.07,72.3479,551.07,76.3479,547.07,80.3479,556.07,76.3479" style="stroke:#000000;stroke-width:1;"/><text fill="#000000" font-family="DejaVu Sans" font-size="13" lengthAdjust="spacing" textLength="113.4517" x="412.39" y="73.5417">adapters/tokenizers</text></g><!--link N3 to N4--><g class="link" data-entity-1="ent0004" data-entity-2="ent0005" data-link-type="dependency" data-source-line="16" id="lnk9"><path d="M679.33,76.3479 C712.62,76.3479 747.78,76.3479 780.99,76.3479" fill="none" id="N3-to-N4" style="stroke:#000000;stroke-width:1;"/><polygon fill="#000000" points="786.99,76.3479,777.99,72.3479,781.99,76.3479,777.99,80.3479,786.99,76.3479" style="stroke:#000000;stroke-width:1;"/><text fill="#000000" font-family="DejaVu Sans" font-size="13" lengthAdjust="spacing" textLength="46.9727" x="710.1" y="73.5417">prefetch</text></g><!--link N4 to N5--><g class="link" data-entity-1="ent0005" data-entity-2="ent0006" data-link-type="dependency" data-source-line="17" id="lnk10"><path d="M909.46,76.3479 C1023.89,76.3479 1264.09,76.3479 1367.62,76.3479" fill="none" id="N4-to-N5" style="stroke:#000000;stroke-width:1;"/><polygon fill="#000000" points="1373.62,76.3479,1364.62,72.3479,1368.62,76.3479,1364.62,80.3479,1373.62,76.3479" style="stroke:#000000;stroke-width:1;"/><text fill="#000000" font-family="DejaVu Sans" font-size="13" lengthAdjust="spacing" textLength="55.6372" x="940.03" y="73.5417">residency</text></g><?plantuml-src LLBBKkCm4BphAmPo3bameL8vR9M9OquyAlku2saS2sIDIneJpDVloE7WlTdTBNMhPowunGwXzze5nOuzme_Y2Xx9ebyzlxwXuTMEOZya-Eqm9fNUNUXrr1saLbiwkN24Hlk4CoRI4AoX6332zSsCiDZemNDDWP-qs5RuflyEy4k7f3ms34mGtR5bi2wAjQEWLFxGuIZ9BgTO4F7e4iVn4dI2fsjOL7VxijxCXUVaa9WYdcKt8blNwtqnbnsgnnBQqKQThSx20XRrhYvszLpuyF9drL9YCDgqtpVUmcA_gShzVy93-G1cwkiiMijjPNLVRPIIfClbpvna2nzIfJYYXHFczoObyCGMmcghUnR5YkaTW_lAlGinyRV2zn4RPDCg-Pl0jO0HaxCOpAXK84Pu9MRgL6caWsMZJHwKaUAZDhm5JoUCIwz76P6Sf24QX7oUNPFdB60dAm6jimB243oc1B8iK5O7mC_UEoFRCkQHke0JrUKNKu_IfbXI41O_fanufJ1OoBd-0G00?></g></svg>