<?plantuml 1.2026.1?><svg xmlns="http://www.w3.org/2000/svg" xmlns:xlink="http://www.w3.org/1999/xlink" contentStyleType="text/css" data-diagram-type="DESCRIPTION" height="161px" preserveAspectRatio="none" style="width:1774px;height:161px;background:#FFFFFF;" version="1.1" viewBox="0 0 1774 161" width="1774px" zoomAndPan="magnify"><title>01. Inference SLO Composition</title><defs/><g><g class="title" data-source-line="2"><text fill="#000000" font-family="DejaVu Sans" font-size="22" font-weight="bold" lengthAdjust="spacing" textLength="326.3906" x="719.6865" y="35.6357">01. Inference SLO Composition</text></g><!--entity N1--><g class="entity" data-qualified-name="N1" data-source-line="8" id="ent0002"><rect fill="#D6EAF8" height="36.0986" rx="6" ry="6" style="stroke:#000000;stroke-width:1;" width="129.7031" x="12" y="58.2979"/><text fill="#000000" font-family="DejaVu Sans" font-size="14" lengthAdjust="spacing" textLength="109.7031" x="22" y="81.4297">Workload classes</text></g><!--entity N2--><g class="entity" data-qualified-name="N2" data-source-line="9" id="ent0003"><rect fill="#D5F5E3" height="36.0986" rx="6" ry="6" style="stroke:#000000;stroke-width:1;" width="87.6963" x="273.7" y="58.2979"/><text fill="#000000" font-family="DejaVu Sans" font-size="14" lengthAdjust="spacing" textLength="67.6963" x="283.7" y="81.4297">SLO policy</text></g><!--entity N3--><g class="entity" data-qualified-name="N3" data-source-line="10" id="ent0004"><rect fill="#FCF3CF" height="36.0986" rx="6" ry="6" style="stroke:#000000;stroke-width:1;" width="83.793" x="503.4" y="58.2979"/><text fill="#000000" font-family="DejaVu Sans" font-size="14" lengthAdjust="spacing" textLength="63.793" x="513.4" y="81.4297">Tier policy</text></g><!--entity N4--><g class="entity" data-qualified-name="N4" data-source-line="11" id="ent0005"><rect fill="#E8DAEF" height="36.0986" rx="6" ry="6" style="stroke:#000000;stroke-width:1;" width="112.5996" x="723.19" y="58.2979"/><text fill="#000000" font-family="DejaVu Sans" font-size="14" lengthAdjust="spacing" textLength="92.5996" x="733.19" y="81.4297">Coherence-CE</text></g><!--entity N5--><g class="entity" data-qualified-name="N5" data-source-line="12" id="ent0006"><rect fill="#FADBD8" height="36.0986" rx="6" ry="6" style="stroke:#000000;stroke-width:1;" width="121.1787" x="1311.19" y="58.2979"/><text fill="#000000" font-family="DejaVu Sans" font-size="14" lengthAdjust="spacing" textLength="101.1787" x="1321.19" y="81.4297">Scheduler gates</text></g><g class="entity" data-qualified-name="GMN11" data-source-line="20" id="ent0012"><path d="M975.79,135.8679 L975.79,148.8166 A6,6 0 0 0 981.79,154.8166 L1761.7636,154.8166 A6,6 0 0 0 1767.7636,148.8166 L1767.7636,139.8679 L1757.7636,129.8679 L1375.78,129.8679 L1371.78,94.5979 L1367.78,129.8679 L981.79,129.8679 A6,6 0 0 0 975.79,135.8679" fill="#FFFFFF" style="stroke:#000000;stroke-width:1;"/><path d="M1757.7636,129.8679 L1757.7636,136.8679 A3,3 0 0 0 1760.7636,139.8679 L1767.7636,139.8679 L1757.7636,129.8679" fill="#FFFFFF" style="stroke:#000000;stroke-width:1;"/><text fill="#000000" font-family="DejaVu Sans" font-size="13" lengthAdjust="spacing" textLength="770.9736" x="981.79" y="147.0617">Actor-facing contract: lower-layer resource identifiers remain hidden unless the ADR explicitly defines them as operator-only evidence.</text></g><!--link N1 to N2--><g class="link" data-entity-1="ent0002" data-entity-2="ent0003" data-link-type="dependency" data-source-line="14" id="lnk7"><path d="M142.13,76.3479 C183.7,76.3479 230.67,76.3479 267.28,76.3479" fill="none" id="N1-to-N2" style="stroke:#000000;stroke-width:1;"/><polygon fill="#000000" points="273.28,76.3479,264.28,72.3479,268.28,76.3479,264.28,80.3479,273.28,76.3479" style="stroke:#000000;stroke-width:1;"/><text fill="#000000" font-family="DejaVu Sans" font-size="13" lengthAdjust="spacing" textLength="70.04" x="172.7" y="73.5417">TTFT/TPOT</text></g><!--link N2 to N3--><g class="link" data-entity-1="ent0003" data-entity-2="ent0004" data-link-type="dependency" data-source-line="15" id="lnk8"><path d="M361.81,76.3479 C402.52,76.3479 457.06,76.3479 497.09,76.3479" fill="none" id="N2-to-N3" style="stroke:#000000;stroke-width:1;"/><polygon fill="#000000" points="503.09,76.3479,494.09,72.3479,498.09,76.3479,494.09,80.3479,503.09,76.3479" style="stroke:#000000;stroke-width:1;"/><text fill="#000000" font-family="DejaVu Sans" font-size="13" lengthAdjust="spacing" textLength="80.9326" x="392.4" y="73.5417">cache hit ratio</text></g><!--link N3 to N4--><g class="link" data-entity-1="ent0004" data-entity-2="ent0005" data-link-type="dependency" data-source-line="16" id="lnk9"><path d="M587.54,76.3479 C625.2,76.3479 675.19,76.3479 716.81,76.3479" fill="none" id="N3-to-N4" style="stroke:#000000;stroke-width:1;"/><polygon fill="#000000" points="722.81,76.3479,713.81,72.3479,717.81,76.3479,713.81,80.3479,722.81,76.3479" style="stroke:#000000;stroke-width:1;"/><text fill="#000000" font-family="DejaVu Sans" font-size="13" lengthAdjust="spacing" textLength="74.4199" x="618.19" y="73.5417">latency class</text></g><!--link N4 to N5--><g class="link" data-entity-1="ent0005" data-entity-2="ent0006" data-link-type="dependency" data-source-line="17" id="lnk10"><path d="M836.29,76.3479 C947.66,76.3479 1190.61,76.3479 1305.09,76.3479" fill="none" id="N4-to-N5" style="stroke:#000000;stroke-width:1;"/><polygon fill="#000000" points="1311.09,76.3479,1302.09,72.3479,1306.09,76.3479,1302.09,80.3479,1311.09,76.3479" style="stroke:#000000;stroke-width:1;"/><text fill="#000000" font-family="DejaVu Sans" font-size="13" lengthAdjust="spacing" textLength="78.0254" x="866.79" y="73.5417">rollout criteria</text></g><?plantuml-src LLBBZjGm4BpxAvgTSnPcPmUDE225F2Gaj8kO2CwDtPcOTToHtM6PlwUJ4LAusLMbwkh76nbe99W2-cZ4Io1ujx-7px6dHD4IdByyGyNZnDcBvsZoYuyJ9XmX3-ZurSSBz1WoRPZ4StIMKwG4-uSDuQZ7EKZBKPvGozRq2x_FSCQOJQ1UG1YIlmm2pYUoQq6pF31UDDdT3qulWT613PWpvJl034zxsDNlcx8zRQLBxec3jzURw455n_RO7BQYpcl2hUe0kxPg3rMxLLKyt8PHLCrDzWYxvbINpN-oint8pK4TBoZ_iXtLiAm_rITZD6THV5oIV82kQxkttTVdpkXtHG-AMbGB6Bn0GktTABXoZye5zOpsUklSABGoHsKIXy2pW4rUA7aq9h8G_6GH7arfXLFHerqMPNNm2Qse7RzIAW9UDMwYp7FINNj7KNolGyaAZdeI6iOf27CCb3FeiK1PVmFwC-dCz5gkoqfzf9KQbuvv8Wsl9JagIxyNJqltXgA39TTV?></g></svg>