<?plantuml 1.2026.1?><svg xmlns="http://www.w3.org/2000/svg" xmlns:xlink="http://www.w3.org/1999/xlink" contentStyleType="text/css" data-diagram-type="DESCRIPTION" height="161px" preserveAspectRatio="none" style="width:1918px;height:161px;background:#FFFFFF;" version="1.1" viewBox="0 0 1918 161" width="1918px" zoomAndPan="magnify"><title>20. CXL Pools for UA-Link Pods</title><defs/><g><g class="title" data-source-line="2"><text fill="#000000" font-family="DejaVu Sans" font-size="22" font-weight="bold" lengthAdjust="spacing" textLength="332.4814" x="788.7361" y="35.6357">20. CXL Pools for UA-Link Pods</text></g><!--entity N1--><g class="entity" data-qualified-name="N1" data-source-line="8" id="ent0002"><rect fill="#D6EAF8" height="36.0986" rx="6" ry="6" style="stroke:#000000;stroke-width:1;" width="97.041" x="12" y="58.2979"/><text fill="#000000" font-family="DejaVu Sans" font-size="14" lengthAdjust="spacing" textLength="77.041" x="22" y="81.4297">UA-Link pod</text></g><!--entity N2--><g class="entity" data-qualified-name="N2" data-source-line="9" id="ent0003"><rect fill="#D5F5E3" height="36.0986" rx="6" ry="6" style="stroke:#000000;stroke-width:1;" width="136.7373" x="236.04" y="58.2979"/><text fill="#000000" font-family="DejaVu Sans" font-size="14" lengthAdjust="spacing" textLength="116.7373" x="246.04" y="81.4297">CXL pool manager</text></g><!--entity N3--><g class="entity" data-qualified-name="N3" data-source-line="10" id="ent0004"><rect fill="#FCF3CF" height="36.0986" rx="6" ry="6" style="stroke:#000000;stroke-width:1;" width="153.041" x="532.78" y="58.2979"/><text fill="#000000" font-family="DejaVu Sans" font-size="14" lengthAdjust="spacing" textLength="133.041" x="542.78" y="81.4297">CXL memory devices</text></g><!--entity N4--><g class="entity" data-qualified-name="N4" data-source-line="11" id="ent0005"><rect fill="#E8DAEF" height="36.0986" rx="6" ry="6" style="stroke:#000000;stroke-width:1;" width="149.165" x="845.82" y="58.2979"/><text fill="#000000" font-family="DejaVu Sans" font-size="14" lengthAdjust="spacing" textLength="129.165" x="855.82" y="81.4297">Coherence warm KV</text></g><!--entity N5--><g class="entity" data-qualified-name="N5" data-source-line="12" id="ent0006"><rect fill="#FADBD8" height="36.0986" rx="6" ry="6" style="stroke:#000000;stroke-width:1;" width="121.1787" x="1455.38" y="58.2979"/><text fill="#000000" font-family="DejaVu Sans" font-size="14" lengthAdjust="spacing" textLength="101.1787" x="1465.38" y="81.4297">Scheduler gates</text></g><g class="entity" data-qualified-name="GMN11" data-source-line="20" id="ent0012"><path d="M1119.98,135.8679 L1119.98,148.8166 A6,6 0 0 0 1125.98,154.8166 L1905.9536,154.8166 A6,6 0 0 0 1911.9536,148.8166 L1911.9536,139.8679 L1901.9536,129.8679 L1519.97,129.8679 L1515.97,94.5979 L1511.97,129.8679 L1125.98,129.8679 A6,6 0 0 0 1119.98,135.8679" fill="#FFFFFF" style="stroke:#000000;stroke-width:1;"/><path d="M1901.9536,129.8679 L1901.9536,136.8679 A3,3 0 0 0 1904.9536,139.8679 L1911.9536,139.8679 L1901.9536,129.8679" fill="#FFFFFF" style="stroke:#000000;stroke-width:1;"/><text fill="#000000" font-family="DejaVu Sans" font-size="13" lengthAdjust="spacing" textLength="770.9736" x="1125.98" y="147.0617">Actor-facing contract: lower-layer resource identifiers remain hidden unless the ADR explicitly defines them as operator-only evidence.</text></g><!--link N1 to N2--><g class="link" data-entity-1="ent0002" data-entity-2="ent0003" data-link-type="dependency" data-source-line="14" id="lnk7"><path d="M109.31,76.3479 C145.38,76.3479 189.36,76.3479 229.57,76.3479" fill="none" id="N1-to-N2" style="stroke:#000000;stroke-width:1;"/><polygon fill="#000000" points="235.57,76.3479,226.57,72.3479,230.57,76.3479,226.57,80.3479,235.57,76.3479" style="stroke:#000000;stroke-width:1;"/><text fill="#000000" font-family="DejaVu Sans" font-size="13" lengthAdjust="spacing" textLength="65.0381" x="140.04" y="73.5417">pod locality</text></g><!--link N2 to N3--><g class="link" data-entity-1="ent0003" data-entity-2="ent0004" data-link-type="dependency" data-source-line="15" id="lnk8"><path d="M373.01,76.3479 C420.26,76.3479 477.41,76.3479 526.39,76.3479" fill="none" id="N2-to-N3" style="stroke:#000000;stroke-width:1;"/><polygon fill="#000000" points="532.39,76.3479,523.39,72.3479,527.39,76.3479,523.39,80.3479,532.39,76.3479" style="stroke:#000000;stroke-width:1;"/><text fill="#000000" font-family="DejaVu Sans" font-size="13" lengthAdjust="spacing" textLength="98.2871" x="403.78" y="73.5417">ownership epoch</text></g><!--link N3 to N4--><g class="link" data-entity-1="ent0004" data-entity-2="ent0005" data-link-type="dependency" data-source-line="16" id="lnk9"><path d="M686.31,76.3479 C734.84,76.3479 791.45,76.3479 839.55,76.3479" fill="none" id="N3-to-N4" style="stroke:#000000;stroke-width:1;"/><polygon fill="#000000" points="845.55,76.3479,836.55,72.3479,840.55,76.3479,836.55,80.3479,845.55,76.3479" style="stroke:#000000;stroke-width:1;"/><text fill="#000000" font-family="DejaVu Sans" font-size="13" lengthAdjust="spacing" textLength="98.249" x="716.82" y="73.5417">memory capacity</text></g><!--link N4 to N5--><g class="link" data-entity-1="ent0005" data-entity-2="ent0006" data-link-type="dependency" data-source-line="17" id="lnk10"><path d="M995.38,76.3479 C1114.4,76.3479 1340.11,76.3479 1449.31,76.3479" fill="none" id="N4-to-N5" style="stroke:#000000;stroke-width:1;"/><polygon fill="#000000" points="1455.31,76.3479,1446.31,72.3479,1450.31,76.3479,1446.31,80.3479,1455.31,76.3479" style="stroke:#000000;stroke-width:1;"/><text fill="#000000" font-family="DejaVu Sans" font-size="13" lengthAdjust="spacing" textLength="63.5718" x="1025.98" y="73.5417">warm state</text></g><?plantuml-src NP9FRzim3CNl-XHSStQnviyGz330Y-FBYc9OiQ9NJg9jhP8eIFAoVFjHpWgakmbyJ-AFZ_fG9l84qQ4DgjZY2DOVR-7myW3Vc5s6WHFyQ9i76rwbOhBAhpP4JEWXJsZuPCC80xfCLqhYEHZDAL22k_MLO6Z0sPMUGtb4wTlHBtoUuGb3Lew60eKXsN4gO6mYNIm7fUe1moXeDsyaaSqDO8R7ErXrduvjlxzsLVeezE0nu4ZfObsBTTVlZfl_hPuyfxEm_RQQyiMyWLL_w3U7_fsP9qeKDC49auUlpnVl5bR7VTSUttcVz4HcTXB0YENjrPsysdPVkhrIGjuqdolLVPq676jqjfoLL1PX8mAV9C4ysGWKMKzAYeks5UqVjSQ8UhctlMWxqHQyNAInKe4BmKykXRrgTU7K3791bgPb2GbrkPVU9qgDmxFG9iey9ndH6Wh53bO0fEZbVy1aZHHX3evo1lavq7RVWVv4PmN1rGW76sYHV1sO8oMiBJc8AlcQcjwjec2WSlq5?></g></svg>