<?plantuml 1.2026.1?><svg xmlns="http://www.w3.org/2000/svg" xmlns:xlink="http://www.w3.org/1999/xlink" contentStyleType="text/css" data-diagram-type="ACTIVITY" height="1149px" preserveAspectRatio="none" style="width:679px;height:1149px;background:#FFFFFF;" version="1.1" viewBox="0 0 679 1149" width="679px" zoomAndPan="magnify"><title>ADR-017 - Research Metadata and arXiv Publication Workflow</title><defs/><g><g class="title" data-source-line="18"><text fill="#000000" font-family="DejaVu Sans" font-size="22" font-weight="bold" lengthAdjust="spacing" textLength="646.7119" x="15" y="35.6357">ADR-017 - Research Metadata and arXiv Publication Workflow</text></g><ellipse cx="347.0249" cy="61.2979" fill="#145A32" rx="10" ry="10" style="stroke:#000000;stroke-width:1;"/><rect fill="#FFFFFF" height="227.2939" rx="6" ry="6" style="stroke:#000000;stroke-width:1;" width="583.582" x="48.0649" y="81.2979"/><path d="M186.478,81.2979 L186.478,90.3965 L176.478,100.3965 L48.0649,100.3965" fill="none" style="stroke:#000000;stroke-width:1;"/><text fill="#000000" font-family="DejaVu Sans" font-size="14" lengthAdjust="spacing" textLength="128.4131" x="51.0649" y="95.4297">Metadata acquisition</text><rect fill="#FDFEFE" height="47.5977" rx="6" ry="6" style="stroke:#566573;stroke-width:1;" width="256.7891" x="218.6304" y="117.3965"/><text fill="#000000" font-family="DejaVu Sans" font-size="12" lengthAdjust="spacing" textLength="196.7578" x="228.6304" y="138.6523">Query arXiv API or S3 bulk metadata</text><text fill="#000000" font-family="DejaVu Sans" font-size="12" lengthAdjust="spacing" textLength="236.7891" x="228.6304" y="152.4512">with requester-pays credentials outside docs</text><polygon fill="#FCF3CF" points="262.0354,184.9941,432.0144,184.9941,444.0144,196.9941,432.0144,208.9941,262.0354,208.9941,250.0354,196.9941,262.0354,184.9941" style="stroke:#B7950B;stroke-width:1;"/><text fill="#000000" font-family="DejaVu Sans" font-size="11" lengthAdjust="spacing" textLength="169.979" x="262.0354" y="200.9875">rate limit or credential unavailable?</text><text fill="#000000" font-family="DejaVu Sans" font-size="11" lengthAdjust="spacing" textLength="37.2969" x="212.7385" y="194.6631">fallback</text><text fill="#000000" font-family="DejaVu Sans" font-size="11" lengthAdjust="spacing" textLength="39.7354" x="444.0144" y="194.6631">success</text><rect fill="#FDFEFE" height="47.5977" rx="6" ry="6" style="stroke:#566573;stroke-width:1;" width="284.1289" x="60.0649" y="218.9941"/><text fill="#000000" font-family="DejaVu Sans" font-size="12" lengthAdjust="spacing" textLength="264.1289" x="70.0649" y="240.25">Record failure mode and use local archived PDFs</text><text fill="#000000" font-family="DejaVu Sans" font-size="12" lengthAdjust="spacing" textLength="150.0879" x="70.0649" y="254.0488">without fabricating metadata</text><rect fill="#FDFEFE" height="47.5977" rx="6" ry="6" style="stroke:#566573;stroke-width:1;" width="255.4531" x="364.1938" y="218.9941"/><text fill="#000000" font-family="DejaVu Sans" font-size="12" lengthAdjust="spacing" textLength="204.75" x="374.1938" y="240.25">Store title, authors, DOI/arXiv ID, date,</text><text fill="#000000" font-family="DejaVu Sans" font-size="12" lengthAdjust="spacing" textLength="235.4531" x="374.1938" y="254.0488">license, checksum, and relative archive path</text><polygon fill="#FCF3CF" points="347.0249,272.5918,359.0249,284.5918,347.0249,296.5918,335.0249,284.5918,347.0249,272.5918" style="stroke:#B7950B;stroke-width:1;"/><rect fill="#FFFFFF" height="255.6184" rx="6" ry="6" style="stroke:#000000;stroke-width:1;" width="252.415" x="226.6509" y="318.5918"/><path d="M353.3745,318.5918 L353.3745,327.6904 L343.3745,337.6904 L226.6509,337.6904" fill="none" style="stroke:#000000;stroke-width:1;"/><text fill="#000000" font-family="DejaVu Sans" font-size="14" lengthAdjust="spacing" textLength="116.7236" x="229.6509" y="332.7236">Corpus processing</text><rect fill="#FDFEFE" height="47.5977" rx="6" ry="6" style="stroke:#566573;stroke-width:1;" width="220.748" x="236.6509" y="354.6904"/><text fill="#000000" font-family="DejaVu Sans" font-size="12" lengthAdjust="spacing" textLength="200.748" x="246.6509" y="375.9463">Extract PDF text to processing cache;</text><text fill="#000000" font-family="DejaVu Sans" font-size="12" lengthAdjust="spacing" textLength="180.7676" x="246.6509" y="389.7451">chunk, embed, and index for RAG</text><rect fill="#FDFEFE" height="47.5977" rx="6" ry="6" style="stroke:#566573;stroke-width:1;" width="200.082" x="246.9839" y="470.6125"/><text fill="#000000" font-family="DejaVu Sans" font-size="12" lengthAdjust="spacing" textLength="180.082" x="256.9839" y="491.8684">Record filename and parser error;</text><text fill="#000000" font-family="DejaVu Sans" font-size="12" lengthAdjust="spacing" textLength="99.3809" x="256.9839" y="505.6672">do not silently omit</text><polygon fill="#FCF3CF" points="298.4192,422.2881,395.6306,422.2881,407.6306,434.2881,395.6306,446.2881,298.4192,446.2881,286.4192,434.2881,298.4192,422.2881" style="stroke:#B7950B;stroke-width:1;"/><text fill="#000000" font-family="DejaVu Sans" font-size="11" lengthAdjust="spacing" textLength="29.96" x="351.0249" y="456.606">failure</text><text fill="#000000" font-family="DejaVu Sans" font-size="11" lengthAdjust="spacing" textLength="97.2114" x="298.4192" y="438.2815">text extraction fails?</text><polygon fill="#FCF3CF" points="347.0249,538.2102,359.0249,550.2102,347.0249,562.2102,335.0249,550.2102,347.0249,538.2102" style="stroke:#B7950B;stroke-width:1;"/><rect fill="#FFFFFF" height="213.4951" rx="6" ry="6" style="stroke:#000000;stroke-width:1;" width="428.1953" x="137.2632" y="584.2102"/><path d="M272.5728,584.2102 L272.5728,593.3088 L262.5728,603.3088 L137.2632,603.3088" fill="none" style="stroke:#000000;stroke-width:1;"/><text fill="#000000" font-family="DejaVu Sans" font-size="14" lengthAdjust="spacing" textLength="125.3096" x="140.2632" y="598.342">Publication package</text><rect fill="#FDFEFE" height="47.5977" rx="6" ry="6" style="stroke:#566573;stroke-width:1;" width="262.7832" x="215.6333" y="620.3088"/><text fill="#000000" font-family="DejaVu Sans" font-size="12" lengthAdjust="spacing" textLength="242.7832" x="225.6333" y="641.5647">Generate Markdown, LaTeX, BibTeX, figures,</text><text fill="#000000" font-family="DejaVu Sans" font-size="12" lengthAdjust="spacing" textLength="195.4219" x="225.6333" y="655.3635">and source archive with relative links</text><polygon fill="#FCF3CF" points="301.1692,687.9065,392.8806,687.9065,404.8806,699.9065,392.8806,711.9065,301.1692,711.9065,289.1692,699.9065,301.1692,687.9065" style="stroke:#B7950B;stroke-width:1;"/><text fill="#000000" font-family="DejaVu Sans" font-size="11" lengthAdjust="spacing" textLength="91.7114" x="301.1692" y="703.8999">TeX builds locally?</text><text fill="#000000" font-family="DejaVu Sans" font-size="11" lengthAdjust="spacing" textLength="23.2407" x="265.9285" y="697.5754">build</text><text fill="#000000" font-family="DejaVu Sans" font-size="11" lengthAdjust="spacing" textLength="59.3237" x="404.8806" y="697.5754">no toolchain</text><rect fill="#FDFEFE" height="33.7988" rx="6" ry="6" style="stroke:#566573;stroke-width:1;" width="175.4258" x="157.2632" y="721.9065"/><text fill="#000000" font-family="DejaVu Sans" font-size="12" lengthAdjust="spacing" textLength="155.4258" x="167.2632" y="743.1624">Attach PDF and log evidence</text><rect fill="#FDFEFE" height="33.7988" rx="6" ry="6" style="stroke:#566573;stroke-width:1;" width="192.7695" x="352.689" y="721.9065"/><text fill="#000000" font-family="DejaVu Sans" font-size="12" lengthAdjust="spacing" textLength="172.7695" x="362.689" y="743.1624">Record not-tested TeX build gap</text><polygon fill="#FCF3CF" points="347.0249,761.7053,359.0249,773.7053,347.0249,785.7053,335.0249,773.7053,347.0249,761.7053" style="stroke:#B7950B;stroke-width:1;"/><rect fill="#FFFFFF" height="95.6963" rx="6" ry="6" style="stroke:#000000;stroke-width:1;" width="266.7871" x="213.6313" y="807.7053"/><path d="M269.5347,807.7053 L269.5347,816.804 L259.5347,826.804 L213.6313,826.804" fill="none" style="stroke:#000000;stroke-width:1;"/><text fill="#000000" font-family="DejaVu Sans" font-size="14" lengthAdjust="spacing" textLength="45.9033" x="216.6313" y="821.8372">Review</text><rect fill="#FDFEFE" height="47.5977" rx="6" ry="6" style="stroke:#566573;stroke-width:1;" width="246.7871" x="223.6313" y="843.804"/><text fill="#000000" font-family="DejaVu Sans" font-size="12" lengthAdjust="spacing" textLength="226.7871" x="233.6313" y="865.0598">Run citation, path, and claim-grade checks</text><text fill="#000000" font-family="DejaVu Sans" font-size="12" lengthAdjust="spacing" textLength="143.4082" x="233.6313" y="878.8586">before external submission</text><ellipse cx="347.0249" cy="934.4016" fill="none" rx="11" ry="11" style="stroke:#000000;stroke-width:1;"/><ellipse cx="347.0249" cy="934.4016" fill="#FFFFFF" rx="6" ry="6" style="stroke:#000000;stroke-width:1;"/><line style="stroke:#34495E;stroke-width:1;" x1="250.0354" x2="202.1294" y1="196.9941" y2="196.9941"/><line style="stroke:#34495E;stroke-width:1;" x1="202.1294" x2="202.1294" y1="196.9941" y2="218.9941"/><polygon fill="#34495E" points="198.1294,208.9941,202.1294,218.9941,206.1294,208.9941,202.1294,212.9941" style="stroke:#34495E;stroke-width:1;"/><line style="stroke:#34495E;stroke-width:1;" x1="444.0144" x2="491.9204" y1="196.9941" y2="196.9941"/><line style="stroke:#34495E;stroke-width:1;" x1="491.9204" x2="491.9204" y1="196.9941" y2="218.9941"/><polygon fill="#34495E" points="487.9204,208.9941,491.9204,218.9941,495.9204,208.9941,491.9204,212.9941" style="stroke:#34495E;stroke-width:1;"/><line style="stroke:#34495E;stroke-width:1;" x1="202.1294" x2="202.1294" y1="266.5918" y2="284.5918"/><line style="stroke:#34495E;stroke-width:1;" x1="202.1294" x2="335.0249" y1="284.5918" y2="284.5918"/><polygon fill="#34495E" points="325.0249,280.5918,335.0249,284.5918,325.0249,288.5918,329.0249,284.5918" style="stroke:#34495E;stroke-width:1;"/><line style="stroke:#34495E;stroke-width:1;" x1="491.9204" x2="491.9204" y1="266.5918" y2="284.5918"/><line style="stroke:#34495E;stroke-width:1;" x1="491.9204" x2="359.0249" y1="284.5918" y2="284.5918"/><polygon fill="#34495E" points="369.0249,280.5918,359.0249,284.5918,369.0249,288.5918,365.0249,284.5918" style="stroke:#34495E;stroke-width:1;"/><line style="stroke:#34495E;stroke-width:1;" x1="347.0249" x2="347.0249" y1="164.9941" y2="184.9941"/><polygon fill="#34495E" points="343.0249,174.9941,347.0249,184.9941,351.0249,174.9941,347.0249,178.9941" style="stroke:#34495E;stroke-width:1;"/><line style="stroke:#34495E;stroke-width:1;" x1="347.0249" x2="347.0249" y1="71.2979" y2="117.3965"/><polygon fill="#34495E" points="343.0249,107.3965,347.0249,117.3965,351.0249,107.3965,347.0249,111.3965" style="stroke:#34495E;stroke-width:1;"/><line style="stroke:#34495E;stroke-width:1;" x1="347.0249" x2="347.0249" y1="446.2881" y2="470.6125"/><polygon fill="#34495E" points="343.0249,460.6125,347.0249,470.6125,351.0249,460.6125,347.0249,464.6125" style="stroke:#34495E;stroke-width:1;"/><line style="stroke:#34495E;stroke-width:1;" x1="407.6306" x2="457.0659" y1="434.2881" y2="434.2881"/><polygon fill="#34495E" points="453.0659,484.4114,457.0659,494.4114,461.0659,484.4114,457.0659,488.4114" style="stroke:#34495E;stroke-width:1;"/><line style="stroke:#34495E;stroke-width:1;" x1="457.0659" x2="457.0659" y1="434.2881" y2="550.2102"/><line style="stroke:#34495E;stroke-width:1;" x1="457.0659" x2="359.0249" y1="550.2102" y2="550.2102"/><polygon fill="#34495E" points="369.0249,546.2102,359.0249,550.2102,369.0249,554.2102,365.0249,550.2102" style="stroke:#34495E;stroke-width:1;"/><line style="stroke:#34495E;stroke-width:1;" x1="347.0249" x2="347.0249" y1="518.2102" y2="538.2102"/><polygon fill="#34495E" points="343.0249,528.2102,347.0249,538.2102,351.0249,528.2102,347.0249,532.2102" style="stroke:#34495E;stroke-width:1;"/><line style="stroke:#34495E;stroke-width:1;" x1="347.0249" x2="347.0249" y1="402.2881" y2="422.2881"/><polygon fill="#34495E" points="343.0249,412.2881,347.0249,422.2881,351.0249,412.2881,347.0249,416.2881" style="stroke:#34495E;stroke-width:1;"/><line style="stroke:#34495E;stroke-width:1;" x1="347.0249" x2="347.0249" y1="296.5918" y2="354.6904"/><polygon fill="#34495E" points="343.0249,344.6904,347.0249,354.6904,351.0249,344.6904,347.0249,348.6904" style="stroke:#34495E;stroke-width:1;"/><line style="stroke:#34495E;stroke-width:1;" x1="289.1692" x2="244.9761" y1="699.9065" y2="699.9065"/><line style="stroke:#34495E;stroke-width:1;" x1="244.9761" x2="244.9761" y1="699.9065" y2="721.9065"/><polygon fill="#34495E" points="240.9761,711.9065,244.9761,721.9065,248.9761,711.9065,244.9761,715.9065" style="stroke:#34495E;stroke-width:1;"/><line style="stroke:#34495E;stroke-width:1;" x1="404.8806" x2="449.0737" y1="699.9065" y2="699.9065"/><line style="stroke:#34495E;stroke-width:1;" x1="449.0737" x2="449.0737" y1="699.9065" y2="721.9065"/><polygon fill="#34495E" points="445.0737,711.9065,449.0737,721.9065,453.0737,711.9065,449.0737,715.9065" style="stroke:#34495E;stroke-width:1;"/><line style="stroke:#34495E;stroke-width:1;" x1="244.9761" x2="244.9761" y1="755.7053" y2="773.7053"/><line style="stroke:#34495E;stroke-width:1;" x1="244.9761" x2="335.0249" y1="773.7053" y2="773.7053"/><polygon fill="#34495E" points="325.0249,769.7053,335.0249,773.7053,325.0249,777.7053,329.0249,773.7053" style="stroke:#34495E;stroke-width:1;"/><line style="stroke:#34495E;stroke-width:1;" x1="449.0737" x2="449.0737" y1="755.7053" y2="773.7053"/><line style="stroke:#34495E;stroke-width:1;" x1="449.0737" x2="359.0249" y1="773.7053" y2="773.7053"/><polygon fill="#34495E" points="369.0249,769.7053,359.0249,773.7053,369.0249,777.7053,365.0249,773.7053" style="stroke:#34495E;stroke-width:1;"/><line style="stroke:#34495E;stroke-width:1;" x1="347.0249" x2="347.0249" y1="667.9065" y2="687.9065"/><polygon fill="#34495E" points="343.0249,677.9065,347.0249,687.9065,351.0249,677.9065,347.0249,681.9065" style="stroke:#34495E;stroke-width:1;"/><line style="stroke:#34495E;stroke-width:1;" x1="347.0249" x2="347.0249" y1="562.2102" y2="620.3088"/><polygon fill="#34495E" points="343.0249,610.3088,347.0249,620.3088,351.0249,610.3088,347.0249,614.3088" style="stroke:#34495E;stroke-width:1;"/><line style="stroke:#34495E;stroke-width:1;" x1="347.0249" x2="347.0249" y1="785.7053" y2="843.804"/><polygon fill="#34495E" points="343.0249,833.804,347.0249,843.804,351.0249,833.804,347.0249,837.804" style="stroke:#34495E;stroke-width:1;"/><line style="stroke:#34495E;stroke-width:1;" x1="347.0249" x2="347.0249" y1="891.4016" y2="923.4016"/><polygon fill="#34495E" points="343.0249,913.4016,347.0249,923.4016,351.0249,913.4016,347.0249,917.4016" style="stroke:#34495E;stroke-width:1;"/><g class="legend" data-source-line="20"><rect fill="none" height="187.085" rx="6" ry="6" style="stroke:#000000;stroke-width:1;" width="577.1367" x="49.7876" y="949.4016"/><text fill="#000000" font-family="DejaVu Sans" font-size="14" lengthAdjust="spacing" textLength="368.0537" x="54.7876" y="967.5334">Design defaults for diagrams unless an ADR narrows them:</text><text fill="#000000" font-family="DejaVu Sans" font-size="14" lengthAdjust="spacing" textLength="528.3633" x="54.7876" y="983.6321">- Actor/API: HTTPS 443 or 8443; OpenAI-compatible API plus Coherence-native API.</text><text fill="#000000" font-family="DejaVu Sans" font-size="14" lengthAdjust="spacing" textLength="510.4258" x="54.7876" y="999.7307">- RoCEv2: UDP destination 4791; jumbo MTU 9000; PFC only on RDMA priorities.</text><text fill="#000000" font-family="DejaVu Sans" font-size="14" lengthAdjust="spacing" textLength="554.7432" x="54.7876" y="1015.8293">- NVMe-oF: discovery/controller service on TCP/RDMA port 4420; DPU-mediated targets.</text><text fill="#000000" font-family="DejaVu Sans" font-size="14" lengthAdjust="spacing" textLength="544.7012" x="54.7876" y="1031.928">- Telemetry: OTLP gRPC 4317, OTLP HTTP 4318, Prometheus 9090/9100, gNMI 9339.</text><text fill="#000000" font-family="DejaVu Sans" font-size="14" lengthAdjust="spacing" textLength="519.8252" x="54.7876" y="1048.0266">- Timing: PTP event/general UDP 319/320 on an isolated timing/management class.</text><text fill="#000000" font-family="DejaVu Sans" font-size="14" lengthAdjust="spacing" textLength="454.4121" x="54.7876" y="1064.1252">- VLAN plan: site-specific IDs are allowed, but classes must stay isolated:</text><text fill="#000000" font-family="DejaVu Sans" font-size="14" lengthAdjust="spacing" textLength="559.3574" x="62.5669" y="1080.2239">mgmt/OOB, frontend/API, RDMA rail-A, RDMA rail-B, storage/NVMe-oF, telemetry, timing.</text><text fill="#000000" font-family="DejaVu Sans" font-size="14" lengthAdjust="spacing" textLength="507.3564" x="54.7876" y="1096.3225">- Trunks: 802.1Q tagged uplinks; rail-A and rail-B must not share a failure domain.</text><text fill="#000000" font-family="DejaVu Sans" font-size="14" lengthAdjust="spacing" textLength="464.4951" x="54.7876" y="1112.4211">- Buffers: kv_hbm_active, kv_dram_warm, kv_cxl_warm, kv_rdma_staging,</text><text fill="#000000" font-family="DejaVu Sans" font-size="14" lengthAdjust="spacing" textLength="392.2119" x="62.5669" y="1128.5198">zfs_slog, zfs_arc, zfs_l2arc, object_cache, vector_head_cache.</text></g><?plantuml-src TLLDSzis4BthLspJIp93HLzs7Cc7ZgoFr3EnhSXEceDdF12ueX21W0A0ijrE_diVGDfMqyb58W7iuktRju-_XGsNJ3ijb6dvhJ8xuKH9VYDoUwzCGMkXFH_iE5kPN5fds56lVx2HyrfKEioj2PS2AQVyJNofw5eOVt1gx9ozdrXj7Vq-E3eQ7iyEDeKCQg_28_tJ8ZeJSbkasvhZy-byDf_57UjoTitgyRjtnoS3h4wLAAt9_nyscGycyuC3Xz5d9yFZxXashuDmeLdi7HsF1tqipfwJ3FlzitwlzUC0hB61Vm5qDX_EJdu6sbprenLKq4pZwRBTxPrGcvRiMJYveGiE8XT1a30v2VTLxMbHhRII8YXhw2_hjcjjxrijpGNZY5F59hIcx5LXdkZtjCPbkH85C7ggZ6RlaJ3UHqP4zZt5dezQRHhBO5rdl3WVqPytDujhEZeQ4CBVu_-KhdPinkTjQSiT0AmYviKvb59vcjWDEpQIsmPR-xJp5WcNTZBRzqVqURe081-KgQ4VdGnxf_IjAbUMBcu-qx3RxPxIOZuXQ_GZVcWvlHZJpYdhL53iOxBBBnVSjlCHgl7IxjazTYJ4vQpMq9vdjrUIO-pDPD6fuwqBgA6FtDF5vtR9u25mJkXjmI4blM4DlGVtEAAhcuyBAfQB2HqDUYTP_HvvYE_lCreuYvCRHht3xh3R6VQwtOoAoujp6Wu6mvHDbPYH4IqGn7iseOF6i1CwCJ3e3Jk3VZT2H0EKjxf6au8wfJ2Y01OJI6hX4xel7yUNSHRDYBmAtFOxbcgj99rFqKJ793G4m7b6gwe9OqzbvGFv81wVxnX1V6LHXixLrLb6QmVQ89ZOwQncsWcbs-F35vppK0CWTHhYCmfFP6KDw5IpgypMZ-Xzj_-szmdS5WMAgdPQOVcqoPmaNEUjuM5Qegd44c0fIbTuocq9ruavpwhrcXsIRlTtcrLvbuo0i_YQGyTtzyALwKq-w9SNbvVY3dKNG9QXuh_N_ivhMsJf2IDLF-X-UhIhRop3dHHoWynxZjg_sx38wwMtBJ1K3rQhvQCRj33dcDMetrSleoc_LygdrLTf-aUVAYYp6TSu89YVwm7wexTKDb6tvbw53Jd-Nc4esBLtuj6JT9oZ-me6IxOANkMH4kbFaLMjwRL39qc3zn1plfp6K8izA1GOoJ_Un64sz1eshLSmeZS81gWbmwBpPwPBYzon9PL7IYkH93eEECvfCPtx6Y1086Bbak70-f_WHq2Chm2zzfMKy9Fcacimo9JiB2DH8O7p6KslpZir6-VJZ13FsQs1YR7nE0QcvTPNQ61I2ElQFneq1AVPfEjChjRmoeCMJApROHHtpaO8mDVmFti83dg9TK2m3u62FJX4gRcdjqPk8DkCk5p5yOcNAvFpGxBBvVZ34-af0zSfuxMHGN_0SkBp9vALPXE_U34f0CEPY66q3hVcjbP-F1AYqw6RlwZlqEftw2GciQdmG_8KYE52k2q-ooQZZ-A6lsPqfbRfVwqAmF8WEcBmjdBoXTD6UmtJzPWsrI8OIbKwzxKgzEDpgMcvANGS0bXC3CVy636u7UIA3y2BDem5yrRB3MRwlmI1WNQ8mi_f-K8gnEuNH2oHc--RsfUL8Qb2eYLBygYR1-zJPHiVEGYxrjIjMV4w2XBTOsSWSL-jIWKLM7CQlzp1xlu5?></g></svg>