<?plantuml 1.2026.1?><svg xmlns="http://www.w3.org/2000/svg" xmlns:xlink="http://www.w3.org/1999/xlink" contentStyleType="text/css" data-diagram-type="ACTIVITY" height="972px" preserveAspectRatio="none" style="width:656px;height:972px;background:#FFFFFF;" version="1.1" viewBox="0 0 656 972" width="656px" zoomAndPan="magnify"><title>ADR-016 - Roadmap Evidence and Public Claim Guardrails</title><defs/><g><g class="title" data-source-line="18"><text fill="#000000" font-family="DejaVu Sans" font-size="22" font-weight="bold" lengthAdjust="spacing" textLength="613.7227" x="20.0242" y="35.6357">ADR-016 - Roadmap Evidence and Public Claim Guardrails</text></g><ellipse cx="342.478" cy="61.2979" fill="#145A32" rx="10" ry="10" style="stroke:#000000;stroke-width:1;"/><rect fill="#FFFFFF" height="227.2939" rx="6" ry="6" style="stroke:#000000;stroke-width:1;" width="644.771" x="6" y="81.2979"/><path d="M101.6064,81.2979 L101.6064,90.3965 L91.6064,100.3965 L6,100.3965" fill="none" style="stroke:#000000;stroke-width:1;"/><text fill="#000000" font-family="DejaVu Sans" font-size="14" lengthAdjust="spacing" textLength="85.6064" x="9" y="95.4297">Source intake</text><rect fill="#FDFEFE" height="47.5977" rx="6" ry="6" style="stroke:#566573;stroke-width:1;" width="303.5059" x="190.7251" y="117.3965"/><text fill="#000000" font-family="DejaVu Sans" font-size="12" lengthAdjust="spacing" textLength="251.4902" x="200.7251" y="138.6523">Ingest vendor brief, standard, Linux doc, paper,</text><text fill="#000000" font-family="DejaVu Sans" font-size="12" lengthAdjust="spacing" textLength="283.5059" x="200.7251" y="152.4512">repo snapshot, benchmark, or partner announcement</text><polygon fill="#FCF3CF" points="264.5273,184.9941,420.4287,184.9941,432.4287,196.9941,420.4287,208.9941,264.5273,208.9941,252.5273,196.9941,264.5273,184.9941" style="stroke:#B7950B;stroke-width:1;"/><text fill="#000000" font-family="DejaVu Sans" font-size="11" lengthAdjust="spacing" textLength="155.9014" x="264.5273" y="200.9875">source is primary and archived?</text><text fill="#000000" font-family="DejaVu Sans" font-size="11" lengthAdjust="spacing" textLength="30.5723" x="221.9551" y="194.6631">strong</text><text fill="#000000" font-family="DejaVu Sans" font-size="11" lengthAdjust="spacing" textLength="25.6792" x="432.4287" y="194.6631">weak</text><rect fill="#FDFEFE" height="33.7988" rx="6" ry="6" style="stroke:#566573;stroke-width:1;" width="318.8105" x="26" y="218.9941"/><text fill="#000000" font-family="DejaVu Sans" font-size="12" lengthAdjust="spacing" textLength="298.8105" x="36" y="240.25">Grade direct evidence with URL, checksum, date, scope</text><rect fill="#FDFEFE" height="47.5977" rx="6" ry="6" style="stroke:#566573;stroke-width:1;" width="269.4805" x="364.8105" y="218.9941"/><text fill="#000000" font-family="DejaVu Sans" font-size="12" lengthAdjust="spacing" textLength="249.4805" x="374.8105" y="240.25">Grade as adjacent, inference, negative-control,</text><text fill="#000000" font-family="DejaVu Sans" font-size="12" lengthAdjust="spacing" textLength="198.0996" x="374.8105" y="254.0488">or unverified; do not promote to claim</text><polygon fill="#FCF3CF" points="342.478,272.5918,354.478,284.5918,342.478,296.5918,330.478,284.5918,342.478,272.5918" style="stroke:#B7950B;stroke-width:1;"/><rect fill="#FFFFFF" height="145.8975" rx="6" ry="6" style="stroke:#000000;stroke-width:1;" width="623.6055" x="15.1655" y="318.5918"/><path d="M140.3169,318.5918 L140.3169,327.6904 L130.3169,337.6904 L15.1655,337.6904" fill="none" style="stroke:#000000;stroke-width:1;"/><text fill="#000000" font-family="DejaVu Sans" font-size="14" lengthAdjust="spacing" textLength="115.1514" x="18.1655" y="332.7236">Claim construction</text><polygon fill="#FCF3CF" points="236.6997,354.6904,448.2563,354.6904,460.2563,366.6904,448.2563,378.6904,236.6997,378.6904,224.6997,366.6904,236.6997,354.6904" style="stroke:#B7950B;stroke-width:1;"/><text fill="#000000" font-family="DejaVu Sans" font-size="11" lengthAdjust="spacing" textLength="211.5566" x="236.6997" y="370.6838">claim names a vendor/product/partnership?</text><text fill="#000000" font-family="DejaVu Sans" font-size="11" lengthAdjust="spacing" textLength="23.2192" x="201.4805" y="364.3594">strict</text><text fill="#000000" font-family="DejaVu Sans" font-size="11" lengthAdjust="spacing" textLength="105.7783" x="460.2563" y="364.3594">architecture inference</text><rect fill="#FDFEFE" height="33.7988" rx="6" ry="6" style="stroke:#566573;stroke-width:1;" width="312.8223" x="35.1655" y="388.6904"/><text fill="#000000" font-family="DejaVu Sans" font-size="12" lengthAdjust="spacing" textLength="292.8223" x="45.1655" y="409.9463">Require direct source that states that exact relationship</text><rect fill="#FDFEFE" height="33.7988" rx="6" ry="6" style="stroke:#566573;stroke-width:1;" width="250.7832" x="367.9878" y="388.6904"/><text fill="#000000" font-family="DejaVu Sans" font-size="12" lengthAdjust="spacing" textLength="230.7832" x="377.9878" y="409.9463">Label recommendation separately from fact</text><polygon fill="#FCF3CF" points="342.478,428.4893,354.478,440.4893,342.478,452.4893,330.478,440.4893,342.478,428.4893" style="stroke:#B7950B;stroke-width:1;"/><rect fill="#FFFFFF" height="145.8975" rx="6" ry="6" style="stroke:#000000;stroke-width:1;" width="557.5938" x="76.021" y="474.4893"/><path d="M185.6479,474.4893 L185.6479,483.5879 L175.6479,493.5879 L76.021,493.5879" fill="none" style="stroke:#000000;stroke-width:1;"/><text fill="#000000" font-family="DejaVu Sans" font-size="14" lengthAdjust="spacing" textLength="99.627" x="79.021" y="488.6211">Publication gate</text><polygon fill="#FCF3CF" points="237.6074,510.5879,447.3486,510.5879,459.3486,522.5879,447.3486,534.5879,237.6074,534.5879,225.6074,522.5879,237.6074,510.5879" style="stroke:#B7950B;stroke-width:1;"/><text fill="#000000" font-family="DejaVu Sans" font-size="11" lengthAdjust="spacing" textLength="209.7412" x="237.6074" y="526.5813">evidence grade supports public statement?</text><text fill="#000000" font-family="DejaVu Sans" font-size="11" lengthAdjust="spacing" textLength="34.8584" x="190.749" y="520.2568">publish</text><text fill="#000000" font-family="DejaVu Sans" font-size="11" lengthAdjust="spacing" textLength="20.7969" x="459.3486" y="520.2568">hold</text><rect fill="#FDFEFE" height="33.7988" rx="6" ry="6" style="stroke:#566573;stroke-width:1;" width="224.1172" x="96.021" y="544.5879"/><text fill="#000000" font-family="DejaVu Sans" font-size="12" lengthAdjust="spacing" textLength="204.1172" x="106.021" y="565.8438">Include citation, date, and residual risk</text><rect fill="#FDFEFE" height="33.7988" rx="6" ry="6" style="stroke:#566573;stroke-width:1;" width="273.4766" x="340.1382" y="544.5879"/><text fill="#000000" font-family="DejaVu Sans" font-size="12" lengthAdjust="spacing" textLength="253.4766" x="350.1382" y="565.8438">Move to research backlog or appendix guardrail</text><polygon fill="#FCF3CF" points="342.478,584.3867,354.478,596.3867,342.478,608.3867,330.478,596.3867,342.478,584.3867" style="stroke:#B7950B;stroke-width:1;"/><rect fill="#FFFFFF" height="95.6963" rx="6" ry="6" style="stroke:#000000;stroke-width:1;" width="296.1484" x="194.4038" y="630.3867"/><path d="M236.314,630.3867 L236.314,639.4854 L226.314,649.4854 L194.4038,649.4854" fill="none" style="stroke:#000000;stroke-width:1;"/><text fill="#000000" font-family="DejaVu Sans" font-size="14" lengthAdjust="spacing" textLength="31.9102" x="197.4038" y="644.5186">Audit</text><rect fill="#FDFEFE" height="47.5977" rx="6" ry="6" style="stroke:#566573;stroke-width:1;" width="276.1484" x="204.4038" y="666.4854"/><text fill="#000000" font-family="DejaVu Sans" font-size="12" lengthAdjust="spacing" textLength="256.1484" x="214.4038" y="687.7412">Keep relative archive path and extraction status;</text><text fill="#000000" font-family="DejaVu Sans" font-size="12" lengthAdjust="spacing" textLength="248.7832" x="214.4038" y="701.54">no host-specific filesystem paths in public docs</text><ellipse cx="342.478" cy="757.083" fill="none" rx="11" ry="11" style="stroke:#000000;stroke-width:1;"/><ellipse cx="342.478" cy="757.083" fill="#FFFFFF" rx="6" ry="6" style="stroke:#000000;stroke-width:1;"/><line style="stroke:#34495E;stroke-width:1;" x1="252.5273" x2="185.4053" y1="196.9941" y2="196.9941"/><line style="stroke:#34495E;stroke-width:1;" x1="185.4053" x2="185.4053" y1="196.9941" y2="218.9941"/><polygon fill="#34495E" points="181.4053,208.9941,185.4053,218.9941,189.4053,208.9941,185.4053,212.9941" style="stroke:#34495E;stroke-width:1;"/><line style="stroke:#34495E;stroke-width:1;" x1="432.4287" x2="499.5508" y1="196.9941" y2="196.9941"/><line style="stroke:#34495E;stroke-width:1;" x1="499.5508" x2="499.5508" y1="196.9941" y2="218.9941"/><polygon fill="#34495E" points="495.5508,208.9941,499.5508,218.9941,503.5508,208.9941,499.5508,212.9941" style="stroke:#34495E;stroke-width:1;"/><line style="stroke:#34495E;stroke-width:1;" x1="185.4053" x2="185.4053" y1="252.793" y2="284.5918"/><line style="stroke:#34495E;stroke-width:1;" x1="185.4053" x2="330.478" y1="284.5918" y2="284.5918"/><polygon fill="#34495E" points="320.478,280.5918,330.478,284.5918,320.478,288.5918,324.478,284.5918" style="stroke:#34495E;stroke-width:1;"/><line style="stroke:#34495E;stroke-width:1;" x1="499.5508" x2="499.5508" y1="266.5918" y2="284.5918"/><line style="stroke:#34495E;stroke-width:1;" x1="499.5508" x2="354.478" y1="284.5918" y2="284.5918"/><polygon fill="#34495E" points="364.478,280.5918,354.478,284.5918,364.478,288.5918,360.478,284.5918" style="stroke:#34495E;stroke-width:1;"/><line style="stroke:#34495E;stroke-width:1;" x1="342.478" x2="342.478" y1="164.9941" y2="184.9941"/><polygon fill="#34495E" points="338.478,174.9941,342.478,184.9941,346.478,174.9941,342.478,178.9941" style="stroke:#34495E;stroke-width:1;"/><line style="stroke:#34495E;stroke-width:1;" x1="342.478" x2="342.478" y1="71.2979" y2="117.3965"/><polygon fill="#34495E" points="338.478,107.3965,342.478,117.3965,346.478,107.3965,342.478,111.3965" style="stroke:#34495E;stroke-width:1;"/><line style="stroke:#34495E;stroke-width:1;" x1="224.6997" x2="191.5767" y1="366.6904" y2="366.6904"/><line style="stroke:#34495E;stroke-width:1;" x1="191.5767" x2="191.5767" y1="366.6904" y2="388.6904"/><polygon fill="#34495E" points="187.5767,378.6904,191.5767,388.6904,195.5767,378.6904,191.5767,382.6904" style="stroke:#34495E;stroke-width:1;"/><line style="stroke:#34495E;stroke-width:1;" x1="460.2563" x2="493.3794" y1="366.6904" y2="366.6904"/><line style="stroke:#34495E;stroke-width:1;" x1="493.3794" x2="493.3794" y1="366.6904" y2="388.6904"/><polygon fill="#34495E" points="489.3794,378.6904,493.3794,388.6904,497.3794,378.6904,493.3794,382.6904" style="stroke:#34495E;stroke-width:1;"/><line style="stroke:#34495E;stroke-width:1;" x1="191.5767" x2="191.5767" y1="422.4893" y2="440.4893"/><line style="stroke:#34495E;stroke-width:1;" x1="191.5767" x2="330.478" y1="440.4893" y2="440.4893"/><polygon fill="#34495E" points="320.478,436.4893,330.478,440.4893,320.478,444.4893,324.478,440.4893" style="stroke:#34495E;stroke-width:1;"/><line style="stroke:#34495E;stroke-width:1;" x1="493.3794" x2="493.3794" y1="422.4893" y2="440.4893"/><line style="stroke:#34495E;stroke-width:1;" x1="493.3794" x2="354.478" y1="440.4893" y2="440.4893"/><polygon fill="#34495E" points="364.478,436.4893,354.478,440.4893,364.478,444.4893,360.478,440.4893" style="stroke:#34495E;stroke-width:1;"/><line style="stroke:#34495E;stroke-width:1;" x1="342.478" x2="342.478" y1="296.5918" y2="354.6904"/><polygon fill="#34495E" points="338.478,344.6904,342.478,354.6904,346.478,344.6904,342.478,348.6904" style="stroke:#34495E;stroke-width:1;"/><line style="stroke:#34495E;stroke-width:1;" x1="225.6074" x2="208.0796" y1="522.5879" y2="522.5879"/><line style="stroke:#34495E;stroke-width:1;" x1="208.0796" x2="208.0796" y1="522.5879" y2="544.5879"/><polygon fill="#34495E" points="204.0796,534.5879,208.0796,544.5879,212.0796,534.5879,208.0796,538.5879" style="stroke:#34495E;stroke-width:1;"/><line style="stroke:#34495E;stroke-width:1;" x1="459.3486" x2="476.8765" y1="522.5879" y2="522.5879"/><line style="stroke:#34495E;stroke-width:1;" x1="476.8765" x2="476.8765" y1="522.5879" y2="544.5879"/><polygon fill="#34495E" points="472.8765,534.5879,476.8765,544.5879,480.8765,534.5879,476.8765,538.5879" style="stroke:#34495E;stroke-width:1;"/><line style="stroke:#34495E;stroke-width:1;" x1="208.0796" x2="208.0796" y1="578.3867" y2="596.3867"/><line style="stroke:#34495E;stroke-width:1;" x1="208.0796" x2="330.478" y1="596.3867" y2="596.3867"/><polygon fill="#34495E" points="320.478,592.3867,330.478,596.3867,320.478,600.3867,324.478,596.3867" style="stroke:#34495E;stroke-width:1;"/><line style="stroke:#34495E;stroke-width:1;" x1="476.8765" x2="476.8765" y1="578.3867" y2="596.3867"/><line style="stroke:#34495E;stroke-width:1;" x1="476.8765" x2="354.478" y1="596.3867" y2="596.3867"/><polygon fill="#34495E" points="364.478,592.3867,354.478,596.3867,364.478,600.3867,360.478,596.3867" style="stroke:#34495E;stroke-width:1;"/><line style="stroke:#34495E;stroke-width:1;" x1="342.478" x2="342.478" y1="452.4893" y2="510.5879"/><polygon fill="#34495E" points="338.478,500.5879,342.478,510.5879,346.478,500.5879,342.478,504.5879" style="stroke:#34495E;stroke-width:1;"/><line style="stroke:#34495E;stroke-width:1;" x1="342.478" x2="342.478" y1="608.3867" y2="666.4854"/><polygon fill="#34495E" points="338.478,656.4854,342.478,666.4854,346.478,656.4854,342.478,660.4854" style="stroke:#34495E;stroke-width:1;"/><line style="stroke:#34495E;stroke-width:1;" x1="342.478" x2="342.478" y1="714.083" y2="746.083"/><polygon fill="#34495E" points="338.478,736.083,342.478,746.083,346.478,736.083,342.478,740.083" style="stroke:#34495E;stroke-width:1;"/><g class="legend" data-source-line="20"><rect fill="none" height="187.085" rx="6" ry="6" style="stroke:#000000;stroke-width:1;" width="577.1367" x="66.6343" y="772.083"/><text fill="#000000" font-family="DejaVu Sans" font-size="14" lengthAdjust="spacing" textLength="368.0537" x="71.6343" y="790.2148">Design defaults for diagrams unless an ADR narrows them:</text><text fill="#000000" font-family="DejaVu Sans" font-size="14" lengthAdjust="spacing" textLength="528.3633" x="71.6343" y="806.3135">- Actor/API: HTTPS 443 or 8443; OpenAI-compatible API plus Coherence-native API.</text><text fill="#000000" font-family="DejaVu Sans" font-size="14" lengthAdjust="spacing" textLength="510.4258" x="71.6343" y="822.4121">- RoCEv2: UDP destination 4791; jumbo MTU 9000; PFC only on RDMA priorities.</text><text fill="#000000" font-family="DejaVu Sans" font-size="14" lengthAdjust="spacing" textLength="554.7432" x="71.6343" y="838.5107">- NVMe-oF: discovery/controller service on TCP/RDMA port 4420; DPU-mediated targets.</text><text fill="#000000" font-family="DejaVu Sans" font-size="14" lengthAdjust="spacing" textLength="544.7012" x="71.6343" y="854.6094">- Telemetry: OTLP gRPC 4317, OTLP HTTP 4318, Prometheus 9090/9100, gNMI 9339.</text><text fill="#000000" font-family="DejaVu Sans" font-size="14" lengthAdjust="spacing" textLength="519.8252" x="71.6343" y="870.708">- Timing: PTP event/general UDP 319/320 on an isolated timing/management class.</text><text fill="#000000" font-family="DejaVu Sans" font-size="14" lengthAdjust="spacing" textLength="454.4121" x="71.6343" y="886.8066">- VLAN plan: site-specific IDs are allowed, but classes must stay isolated:</text><text fill="#000000" font-family="DejaVu Sans" font-size="14" lengthAdjust="spacing" textLength="559.3574" x="79.4136" y="902.9053">mgmt/OOB, frontend/API, RDMA rail-A, RDMA rail-B, storage/NVMe-oF, telemetry, timing.</text><text fill="#000000" font-family="DejaVu Sans" font-size="14" lengthAdjust="spacing" textLength="507.3564" x="71.6343" y="919.0039">- Trunks: 802.1Q tagged uplinks; rail-A and rail-B must not share a failure domain.</text><text fill="#000000" font-family="DejaVu Sans" font-size="14" lengthAdjust="spacing" textLength="464.4951" x="71.6343" y="935.1025">- Buffers: kv_hbm_active, kv_dram_warm, kv_cxl_warm, kv_rdma_staging,</text><text fill="#000000" font-family="DejaVu Sans" font-size="14" lengthAdjust="spacing" textLength="392.2119" x="79.4136" y="951.2012">zfs_slog, zfs_arc, zfs_l2arc, object_cache, vector_head_cache.</text></g><?plantuml-src TLNRSjis47tNLspJbsI6YgwE8-cX8-kIQkgBwakUCgE1o1K9YmGO09IjTlBlFG1fMsqdBn99O1Txpfwp-CLbN32LkP2gPVTIbSA8Wcmc4lqaLKexaLi-MJ6wKaciZM93lVx9Gi8xKULkgPMx5aWvvqVnjQ8xeUp9hgan-cccSstery5mE3fRd2oAsCc3T4VwkqLq8U9z6avhjY_doyLouLUqITWqNyy-VJex7-3hN8f2g-J_ORFbOBOysN0QVN4-EkjUOF7E2UEQZxtXsNJGnyV5Qv9Hlt_HxxL-d1IhjEEV5BfOZXRd_osqEUf7oqcNCqtdj-rkxnErwLQBf10bBGuoOHKp2PNGkjhcCgOP-bBGbqgOn0YPsrOhvvInRcIQkTQShKpL2_MMTZWeaI95VPOgbREroERF8YKyyvPylyUjDarZfqrdkbwDwVVx-_KT3OS3GlXd_4_efcGrNRLZNPJ2oQslTxs2IYfBCvsnyNMs5POEOULZoyEOBGxzCJtCroZ8EkcNjQBX-QWteSUgs6gwkd-WKRVRdT1wEIEjyYD-w7P-DQNII6saasnzikklLzpMop7Gs5WVs1mxCOHbT9v3TvRDGO8enDxFrfqwNXi737tadgyVsWM31yS9eQyfkv3qddDetPdZc6xkBzUKtgvdD1pqpgFwtVFWtpz7j3OQEpC6tb5trEsCUjrkHEdrrOf6Wy4eP9C5_36cDOBumCfrq1Ws8WyC37gZpg3VzIMY0TBglAuc17KAeKIAMfIZE1SsLFVrSdhjVQZ6PANZjYqvbZjeO3L74mraaUVwYPE8jbKJnfQAoZgoJXnVpnX3U4LQkCxDpKL4EmFQ81ZVwQXcsWkfFJrzmJuBDQ2aJaDyHEw5hAWfEc0sbThRCNtkzZ_s_WItQGfGLPbBV9uqcOD-wxnrUN2A7oWU0iQ9p2iy9Rh0nF4vBwhTZWsIxW-RR5jimX3WoBz2yyNcIPWYlCNF-TkBWMKsm9sYiWY8_zhPZSrr6eKdOUBw8U-7HxrzvDXjOX5do7nWh_rDnYAfFtriWQ7QMAsMzPEW1O_3frw_x-vqPI0sgPpOyxjW-V5AfP0uCga4djaQoJlF8P33gH5TIbKz0oEEBaN99lgc39UQh1AbpRH33-6Wh11c7tdJ-TFyG1LAOOx4GHaJd2DtzDusnrjl4KGS0x-0bO6cvBSFtj4Ass0EbNv04ChxOaG2ZgK1KeYpcIjFqcNqS7iP4J37Urk1oWIIGUMnBjaVo1ZszFw9nVvVcGGKc3oA66L5869N3u285ATX1hGRSm8dq5GAXeLqEPc0Wz3-4dxoyz9fhrnPXBDK8dUOXoTKr-CEoO2cYlstcc_FGuZ362kWUj4mtq7U11ix3O4sa-Kf8p9s3OvR_bv9yyf9GwhBH72FOri_ypFaHuRpCBjykZTM0kKEqLw_hoGq-I_5bdC4OcAYUKaz-Ypxgm9EEdeV5X1_x7w2l9xtTHWuvJVSh-rBGojiLVfH1pNKDqIetklb5NTOi5bJs4h5UOMuMBgG_QNbmQIuFf8A4yj8kty3ckayQQAlC7jzqx2JFNxQuhA3pRneHLbw8C-KlbnFFy4shHBf6kFymLms_29pesBe7yhq5V6pCoAkoKEzbPryWoKeqzQz3SITnCLsj80T0YsQyS86B6Sd_ffsklm7?></g></svg>