<?plantuml 1.2026.1?><svg xmlns="http://www.w3.org/2000/svg" xmlns:xlink="http://www.w3.org/1999/xlink" contentStyleType="text/css" data-diagram-type="ACTIVITY" height="991px" preserveAspectRatio="none" style="width:734px;height:991px;background:#FFFFFF;" version="1.1" viewBox="0 0 734 991" width="734px" zoomAndPan="magnify"><title>ADR-013 - Failure Semantics and Fencing</title><defs/><g><g class="title" data-source-line="18"><text fill="#000000" font-family="DejaVu Sans" font-size="22" font-weight="bold" lengthAdjust="spacing" textLength="435.2197" x="148.3813" y="35.6357">ADR-013 - Failure Semantics and Fencing</text></g><ellipse cx="373.4912" cy="61.2979" fill="#145A32" rx="10" ry="10" style="stroke:#000000;stroke-width:1;"/><rect fill="#FFFFFF" height="213.4951" rx="6" ry="6" style="stroke:#000000;stroke-width:1;" width="709.9502" x="6" y="81.2979"/><path d="M68.9102,81.2979 L68.9102,90.3965 L58.9102,100.3965 L6,100.3965" fill="none" style="stroke:#000000;stroke-width:1;"/><text fill="#000000" font-family="DejaVu Sans" font-size="14" lengthAdjust="spacing" textLength="52.9102" x="9" y="95.4297">Detector</text><rect fill="#FDFEFE" height="47.5977" rx="6" ry="6" style="stroke:#566573;stroke-width:1;" width="275.457" x="235.7627" y="117.3965"/><text fill="#000000" font-family="DejaVu Sans" font-size="12" lengthAdjust="spacing" textLength="252.7734" x="245.7627" y="138.6523">Observe heartbeat, PTP skew, switch counters,</text><text fill="#000000" font-family="DejaVu Sans" font-size="12" lengthAdjust="spacing" textLength="255.457" x="245.7627" y="152.4512">DPU health, CXL poison, zpool state, API errors</text><polygon fill="#FCF3CF" points="305.0125,184.9941,441.97,184.9941,453.97,196.9941,441.97,208.9941,305.0125,208.9941,293.0125,196.9941,305.0125,184.9941" style="stroke:#B7950B;stroke-width:1;"/><text fill="#000000" font-family="DejaVu Sans" font-size="11" lengthAdjust="spacing" textLength="136.9575" x="305.0125" y="200.9875">signal is stale or conflicting?</text><text fill="#000000" font-family="DejaVu Sans" font-size="11" lengthAdjust="spacing" textLength="45.2515" x="247.761" y="194.6631">uncertain</text><text fill="#000000" font-family="DejaVu Sans" font-size="11" lengthAdjust="spacing" textLength="48.2969" x="453.97" y="194.6631">confirmed</text><rect fill="#FDFEFE" height="33.7988" rx="6" ry="6" style="stroke:#566573;stroke-width:1;" width="351.5" x="25.0049" y="218.9941"/><text fill="#000000" font-family="DejaVu Sans" font-size="12" lengthAdjust="spacing" textLength="331.5" x="35.0049" y="240.25">Enter AMBER; reduce admission and collect quorum evidence</text><rect fill="#FDFEFE" height="33.7988" rx="6" ry="6" style="stroke:#566573;stroke-width:1;" width="299.4453" x="396.5049" y="218.9941"/><text fill="#000000" font-family="DejaVu Sans" font-size="12" lengthAdjust="spacing" textLength="279.4453" x="406.5049" y="240.25">Classify node, rail, DPU, CXL, storage, or API failure</text><polygon fill="#FCF3CF" points="373.4912,258.793,385.4912,270.793,373.4912,282.793,361.4912,270.793,373.4912,258.793" style="stroke:#B7950B;stroke-width:1;"/><rect fill="#FFFFFF" height="159.6963" rx="6" ry="6" style="stroke:#000000;stroke-width:1;" width="594.9355" x="61.3501" y="304.793"/><path d="M165.5151,304.793 L165.5151,313.8916 L155.5151,323.8916 L61.3501,323.8916" fill="none" style="stroke:#000000;stroke-width:1;"/><text fill="#000000" font-family="DejaVu Sans" font-size="14" lengthAdjust="spacing" textLength="94.165" x="64.3501" y="318.9248">Fence decision</text><polygon fill="#FCF3CF" points="268.6475,340.8916,478.335,340.8916,490.335,352.8916,478.335,364.8916,268.6475,364.8916,256.6475,352.8916,268.6475,340.8916" style="stroke:#B7950B;stroke-width:1;"/><text fill="#000000" font-family="DejaVu Sans" font-size="11" lengthAdjust="spacing" textLength="209.6875" x="268.6475" y="356.885">writer epoch or RDMA MR may be unsafe?</text><text fill="#000000" font-family="DejaVu Sans" font-size="11" lengthAdjust="spacing" textLength="26.9092" x="229.7383" y="350.5605">fence</text><text fill="#000000" font-family="DejaVu Sans" font-size="11" lengthAdjust="spacing" textLength="24.46" x="490.335" y="350.5605">drain</text><rect fill="#FDFEFE" height="47.5977" rx="6" ry="6" style="stroke:#566573;stroke-width:1;" width="296.8145" x="81.3501" y="374.8916"/><text fill="#000000" font-family="DejaVu Sans" font-size="12" lengthAdjust="spacing" textLength="204.7441" x="91.3501" y="396.1475">Revoke leases, QPs, memory regions,</text><text fill="#000000" font-family="DejaVu Sans" font-size="12" lengthAdjust="spacing" textLength="276.8145" x="91.3501" y="409.9463">NVMe namespace access, and CXL pool ownership</text><rect fill="#FDFEFE" height="33.7988" rx="6" ry="6" style="stroke:#566573;stroke-width:1;" width="238.1211" x="398.1646" y="374.8916"/><text fill="#000000" font-family="DejaVu Sans" font-size="12" lengthAdjust="spacing" textLength="218.1211" x="408.1646" y="396.1475">Drain sessions and avoid new placement</text><polygon fill="#FCF3CF" points="373.4912,428.4893,385.4912,440.4893,373.4912,452.4893,361.4912,440.4893,373.4912,428.4893" style="stroke:#B7950B;stroke-width:1;"/><rect fill="#FFFFFF" height="165.1213" rx="6" ry="6" style="stroke:#000000;stroke-width:1;" width="710.9824" x="18" y="474.4893"/><path d="M118.2686,474.4893 L118.2686,483.5879 L108.2686,493.5879 L18,493.5879" fill="none" style="stroke:#000000;stroke-width:1;"/><text fill="#000000" font-family="DejaVu Sans" font-size="14" lengthAdjust="spacing" textLength="90.2686" x="21" y="488.6211">Recovery path</text><polygon fill="#FCF3CF" points="69.248,513.5879,198.8633,513.5879,210.8633,525.5879,198.8633,537.5879,69.248,537.5879,57.248,525.5879,69.248,513.5879" style="stroke:#B7950B;stroke-width:1;"/><text fill="#000000" font-family="DejaVu Sans" font-size="11" lengthAdjust="spacing" textLength="51.9707" x="138.0557" y="547.9058">recompute</text><text fill="#000000" font-family="DejaVu Sans" font-size="11" lengthAdjust="spacing" textLength="129.6152" x="69.248" y="529.5813">KV class is recomputable?</text><rect fill="#FDFEFE" height="33.7988" rx="6" ry="6" style="stroke:#566573;stroke-width:1;" width="212.1113" x="28" y="570.2368"/><text fill="#000000" font-family="DejaVu Sans" font-size="12" lengthAdjust="spacing" textLength="192.1113" x="38" y="591.4927">Drop volatile buffers and reschedule</text><polygon fill="#FCF3CF" points="315.0007,513.5879,444.6321,513.5879,456.6321,525.5879,444.6321,537.5879,315.0007,537.5879,303.0007,525.5879,315.0007,513.5879" style="stroke:#B7950B;stroke-width:1;"/><text fill="#000000" font-family="DejaVu Sans" font-size="11" lengthAdjust="spacing" textLength="34.2354" x="383.8164" y="547.9058">restore</text><text fill="#000000" font-family="DejaVu Sans" font-size="11" lengthAdjust="spacing" textLength="129.6313" x="315.0007" y="529.5813">durable checkpoint exists?</text><text fill="#000000" font-family="DejaVu Sans" font-size="11" lengthAdjust="spacing" textLength="14.0615" x="456.6321" y="523.2568">fail</text><rect fill="#FDFEFE" height="33.7988" rx="6" ry="6" style="stroke:#566573;stroke-width:1;" width="239.4102" x="260.1113" y="570.2368"/><text fill="#000000" font-family="DejaVu Sans" font-size="12" lengthAdjust="spacing" textLength="219.4102" x="270.1113" y="591.4927">Rehydrate via DPU/OpenZFS mirror path</text><rect fill="#FDFEFE" height="47.5977" rx="6" ry="6" style="stroke:#566573;stroke-width:1;" width="199.4609" x="519.5215" y="560.0129"/><text fill="#000000" font-family="DejaVu Sans" font-size="12" lengthAdjust="spacing" textLength="179.4609" x="529.5215" y="581.2688">Return bounded failure to adapter</text><text fill="#000000" font-family="DejaVu Sans" font-size="12" lengthAdjust="spacing" textLength="165.4043" x="529.5215" y="595.0676">with correlation and retry policy</text><rect fill="#FFFFFF" height="95.6963" rx="6" ry="6" style="stroke:#000000;stroke-width:1;" width="298.1406" x="224.4209" y="649.6106"/><path d="M351.917,649.6106 L351.917,658.7092 L341.917,668.7092 L224.4209,668.7092" fill="none" style="stroke:#000000;stroke-width:1;"/><text fill="#000000" font-family="DejaVu Sans" font-size="14" lengthAdjust="spacing" textLength="117.4961" x="227.4209" y="663.7424">Post-recovery gate</text><rect fill="#FDFEFE" height="47.5977" rx="6" ry="6" style="stroke:#566573;stroke-width:1;" width="278.1406" x="234.4209" y="685.7092"/><text fill="#000000" font-family="DejaVu Sans" font-size="12" lengthAdjust="spacing" textLength="258.1406" x="244.4209" y="706.9651">Require clean telemetry window, latency budget,</text><text fill="#000000" font-family="DejaVu Sans" font-size="12" lengthAdjust="spacing" textLength="212.7773" x="244.4209" y="720.7639">and failure drill evidence before GREEN</text><ellipse cx="373.4912" cy="776.3069" fill="none" rx="11" ry="11" style="stroke:#000000;stroke-width:1;"/><ellipse cx="373.4912" cy="776.3069" fill="#FFFFFF" rx="6" ry="6" style="stroke:#000000;stroke-width:1;"/><line style="stroke:#34495E;stroke-width:1;" x1="293.0125" x2="200.7549" y1="196.9941" y2="196.9941"/><line style="stroke:#34495E;stroke-width:1;" x1="200.7549" x2="200.7549" y1="196.9941" y2="218.9941"/><polygon fill="#34495E" points="196.7549,208.9941,200.7549,218.9941,204.7549,208.9941,200.7549,212.9941" style="stroke:#34495E;stroke-width:1;"/><line style="stroke:#34495E;stroke-width:1;" x1="453.97" x2="546.2275" y1="196.9941" y2="196.9941"/><line style="stroke:#34495E;stroke-width:1;" x1="546.2275" x2="546.2275" y1="196.9941" y2="218.9941"/><polygon fill="#34495E" points="542.2275,208.9941,546.2275,218.9941,550.2275,208.9941,546.2275,212.9941" style="stroke:#34495E;stroke-width:1;"/><line style="stroke:#34495E;stroke-width:1;" x1="200.7549" x2="200.7549" y1="252.793" y2="270.793"/><line style="stroke:#34495E;stroke-width:1;" x1="200.7549" x2="361.4912" y1="270.793" y2="270.793"/><polygon fill="#34495E" points="351.4912,266.793,361.4912,270.793,351.4912,274.793,355.4912,270.793" style="stroke:#34495E;stroke-width:1;"/><line style="stroke:#34495E;stroke-width:1;" x1="546.2275" x2="546.2275" y1="252.793" y2="270.793"/><line style="stroke:#34495E;stroke-width:1;" x1="546.2275" x2="385.4912" y1="270.793" y2="270.793"/><polygon fill="#34495E" points="395.4912,266.793,385.4912,270.793,395.4912,274.793,391.4912,270.793" style="stroke:#34495E;stroke-width:1;"/><line style="stroke:#34495E;stroke-width:1;" x1="373.4912" x2="373.4912" y1="164.9941" y2="184.9941"/><polygon fill="#34495E" points="369.4912,174.9941,373.4912,184.9941,377.4912,174.9941,373.4912,178.9941" style="stroke:#34495E;stroke-width:1;"/><line style="stroke:#34495E;stroke-width:1;" x1="373.4912" x2="373.4912" y1="71.2979" y2="117.3965"/><polygon fill="#34495E" points="369.4912,107.3965,373.4912,117.3965,377.4912,107.3965,373.4912,111.3965" style="stroke:#34495E;stroke-width:1;"/><line style="stroke:#34495E;stroke-width:1;" x1="256.6475" x2="229.7573" y1="352.8916" y2="352.8916"/><line style="stroke:#34495E;stroke-width:1;" x1="229.7573" x2="229.7573" y1="352.8916" y2="374.8916"/><polygon fill="#34495E" points="225.7573,364.8916,229.7573,374.8916,233.7573,364.8916,229.7573,368.8916" style="stroke:#34495E;stroke-width:1;"/><line style="stroke:#34495E;stroke-width:1;" x1="490.335" x2="517.2251" y1="352.8916" y2="352.8916"/><line style="stroke:#34495E;stroke-width:1;" x1="517.2251" x2="517.2251" y1="352.8916" y2="374.8916"/><polygon fill="#34495E" points="513.2251,364.8916,517.2251,374.8916,521.2251,364.8916,517.2251,368.8916" style="stroke:#34495E;stroke-width:1;"/><line style="stroke:#34495E;stroke-width:1;" x1="229.7573" x2="229.7573" y1="422.4893" y2="440.4893"/><line style="stroke:#34495E;stroke-width:1;" x1="229.7573" x2="361.4912" y1="440.4893" y2="440.4893"/><polygon fill="#34495E" points="351.4912,436.4893,361.4912,440.4893,351.4912,444.4893,355.4912,440.4893" style="stroke:#34495E;stroke-width:1;"/><line style="stroke:#34495E;stroke-width:1;" x1="517.2251" x2="517.2251" y1="408.6904" y2="440.4893"/><line style="stroke:#34495E;stroke-width:1;" x1="517.2251" x2="385.4912" y1="440.4893" y2="440.4893"/><polygon fill="#34495E" points="395.4912,436.4893,385.4912,440.4893,395.4912,444.4893,391.4912,440.4893" style="stroke:#34495E;stroke-width:1;"/><line style="stroke:#34495E;stroke-width:1;" x1="373.4912" x2="373.4912" y1="282.793" y2="340.8916"/><polygon fill="#34495E" points="369.4912,330.8916,373.4912,340.8916,377.4912,330.8916,373.4912,334.8916" style="stroke:#34495E;stroke-width:1;"/><line style="stroke:#34495E;stroke-width:1;" x1="134.0557" x2="134.0557" y1="537.5879" y2="570.2368"/><polygon fill="#34495E" points="130.0557,560.2368,134.0557,570.2368,138.0557,560.2368,134.0557,564.2368" style="stroke:#34495E;stroke-width:1;"/><line style="stroke:#34495E;stroke-width:1;" x1="134.0557" x2="134.0557" y1="604.0356" y2="627.6106"/><polygon fill="#34495E" points="130.0557,617.6106,134.0557,627.6106,138.0557,617.6106,134.0557,621.6106" style="stroke:#34495E;stroke-width:1;"/><line style="stroke:#34495E;stroke-width:1;" x1="379.8164" x2="379.8164" y1="537.5879" y2="570.2368"/><polygon fill="#34495E" points="375.8164,560.2368,379.8164,570.2368,383.8164,560.2368,379.8164,564.2368" style="stroke:#34495E;stroke-width:1;"/><line style="stroke:#34495E;stroke-width:1;" x1="379.8164" x2="379.8164" y1="604.0356" y2="627.6106"/><polygon fill="#34495E" points="375.8164,617.6106,379.8164,627.6106,383.8164,617.6106,379.8164,621.6106" style="stroke:#34495E;stroke-width:1;"/><line style="stroke:#34495E;stroke-width:1;" x1="210.8633" x2="303.0007" y1="525.5879" y2="525.5879"/><polygon fill="#34495E" points="293.0007,521.5879,303.0007,525.5879,293.0007,529.5879,297.0007,525.5879" style="stroke:#34495E;stroke-width:1;"/><line style="stroke:#34495E;stroke-width:1;" x1="373.4912" x2="373.4912" y1="452.4893" y2="498.5879"/><line style="stroke:#34495E;stroke-width:1;" x1="373.4912" x2="134.0557" y1="498.5879" y2="498.5879"/><line style="stroke:#34495E;stroke-width:1;" x1="134.0557" x2="134.0557" y1="498.5879" y2="513.5879"/><polygon fill="#34495E" points="130.0557,503.5879,134.0557,513.5879,138.0557,503.5879,134.0557,507.5879" style="stroke:#34495E;stroke-width:1;"/><line style="stroke:#34495E;stroke-width:1;" x1="456.6321" x2="619.252" y1="525.5879" y2="525.5879"/><line style="stroke:#34495E;stroke-width:1;" x1="619.252" x2="619.252" y1="525.5879" y2="560.0129"/><polygon fill="#34495E" points="615.252,550.0129,619.252,560.0129,623.252,550.0129,619.252,554.0129" style="stroke:#34495E;stroke-width:1;"/><line style="stroke:#34495E;stroke-width:1;" x1="619.252" x2="619.252" y1="607.6106" y2="627.6106"/><polygon fill="#34495E" points="615.252,617.6106,619.252,627.6106,623.252,617.6106,619.252,621.6106" style="stroke:#34495E;stroke-width:1;"/><line style="stroke:#34495E;stroke-width:1;" x1="134.0557" x2="619.252" y1="627.6106" y2="627.6106"/><line style="stroke:#34495E;stroke-width:1;" x1="373.4912" x2="373.4912" y1="627.6106" y2="685.7092"/><polygon fill="#34495E" points="369.4912,675.7092,373.4912,685.7092,377.4912,675.7092,373.4912,679.7092" style="stroke:#34495E;stroke-width:1;"/><line style="stroke:#34495E;stroke-width:1;" x1="373.4912" x2="373.4912" y1="733.3069" y2="765.3069"/><polygon fill="#34495E" points="369.4912,755.3069,373.4912,765.3069,377.4912,755.3069,373.4912,759.3069" style="stroke:#34495E;stroke-width:1;"/><g class="legend" data-source-line="20"><rect fill="none" height="187.085" rx="6" ry="6" style="stroke:#000000;stroke-width:1;" width="577.1367" x="144.8457" y="791.3069"/><text fill="#000000" font-family="DejaVu Sans" font-size="14" lengthAdjust="spacing" textLength="368.0537" x="149.8457" y="809.4387">Design defaults for diagrams unless an ADR narrows them:</text><text fill="#000000" font-family="DejaVu Sans" font-size="14" lengthAdjust="spacing" textLength="528.3633" x="149.8457" y="825.5374">- Actor/API: HTTPS 443 or 8443; OpenAI-compatible API plus Coherence-native API.</text><text fill="#000000" font-family="DejaVu Sans" font-size="14" lengthAdjust="spacing" textLength="510.4258" x="149.8457" y="841.636">- RoCEv2: UDP destination 4791; jumbo MTU 9000; PFC only on RDMA priorities.</text><text fill="#000000" font-family="DejaVu Sans" font-size="14" lengthAdjust="spacing" textLength="554.7432" x="149.8457" y="857.7346">- NVMe-oF: discovery/controller service on TCP/RDMA port 4420; DPU-mediated targets.</text><text fill="#000000" font-family="DejaVu Sans" font-size="14" lengthAdjust="spacing" textLength="544.7012" x="149.8457" y="873.8333">- Telemetry: OTLP gRPC 4317, OTLP HTTP 4318, Prometheus 9090/9100, gNMI 9339.</text><text fill="#000000" font-family="DejaVu Sans" font-size="14" lengthAdjust="spacing" textLength="519.8252" x="149.8457" y="889.9319">- Timing: PTP event/general UDP 319/320 on an isolated timing/management class.</text><text fill="#000000" font-family="DejaVu Sans" font-size="14" lengthAdjust="spacing" textLength="454.4121" x="149.8457" y="906.0305">- VLAN plan: site-specific IDs are allowed, but classes must stay isolated:</text><text fill="#000000" font-family="DejaVu Sans" font-size="14" lengthAdjust="spacing" textLength="559.3574" x="157.625" y="922.1292">mgmt/OOB, frontend/API, RDMA rail-A, RDMA rail-B, storage/NVMe-oF, telemetry, timing.</text><text fill="#000000" font-family="DejaVu Sans" font-size="14" lengthAdjust="spacing" textLength="507.3564" x="149.8457" y="938.2278">- Trunks: 802.1Q tagged uplinks; rail-A and rail-B must not share a failure domain.</text><text fill="#000000" font-family="DejaVu Sans" font-size="14" lengthAdjust="spacing" textLength="464.4951" x="149.8457" y="954.3264">- Buffers: kv_hbm_active, kv_dram_warm, kv_cxl_warm, kv_rdma_staging,</text><text fill="#000000" font-family="DejaVu Sans" font-size="14" lengthAdjust="spacing" textLength="392.2119" x="157.625" y="970.425">zfs_slog, zfs_arc, zfs_l2arc, object_cache, vector_head_cache.</text></g><?plantuml-src TLRRRXit47tNLqpJbmHOHLV7aVnGoBeqHcDRaHsZA08OrEvenPXBAYHNYbhattjcLvQ55dcnbxVXcJFd3FLBN7F1j35AsqPuqdQZl2eeh5NcTjhcj58cyCcATwNDKkSjU-fqJnOoNgdIn9cpyKOXv8I_geUIxfGD9xj6thlTs1ddwTTUlpyucvuigZJghOvx-gT1TAdIfxowxR1zDfbDPrDPSJvZVvWzU_VkxBo7sObMXRFP_u-DPxtnx6J3wUdByy5P-nABTr7vU9ZizCz6lIucfySWWsxtijjf_3W1Qrtadm2TpWRJy_y2FLpren5rD4oZoQBPxlIeIJEbJUcPxhXGDkeqaB8PpTYcuB_HC9mpnbxdwzYOSD2vVUOwq0gHCwro00fKMiD1Jajmiage3YG57ZQQD4gZywtH_6f87-xlvtVKx_S8nz_Z_mNTRjYEhfgfApOgwgK0d5z15cMWiLkp1nfkMYnjgvMt2BXmu-csEwJFapa0XQXbsLdgdmyw5_IrB9QEhky_qw3TRb_GV3OcPyqUVsWnkHxHncldTTGS9DZDmpKttMo8R4BgjkpthHHAyiuO22smt-gKvUpzUDwgppiVaKCNiIVppys2mKFaZ538d6CLz9uDn1tzVaYtzn_db2_cO-htEkT9FHOUPFm-eRbtsBbcv3je3zgjGQVTJYY_kRwYGQytgABf0WKPqXo7UCisjb0OzifK3FGwWrQlsnQ8A80EpjHegaCjL5Rbm68ZfKQ52jt3nz6D6CyEAUZ8pR3XLAzqIbSJ5162KCQu7MS9BSl3CGvKb25IY6f_l6C8fHLv4LktjvS9hJneWs2aqadDj8V0cgFJ0VO5g06GMWVY4uhFP2K7q5NElhHFOKZlszstdK_WDi-HLBan6jCNXyYLNkkuDJnOGpg8f83-KQixSmLQZCIyB5ShzWZwj7rSBul7olMSo323ZXztoXVLAFrkNWO-AzGZyiw1B476Vw_2Op0kJwelvTFwmtIhJxVyocbyJ5MwHkGjY_OVrwooUkfj0mpLnceqWbY_0LF3cABVLnEErO5NbRs7jqkH7nEE-xXa5PDA0k69Tw1nfsEwfXJsZqWg-M8XHjbguZgXyPyVeLCKoWBTnZaZbOj09EPY-DE72roXL_HQV0qfwI1RO3yu4mPO6GrsRFxR6_6nfTSbVEWZc7o3Sm0tbMjfT7qvNQ0Sd9LmYSeA7OAkb9WX2YoKHlfMEbyMKAxEnCnoBwErqskvHdluvn1oB4hJgptAc06g53OHYrNf78MJ2499ur3WAfxDz0eTxeHBQMCeFfGjW6f69TqTh0_Wl75W3v4gRLulg82mbunM5jIAZrcl9Ce1teAtxed9i88T4leqnv-22-Vto3_79L84KJKwOC5XeuIHD4LdJ2e-wfgW56u7zuQrthnG0VqTcPt8DpfFnMJTazNMwOmixyIsQMNddwIzuBg94Rhf-YNhFnvg7qkPFKkpBQD2ipqc-Zp9Hn1kGrlnkOOcbhLpQhznW92pqXmhAHTafPTuXANq2Sf3l-7lEiHmSeCKy8NCzHv9uoNRQYL5Rib3yDViZWejygpml_0ZjJwUZAMtj9Ht3otXsURHGNvgWzf-iR26ECDxDlNBKEEEGek3iFS_8M_kGcpwPmPpe3iuSS7VIerBKXJVlZGimWyL_5f9IDgXJI6WCiCJ01d8XSS6vBKnH_b3P7WxcNvVJASt5_AmHxVv5m00?></g></svg>