<?plantuml 1.2026.1?><svg xmlns="http://www.w3.org/2000/svg" xmlns:xlink="http://www.w3.org/1999/xlink" contentStyleType="text/css" data-diagram-type="DESCRIPTION" height="161px" preserveAspectRatio="none" style="width:1942px;height:161px;background:#FFFFFF;" version="1.1" viewBox="0 0 1942 161" width="1942px" zoomAndPan="magnify"><title>16. Roadmap Evidence Guardrails</title><defs/><g><g class="title" data-source-line="2"><text fill="#000000" font-family="DejaVu Sans" font-size="22" font-weight="bold" lengthAdjust="spacing" textLength="355.8027" x="788.8254" y="35.6357">16. Roadmap Evidence Guardrails</text></g><!--entity N1--><g class="entity" data-qualified-name="N1" data-source-line="8" id="ent0002"><rect fill="#D6EAF8" height="36.0986" rx="6" ry="6" style="stroke:#000000;stroke-width:1;" width="124.2891" x="12" y="58.2979"/><text fill="#000000" font-family="DejaVu Sans" font-size="14" lengthAdjust="spacing" textLength="104.2891" x="22" y="81.4297">Source evidence</text></g><!--entity N2--><g class="entity" data-qualified-name="N2" data-source-line="9" id="ent0003"><rect fill="#D5F5E3" height="36.0986" rx="6" ry="6" style="stroke:#000000;stroke-width:1;" width="135.9375" x="309.29" y="58.2979"/><text fill="#000000" font-family="DejaVu Sans" font-size="14" lengthAdjust="spacing" textLength="115.9375" x="319.29" y="81.4297">Evidence classifier</text></g><!--entity N3--><g class="entity" data-qualified-name="N3" data-source-line="10" id="ent0004"><rect fill="#FCF3CF" height="36.0986" rx="6" ry="6" style="stroke:#000000;stroke-width:1;" width="97.7793" x="644.23" y="58.2979"/><text fill="#000000" font-family="DejaVu Sans" font-size="14" lengthAdjust="spacing" textLength="77.7793" x="654.23" y="81.4297">Claim matrix</text></g><!--entity N4--><g class="entity" data-qualified-name="N4" data-source-line="11" id="ent0005"><rect fill="#E8DAEF" height="36.0986" rx="6" ry="6" style="stroke:#000000;stroke-width:1;" width="88.4756" x="897.01" y="58.2979"/><text fill="#000000" font-family="DejaVu Sans" font-size="14" lengthAdjust="spacing" textLength="68.4756" x="907.01" y="81.4297">Report text</text></g><!--entity N5--><g class="entity" data-qualified-name="N5" data-source-line="12" id="ent0006"><rect fill="#FADBD8" height="36.0986" rx="6" ry="6" style="stroke:#000000;stroke-width:1;" width="97.041" x="1490.95" y="58.2979"/><text fill="#000000" font-family="DejaVu Sans" font-size="14" lengthAdjust="spacing" textLength="77.041" x="1500.95" y="81.4297">Review gate</text></g><g class="entity" data-qualified-name="GMN11" data-source-line="20" id="ent0012"><path d="M1143.48,135.8679 L1143.48,148.8166 A6,6 0 0 0 1149.48,154.8166 L1929.4536,154.8166 A6,6 0 0 0 1935.4536,148.8166 L1935.4536,139.8679 L1925.4536,129.8679 L1543.47,129.8679 L1539.47,94.5979 L1535.47,129.8679 L1149.48,129.8679 A6,6 0 0 0 1143.48,135.8679" fill="#FFFFFF" style="stroke:#000000;stroke-width:1;"/><path d="M1925.4536,129.8679 L1925.4536,136.8679 A3,3 0 0 0 1928.4536,139.8679 L1935.4536,139.8679 L1925.4536,129.8679" fill="#FFFFFF" style="stroke:#000000;stroke-width:1;"/><text fill="#000000" font-family="DejaVu Sans" font-size="13" lengthAdjust="spacing" textLength="770.9736" x="1149.48" y="147.0617">Actor-facing contract: lower-layer resource identifiers remain hidden unless the ADR explicitly defines them as operator-only evidence.</text></g><!--link N1 to N2--><g class="link" data-entity-1="ent0002" data-entity-2="ent0003" data-link-type="dependency" data-source-line="14" id="lnk7"><path d="M136.44,76.3479 C186.57,76.3479 251.35,76.3479 303.02,76.3479" fill="none" id="N1-to-N2" style="stroke:#000000;stroke-width:1;"/><polygon fill="#000000" points="309.02,76.3479,300.02,72.3479,304.02,76.3479,300.02,80.3479,309.02,76.3479" style="stroke:#000000;stroke-width:1;"/><text fill="#000000" font-family="DejaVu Sans" font-size="13" lengthAdjust="spacing" textLength="111.2935" x="167.29" y="73.5417">vendor/source data</text></g><!--link N2 to N3--><g class="link" data-entity-1="ent0003" data-entity-2="ent0004" data-link-type="dependency" data-source-line="15" id="lnk8"><path d="M445.59,76.3479 C505.21,76.3479 584.78,76.3479 637.82,76.3479" fill="none" id="N2-to-N3" style="stroke:#000000;stroke-width:1;"/><polygon fill="#000000" points="643.82,76.3479,634.82,72.3479,638.82,76.3479,634.82,80.3479,643.82,76.3479" style="stroke:#000000;stroke-width:1;"/><text fill="#000000" font-family="DejaVu Sans" font-size="13" lengthAdjust="spacing" textLength="137.3125" x="476.23" y="73.5417">direct/adjacent/negative</text></g><!--link N3 to N4--><g class="link" data-entity-1="ent0004" data-entity-2="ent0005" data-link-type="dependency" data-source-line="16" id="lnk9"><path d="M742.45,76.3479 C787.25,76.3479 847.31,76.3479 890.56,76.3479" fill="none" id="N3-to-N4" style="stroke:#000000;stroke-width:1;"/><polygon fill="#000000" points="896.56,76.3479,887.56,72.3479,891.56,76.3479,887.56,80.3479,896.56,76.3479" style="stroke:#000000;stroke-width:1;"/><text fill="#000000" font-family="DejaVu Sans" font-size="13" lengthAdjust="spacing" textLength="93.2217" x="773.01" y="73.5417">allowed wording</text></g><!--link N4 to N5--><g class="link" data-entity-1="ent0005" data-entity-2="ent0006" data-link-type="dependency" data-source-line="17" id="lnk10"><path d="M985.6,76.3479 C1094.27,76.3479 1371.59,76.3479 1484.76,76.3479" fill="none" id="N4-to-N5" style="stroke:#000000;stroke-width:1;"/><polygon fill="#000000" points="1490.76,76.3479,1481.76,72.3479,1485.76,76.3479,1481.76,80.3479,1490.76,76.3479" style="stroke:#000000;stroke-width:1;"/><text fill="#000000" font-family="DejaVu Sans" font-size="13" lengthAdjust="spacing" textLength="96.1035" x="1016.48" y="73.5417">publication claim</text></g><?plantuml-src NP91Rzim38Nl-XLSSqw3D4qHz330Y-tTUaY1tLc9JjJ9aa7HIVhlHzdP4Ency3rGdz_ZDpbHJp04zD68bq2mVdc4GqBNum3DsJkAbk3dYEmOVSWc__PnGCOUyWbTklXuX0v3fZk5qnYTJHo9OVrq9pZgS0pIfYXlg0_Nz8c_HdZ7c4sWJa0Ii3-U19ndik9JDAPyO3mgsyDx6bbnwCRr09ZXRGsB-gMfsjszyn-w3PYpxppnx7vIzxRTDfjxzru3wA57ON-TRHjOjFjsis_lRGSQ4YiaNMLsFSEYsTLLyv_hxEa2HvGRu5PtLVMFUcUCmYwNtml5AvmfkiIhFF-JGq6ZyqdUg3mdi4BtYPQYh2BfHdyce-faUbOJXf0kvE2Is6aJHeUJjbLj63-2jrX2B2dutfYOXE0ZYQJUL5OIBpkqfK6hZJ1QUOMoZvS1lxGxfXjSoLAc4BCEUxqME7cdGnXZe9n1xmYg-W1q7VHDFQIlqhMFD4bzYI4Dn5YUJ57LlnK-6aq12jSV?></g></svg>