<?plantuml 1.2026.1?><svg xmlns="http://www.w3.org/2000/svg" xmlns:xlink="http://www.w3.org/1999/xlink" contentStyleType="text/css" data-diagram-type="DESCRIPTION" height="239px" preserveAspectRatio="none" style="width:1283px;height:239px;background:#FFFFFF;" version="1.1" viewBox="0 0 1283 239" width="1283px" zoomAndPan="magnify"><title>Project Coherent Storage - arXiv/RAG Metadata Workflow</title><defs/><g><g class="title" data-source-line="2"><text fill="#000000" font-family="DejaVu Sans" font-size="22" font-weight="bold" lengthAdjust="spacing" textLength="600.2197" x="337.1236" y="35.6357">Project Coherent Storage - arXiv/RAG Metadata Workflow</text></g><!--entity Topics--><g class="entity" data-qualified-name="Topics" data-source-line="8" id="ent0002"><rect fill="#D6EAF8" height="36.0986" rx="5" ry="5" style="stroke:#000000;stroke-width:1;" width="120.3789" x="12" y="115.3479"/><text fill="#000000" font-family="DejaVu Sans" font-size="14" lengthAdjust="spacing" textLength="100.3789" x="22" y="138.4797">Research topics</text></g><!--entity API--><g class="entity" data-qualified-name="API" data-source-line="9" id="ent0003"><rect fill="#D5F5E3" height="52.1973" rx="5" ry="5" style="stroke:#000000;stroke-width:1;" width="139.8271" x="203.89" y="63.2979"/><text fill="#000000" font-family="DejaVu Sans" font-size="14" lengthAdjust="spacing" textLength="101.1514" x="213.89" y="86.4297">arXiv export API</text><text fill="#000000" font-family="DejaVu Sans" font-size="14" lengthAdjust="spacing" textLength="119.8271" x="213.89" y="102.5283">small latest queries</text></g><!--entity Bulk--><g class="entity" data-qualified-name="Bulk" data-source-line="10" id="ent0004"><rect fill="#D5F5E3" height="52.1973" rx="5" ry="5" style="stroke:#000000;stroke-width:1;" width="160.8545" x="193.38" y="150.2979"/><text fill="#000000" font-family="DejaVu Sans" font-size="14" lengthAdjust="spacing" textLength="92.6064" x="203.38" y="173.4297">arXiv bulk data</text><text fill="#000000" font-family="DejaVu Sans" font-size="14" lengthAdjust="spacing" textLength="140.8545" x="203.38" y="189.5283">large metadata refresh</text></g><!--entity Fail--><g class="entity" data-qualified-name="Fail" data-source-line="11" id="ent0005"><rect fill="#FADBD8" height="52.1973" rx="5" ry="5" style="stroke:#000000;stroke-width:1;" width="186.8926" x="580.53" y="58.2979"/><text fill="#000000" font-family="DejaVu Sans" font-size="14" lengthAdjust="spacing" textLength="131.4893" x="590.53" y="81.4297">Rate-limit / failure log</text><text fill="#000000" font-family="DejaVu Sans" font-size="14" lengthAdjust="spacing" textLength="166.8926" x="590.53" y="97.5283">HTTP status + query string</text></g><!--entity RAG--><g class="entity" data-qualified-name="RAG" data-source-line="12" id="ent0006"><rect fill="#FCF3CF" height="52.1973" rx="5" ry="5" style="stroke:#000000;stroke-width:1;" width="193.4893" x="577.23" y="154.2979"/><text fill="#000000" font-family="DejaVu Sans" font-size="14" lengthAdjust="spacing" textLength="121.3584" x="587.23" y="177.4297">RAG-DATA archive</text><text fill="#000000" font-family="DejaVu Sans" font-size="14" lengthAdjust="spacing" textLength="173.4893" x="587.23" y="193.5283">PDF / HTML / source tarball</text></g><!--entity Matrix--><g class="entity" data-qualified-name="Matrix" data-source-line="13" id="ent0007"><rect fill="#E8DAEF" height="52.1973" rx="5" ry="5" style="stroke:#000000;stroke-width:1;" width="230.1162" x="831.72" y="154.2979"/><text fill="#000000" font-family="DejaVu Sans" font-size="14" lengthAdjust="spacing" textLength="99.5928" x="841.72" y="177.4297">Evidence matrix</text><text fill="#000000" font-family="DejaVu Sans" font-size="14" lengthAdjust="spacing" textLength="210.1162" x="841.72" y="193.5283">direct / adjacent / negative-control</text></g><!--entity MD--><g class="entity" data-qualified-name="MD" data-source-line="14" id="ent0008"><rect fill="#D7DBDD" height="36.0986" rx="5" ry="5" style="stroke:#000000;stroke-width:1;" width="132.041" x="1134.13" y="75.3479"/><text fill="#000000" font-family="DejaVu Sans" font-size="14" lengthAdjust="spacing" textLength="112.041" x="1144.13" y="98.4797">Markdown reports</text></g><!--entity TEX--><g class="entity" data-qualified-name="TEX" data-source-line="15" id="ent0009"><rect fill="#D7DBDD" height="52.1973" rx="5" ry="5" style="stroke:#000000;stroke-width:1;" width="154.627" x="1122.84" y="154.2979"/><text fill="#000000" font-family="DejaVu Sans" font-size="14" lengthAdjust="spacing" textLength="103.1133" x="1132.84" y="177.4297">LaTeX + BibTeX</text><text fill="#000000" font-family="DejaVu Sans" font-size="14" lengthAdjust="spacing" textLength="134.627" x="1132.84" y="193.5283">arXiv source package</text></g><!--link Topics to API--><g class="link" data-entity-1="ent0002" data-entity-2="ent0003" data-link-type="dependency" data-source-line="17" id="lnk10"><path d="M132.81,120.2579 C155.1,115.3479 174.7308,111.02 197.8108,105.93" fill="none" id="Topics-to-API" style="stroke:#000000;stroke-width:1;"/><polygon fill="#000000" points="203.67,104.6379,194.0197,102.67,198.7873,105.7147,195.7426,110.4822,203.67,104.6379" style="stroke:#000000;stroke-width:1;"/></g><!--link Topics to Bulk--><g class="link" data-entity-1="ent0002" data-entity-2="ent0004" data-link-type="dependency" data-source-line="18" id="lnk11"><path d="M132.81,146.2379 C151.77,150.3279 167.1746,153.6439 187.3146,157.9839" fill="none" id="Topics-to-Bulk" style="stroke:#000000;stroke-width:1;"/><polygon fill="#000000" points="193.18,159.2479,185.2246,153.4417,188.2922,158.1946,183.5393,161.2622,193.18,159.2479" style="stroke:#000000;stroke-width:1;"/></g><!--link API to RAG--><g class="link" data-entity-1="ent0003" data-entity-2="ent0006" data-link-type="dependency" data-source-line="19" id="lnk12"><path d="M343.94,102.7579 C418.04,117.1379 527.71,138.5979 547.23,143.3979 C560.05,146.5479 567.7362,148.5358 580.8962,152.2558" fill="none" id="API-to-RAG" style="stroke:#000000;stroke-width:1;"/><polygon fill="#000000" points="586.67,153.8879,579.0974,147.5905,581.8585,152.5278,576.9213,155.2889,586.67,153.8879" style="stroke:#000000;stroke-width:1;"/><text fill="#000000" font-family="DejaVu Sans" font-size="13" lengthAdjust="spacing" textLength="161.5098" x="385.23" y="107.8317">metadata + PDF candidates</text></g><!--link Bulk to RAG--><g class="link" data-entity-1="ent0004" data-entity-2="ent0006" data-link-type="dependency" data-source-line="20" id="lnk13"><path d="M330.68,202.9879 C347.51,209.7179 366.28,215.9979 384.23,219.3979 C455.41,232.8779 475.61,230.2479 547.23,219.3979 C564.75,216.7479 577.4324,213.8398 594.6224,208.6898" fill="none" id="Bulk-to-RAG" style="stroke:#000000;stroke-width:1;"/><polygon fill="#000000" points="600.37,206.9679,590.6006,205.719,595.5803,208.4028,592.8966,213.3825,600.37,206.9679" style="stroke:#000000;stroke-width:1;"/><text fill="#000000" font-family="DejaVu Sans" font-size="13" lengthAdjust="spacing" textLength="89.6162" x="421.23" y="216.5917">batch metadata</text></g><!--link API to Fail--><g class="link" data-entity-1="ent0003" data-entity-2="ent0005" data-link-type="dependency" data-source-line="21" id="lnk14"><path d="M343.98,88.0479 C357.33,87.8179 371.22,87.5879 384.23,87.3979 C449.77,86.4579 517.6903,85.7529 574.3203,85.2329" fill="none" id="API-to-Fail" style="stroke:#000000;stroke-width:1;"/><polygon fill="#000000" points="580.32,85.1779,571.2837,81.2607,575.3202,85.2238,571.3571,89.2603,580.32,85.1779" style="stroke:#000000;stroke-width:1;"/><text fill="#000000" font-family="DejaVu Sans" font-size="13" lengthAdjust="spacing" textLength="149.5698" x="391.23" y="82.7417">429 / timeout / parse error</text></g><!--link Bulk to Fail--><g class="link" data-entity-1="ent0004" data-entity-2="ent0005" data-link-type="dependency" data-source-line="22" id="lnk15"><path d="M354.51,188.4079 C410.71,193.3779 486.49,192.8679 547.23,166.3979 C564.52,158.8679 562.13,147.6779 577.23,136.3979 C589.66,127.1179 598.6888,121.3323 612.3688,113.8323" fill="none" id="Bulk-to-Fail" style="stroke:#000000;stroke-width:1;"/><polygon fill="#000000" points="617.63,110.9479,607.8153,111.767,613.2457,113.3515,611.6612,118.7819,617.63,110.9479" style="stroke:#000000;stroke-width:1;"/><text fill="#000000" font-family="DejaVu Sans" font-size="13" lengthAdjust="spacing" textLength="138.7217" x="396.73" y="163.5917">access or schema issue</text></g><!--link RAG to Matrix--><g class="link" data-entity-1="ent0006" data-entity-2="ent0007" data-link-type="dependency" data-source-line="23" id="lnk16"><path d="M771.22,180.3979 C790.67,180.3979 805.31,180.3979 825.33,180.3979" fill="none" id="RAG-to-Matrix" style="stroke:#000000;stroke-width:1;"/><polygon fill="#000000" points="831.33,180.3979,822.33,176.3979,826.33,180.3979,822.33,184.3979,831.33,180.3979" style="stroke:#000000;stroke-width:1;"/></g><!--link Matrix to MD--><g class="link" data-entity-1="ent0007" data-entity-2="ent0008" data-link-type="dependency" data-source-line="24" id="lnk17"><path d="M1024.57,153.8179 C1063.84,140.2279 1104.9903,125.9912 1140.2503,113.7812" fill="none" id="Matrix-to-MD" style="stroke:#000000;stroke-width:1;"/><polygon fill="#000000" points="1145.92,111.8179,1136.1066,110.983,1141.1953,113.454,1138.7244,118.5426,1145.92,111.8179" style="stroke:#000000;stroke-width:1;"/></g><!--link Matrix to TEX--><g class="link" data-entity-1="ent0007" data-entity-2="ent0009" data-link-type="dependency" data-source-line="25" id="lnk18"><path d="M1062.07,180.3979 C1082.56,180.3979 1097.46,180.3979 1116.56,180.3979" fill="none" id="Matrix-to-TEX" style="stroke:#000000;stroke-width:1;"/><polygon fill="#000000" points="1122.56,180.3979,1113.56,176.3979,1117.56,180.3979,1113.56,184.3979,1122.56,180.3979" style="stroke:#000000;stroke-width:1;"/></g><!--link Fail to MD--><g class="link" data-entity-1="ent0005" data-entity-2="ent0008" data-link-type="dependency" data-source-line="26" id="lnk19"><path d="M767.78,85.9879 C872.91,87.7979 1035.5409,90.5844 1127.7409,92.1744" fill="none" id="Fail-to-MD" style="stroke:#000000;stroke-width:1;"/><polygon fill="#000000" points="1133.74,92.2779,1124.8103,88.1233,1128.7407,92.1916,1124.6724,96.1221,1133.74,92.2779" style="stroke:#000000;stroke-width:1;"/><text fill="#000000" font-family="DejaVu Sans" font-size="13" lengthAdjust="spacing" textLength="101.8735" x="896.28" y="84.3017">disclose limitation</text></g><?plantuml-src RLF1Rjim3BtxAxZcM0JPrdNhUXZWnF4we1c2DDXoo8MH6Lk9B6MKdBP_FyfE6nVRoQBvz4Y-HxqB5TK41uFQ9a47Gp1djoCLOE8gOh817e9ZB0c6WBpInz4Y_Gup2bXWGFZjUByrxZ7nUsqFo5Y3hx1mZzgMi4NZgPTXrzX2ERR4yE5zBr7G5XiJScV3JvH-CjhXhmOUqFh4q3P0SC2wh08KcgKvxMoIn0FQKbg-M90dP5K9xg2Llm3qi6oFCCW-JzFyfezknm1wEZWEaCv_hAslqHWm6CW7-DCGQ-f892iCr_drzEfVXarZzX1LM5k3B0hLBwemRPbyrLAC8-e_70kfDZIwrW56efGs3HCOLwxjtN8v1nymD1ukstQU9MHHj2NC1Gk3FCt6sPknn9TXbYvJY4he8wtjFCk5-suvkvUFTmqhWe2yaM5RfkZa89_aLvEyJpGzweAiO6kKgazhsuak75ZiKCMT686b4eDK6IenZLr7E6ilm61wawNJDvmpvBriXHLfekoTkhDCXFaYSsHzw3qkQIM3Z_L63clRYNrg_u1gBylOEJnTlTvFJdOFXz-YQVqm6f148sCGHxuz6tK9KIE5Cc8HtKzQjyx03GRPgXVuAqjhmIry-lXLb0Yw9jT4JMIPFG4nEpuJdR2e57aFZi4hUNC8slk6abWceZhbafE0xP-i7yciISlKfOImq5uP9_NQ7SBu9lu2?></g></svg>