<?plantuml 1.2026.1?><svg xmlns="http://www.w3.org/2000/svg" xmlns:xlink="http://www.w3.org/1999/xlink" contentStyleType="text/css" data-diagram-type="DESCRIPTION" height="810px" preserveAspectRatio="none" style="width:1467px;height:810px;background:#FFFFFF;" version="1.1" viewBox="0 0 1467 810" width="1467px" zoomAndPan="magnify"><title>Project Coherent Storage - Rapid Awareness Audience Tiers</title><defs/><g><g class="title" data-source-line="2"><text fill="#000000" font-family="DejaVu Sans" font-size="22" font-weight="bold" lengthAdjust="spacing" textLength="632.0596" x="413.4102" y="35.6357">Project Coherent Storage - Rapid Awareness Audience Tiers</text></g><!--cluster Exec--><g class="cluster" data-qualified-name="Exec" data-source-line="9" id="ent0002"><rect fill="#D6EAF8" height="213" rx="6" ry="6" style="stroke:#000000;stroke-width:1;" width="702.59" x="12" y="85.2979"/><text fill="#000000" font-family="DejaVu Sans" font-size="14" font-weight="bold" lengthAdjust="spacing" textLength="133.0684" x="296.7608" y="100.4297">Executive Summary</text></g><!--cluster Dir--><g class="cluster" data-qualified-name="Dir" data-source-line="15" id="ent0007"><rect fill="#D5F5E3" height="213" rx="6" ry="6" style="stroke:#000000;stroke-width:1;" width="669.65" x="456.95" y="338.2979"/><text fill="#000000" font-family="DejaVu Sans" font-size="14" font-weight="bold" lengthAdjust="spacing" textLength="105.8203" x="738.8648" y="353.4297">Director Review</text></g><!--cluster ARB--><g class="cluster" data-qualified-name="ARB" data-source-line="21" id="ent0012"><rect fill="#FCF3CF" height="213" rx="6" ry="6" style="stroke:#000000;stroke-width:1;" width="572.29" x="889.59" y="58.2979"/><text fill="#000000" font-family="DejaVu Sans" font-size="14" font-weight="bold" lengthAdjust="spacing" textLength="191.3652" x="1080.0524" y="73.4297">Technical Engineering / ARB</text></g><!--cluster Pub--><g class="cluster" data-qualified-name="Pub" data-source-line="27" id="ent0017"><rect fill="#FADBD8" height="213" rx="6" ry="6" style="stroke:#000000;stroke-width:1;" width="498.99" x="906.31" y="591.2979"/><text fill="#000000" font-family="DejaVu Sans" font-size="14" font-weight="bold" lengthAdjust="spacing" textLength="150.1582" x="1080.7259" y="606.4297">Research / Publication</text></g><!--entity Why CXL matters--><g class="entity" data-qualified-name="Exec.Why CXL matters" data-source-line="10" id="ent0003"><rect fill="#FFFFFF" height="46.0986" rx="6" ry="6" style="stroke:#000000;stroke-width:1;" width="149.6895" x="55.07" y="128.2479"/><rect fill="#FFFFFF" height="10" style="stroke:#000000;stroke-width:1;" width="15" x="184.7595" y="133.2479"/><rect fill="#FFFFFF" height="2" style="stroke:#000000;stroke-width:1;" width="4" x="182.7595" y="135.2479"/><rect fill="#FFFFFF" height="2" style="stroke:#000000;stroke-width:1;" width="4" x="182.7595" y="139.2479"/><text fill="#000000" font-family="DejaVu Sans" font-size="14" lengthAdjust="spacing" textLength="109.6895" x="70.07" y="161.3797">Why CXL matters</text></g><!--entity Why DPUs are required--><g class="entity" data-qualified-name="Exec.Why DPUs are required" data-source-line="11" id="ent0004"><rect fill="#FFFFFF" height="46.0986" rx="6" ry="6" style="stroke:#000000;stroke-width:1;" width="187.8271" x="36" y="209.2479"/><rect fill="#FFFFFF" height="10" style="stroke:#000000;stroke-width:1;" width="15" x="203.8271" y="214.2479"/><rect fill="#FFFFFF" height="2" style="stroke:#000000;stroke-width:1;" width="4" x="201.8271" y="216.2479"/><rect fill="#FFFFFF" height="2" style="stroke:#000000;stroke-width:1;" width="4" x="201.8271" y="220.2479"/><text fill="#000000" font-family="DejaVu Sans" font-size="14" lengthAdjust="spacing" textLength="147.8271" x="51" y="242.3797">Why DPUs are required</text></g><!--entity Business value and risk--><g class="entity" data-qualified-name="Exec.Business value and risk" data-source-line="12" id="ent0005"><rect fill="#FFFFFF" height="46.0986" rx="6" ry="6" style="stroke:#000000;stroke-width:1;" width="187.0752" x="476.67" y="209.2479"/><rect fill="#FFFFFF" height="10" style="stroke:#000000;stroke-width:1;" width="15" x="643.7452" y="214.2479"/><rect fill="#FFFFFF" height="2" style="stroke:#000000;stroke-width:1;" width="4" x="641.7452" y="216.2479"/><rect fill="#FFFFFF" height="2" style="stroke:#000000;stroke-width:1;" width="4" x="641.7452" y="220.2479"/><text fill="#000000" font-family="DejaVu Sans" font-size="14" lengthAdjust="spacing" textLength="147.0752" x="491.67" y="242.3797">Business value and risk</text></g><!--entity Evidence-grade roadmap claims--><g class="entity" data-qualified-name="Exec.Evidence-grade roadmap claims" data-source-line="13" id="ent0006"><rect fill="#FFFFFF" height="46.0986" rx="6" ry="6" style="stroke:#000000;stroke-width:1;" width="240.7646" x="449.83" y="128.2479"/><rect fill="#FFFFFF" height="10" style="stroke:#000000;stroke-width:1;" width="15" x="670.5946" y="133.2479"/><rect fill="#FFFFFF" height="2" style="stroke:#000000;stroke-width:1;" width="4" x="668.5946" y="135.2479"/><rect fill="#FFFFFF" height="2" style="stroke:#000000;stroke-width:1;" width="4" x="668.5946" y="139.2479"/><text fill="#000000" font-family="DejaVu Sans" font-size="14" lengthAdjust="spacing" textLength="200.7646" x="464.83" y="161.3797">Evidence-grade roadmap claims</text></g><!--entity Procurement matrix--><g class="entity" data-qualified-name="Dir.Procurement matrix" data-source-line="16" id="ent0008"><rect fill="#FFFFFF" height="46.0986" rx="6" ry="6" style="stroke:#000000;stroke-width:1;" width="162.1445" x="489.14" y="481.2479"/><rect fill="#FFFFFF" height="10" style="stroke:#000000;stroke-width:1;" width="15" x="631.2845" y="486.2479"/><rect fill="#FFFFFF" height="2" style="stroke:#000000;stroke-width:1;" width="4" x="629.2845" y="488.2479"/><rect fill="#FFFFFF" height="2" style="stroke:#000000;stroke-width:1;" width="4" x="629.2845" y="492.2479"/><text fill="#000000" font-family="DejaVu Sans" font-size="14" lengthAdjust="spacing" textLength="122.1445" x="504.14" y="514.3797">Procurement matrix</text></g><!--entity Topology and lifecycle--><g class="entity" data-qualified-name="Dir.Topology and lifecycle" data-source-line="17" id="ent0009"><rect fill="#FFFFFF" height="46.0986" rx="6" ry="6" style="stroke:#000000;stroke-width:1;" width="178.5234" x="480.95" y="400.2479"/><rect fill="#FFFFFF" height="10" style="stroke:#000000;stroke-width:1;" width="15" x="639.4734" y="405.2479"/><rect fill="#FFFFFF" height="2" style="stroke:#000000;stroke-width:1;" width="4" x="637.4734" y="407.2479"/><rect fill="#FFFFFF" height="2" style="stroke:#000000;stroke-width:1;" width="4" x="637.4734" y="411.2479"/><text fill="#000000" font-family="DejaVu Sans" font-size="14" lengthAdjust="spacing" textLength="138.5234" x="495.95" y="433.3797">Topology and lifecycle</text></g><!--entity Operational readiness--><g class="entity" data-qualified-name="Dir.Operational readiness" data-source-line="18" id="ent0010"><rect fill="#FFFFFF" height="46.0986" rx="6" ry="6" style="stroke:#000000;stroke-width:1;" width="176.9717" x="925.63" y="481.2479"/><rect fill="#FFFFFF" height="10" style="stroke:#000000;stroke-width:1;" width="15" x="1082.6017" y="486.2479"/><rect fill="#FFFFFF" height="2" style="stroke:#000000;stroke-width:1;" width="4" x="1080.6017" y="488.2479"/><rect fill="#FFFFFF" height="2" style="stroke:#000000;stroke-width:1;" width="4" x="1080.6017" y="492.2479"/><text fill="#000000" font-family="DejaVu Sans" font-size="14" lengthAdjust="spacing" textLength="136.9717" x="940.63" y="514.3797">Operational readiness</text></g><!--entity Risk register--><g class="entity" data-qualified-name="Dir.Risk register" data-source-line="19" id="ent0011"><rect fill="#FFFFFF" height="46.0986" rx="6" ry="6" style="stroke:#000000;stroke-width:1;" width="117.793" x="955.22" y="400.2479"/><rect fill="#FFFFFF" height="10" style="stroke:#000000;stroke-width:1;" width="15" x="1053.013" y="405.2479"/><rect fill="#FFFFFF" height="2" style="stroke:#000000;stroke-width:1;" width="4" x="1051.013" y="407.2479"/><rect fill="#FFFFFF" height="2" style="stroke:#000000;stroke-width:1;" width="4" x="1051.013" y="411.2479"/><text fill="#000000" font-family="DejaVu Sans" font-size="14" lengthAdjust="spacing" textLength="77.793" x="970.22" y="433.3797">Risk register</text></g><!--entity Coherence-CE data path--><g class="entity" data-qualified-name="ARB.Coherence-CE data path" data-source-line="22" id="ent0013"><rect fill="#FFFFFF" height="46.0986" rx="6" ry="6" style="stroke:#000000;stroke-width:1;" width="194.875" x="916.68" y="182.2479"/><rect fill="#FFFFFF" height="10" style="stroke:#000000;stroke-width:1;" width="15" x="1091.555" y="187.2479"/><rect fill="#FFFFFF" height="2" style="stroke:#000000;stroke-width:1;" width="4" x="1089.555" y="189.2479"/><rect fill="#FFFFFF" height="2" style="stroke:#000000;stroke-width:1;" width="4" x="1089.555" y="193.2479"/><text fill="#000000" font-family="DejaVu Sans" font-size="14" lengthAdjust="spacing" textLength="154.875" x="931.68" y="215.3797">Coherence-CE data path</text></g><!--entity CXL/OpenZFS role matrix--><g class="entity" data-qualified-name="ARB.CXL.OpenZFS role matrix" data-source-line="23" id="ent0014"><rect fill="#FFFFFF" height="46.0986" rx="6" ry="6" style="stroke:#000000;stroke-width:1;" width="201.0479" x="913.59" y="101.2479"/><rect fill="#FFFFFF" height="10" style="stroke:#000000;stroke-width:1;" width="15" x="1094.6379" y="106.2479"/><rect fill="#FFFFFF" height="2" style="stroke:#000000;stroke-width:1;" width="4" x="1092.6379" y="108.2479"/><rect fill="#FFFFFF" height="2" style="stroke:#000000;stroke-width:1;" width="4" x="1092.6379" y="112.2479"/><text fill="#000000" font-family="DejaVu Sans" font-size="14" lengthAdjust="spacing" textLength="161.0479" x="928.59" y="134.3797">CXL/OpenZFS role matrix</text></g><!--entity DPU/RDMA/NVMe-oF qualification--><g class="entity" data-qualified-name="ARB.DPU.RDMA.NVMe-oF qualification" data-source-line="24" id="ent0015"><rect fill="#FFFFFF" height="46.0986" rx="6" ry="6" style="stroke:#000000;stroke-width:1;" width="256.2822" x="1181.6" y="182.2479"/><rect fill="#FFFFFF" height="10" style="stroke:#000000;stroke-width:1;" width="15" x="1417.8822" y="187.2479"/><rect fill="#FFFFFF" height="2" style="stroke:#000000;stroke-width:1;" width="4" x="1415.8822" y="189.2479"/><rect fill="#FFFFFF" height="2" style="stroke:#000000;stroke-width:1;" width="4" x="1415.8822" y="193.2479"/><text fill="#000000" font-family="DejaVu Sans" font-size="14" lengthAdjust="spacing" textLength="216.2822" x="1196.6" y="215.3797">DPU/RDMA/NVMe-oF qualification</text></g><!--entity Failure and scheduler gates--><g class="entity" data-qualified-name="ARB.Failure and scheduler gates" data-source-line="25" id="ent0016"><rect fill="#FFFFFF" height="46.0986" rx="6" ry="6" style="stroke:#000000;stroke-width:1;" width="212.7715" x="1203.36" y="101.2479"/><rect fill="#FFFFFF" height="10" style="stroke:#000000;stroke-width:1;" width="15" x="1396.1315" y="106.2479"/><rect fill="#FFFFFF" height="2" style="stroke:#000000;stroke-width:1;" width="4" x="1394.1315" y="108.2479"/><rect fill="#FFFFFF" height="2" style="stroke:#000000;stroke-width:1;" width="4" x="1394.1315" y="112.2479"/><text fill="#000000" font-family="DejaVu Sans" font-size="14" lengthAdjust="spacing" textLength="172.7715" x="1218.36" y="134.3797">Failure and scheduler gates</text></g><!--entity arXiv metadata APIs--><g class="entity" data-qualified-name="Pub.arXiv metadata APIs" data-source-line="28" id="ent0018"><rect fill="#FFFFFF" height="46.0986" rx="6" ry="6" style="stroke:#000000;stroke-width:1;" width="167.6133" x="930.31" y="734.2479"/><rect fill="#FFFFFF" height="10" style="stroke:#000000;stroke-width:1;" width="15" x="1077.9233" y="739.2479"/><rect fill="#FFFFFF" height="2" style="stroke:#000000;stroke-width:1;" width="4" x="1075.9233" y="741.2479"/><rect fill="#FFFFFF" height="2" style="stroke:#000000;stroke-width:1;" width="4" x="1075.9233" y="745.2479"/><text fill="#000000" font-family="DejaVu Sans" font-size="14" lengthAdjust="spacing" textLength="127.6133" x="945.31" y="767.3797">arXiv metadata APIs</text></g><!--entity RAG manifests--><g class="entity" data-qualified-name="Pub.RAG manifests" data-source-line="29" id="ent0019"><rect fill="#FFFFFF" height="46.0986" rx="6" ry="6" style="stroke:#000000;stroke-width:1;" width="134.1377" x="947.05" y="653.2479"/><rect fill="#FFFFFF" height="10" style="stroke:#000000;stroke-width:1;" width="15" x="1061.1877" y="658.2479"/><rect fill="#FFFFFF" height="2" style="stroke:#000000;stroke-width:1;" width="4" x="1059.1877" y="660.2479"/><rect fill="#FFFFFF" height="2" style="stroke:#000000;stroke-width:1;" width="4" x="1059.1877" y="664.2479"/><text fill="#000000" font-family="DejaVu Sans" font-size="14" lengthAdjust="spacing" textLength="94.1377" x="962.05" y="686.3797">RAG manifests</text></g><!--entity LaTeX + BibTeX--><g class="entity" data-qualified-name="Pub.LaTeX . BibTeX" data-source-line="30" id="ent0020"><rect fill="#FFFFFF" height="46.0986" rx="6" ry="6" style="stroke:#000000;stroke-width:1;" width="143.1133" x="1238.19" y="734.2479"/><rect fill="#FFFFFF" height="10" style="stroke:#000000;stroke-width:1;" width="15" x="1361.3033" y="739.2479"/><rect fill="#FFFFFF" height="2" style="stroke:#000000;stroke-width:1;" width="4" x="1359.3033" y="741.2479"/><rect fill="#FFFFFF" height="2" style="stroke:#000000;stroke-width:1;" width="4" x="1359.3033" y="745.2479"/><text fill="#000000" font-family="DejaVu Sans" font-size="14" lengthAdjust="spacing" textLength="103.1133" x="1253.19" y="767.3797">LaTeX + BibTeX</text></g><!--entity Claim guardrails--><g class="entity" data-qualified-name="Pub.Claim guardrails" data-source-line="31" id="ent0021"><rect fill="#FFFFFF" height="46.0986" rx="6" ry="6" style="stroke:#000000;stroke-width:1;" width="141.1445" x="1239.17" y="653.2479"/><rect fill="#FFFFFF" height="10" style="stroke:#000000;stroke-width:1;" width="15" x="1360.3145" y="658.2479"/><rect fill="#FFFFFF" height="2" style="stroke:#000000;stroke-width:1;" width="4" x="1358.3145" y="660.2479"/><rect fill="#FFFFFF" height="2" style="stroke:#000000;stroke-width:1;" width="4" x="1358.3145" y="664.2479"/><text fill="#000000" font-family="DejaVu Sans" font-size="14" lengthAdjust="spacing" textLength="101.1445" x="1254.17" y="686.3797">Claim guardrails</text></g><!--link Exec to Dir--><g class="link" data-entity-1="ent0002" data-entity-2="ent0007" data-link-type="dependency" data-source-line="34" id="lnk22"><path d="M178.1593,298.3817 C178.7065,298.4753 179.2576,298.5696 179.8125,298.6646 C182.0319,299.0444 184.312,299.4346 186.6495,299.8346 C191.3245,300.6347 196.2292,301.474 201.338,302.3483 C242.2084,309.3425 296.1444,318.5722 350.0788,327.8016 C377.0459,332.4163 404.0127,337.0309 429.3458,341.366 C435.679,342.4497 441.9102,343.516 448.0137,344.5605 C449.5396,344.8216 451.0575,345.0813 452.567,345.3396 C453.3217,345.4688 454.0744,345.5976 454.8249,345.726 C455.2002,345.7903 449.6609,344.8423 450.0351,344.9064" fill="none" id="Exec-to-Dir" style="stroke:#000000;stroke-width:1;"/><polygon fill="#000000" points="455.9491,345.9184,447.7528,340.4577,451.0208,345.075,446.4034,348.3431,455.9491,345.9184" style="stroke:#000000;stroke-width:1;"/><text fill="#000000" font-family="DejaVu Sans" font-size="13" lengthAdjust="spacing" textLength="164.0552" x="254.83" y="309.6517">funding / roadmap questions</text></g><!--link Dir to ARB--><g class="link" data-entity-1="ent0007" data-entity-2="ent0012" data-link-type="dependency" data-source-line="35" id="lnk23"><path d="M627.2738,338.1979 C659.2,323.8754 700.345,307.2479 738.59,297.2979 C767.87,289.6779 799.3644,283.7491 830.21,279.1407 C845.6328,276.8364 860.8934,274.8623 875.634,273.1719 C879.3191,272.7493 882.9718,272.3444 886.5863,271.9565 C888.3936,271.7626 884.2234,272.1923 886.0109,272.0068" fill="none" id="Dir-to-ARB" style="stroke:#000000;stroke-width:1;"/><polygon fill="#000000" points="891.9788,271.3874,882.614,268.3378,887.0055,271.9035,883.4398,276.2951,891.9788,271.3874" style="stroke:#000000;stroke-width:1;"/><text fill="#000000" font-family="DejaVu Sans" font-size="13" lengthAdjust="spacing" textLength="104.7808" x="750.09" y="271.6217">design constraints</text></g><!--link ARB to Pub--><g class="link" data-entity-1="ent0012" data-entity-2="ent0017" data-link-type="dependency" data-source-line="36" id="lnk24"><path d="M889.3165,251.0426 C888.521,251.0976 887.725,251.1559 886.9288,251.2175 C883.7436,251.4641 880.5533,251.7643 877.3651,252.1228 C864.612,253.5566 851.8916,255.9231 839.6656,259.5218 C815.2138,266.7191 792.74,278.8454 775.94,298.2979 C699.31,387.0079 794.39,456.8779 873.59,543.2979 C884.9875,555.7354 898.9319,566.5041 913.5623,575.6932 C920.8776,580.2877 928.3643,584.4873 935.79,588.3031 C937.6464,589.2571 934.1134,587.5422 935.9586,588.4483" fill="none" id="ARB-to-Pub" style="stroke:#000000;stroke-width:1;"/><polygon fill="#000000" points="941.3442,591.0932,935.029,583.5355,936.8562,588.8891,931.5026,590.7163,941.3442,591.0932" style="stroke:#000000;stroke-width:1;"/><text fill="#000000" font-family="DejaVu Sans" font-size="13" lengthAdjust="spacing" textLength="125.7153" x="739.59" y="311.4917">source-backed claims</text></g><!--link Pub to Exec--><g class="link" data-entity-1="ent0017" data-entity-2="ent0002" data-link-type="dependency" data-source-line="37" id="lnk25"><path d="M904.2942,626.0797 C902.8621,626.1311 901.4192,626.181 899.9657,626.2293 C897.0586,626.3261 894.109,626.4167 891.1185,626.5005 C867.1941,627.1709 840.6516,627.405 812.3313,626.8466 C699.05,624.6129 557.325,609.6979 440.95,559.2979 C358.555,523.6129 282.1625,457.8904 225.8238,400.3429 C197.6544,371.5691 174.4984,344.8391 158.1123,324.9294 C149.9193,314.9746 143.4187,306.7248 138.8301,300.7772 C138.2566,300.0337 141.3611,304.0897 140.8477,303.4194" fill="none" id="Pub-to-Exec" style="stroke:#000000;stroke-width:1;"/><polygon fill="#000000" points="137.1995,298.6559,139.4961,308.2333,140.2396,302.6255,145.8474,303.369,137.1995,298.6559" style="stroke:#000000;stroke-width:1;"/><text fill="#000000" font-family="DejaVu Sans" font-size="13" lengthAdjust="spacing" textLength="91.749" x="524.71" y="556.4917">safe summaries</text></g><?plantuml-src NP9DRnf138Rl-olSv5WXr4QfAWwL5fQjAYKf0fgYLZsO6RCxONPccGy8YlhVwnb8XN9YiJtsyxxskz1IHz1hLAO8AcY2cRDF909CR4kEJ815i0uRWW7CiLSIoWDodBo7Caf5HX0i5JbVQDe421QSQje0KZbkewmf_5QP7Xrsu5kKzg1C0nlKdYuopaOZXNM677puU96GjC6eGsrDU416hUW97oCiqFYBgXx5bXaNuSWAqbmqZQQY-Fy9LzDd4Z6eFS4YTXswunMWXnI5w-hJjAm_mqi1yFjdUuJ9wWuw385L_NcDLRCV7bWvjzz5rYPpPXozobxiKKS2D9Bb-stEJVTA9di6ZKF9xopA3diGR7R7VVzUqbNPBUjWJdj5Xyp6CKQxhM-dDoSqNes8ZXV6Ms4yfvxpdANjhRRDCK_NQaFYA3JbrFUU7AObe6Pkb9arP-PCoQ56ULRv1cP9eZLAy9kfQVW9kRIo8PJpSGRZNxYk9_NDf3w1dM-5fKwc834WBoIqUGvREMGAywjUi0FS_GASBHtEg_jo-F1uJmDRmouYy_FaX9nBQbIQ9MTfNhGae-OBQJ3GMmVdv0cTQ9bp5jVwt2Jpyd_cBQjnTTunkfNQGqS1Csmv-tOsfVpAV8OjzE4KkSCbhU0zZDMQFqwAqlwWYUYaOxhCKUGx6Wo-vAMDOCFNVFBiTUkxo3qPo1Uf8bKc5qTytrur1WHd0hSpmHSfaGeIzWYyZOwDNVE5apmVJv5IgIIFvHhS4FXyrehyFm00?></g></svg>