<?plantuml 1.2026.1?><svg xmlns="http://www.w3.org/2000/svg" xmlns:xlink="http://www.w3.org/1999/xlink" contentStyleType="text/css" data-diagram-type="DESCRIPTION" height="685px" preserveAspectRatio="none" style="width:1021px;height:685px;background:#FFFFFF;" version="1.1" viewBox="0 0 1021 685" width="1021px" zoomAndPan="magnify"><title>Project Coherent Storage - Coherence-CE Data Path</title><defs/><g><g class="title" data-source-line="2"><text fill="#000000" font-family="DejaVu Sans" font-size="22" font-weight="bold" lengthAdjust="spacing" textLength="544.0059" x="234.4842" y="35.6357">Project Coherent Storage - Coherence-CE Data Path</text></g><!--entity Actor--><g class="entity" data-qualified-name="Actor" data-source-line="8" id="ent0002"><ellipse cx="669.7921" cy="65.2979" fill="#FFFFFF" rx="8" ry="8" style="stroke:#000000;stroke-width:1;"/><path d="M669.7921,73.2979 L669.7921,100.2979 M656.7921,81.2979 L682.7921,81.2979 M669.7921,100.2979 L656.7921,115.2979 M669.7921,100.2979 L682.7921,115.2979" fill="none" style="stroke:#000000;stroke-width:1;"/><text fill="#000000" font-family="DejaVu Sans" font-size="14" lengthAdjust="spacing" textLength="165.7441" x="586.92" y="130.4297">vLLM / OpenAI-compatible</text><text fill="#000000" font-family="DejaVu Sans" font-size="14" lengthAdjust="spacing" textLength="94.9375" x="586.92" y="146.5283">Inference Actor</text></g><!--entity API--><g class="entity" data-qualified-name="API" data-source-line="9" id="ent0003"><rect fill="#D6EAF8" height="52.1973" rx="5" ry="5" style="stroke:#000000;stroke-width:1;" width="272.0889" x="533.75" y="240.4979"/><text fill="#000000" font-family="DejaVu Sans" font-size="14" lengthAdjust="spacing" textLength="171.9785" x="543.75" y="263.6297">Coherence-CE Adapter API</text><text fill="#000000" font-family="DejaVu Sans" font-size="14" lengthAdjust="spacing" textLength="252.0889" x="543.75" y="279.7283">(no OpenZFS/DPU/RDMA/CXL leakage)</text></g><!--entity Mesh--><g class="entity" data-qualified-name="Mesh" data-source-line="10" id="ent0004"><rect fill="#D5F5E3" height="52.1973" rx="5" ry="5" style="stroke:#000000;stroke-width:1;" width="217.6406" x="279.97" y="370.0179"/><text fill="#000000" font-family="DejaVu Sans" font-size="14" lengthAdjust="spacing" textLength="185.1719" x="289.97" y="393.1497">Coherence-CE Memory Mesh</text><text fill="#000000" font-family="DejaVu Sans" font-size="14" lengthAdjust="spacing" textLength="197.6406" x="289.97" y="409.2483">placement + durability + metrics</text></g><!--entity Hot--><g class="entity" data-qualified-name="Hot" data-source-line="11" id="ent0005"><rect fill="#F9E79F" height="52.1973" rx="5" ry="5" style="stroke:#000000;stroke-width:1;" width="175.5859" x="12" y="499.5479"/><text fill="#000000" font-family="DejaVu Sans" font-size="14" lengthAdjust="spacing" textLength="155.5859" x="22" y="522.6797">GPU HBM / Local DRAM</text><text fill="#000000" font-family="DejaVu Sans" font-size="14" lengthAdjust="spacing" textLength="153.3027" x="22" y="538.7783">KV-D0/D1 active decode</text></g><!--entity Warm--><g class="entity" data-qualified-name="Warm" data-source-line="12" id="ent0006"><rect fill="#FCF3CF" height="52.1973" rx="5" ry="5" style="stroke:#000000;stroke-width:1;" width="268.999" x="222.29" y="499.5479"/><text fill="#000000" font-family="DejaVu Sans" font-size="14" lengthAdjust="spacing" textLength="231.4854" x="232.29" y="522.6797">Host DRAM + governed CXL T1/T1.5</text><text fill="#000000" font-family="DejaVu Sans" font-size="14" lengthAdjust="spacing" textLength="248.999" x="232.29" y="538.7783">warm KV/prefix, metadata, vector heads</text></g><!--entity DPU--><g class="entity" data-qualified-name="DPU" data-source-line="13" id="ent0007"><rect fill="#E8DAEF" height="52.1973" rx="5" ry="5" style="stroke:#000000;stroke-width:1;" width="201.665" x="525.96" y="499.5479"/><text fill="#000000" font-family="DejaVu Sans" font-size="14" lengthAdjust="spacing" textLength="151.7031" x="535.96" y="522.6797">DPU / SmartNIC Offload</text><text fill="#000000" font-family="DejaVu Sans" font-size="14" lengthAdjust="spacing" textLength="181.665" x="535.96" y="538.7783">NVMe-oF + RDMA mediation</text></g><!--entity ZFS--><g class="entity" data-qualified-name="ZFS" data-source-line="14" id="ent0008"><rect fill="#FADBD8" height="52.1973" rx="5" ry="5" style="stroke:#000000;stroke-width:1;" width="246.3789" x="503.6" y="627.7379"/><text fill="#000000" font-family="DejaVu Sans" font-size="14" lengthAdjust="spacing" textLength="226.3789" x="513.6" y="650.8697">OpenZFS Mirrored NAND Block Tier</text><text fill="#000000" font-family="DejaVu Sans" font-size="14" lengthAdjust="spacing" textLength="173.5439" x="513.6" y="666.9683">qualified durability substrate</text></g><!--entity Sched--><g class="entity" data-qualified-name="Sched" data-source-line="15" id="ent0009"><rect fill="#D7DBDD" height="52.1973" rx="5" ry="5" style="stroke:#000000;stroke-width:1;" width="227.6963" x="762.94" y="499.5479"/><text fill="#000000" font-family="DejaVu Sans" font-size="14" lengthAdjust="spacing" textLength="131.5098" x="772.94" y="522.6797">Scheduler Admission</text><text fill="#000000" font-family="DejaVu Sans" font-size="14" lengthAdjust="spacing" textLength="207.6963" x="772.94" y="538.7783">GREEN / AMBER / RED / DRAIN</text></g><g class="entity" data-qualified-name="GMN18" data-source-line="27" id="ent0019"><path d="M532.49,373.6979 L532.49,418.544 A5,5 0 0 0 537.49,423.544 L802.0916,423.544 A5,5 0 0 0 807.0916,418.544 L807.0916,378.6979 L797.0916,368.6979 L673.79,368.6979 L669.79,293.0979 L665.79,368.6979 L537.49,368.6979 A5,5 0 0 0 532.49,373.6979" fill="#FFFFFF" style="stroke:#000000;stroke-width:1;"/><path d="M797.0916,368.6979 L797.0916,376.1979 A2.5,2.5 0 0 0 799.5916,378.6979 L807.0916,378.6979 L797.0916,368.6979" fill="#FFFFFF" style="stroke:#000000;stroke-width:1;"/><text fill="#000000" font-family="DejaVu Sans" font-size="13" lengthAdjust="spacing" textLength="253.6016" x="538.49" y="385.8917">Actors know Coherence-CE semantics only.</text><text fill="#000000" font-family="DejaVu Sans" font-size="13" lengthAdjust="spacing" textLength="224.0024" x="538.49" y="400.8404">They do not know CXL devices, vdevs,</text><text fill="#000000" font-family="DejaVu Sans" font-size="13" lengthAdjust="spacing" textLength="247.7871" x="538.49" y="415.7892">RDMA QPs, DPUs, or NVMe namespaces.</text></g><!--link Actor to API--><g class="link" data-entity-1="ent0002" data-entity-2="ent0003" data-link-type="dependency" data-source-line="17" id="lnk10"><path d="M669.79,149.8079 C669.79,179.1179 669.79,210.0279 669.79,234.1979" fill="none" id="Actor-to-API" style="stroke:#000000;stroke-width:1;"/><polygon fill="#000000" points="669.79,240.1979,673.79,231.1979,669.79,235.1979,665.79,231.1979,669.79,240.1979" style="stroke:#000000;stroke-width:1;"/><text fill="#000000" font-family="DejaVu Sans" font-size="13" lengthAdjust="spacing" textLength="156.7871" x="670.79" y="192.6917">REST / OpenAI-compatible</text><text fill="#000000" font-family="DejaVu Sans" font-size="13" lengthAdjust="spacing" textLength="147.4053" x="675.4809" y="207.6404">or Coherence-native calls</text></g><!--link API to Mesh--><g class="link" data-entity-1="ent0003" data-entity-2="ent0004" data-link-type="dependency" data-source-line="18" id="lnk11"><path d="M594.26,293.0779 C570.45,301.7579 544.25,311.9979 520.79,322.6979 C490.11,336.6879 462.0375,351.9802 436.5675,366.6702" fill="none" id="API-to-Mesh" style="stroke:#000000;stroke-width:1;"/><polygon fill="#000000" points="431.37,369.6679,441.1647,368.6363,435.7012,367.1698,437.1678,361.7063,431.37,369.6679" style="stroke:#000000;stroke-width:1;"/><text fill="#000000" font-family="DejaVu Sans" font-size="13" lengthAdjust="spacing" textLength="139.4707" x="521.79" y="335.8917">actor-scoped operations</text></g><!--link Mesh to Hot--><g class="link" data-entity-1="ent0004" data-entity-2="ent0005" data-link-type="dependency" data-source-line="19" id="lnk12"><path d="M321.06,422.6079 C297.11,431.9479 270.1,442.8479 245.79,453.5479 C213.41,467.7879 183.0569,482.4753 155.0469,496.4753" fill="none" id="Mesh-to-Hot" style="stroke:#000000;stroke-width:1;"/><polygon fill="#000000" points="149.68,499.1579,159.5188,498.712,154.1525,496.9224,155.9421,491.5561,149.68,499.1579" style="stroke:#000000;stroke-width:1;"/><text fill="#000000" font-family="DejaVu Sans" font-size="13" lengthAdjust="spacing" textLength="102.6162" x="246.79" y="466.7417">hot KV placement</text></g><!--link Mesh to Warm--><g class="link" data-entity-1="ent0004" data-entity-2="ent0006" data-link-type="dependency" data-source-line="20" id="lnk13"><path d="M373.39,422.6679 C368.47,432.0479 363.59,442.9679 360.79,453.5479 C356.88,468.3679 355.8318,479.5079 355.7818,493.2479" fill="none" id="Mesh-to-Warm" style="stroke:#000000;stroke-width:1;"/><polygon fill="#000000" points="355.76,499.2479,359.7927,490.2625,355.7782,494.2479,351.7928,490.2334,355.76,499.2479" style="stroke:#000000;stroke-width:1;"/><text fill="#000000" font-family="DejaVu Sans" font-size="13" lengthAdjust="spacing" textLength="177.7471" x="361.79" y="466.7417">warm/recomputable placement</text></g><!--link Mesh to DPU--><g class="link" data-entity-1="ent0004" data-entity-2="ent0007" data-link-type="dependency" data-source-line="21" id="lnk14"><path d="M475.74,422.5779 C498.63,430.9179 522.78,441.2679 543.79,453.5479 C565.25,466.0779 582.1498,480.2651 597.7598,495.1651" fill="none" id="Mesh-to-DPU" style="stroke:#000000;stroke-width:1;"/><polygon fill="#000000" points="602.1,499.3079,598.3516,490.2002,598.4832,495.8555,592.8278,495.9871,602.1,499.3079" style="stroke:#000000;stroke-width:1;"/><text fill="#000000" font-family="DejaVu Sans" font-size="13" lengthAdjust="spacing" textLength="132.9707" x="567.12" y="466.7417">durable write/read path</text></g><!--link DPU to ZFS--><g class="link" data-entity-1="ent0007" data-entity-2="ent0008" data-link-type="dependency" data-source-line="22" id="lnk15"><path d="M626.79,552.1779 C626.79,574.0779 626.79,599.4579 626.79,621.3379" fill="none" id="DPU-to-ZFS" style="stroke:#000000;stroke-width:1;"/><polygon fill="#000000" points="626.79,627.3379,630.79,618.3379,626.79,622.3379,622.79,618.3379,626.79,627.3379" style="stroke:#000000;stroke-width:1;"/><text fill="#000000" font-family="DejaVu Sans" font-size="13" lengthAdjust="spacing" textLength="163.9727" x="627.79" y="594.9317">NVMe-oF / RoCEv2 / RDMA</text></g><!--link Mesh to Sched--><g class="link" data-entity-1="ent0004" data-entity-2="ent0009" data-link-type="dependency" data-source-line="23" id="lnk16"><path d="M498,420.3879 C503.67,421.4779 509.3,422.5379 514.79,423.5479 C600.19,439.1279 624.28,429.8679 707.79,453.5479 C748.52,465.0879 787.1121,481.2923 820.0121,496.6323" fill="none" id="Mesh-to-Sched" style="stroke:#000000;stroke-width:1;"/><polygon fill="#000000" points="825.45,499.1679,818.9834,491.7393,820.9184,497.0549,815.6028,498.9899,825.45,499.1679" style="stroke:#000000;stroke-width:1;"/><text fill="#000000" font-family="DejaVu Sans" font-size="13" lengthAdjust="spacing" textLength="77.2954" x="756.47" y="466.7417">metrics rollup</text></g><!--link Sched to API--><g class="link" data-entity-1="ent0009" data-entity-2="ent0003" data-link-type="dependency" data-source-line="24" id="lnk17"><path d="M873.59,499.2779 C868.33,466.2579 855.22,408.1179 824.79,368.6979 C799.37,335.7579 765.3242,313.0634 732.6242,295.9234" fill="none" id="Sched-to-API" style="stroke:#000000;stroke-width:1;"/><polygon fill="#000000" points="727.31,293.1379,733.4243,300.8589,731.7385,295.4591,737.1383,293.7733,727.31,293.1379" style="stroke:#000000;stroke-width:1;"/><text fill="#000000" font-family="DejaVu Sans" font-size="13" lengthAdjust="spacing" textLength="158.9644" x="855.01" y="401.3117">admission / throttling / drain</text></g><?plantuml-src TLJ1Rjiu4BthAsRZoousZfejqhG-550igJ4IkwxjkaNXoqGSHsmeKYKfP_tt7L9DOWFjXP8uZu-Fxutubw-f8MWLIfruwHN1t9hlL7aOcveiQGzBRopU4moVfYeQZWl8qIFCqTU9Uv2wHOiDk1g5UPJw7hQe71rKhEcqg8pLPE7yrK51q1OxvKkZ_GnPIaxVSTt14hKxG5McQOrcDKk_PusM1QA-LvGaMB4yEDdTtauXXOyjwMmo373qyaxHHa_qjXSDMO2U0Bh-BNacXPEZasK2Myywi_bae__M9h9-AvTfFl-SBl9fbew_te8YV61R_ka9vnCOv6-Ah7pxHzefDSRk-U7gZMR7AtQUGV-2w2pUIINzdZyQybPMBh86ADDUb1V5wqFQ3_FFS7qLpdjhAbIGBxBfHj-iX_chD3y7jaJkY9sjZA18T6qy3CftnUMxyf3dsZWV5_E-zsP7d8w0SBRLURewFxlOw4Uq3ToiqzRILlv_6jIXuE1FOKVH-9fGz6A_1EYW79UlnqURi6aiTDcWzRF963vkjygWsEZPUaf3K_BMmL9c5f8ZCpgIXKM3ucsU5KTSluA0gRJMM1OxosOvN2bJFS1Aajte7nqgkPLSEd3LTNVEM_Iz6O5WK6RvLNwKrRAgINGgv2uQwHnBsUWFYwAOiVniUbKi-BaeSXxPiiaiSiL57D4bi-L94liAXiFtiI5635-kVj-L37jf3eqnC8vIkIIi30mn_174_XwwohIy4GysckIIM0wuaEq8QXvlrl3SLY_rcCi8Gf8f_pUieVF86dw73RQFUkSOy6Yb9rw30jhmduTgG0K3H_2K7vjYniNkl_32GRwGzTwCdZgQhm2bkZRffryymYUtcS3NrdYlmWMIWh3XKagqyGHtF6qQCDkmgBVPmOCsZyTtagC6jG-R6QtsPycgfZq80ypn2ytDBMWdAtBSmlpcJfFOVf_cFC47v96Z2MS3pTUHQzaZTvQG5e64VW80?></g></svg>