<?plantuml 1.2026.1?><svg xmlns="http://www.w3.org/2000/svg" xmlns:xlink="http://www.w3.org/1999/xlink" contentStyleType="text/css" data-diagram-type="ACTIVITY" height="971px" preserveAspectRatio="none" style="width:734px;height:971px;background:#FFFFFF;" version="1.1" viewBox="0 0 734 971" width="734px" zoomAndPan="magnify"><title>Project Coherent Storage - CXL Roadmap Decision Tree</title><defs/><g><g class="title" data-source-line="2"><text fill="#000000" font-family="DejaVu Sans" font-size="22" font-weight="bold" lengthAdjust="spacing" textLength="585.5674" x="72.9816" y="35.6357">Project Coherent Storage - CXL Roadmap Decision Tree</text></g><ellipse cx="340.1484" cy="61.2979" fill="#FFFFFF" rx="10" ry="10" style="stroke:#000000;stroke-width:1;"/><rect fill="#FFFFFF" height="33.7988" rx="6" ry="6" style="stroke:#000000;stroke-width:1;" width="91.3555" x="294.4707" y="91.2979"/><text fill="#000000" font-family="DejaVu Sans" font-size="12" lengthAdjust="spacing" textLength="71.3555" x="304.4707" y="112.5537">Classify state</text><polygon fill="#FFFFFF" points="277.7766,145.0967,402.5203,145.0967,414.5203,157.0967,402.5203,169.0967,277.7766,169.0967,265.7766,157.0967,277.7766,145.0967" style="stroke:#000000;stroke-width:1;"/><text fill="#000000" font-family="DejaVu Sans" font-size="11" lengthAdjust="spacing" textLength="124.7437" x="277.7766" y="161.0901">Active per-token decode?</text><text fill="#000000" font-family="DejaVu Sans" font-size="11" lengthAdjust="spacing" textLength="17.1177" x="248.6589" y="154.7656">yes</text><text fill="#000000" font-family="DejaVu Sans" font-size="11" lengthAdjust="spacing" textLength="12.2354" x="414.5203" y="154.7656">no</text><rect fill="#FFFFFF" height="33.7988" rx="6" ry="6" style="stroke:#000000;stroke-width:1;" width="174.0254" x="91.7802" y="179.0967"/><text fill="#000000" font-family="DejaVu Sans" font-size="12" lengthAdjust="spacing" textLength="154.0254" x="101.7802" y="200.3525">Use GPU HBM / local DRAM</text><rect fill="#FFFFFF" height="33.7988" rx="6" ry="6" style="stroke:#000000;stroke-width:1;" width="142.0918" x="107.7469" y="247.8955"/><text fill="#000000" font-family="DejaVu Sans" font-size="12" lengthAdjust="spacing" textLength="122.0918" x="117.7469" y="269.1514">Do not depend on CXL</text><ellipse cx="178.7928" cy="327.6943" fill="none" rx="11" ry="11" style="stroke:#000000;stroke-width:1;"/><ellipse cx="178.7928" cy="327.6943" fill="#FFFFFF" rx="6" ry="6" style="stroke:#000000;stroke-width:1;"/><polygon fill="#FFFFFF" points="390.8407,179.0967,612.1674,179.0967,624.1674,191.0967,612.1674,203.0967,390.8407,203.0967,378.8407,191.0967,390.8407,179.0967" style="stroke:#000000;stroke-width:1;"/><text fill="#000000" font-family="DejaVu Sans" font-size="11" lengthAdjust="spacing" textLength="221.3267" x="390.8407" y="195.0901">Warm, reusable, metadata, or recomputable?</text><text fill="#000000" font-family="DejaVu Sans" font-size="11" lengthAdjust="spacing" textLength="17.1177" x="361.723" y="188.7656">yes</text><text fill="#000000" font-family="DejaVu Sans" font-size="11" lengthAdjust="spacing" textLength="12.2354" x="624.1674" y="188.7656">no</text><rect fill="#FFFFFF" height="33.7988" rx="6" ry="6" style="stroke:#000000;stroke-width:1;" width="146.0703" x="295.8055" y="213.0967"/><text fill="#000000" font-family="DejaVu Sans" font-size="12" lengthAdjust="spacing" textLength="126.0703" x="305.8055" y="234.3525">Candidate CXL T1/T1.5</text><rect fill="#FFFFFF" height="33.7988" rx="6" ry="6" style="stroke:#000000;stroke-width:1;" width="188.7266" x="539.8041" y="213.0967"/><text fill="#000000" font-family="DejaVu Sans" font-size="12" lengthAdjust="spacing" textLength="168.7266" x="549.8041" y="234.3525">Use OpenZFS/object/NVMe tier</text><ellipse cx="634.1674" cy="292.8955" fill="none" rx="11" ry="11" style="stroke:#000000;stroke-width:1;"/><ellipse cx="634.1674" cy="292.8955" fill="#FFFFFF" rx="6" ry="6" style="stroke:#000000;stroke-width:1;"/><polygon fill="#FFFFFF" points="248.7458,358.6943,431.551,358.6943,443.551,370.6943,431.551,382.6943,248.7458,382.6943,236.7458,370.6943,248.7458,358.6943" style="stroke:#000000;stroke-width:1;"/><text fill="#000000" font-family="DejaVu Sans" font-size="11" lengthAdjust="spacing" textLength="182.8052" x="248.7458" y="374.6877">Persistence required for correctness?</text><text fill="#000000" font-family="DejaVu Sans" font-size="11" lengthAdjust="spacing" textLength="17.1177" x="219.6282" y="368.3633">yes</text><text fill="#000000" font-family="DejaVu Sans" font-size="11" lengthAdjust="spacing" textLength="12.2354" x="443.551" y="368.3633">no</text><rect fill="#FFFFFF" height="33.7988" rx="6" ry="6" style="stroke:#000000;stroke-width:1;" width="345.4941" x="6" y="392.6943"/><text fill="#000000" font-family="DejaVu Sans" font-size="12" lengthAdjust="spacing" textLength="325.4941" x="16" y="413.9502">Require OpenZFS-backed or persistent/block-qualified media</text><rect fill="#FFFFFF" height="33.7988" rx="6" ry="6" style="stroke:#000000;stroke-width:1;" width="198.7637" x="79.3652" y="446.4932"/><text fill="#000000" font-family="DejaVu Sans" font-size="12" lengthAdjust="spacing" textLength="178.7637" x="89.3652" y="467.749">Volatile CXL cannot ack durability</text><rect fill="#FFFFFF" height="33.7988" rx="6" ry="6" style="stroke:#000000;stroke-width:1;" width="260.1113" x="371.4941" y="392.6943"/><text fill="#000000" font-family="DejaVu Sans" font-size="12" lengthAdjust="spacing" textLength="240.1113" x="381.4941" y="413.9502">Volatile CXL may support memory expansion</text><polygon fill="#FFFFFF" points="340.1484,486.292,352.1484,498.292,340.1484,510.292,328.1484,498.292,340.1484,486.292" style="stroke:#000000;stroke-width:1;"/><polygon fill="#FFFFFF" points="236.5186,530.292,443.7783,530.292,455.7783,542.292,443.7783,554.292,236.5186,554.292,224.5186,542.292,236.5186,530.292" style="stroke:#000000;stroke-width:1;"/><text fill="#000000" font-family="DejaVu Sans" font-size="11" lengthAdjust="spacing" textLength="207.2598" x="236.5186" y="546.2854">Root-complex/NUMA placement qualified?</text><text fill="#000000" font-family="DejaVu Sans" font-size="11" lengthAdjust="spacing" textLength="17.1177" x="207.4009" y="539.9609">yes</text><text fill="#000000" font-family="DejaVu Sans" font-size="11" lengthAdjust="spacing" textLength="12.2354" x="455.7783" y="539.9609">no</text><rect fill="#FFFFFF" height="33.7988" rx="6" ry="6" style="stroke:#000000;stroke-width:1;" width="68.0352" x="180.501" y="564.292"/><text fill="#000000" font-family="DejaVu Sans" font-size="12" lengthAdjust="spacing" textLength="48.0352" x="190.501" y="585.5479">Continue</text><rect fill="#FFFFFF" height="33.7988" rx="6" ry="6" style="stroke:#000000;stroke-width:1;" width="168.7344" x="381.4111" y="564.292"/><text fill="#000000" font-family="DejaVu Sans" font-size="12" lengthAdjust="spacing" textLength="148.7344" x="391.4111" y="585.5479">Reject latency-sensitive use</text><ellipse cx="465.7783" cy="629.0908" fill="none" rx="11" ry="11" style="stroke:#000000;stroke-width:1;"/><ellipse cx="465.7783" cy="629.0908" fill="#FFFFFF" rx="6" ry="6" style="stroke:#000000;stroke-width:1;"/><polygon fill="#FFFFFF" points="275.9478,660.0908,404.3491,660.0908,416.3491,672.0908,404.3491,684.0908,275.9478,684.0908,263.9478,672.0908,275.9478,660.0908" style="stroke:#000000;stroke-width:1;"/><text fill="#000000" font-family="DejaVu Sans" font-size="11" lengthAdjust="spacing" textLength="128.4014" x="275.9478" y="676.0842">Hidden switch/bifurcation?</text><text fill="#000000" font-family="DejaVu Sans" font-size="11" lengthAdjust="spacing" textLength="17.1177" x="246.8301" y="669.7598">yes</text><text fill="#000000" font-family="DejaVu Sans" font-size="11" lengthAdjust="spacing" textLength="12.2354" x="416.3491" y="669.7598">no</text><rect fill="#FFFFFF" height="33.7988" rx="6" ry="6" style="stroke:#000000;stroke-width:1;" width="158.7324" x="79.4509" y="694.0908"/><text fill="#000000" font-family="DejaVu Sans" font-size="12" lengthAdjust="spacing" textLength="138.7324" x="89.4509" y="715.3467">Reject production-like role</text><ellipse cx="158.8171" cy="773.8896" fill="none" rx="11" ry="11" style="stroke:#000000;stroke-width:1;"/><ellipse cx="158.8171" cy="773.8896" fill="#FFFFFF" rx="6" ry="6" style="stroke:#000000;stroke-width:1;"/><polygon fill="#FFFFFF" points="449.3325,694.0908,593.627,694.0908,605.627,706.0908,593.627,718.0908,449.3325,718.0908,437.3325,706.0908,449.3325,694.0908" style="stroke:#000000;stroke-width:1;"/><text fill="#000000" font-family="DejaVu Sans" font-size="11" lengthAdjust="spacing" textLength="144.2944" x="449.3325" y="710.0842">Explicit managed CXL fabric?</text><text fill="#000000" font-family="DejaVu Sans" font-size="11" lengthAdjust="spacing" textLength="17.1177" x="420.2148" y="703.7598">yes</text><text fill="#000000" font-family="DejaVu Sans" font-size="11" lengthAdjust="spacing" textLength="12.2354" x="605.627" y="703.7598">no</text><rect fill="#FFFFFF" height="47.5977" rx="6" ry="6" style="stroke:#000000;stroke-width:1;" width="272.1465" x="268.1833" y="728.0908"/><text fill="#000000" font-family="DejaVu Sans" font-size="12" lengthAdjust="spacing" textLength="252.1465" x="278.1833" y="749.3467">Require fabric manager, pool ownership epoch,</text><text fill="#000000" font-family="DejaVu Sans" font-size="12" lengthAdjust="spacing" textLength="227.4492" x="278.1833" y="763.1455">RAS, p99 latency, bandwidth, failover drills</text><rect fill="#FFFFFF" height="33.7988" rx="6" ry="6" style="stroke:#000000;stroke-width:1;" width="156.7461" x="560.3298" y="728.0908"/><text fill="#000000" font-family="DejaVu Sans" font-size="12" lengthAdjust="spacing" textLength="136.7461" x="570.3298" y="749.3467">Direct-attached candidate</text><polygon fill="#FFFFFF" points="521.4797,781.6885,533.4797,793.6885,521.4797,805.6885,509.4797,793.6885,521.4797,781.6885" style="stroke:#000000;stroke-width:1;"/><polygon fill="#FFFFFF" points="289.4077,825.6885,390.8892,825.6885,402.8892,837.6885,390.8892,849.6885,289.4077,849.6885,277.4077,837.6885,289.4077,825.6885" style="stroke:#000000;stroke-width:1;"/><text fill="#000000" font-family="DejaVu Sans" font-size="11" lengthAdjust="spacing" textLength="101.4814" x="289.4077" y="841.6819">Telemetry sufficient?</text><text fill="#000000" font-family="DejaVu Sans" font-size="11" lengthAdjust="spacing" textLength="17.1177" x="260.29" y="835.3574">yes</text><text fill="#000000" font-family="DejaVu Sans" font-size="11" lengthAdjust="spacing" textLength="12.2354" x="402.8892" y="835.3574">no</text><rect fill="#FFFFFF" height="33.7988" rx="6" ry="6" style="stroke:#000000;stroke-width:1;" width="267.125" x="68.792" y="859.6885"/><text fill="#000000" font-family="DejaVu Sans" font-size="12" lengthAdjust="spacing" textLength="247.125" x="78.792" y="880.9443">Admit under Coherence-CE + scheduler policy</text><rect fill="#FFFFFF" height="33.7988" rx="6" ry="6" style="stroke:#000000;stroke-width:1;" width="244.0508" x="355.917" y="859.6885"/><text fill="#000000" font-family="DejaVu Sans" font-size="12" lengthAdjust="spacing" textLength="224.0508" x="365.917" y="880.9443">AMBER/RED/DRAIN until telemetry exists</text><polygon fill="#FFFFFF" points="340.1484,899.4873,352.1484,911.4873,340.1484,923.4873,328.1484,911.4873,340.1484,899.4873" style="stroke:#000000;stroke-width:1;"/><ellipse cx="340.1484" cy="954.4873" fill="none" rx="11" ry="11" style="stroke:#000000;stroke-width:1;"/><ellipse cx="340.1484" cy="954.4873" fill="#FFFFFF" rx="6" ry="6" style="stroke:#000000;stroke-width:1;"/><line style="stroke:#000000;stroke-width:1;" x1="340.1484" x2="340.1484" y1="71.2979" y2="91.2979"/><polygon fill="#000000" points="336.1484,81.2979,340.1484,91.2979,344.1484,81.2979,340.1484,85.2979" style="stroke:#000000;stroke-width:1;"/><line style="stroke:#000000;stroke-width:1;" x1="178.7928" x2="178.7928" y1="212.8955" y2="247.8955"/><polygon fill="#000000" points="174.7928,237.8955,178.7928,247.8955,182.7928,237.8955,178.7928,241.8955" style="stroke:#000000;stroke-width:1;"/><line style="stroke:#000000;stroke-width:1;" x1="178.7928" x2="178.7928" y1="281.6943" y2="316.6943"/><polygon fill="#000000" points="174.7928,306.6943,178.7928,316.6943,182.7928,306.6943,178.7928,310.6943" style="stroke:#000000;stroke-width:1;"/><line style="stroke:#000000;stroke-width:1;" x1="634.1674" x2="634.1674" y1="246.8955" y2="281.8955"/><polygon fill="#000000" points="630.1674,271.8955,634.1674,281.8955,638.1674,271.8955,634.1674,275.8955" style="stroke:#000000;stroke-width:1;"/><line style="stroke:#000000;stroke-width:1;" x1="378.8407" x2="368.8407" y1="191.0967" y2="191.0967"/><line style="stroke:#000000;stroke-width:1;" x1="368.8407" x2="368.8407" y1="191.0967" y2="213.0967"/><polygon fill="#000000" points="364.8407,203.0967,368.8407,213.0967,372.8407,203.0967,368.8407,207.0967" style="stroke:#000000;stroke-width:1;"/><line style="stroke:#000000;stroke-width:1;" x1="624.1674" x2="634.1674" y1="191.0967" y2="191.0967"/><line style="stroke:#000000;stroke-width:1;" x1="634.1674" x2="634.1674" y1="191.0967" y2="213.0967"/><polygon fill="#000000" points="630.1674,203.0967,634.1674,213.0967,638.1674,203.0967,634.1674,207.0967" style="stroke:#000000;stroke-width:1;"/><line style="stroke:#000000;stroke-width:1;" x1="368.8407" x2="368.8407" y1="246.8955" y2="343.6943"/><line style="stroke:#000000;stroke-width:1;" x1="368.8407" x2="340.1484" y1="343.6943" y2="343.6943"/><line style="stroke:#000000;stroke-width:1;" x1="340.1484" x2="340.1484" y1="343.6943" y2="358.6943"/><polygon fill="#000000" points="336.1484,348.6943,340.1484,358.6943,344.1484,348.6943,340.1484,352.6943" style="stroke:#000000;stroke-width:1;"/><line style="stroke:#000000;stroke-width:1;" x1="265.7766" x2="178.7928" y1="157.0967" y2="157.0967"/><line style="stroke:#000000;stroke-width:1;" x1="178.7928" x2="178.7928" y1="157.0967" y2="179.0967"/><polygon fill="#000000" points="174.7928,169.0967,178.7928,179.0967,182.7928,169.0967,178.7928,173.0967" style="stroke:#000000;stroke-width:1;"/><line style="stroke:#000000;stroke-width:1;" x1="414.5203" x2="501.504" y1="157.0967" y2="157.0967"/><line style="stroke:#000000;stroke-width:1;" x1="501.504" x2="501.504" y1="157.0967" y2="179.0967"/><polygon fill="#000000" points="497.504,169.0967,501.504,179.0967,505.504,169.0967,501.504,173.0967" style="stroke:#000000;stroke-width:1;"/><line style="stroke:#000000;stroke-width:1;" x1="340.1484" x2="340.1484" y1="125.0967" y2="145.0967"/><polygon fill="#000000" points="336.1484,135.0967,340.1484,145.0967,344.1484,135.0967,340.1484,139.0967" style="stroke:#000000;stroke-width:1;"/><line style="stroke:#000000;stroke-width:1;" x1="178.7471" x2="178.7471" y1="426.4932" y2="446.4932"/><polygon fill="#000000" points="174.7471,436.4932,178.7471,446.4932,182.7471,436.4932,178.7471,440.4932" style="stroke:#000000;stroke-width:1;"/><line style="stroke:#000000;stroke-width:1;" x1="236.7458" x2="178.7471" y1="370.6943" y2="370.6943"/><line style="stroke:#000000;stroke-width:1;" x1="178.7471" x2="178.7471" y1="370.6943" y2="392.6943"/><polygon fill="#000000" points="174.7471,382.6943,178.7471,392.6943,182.7471,382.6943,178.7471,386.6943" style="stroke:#000000;stroke-width:1;"/><line style="stroke:#000000;stroke-width:1;" x1="443.551" x2="501.5498" y1="370.6943" y2="370.6943"/><line style="stroke:#000000;stroke-width:1;" x1="501.5498" x2="501.5498" y1="370.6943" y2="392.6943"/><polygon fill="#000000" points="497.5498,382.6943,501.5498,392.6943,505.5498,382.6943,501.5498,386.6943" style="stroke:#000000;stroke-width:1;"/><line style="stroke:#000000;stroke-width:1;" x1="178.7471" x2="178.7471" y1="480.292" y2="498.292"/><line style="stroke:#000000;stroke-width:1;" x1="178.7471" x2="328.1484" y1="498.292" y2="498.292"/><polygon fill="#000000" points="318.1484,494.292,328.1484,498.292,318.1484,502.292,322.1484,498.292" style="stroke:#000000;stroke-width:1;"/><line style="stroke:#000000;stroke-width:1;" x1="501.5498" x2="501.5498" y1="426.4932" y2="498.292"/><line style="stroke:#000000;stroke-width:1;" x1="501.5498" x2="352.1484" y1="498.292" y2="498.292"/><polygon fill="#000000" points="362.1484,494.292,352.1484,498.292,362.1484,502.292,358.1484,498.292" style="stroke:#000000;stroke-width:1;"/><line style="stroke:#000000;stroke-width:1;" x1="465.7783" x2="465.7783" y1="598.0908" y2="618.0908"/><polygon fill="#000000" points="461.7783,608.0908,465.7783,618.0908,469.7783,608.0908,465.7783,612.0908" style="stroke:#000000;stroke-width:1;"/><line style="stroke:#000000;stroke-width:1;" x1="224.5186" x2="214.5186" y1="542.292" y2="542.292"/><line style="stroke:#000000;stroke-width:1;" x1="214.5186" x2="214.5186" y1="542.292" y2="564.292"/><polygon fill="#000000" points="210.5186,554.292,214.5186,564.292,218.5186,554.292,214.5186,558.292" style="stroke:#000000;stroke-width:1;"/><line style="stroke:#000000;stroke-width:1;" x1="455.7783" x2="465.7783" y1="542.292" y2="542.292"/><line style="stroke:#000000;stroke-width:1;" x1="465.7783" x2="465.7783" y1="542.292" y2="564.292"/><polygon fill="#000000" points="461.7783,554.292,465.7783,564.292,469.7783,554.292,465.7783,558.292" style="stroke:#000000;stroke-width:1;"/><line style="stroke:#000000;stroke-width:1;" x1="214.5186" x2="214.5186" y1="598.0908" y2="645.0908"/><line style="stroke:#000000;stroke-width:1;" x1="214.5186" x2="340.1484" y1="645.0908" y2="645.0908"/><line style="stroke:#000000;stroke-width:1;" x1="340.1484" x2="340.1484" y1="645.0908" y2="660.0908"/><polygon fill="#000000" points="336.1484,650.0908,340.1484,660.0908,344.1484,650.0908,340.1484,654.0908" style="stroke:#000000;stroke-width:1;"/><line style="stroke:#000000;stroke-width:1;" x1="340.1484" x2="340.1484" y1="510.292" y2="530.292"/><polygon fill="#000000" points="336.1484,520.292,340.1484,530.292,344.1484,520.292,340.1484,524.292" style="stroke:#000000;stroke-width:1;"/><line style="stroke:#000000;stroke-width:1;" x1="158.8171" x2="158.8171" y1="727.8896" y2="762.8896"/><polygon fill="#000000" points="154.8171,752.8896,158.8171,762.8896,162.8171,752.8896,158.8171,756.8896" style="stroke:#000000;stroke-width:1;"/><line style="stroke:#000000;stroke-width:1;" x1="437.3325" x2="404.2566" y1="706.0908" y2="706.0908"/><line style="stroke:#000000;stroke-width:1;" x1="404.2566" x2="404.2566" y1="706.0908" y2="728.0908"/><polygon fill="#000000" points="400.2566,718.0908,404.2566,728.0908,408.2566,718.0908,404.2566,722.0908" style="stroke:#000000;stroke-width:1;"/><line style="stroke:#000000;stroke-width:1;" x1="605.627" x2="638.7029" y1="706.0908" y2="706.0908"/><line style="stroke:#000000;stroke-width:1;" x1="638.7029" x2="638.7029" y1="706.0908" y2="728.0908"/><polygon fill="#000000" points="634.7029,718.0908,638.7029,728.0908,642.7029,718.0908,638.7029,722.0908" style="stroke:#000000;stroke-width:1;"/><line style="stroke:#000000;stroke-width:1;" x1="404.2566" x2="404.2566" y1="775.6885" y2="793.6885"/><line style="stroke:#000000;stroke-width:1;" x1="404.2566" x2="509.4797" y1="793.6885" y2="793.6885"/><polygon fill="#000000" points="499.4797,789.6885,509.4797,793.6885,499.4797,797.6885,503.4797,793.6885" style="stroke:#000000;stroke-width:1;"/><line style="stroke:#000000;stroke-width:1;" x1="638.7029" x2="638.7029" y1="761.8896" y2="793.6885"/><line style="stroke:#000000;stroke-width:1;" x1="638.7029" x2="533.4797" y1="793.6885" y2="793.6885"/><polygon fill="#000000" points="543.4797,789.6885,533.4797,793.6885,543.4797,797.6885,539.4797,793.6885" style="stroke:#000000;stroke-width:1;"/><line style="stroke:#000000;stroke-width:1;" x1="263.9478" x2="158.8171" y1="672.0908" y2="672.0908"/><line style="stroke:#000000;stroke-width:1;" x1="158.8171" x2="158.8171" y1="672.0908" y2="694.0908"/><polygon fill="#000000" points="154.8171,684.0908,158.8171,694.0908,162.8171,684.0908,158.8171,688.0908" style="stroke:#000000;stroke-width:1;"/><line style="stroke:#000000;stroke-width:1;" x1="416.3491" x2="521.4797" y1="672.0908" y2="672.0908"/><line style="stroke:#000000;stroke-width:1;" x1="521.4797" x2="521.4797" y1="672.0908" y2="694.0908"/><polygon fill="#000000" points="517.4797,684.0908,521.4797,694.0908,525.4797,684.0908,521.4797,688.0908" style="stroke:#000000;stroke-width:1;"/><line style="stroke:#000000;stroke-width:1;" x1="521.4797" x2="521.4797" y1="805.6885" y2="810.6885"/><line style="stroke:#000000;stroke-width:1;" x1="521.4797" x2="340.1484" y1="810.6885" y2="810.6885"/><line style="stroke:#000000;stroke-width:1;" x1="340.1484" x2="340.1484" y1="810.6885" y2="825.6885"/><polygon fill="#000000" points="336.1484,815.6885,340.1484,825.6885,344.1484,815.6885,340.1484,819.6885" style="stroke:#000000;stroke-width:1;"/><line style="stroke:#000000;stroke-width:1;" x1="277.4077" x2="202.3545" y1="837.6885" y2="837.6885"/><line style="stroke:#000000;stroke-width:1;" x1="202.3545" x2="202.3545" y1="837.6885" y2="859.6885"/><polygon fill="#000000" points="198.3545,849.6885,202.3545,859.6885,206.3545,849.6885,202.3545,853.6885" style="stroke:#000000;stroke-width:1;"/><line style="stroke:#000000;stroke-width:1;" x1="402.8892" x2="477.9424" y1="837.6885" y2="837.6885"/><line style="stroke:#000000;stroke-width:1;" x1="477.9424" x2="477.9424" y1="837.6885" y2="859.6885"/><polygon fill="#000000" points="473.9424,849.6885,477.9424,859.6885,481.9424,849.6885,477.9424,853.6885" style="stroke:#000000;stroke-width:1;"/><line style="stroke:#000000;stroke-width:1;" x1="202.3545" x2="202.3545" y1="893.4873" y2="911.4873"/><line style="stroke:#000000;stroke-width:1;" x1="202.3545" x2="328.1484" y1="911.4873" y2="911.4873"/><polygon fill="#000000" points="318.1484,907.4873,328.1484,911.4873,318.1484,915.4873,322.1484,911.4873" style="stroke:#000000;stroke-width:1;"/><line style="stroke:#000000;stroke-width:1;" x1="477.9424" x2="477.9424" y1="893.4873" y2="911.4873"/><line style="stroke:#000000;stroke-width:1;" x1="477.9424" x2="352.1484" y1="911.4873" y2="911.4873"/><polygon fill="#000000" points="362.1484,907.4873,352.1484,911.4873,362.1484,915.4873,358.1484,911.4873" style="stroke:#000000;stroke-width:1;"/><line style="stroke:#000000;stroke-width:1;" x1="340.1484" x2="340.1484" y1="923.4873" y2="943.4873"/><polygon fill="#000000" points="336.1484,933.4873,340.1484,943.4873,344.1484,933.4873,340.1484,937.4873" style="stroke:#000000;stroke-width:1;"/><?plantuml-src TLHDRzim3BtxLt2t5ejdTC0ERGv3cgJhW2KhdBGRXbraYQxLoA8goKloxqSvJPUssSM0JP7lWqz-5nji4PmHscPHHuDmu-a1POGnDUZHHbX4yk8U8OVnpszGab2jS311gOCc2qkFc8MLjavuqK9eXAArjlTG2nCEAvuwgoHvYnxEFXuK5DQYC_6AR9mBPZF11t7NmKBOa6KX2X-pYx4H8UXw2_mUSPZf6av6Cke_J1vz7cc5bWT9KlZv55YLXPCjXjCCuE8s87ovkONhonaKO4WA0vDoD1kcueJ0KkHMXrO1ws6HgH0YkGnP0PnOIcCIuW_Xsm5ux8Ae30wWnIYKY680vFcpfDPrCPLUSs2WiR1Ays7iRLoU5Skp3vyIqY784zllJERNrQAWAgsYcD_D4A96F-oFzDIuZ-VLsUwPoDsW3pf4j1APosEdFIgecHXxpjoYnH3UU5Fk3kuHyqh85RTnbzkFYqN5dgtonquONMkkjgYqwDsx8oEYDZjDKjXa9Ky0rNbHQQFZTlZ2n9SDhU1zTiwHZpop9Ry5t3XUE-TgUA2i98fvCjVWffZVpaOfi9A3o-byPlL6sfZpf6s7hnYKsCURQR1JspmWm_KvwWB-M_mpzhLMYgU6jOwoAIfTTrwo0h97hEm7Eq-ga-b4RlIALq46_nkewSOPBJNB5vRlcEfjgKNbjJmIeVsoTWUUUlm07941MlF52ersW8vaC_Xjoz62Q-VdUwq3g3Y3QwrYC-0Psj0VlehAQsF2aI1ET4fDBc8Kic5gSX_WuP7mBT7mFg9F2wrhbiIxUUFGIBKibVy23FlqUv6OZwVm7aA2w0mN7B4ZhsCpcbrEowASJWg-k5_dF8D31F4P53SSrR3FJBBwBm00?></g></svg>