<?plantuml 1.2026.1?><svg xmlns="http://www.w3.org/2000/svg" xmlns:xlink="http://www.w3.org/1999/xlink" contentStyleType="text/css" data-diagram-type="DESCRIPTION" height="541px" preserveAspectRatio="none" style="width:911px;height:541px;background:#FFFFFF;" version="1.1" viewBox="0 0 911 541" width="911px" zoomAndPan="magnify"><title>Heterogeneous GP-GPU Scheduler Capability Profiles</title><defs/><g><g class="title" data-source-line="2"><text fill="#000000" font-family="DejaVu Sans" font-size="22" font-weight="bold" lengthAdjust="spacing" textLength="563.5781" x="169.4209" y="35.6357">Heterogeneous GP-GPU Scheduler Capability Profiles</text></g><!--cluster P--><g class="cluster" data-qualified-name="P" data-source-line="8" id="ent0002"><rect fill="#D6EAF8" height="294" rx="6" ry="6" style="stroke:#000000;stroke-width:1;" width="893.42" x="12" y="58.2979"/><text fill="#000000" font-family="DejaVu Sans" font-size="14" font-weight="bold" lengthAdjust="spacing" textLength="114.3584" x="401.5308" y="73.4297">Capability Profile</text></g><!--entity Vendor/runtime--><g class="entity" data-qualified-name="P.Vendor.runtime" data-source-line="9" id="ent0003"><rect fill="#FFFFFF" height="46.0986" rx="6" ry="6" style="stroke:#000000;stroke-width:1;" width="135.7168" x="65.18" y="263.2479"/><rect fill="#FFFFFF" height="10" style="stroke:#000000;stroke-width:1;" width="15" x="180.8968" y="268.2479"/><rect fill="#FFFFFF" height="2" style="stroke:#000000;stroke-width:1;" width="4" x="178.8968" y="270.2479"/><rect fill="#FFFFFF" height="2" style="stroke:#000000;stroke-width:1;" width="4" x="178.8968" y="274.2479"/><text fill="#000000" font-family="DejaVu Sans" font-size="14" lengthAdjust="spacing" textLength="95.7168" x="80.18" y="296.3797">Vendor/runtime</text></g><!--entity HBM capacity/bandwidth--><g class="entity" data-qualified-name="P.HBM capacity.bandwidth" data-source-line="10" id="ent0004"><rect fill="#FFFFFF" height="46.0986" rx="6" ry="6" style="stroke:#000000;stroke-width:1;" width="194.0752" x="36" y="182.2479"/><rect fill="#FFFFFF" height="10" style="stroke:#000000;stroke-width:1;" width="15" x="210.0752" y="187.2479"/><rect fill="#FFFFFF" height="2" style="stroke:#000000;stroke-width:1;" width="4" x="208.0752" y="189.2479"/><rect fill="#FFFFFF" height="2" style="stroke:#000000;stroke-width:1;" width="4" x="208.0752" y="193.2479"/><text fill="#000000" font-family="DejaVu Sans" font-size="14" lengthAdjust="spacing" textLength="154.0752" x="51" y="215.3797">HBM capacity/bandwidth</text></g><!--entity Precision/compiler--><g class="entity" data-qualified-name="P.Precision.compiler" data-source-line="11" id="ent0005"><rect fill="#FFFFFF" height="46.0986" rx="6" ry="6" style="stroke:#000000;stroke-width:1;" width="154.3721" x="55.85" y="101.2479"/><rect fill="#FFFFFF" height="10" style="stroke:#000000;stroke-width:1;" width="15" x="190.2221" y="106.2479"/><rect fill="#FFFFFF" height="2" style="stroke:#000000;stroke-width:1;" width="4" x="188.2221" y="108.2479"/><rect fill="#FFFFFF" height="2" style="stroke:#000000;stroke-width:1;" width="4" x="188.2221" y="112.2479"/><text fill="#000000" font-family="DejaVu Sans" font-size="14" lengthAdjust="spacing" textLength="114.3721" x="70.85" y="134.3797">Precision/compiler</text></g><!--entity Collectives--><g class="entity" data-qualified-name="P.Collectives" data-source-line="12" id="ent0006"><rect fill="#FFFFFF" height="46.0986" rx="6" ry="6" style="stroke:#000000;stroke-width:1;" width="107.6895" x="338.52" y="263.2479"/><rect fill="#FFFFFF" height="10" style="stroke:#000000;stroke-width:1;" width="15" x="426.2095" y="268.2479"/><rect fill="#FFFFFF" height="2" style="stroke:#000000;stroke-width:1;" width="4" x="424.2095" y="270.2479"/><rect fill="#FFFFFF" height="2" style="stroke:#000000;stroke-width:1;" width="4" x="424.2095" y="274.2479"/><text fill="#000000" font-family="DejaVu Sans" font-size="14" lengthAdjust="spacing" textLength="67.6895" x="353.52" y="296.3797">Collectives</text></g><!--entity RDMA memory semantics--><g class="entity" data-qualified-name="P.RDMA memory semantics" data-source-line="13" id="ent0007"><rect fill="#FFFFFF" height="46.0986" rx="6" ry="6" style="stroke:#000000;stroke-width:1;" width="202.5791" x="291.08" y="182.2479"/><rect fill="#FFFFFF" height="10" style="stroke:#000000;stroke-width:1;" width="15" x="473.6591" y="187.2479"/><rect fill="#FFFFFF" height="2" style="stroke:#000000;stroke-width:1;" width="4" x="471.6591" y="189.2479"/><rect fill="#FFFFFF" height="2" style="stroke:#000000;stroke-width:1;" width="4" x="471.6591" y="193.2479"/><text fill="#000000" font-family="DejaVu Sans" font-size="14" lengthAdjust="spacing" textLength="162.5791" x="306.08" y="215.3797">RDMA memory semantics</text></g><!--entity UA-Link/NVLink/domain--><g class="entity" data-qualified-name="P.UA-Link.NVLink.domain" data-source-line="14" id="ent0008"><rect fill="#FFFFFF" height="46.0986" rx="6" ry="6" style="stroke:#000000;stroke-width:1;" width="188.6201" x="298.05" y="101.2479"/><rect fill="#FFFFFF" height="10" style="stroke:#000000;stroke-width:1;" width="15" x="466.6701" y="106.2479"/><rect fill="#FFFFFF" height="2" style="stroke:#000000;stroke-width:1;" width="4" x="464.6701" y="108.2479"/><rect fill="#FFFFFF" height="2" style="stroke:#000000;stroke-width:1;" width="4" x="464.6701" y="112.2479"/><text fill="#000000" font-family="DejaVu Sans" font-size="14" lengthAdjust="spacing" textLength="148.6201" x="313.05" y="134.3797">UA-Link/NVLink/domain</text></g><!--entity CXL reachability--><g class="entity" data-qualified-name="P.CXL reachability" data-source-line="15" id="ent0009"><rect fill="#FFFFFF" height="46.0986" rx="6" ry="6" style="stroke:#000000;stroke-width:1;" width="141.9375" x="739.48" y="263.2479"/><rect fill="#FFFFFF" height="10" style="stroke:#000000;stroke-width:1;" width="15" x="861.4175" y="268.2479"/><rect fill="#FFFFFF" height="2" style="stroke:#000000;stroke-width:1;" width="4" x="859.4175" y="270.2479"/><rect fill="#FFFFFF" height="2" style="stroke:#000000;stroke-width:1;" width="4" x="859.4175" y="274.2479"/><text fill="#000000" font-family="DejaVu Sans" font-size="14" lengthAdjust="spacing" textLength="101.9375" x="754.48" y="296.3797">CXL reachability</text></g><!--entity DPU/NIC affinity--><g class="entity" data-qualified-name="P.DPU.NIC affinity" data-source-line="16" id="ent0010"><rect fill="#FFFFFF" height="46.0986" rx="6" ry="6" style="stroke:#000000;stroke-width:1;" width="141.9102" x="739.49" y="182.2479"/><rect fill="#FFFFFF" height="10" style="stroke:#000000;stroke-width:1;" width="15" x="861.4002" y="187.2479"/><rect fill="#FFFFFF" height="2" style="stroke:#000000;stroke-width:1;" width="4" x="859.4002" y="189.2479"/><rect fill="#FFFFFF" height="2" style="stroke:#000000;stroke-width:1;" width="4" x="859.4002" y="193.2479"/><text fill="#000000" font-family="DejaVu Sans" font-size="14" lengthAdjust="spacing" textLength="101.9102" x="754.49" y="215.3797">DPU/NIC affinity</text></g><!--entity W--><g class="entity" data-qualified-name="W" data-source-line="18" id="ent0011"><rect fill="#FCF3CF" height="62.1973" rx="6" ry="6" style="stroke:#000000;stroke-width:1;" width="192.5166" x="36.78" y="398.1979"/><rect fill="#FCF3CF" height="10" style="stroke:#000000;stroke-width:1;" width="15" x="209.2966" y="403.1979"/><rect fill="#FCF3CF" height="2" style="stroke:#000000;stroke-width:1;" width="4" x="207.2966" y="405.1979"/><rect fill="#FCF3CF" height="2" style="stroke:#000000;stroke-width:1;" width="4" x="207.2966" y="409.1979"/><text fill="#000000" font-family="DejaVu Sans" font-size="14" lengthAdjust="spacing" textLength="109.7168" x="51.78" y="431.3297">Workload request</text><text fill="#000000" font-family="DejaVu Sans" font-size="14" lengthAdjust="spacing" textLength="152.5166" x="51.78" y="447.4283">model + KV class + SLO</text></g><!--entity S--><g class="entity" data-qualified-name="S" data-source-line="19" id="ent0012"><rect fill="#D5F5E3" height="46.0986" rx="6" ry="6" style="stroke:#000000;stroke-width:1;" width="103.041" x="340.84" y="406.2479"/><rect fill="#D5F5E3" height="10" style="stroke:#000000;stroke-width:1;" width="15" x="423.881" y="411.2479"/><rect fill="#D5F5E3" height="2" style="stroke:#000000;stroke-width:1;" width="4" x="421.881" y="413.2479"/><rect fill="#D5F5E3" height="2" style="stroke:#000000;stroke-width:1;" width="4" x="421.881" y="417.2479"/><text fill="#000000" font-family="DejaVu Sans" font-size="14" lengthAdjust="spacing" textLength="63.041" x="355.84" y="439.3797">Scheduler</text></g><!--entity CE--><g class="entity" data-qualified-name="CE" data-source-line="20" id="ent0013"><rect fill="#E8DAEF" height="46.0986" rx="6" ry="6" style="stroke:#000000;stroke-width:1;" width="132.5996" x="744.15" y="384.2479"/><rect fill="#E8DAEF" height="10" style="stroke:#000000;stroke-width:1;" width="15" x="856.7496" y="389.2479"/><rect fill="#E8DAEF" height="2" style="stroke:#000000;stroke-width:1;" width="4" x="854.7496" y="391.2479"/><rect fill="#E8DAEF" height="2" style="stroke:#000000;stroke-width:1;" width="4" x="854.7496" y="395.2479"/><text fill="#000000" font-family="DejaVu Sans" font-size="14" lengthAdjust="spacing" textLength="92.5996" x="759.15" y="417.3797">Coherence-CE</text></g><!--entity G--><g class="entity" data-qualified-name="G" data-source-line="21" id="ent0014"><rect fill="#FADBD8" height="62.1973" rx="6" ry="6" style="stroke:#000000;stroke-width:1;" width="167.5859" x="726.65" y="473.1979"/><rect fill="#FADBD8" height="10" style="stroke:#000000;stroke-width:1;" width="15" x="874.2359" y="478.1979"/><rect fill="#FADBD8" height="2" style="stroke:#000000;stroke-width:1;" width="4" x="872.2359" y="480.1979"/><rect fill="#FADBD8" height="2" style="stroke:#000000;stroke-width:1;" width="4" x="872.2359" y="484.1979"/><text fill="#000000" font-family="DejaVu Sans" font-size="14" lengthAdjust="spacing" textLength="127.5859" x="741.65" y="506.3297">NVIDIA / AMD / Intel</text><text fill="#000000" font-family="DejaVu Sans" font-size="14" lengthAdjust="spacing" textLength="67.6963" x="741.65" y="522.4283">GPU pools</text></g><!--link W to S--><g class="link" data-entity-1="ent0011" data-entity-2="ent0012" data-link-type="dependency" data-source-line="23" id="lnk15"><path d="M229.49,429.2979 C267.11,429.2979 302.79,429.2979 334.44,429.2979" fill="none" id="W-to-S" style="stroke:#000000;stroke-width:1;"/><polygon fill="#000000" points="340.44,429.2979,331.44,425.2979,335.44,429.2979,331.44,433.2979,340.44,429.2979" style="stroke:#000000;stroke-width:1;"/></g><!--link P to S--><g class="link" data-entity-1="ent0002" data-entity-2="ent0012" data-link-type="dependency" data-source-line="24" id="lnk16"><path d="M158.4164,352.3534 C158.8544,352.498 159.2973,352.6443 159.7449,352.7921 C160.6403,353.0878 161.5547,353.3898 162.4876,353.6979 C164.3534,354.3141 166.2929,354.9547 168.3006,355.6178 C172.3159,356.9439 176.604,358.3602 181.1203,359.8518 C190.1529,362.8351 200.0984,366.12 210.6013,369.5891 C252.6125,383.4654 297.8429,398.4057 334.9229,410.6557" fill="none" id="P-to-S" style="stroke:#000000;stroke-width:1;"/><polygon fill="#000000" points="340.62,412.5379,333.329,405.9165,335.8724,410.9694,330.8195,413.5127,340.62,412.5379" style="stroke:#000000;stroke-width:1;"/></g><!--link S to G--><g class="link" data-entity-1="ent0012" data-entity-2="ent0014" data-link-type="dependency" data-source-line="25" id="lnk17"><path d="M444.11,451.4679 C467.84,460.9279 496.74,471.1779 523.65,477.2979 C590.84,492.5779 662.8176,498.9267 720.3276,501.8167" fill="none" id="S-to-G" style="stroke:#000000;stroke-width:1;"/><polygon fill="#000000" points="726.32,502.1179,717.5321,497.6712,721.3263,501.8669,717.1306,505.6611,726.32,502.1179" style="stroke:#000000;stroke-width:1;"/><text fill="#000000" font-family="DejaVu Sans" font-size="13" lengthAdjust="spacing" textLength="104.0635" x="558.15" y="474.4917">eligible placement</text></g><!--link S to CE--><g class="link" data-entity-1="ent0012" data-entity-2="ent0013" data-link-type="dependency" data-source-line="26" id="lnk18"><path d="M444.38,426.5979 C519.79,422.6179 655.0184,415.4649 737.9684,411.0749" fill="none" id="S-to-CE" style="stroke:#000000;stroke-width:1;"/><polygon fill="#000000" points="743.96,410.7579,734.7612,407.2391,738.967,411.0221,735.184,415.2279,743.96,410.7579" style="stroke:#000000;stroke-width:1;"/><text fill="#000000" font-family="DejaVu Sans" font-size="13" lengthAdjust="spacing" textLength="133.3198" x="543.65" y="410.9917">placement + admission</text></g><!--link CE to S--><g class="link" data-entity-1="ent0013" data-entity-2="ent0012" data-link-type="dependency" data-source-line="27" id="lnk19"><path d="M753.32,430.8179 C735.52,437.1479 715.56,443.1279 696.65,446.2979 C608.76,461.0679 510.6604,449.9017 450.1104,439.9417" fill="none" id="CE-to-S" style="stroke:#000000;stroke-width:1;"/><polygon fill="#000000" points="444.19,438.9679,452.4214,444.3756,449.1237,439.7794,453.7199,436.4817,444.19,438.9679" style="stroke:#000000;stroke-width:1;"/><text fill="#000000" font-family="DejaVu Sans" font-size="13" lengthAdjust="spacing" textLength="171.8945" x="524.65" y="443.4917">TTFT/TPOT/KV/fabric metrics</text></g><?plantuml-src PL9DRzim3BthLt39SGYChUXGz330zKSQD4cDEN46h3ie4XrhaQbCabSKm_xxP3NOCknYok-HZqyYt_WEUuIJvegOLruZtAD7Qmv8Q0O7yseshxPGYmxbeD52nazyhxJoBr1PqogDZhcZeXEtl0VNSMcU5HsWvThX1MFDG58OIq7ZtViBGcBB1-rBGtxDWvSSl_5cW9gJOnfR3zw0LOVEWrGMXLU661iFd0x1xkH_GnFW3YgOvX-AjBo1dmpWIuCaZKtiG5xr-7M4xkzM84An2AN9dfDyLj9taQg2ldAXKo9CVmgIDiAPqNfqy0DT_F-KhrBeiJVs1HpsF6YBLsQRpfQAZicwYK6QFZpmgyRd9LZaeZkRZc1URPFr8WFUjeeY-8kDdGqXUPZiZ3rgmsKe_3wWyq_K6uaQti930q9pvyAnNZx6Y-zWMcRbLLPUAloPNqofmzjSbzV5rMLAPZgqI09dMH6piWAcnKsU5lyehPj5laWXWNILX--2FEed6dVaP8nsiN8UBAJvNNx3s0vciuzGi-eSwnZdS0kerK7jTLm-4PQG_9aCVM__Wk5cNFRAZTDWWOeo8M6pAJV9fdhS90zDqlAzLIACmeVWVWC0?></g></svg>