<?plantuml 1.2026.1?><svg xmlns="http://www.w3.org/2000/svg" xmlns:xlink="http://www.w3.org/1999/xlink" contentStyleType="text/css" data-diagram-type="DESCRIPTION" height="489px" preserveAspectRatio="none" style="width:1525px;height:489px;background:#FFFFFF;" version="1.1" viewBox="0 0 1525 489" width="1525px" zoomAndPan="magnify"><title>Pod-Scale Planes: UA-Link, CXL, RoCEv2, DPU Storage</title><defs/><g><g class="title" data-source-line="2"><text fill="#000000" font-family="DejaVu Sans" font-size="22" font-weight="bold" lengthAdjust="spacing" textLength="580.6797" x="467.8152" y="35.6357">Pod-Scale Planes: UA-Link, CXL, RoCEv2, DPU Storage</text></g><!--cluster Pod--><g class="cluster" data-qualified-name="Pod" data-source-line="10" id="ent0004"><rect fill="#FCF3CF" height="210" rx="6" ry="6" style="stroke:#000000;stroke-width:1;" width="683.63" x="592.43" y="136.3979"/><text fill="#000000" font-family="DejaVu Sans" font-size="14" font-weight="bold" lengthAdjust="spacing" textLength="190.6064" x="838.9418" y="151.5297">Pod / Rack Scale-Up Domain</text></g><!--cluster SO--><g class="cluster" data-qualified-name="SO" data-source-line="15" id="ent0008"><rect fill="#D5F5E3" height="113" rx="6" ry="6" style="stroke:#000000;stroke-width:1;" width="900.41" x="618.9" y="370.3979"/><text fill="#000000" font-family="DejaVu Sans" font-size="14" font-weight="bold" lengthAdjust="spacing" textLength="178.1719" x="980.0191" y="385.5297">Scale-Out / Storage Planes</text></g><!--entity GPU--><g class="entity" data-qualified-name="Pod.GPU" data-source-line="11" id="ent0005"><rect fill="#FFFFFF" height="62.1973" rx="6" ry="6" style="stroke:#000000;stroke-width:1;" width="175.3789" x="646.18" y="171.2979"/><rect fill="#FFFFFF" height="10" style="stroke:#000000;stroke-width:1;" width="15" x="801.5589" y="176.2979"/><rect fill="#FFFFFF" height="2" style="stroke:#000000;stroke-width:1;" width="4" x="799.5589" y="178.2979"/><rect fill="#FFFFFF" height="2" style="stroke:#000000;stroke-width:1;" width="4" x="799.5589" y="182.2979"/><text fill="#000000" font-family="DejaVu Sans" font-size="14" lengthAdjust="spacing" textLength="135.3789" x="661.18" y="204.4297">GP-GPU / xPU nodes</text><text fill="#000000" font-family="DejaVu Sans" font-size="14" lengthAdjust="spacing" textLength="127.5859" x="661.18" y="220.5283">NVIDIA / AMD / Intel</text></g><!--entity UAL--><g class="entity" data-qualified-name="Pod.UAL" data-source-line="12" id="ent0006"><rect fill="#FFFFFF" height="62.1973" rx="6" ry="6" style="stroke:#000000;stroke-width:1;" width="226.751" x="1033.31" y="171.2979"/><rect fill="#FFFFFF" height="10" style="stroke:#000000;stroke-width:1;" width="15" x="1240.061" y="176.2979"/><rect fill="#FFFFFF" height="2" style="stroke:#000000;stroke-width:1;" width="4" x="1238.061" y="178.2979"/><rect fill="#FFFFFF" height="2" style="stroke:#000000;stroke-width:1;" width="4" x="1238.061" y="182.2979"/><text fill="#000000" font-family="DejaVu Sans" font-size="14" lengthAdjust="spacing" textLength="144.7236" x="1048.31" y="204.4297">UA-Link scale-up fabric</text><text fill="#000000" font-family="DejaVu Sans" font-size="14" lengthAdjust="spacing" textLength="186.751" x="1048.31" y="220.5283">accelerator load/store/atomics</text></g><!--entity CXL--><g class="entity" data-qualified-name="Pod.CXL" data-source-line="13" id="ent0007"><rect fill="#FFFFFF" height="62.1973" rx="6" ry="6" style="stroke:#000000;stroke-width:1;" width="250.875" x="608.43" y="268.2979"/><rect fill="#FFFFFF" height="10" style="stroke:#000000;stroke-width:1;" width="15" x="839.305" y="273.2979"/><rect fill="#FFFFFF" height="2" style="stroke:#000000;stroke-width:1;" width="4" x="837.305" y="275.2979"/><rect fill="#FFFFFF" height="2" style="stroke:#000000;stroke-width:1;" width="4" x="837.305" y="279.2979"/><text fill="#000000" font-family="DejaVu Sans" font-size="14" lengthAdjust="spacing" textLength="116.7236" x="623.43" y="301.4297">CXL T1/T1.5 pools</text><text fill="#000000" font-family="DejaVu Sans" font-size="14" lengthAdjust="spacing" textLength="210.875" x="623.43" y="317.5283">warm KV, metadata, vector heads</text></g><!--entity RDMA--><g class="entity" data-qualified-name="SO.RDMA" data-source-line="16" id="ent0009"><rect fill="#FFFFFF" height="62.1973" rx="6" ry="6" style="stroke:#000000;stroke-width:1;" width="197.9375" x="634.9" y="405.2979"/><rect fill="#FFFFFF" height="10" style="stroke:#000000;stroke-width:1;" width="15" x="812.8375" y="410.2979"/><rect fill="#FFFFFF" height="2" style="stroke:#000000;stroke-width:1;" width="4" x="810.8375" y="412.2979"/><rect fill="#FFFFFF" height="2" style="stroke:#000000;stroke-width:1;" width="4" x="810.8375" y="416.2979"/><text fill="#000000" font-family="DejaVu Sans" font-size="14" lengthAdjust="spacing" textLength="157.9375" x="649.9" y="438.4297">RoCEv2/RDMA scale-out</text><text fill="#000000" font-family="DejaVu Sans" font-size="14" lengthAdjust="spacing" textLength="66.9033" x="649.9" y="454.5283">rail or Clos</text></g><!--entity DPU--><g class="entity" data-qualified-name="SO.DPU" data-source-line="17" id="ent0010"><rect fill="#FFFFFF" height="62.1973" rx="6" ry="6" style="stroke:#000000;stroke-width:1;" width="221.665" x="1035.85" y="405.2979"/><rect fill="#FFFFFF" height="10" style="stroke:#000000;stroke-width:1;" width="15" x="1237.515" y="410.2979"/><rect fill="#FFFFFF" height="2" style="stroke:#000000;stroke-width:1;" width="4" x="1235.515" y="412.2979"/><rect fill="#FFFFFF" height="2" style="stroke:#000000;stroke-width:1;" width="4" x="1235.515" y="416.2979"/><text fill="#000000" font-family="DejaVu Sans" font-size="14" lengthAdjust="spacing" textLength="102.6758" x="1050.85" y="438.4297">DPU / SmartNIC</text><text fill="#000000" font-family="DejaVu Sans" font-size="14" lengthAdjust="spacing" textLength="181.665" x="1050.85" y="454.5283">NVMe-oF + RDMA mediation</text></g><!--entity ZFS--><g class="entity" data-qualified-name="SO.ZFS" data-source-line="18" id="ent0011"><path d="M1323.06,415.7979 C1323.06,405.7979 1413.1874,405.7979 1413.1874,405.7979 C1413.1874,405.7979 1503.3149,405.7979 1503.3149,415.7979 L1503.3149,456.9951 C1503.3149,466.9951 1413.1874,466.9951 1413.1874,466.9951 C1413.1874,466.9951 1323.06,466.9951 1323.06,456.9951 L1323.06,415.7979" fill="#FFFFFF" style="stroke:#000000;stroke-width:1;"/><path d="M1323.06,415.7979 C1323.06,425.7979 1413.1874,425.7979 1413.1874,425.7979 C1413.1874,425.7979 1503.3149,425.7979 1503.3149,415.7979" fill="none" style="stroke:#000000;stroke-width:1;"/><text fill="#000000" font-family="DejaVu Sans" font-size="14" lengthAdjust="spacing" textLength="160.2549" x="1333.06" y="442.9297">OpenZFS mirrored NAND</text><text fill="#000000" font-family="DejaVu Sans" font-size="14" lengthAdjust="spacing" textLength="144.751" x="1333.06" y="459.0283">durable block substrate</text></g><!--entity Actor--><g class="entity" data-qualified-name="Actor" data-source-line="8" id="ent0002"><ellipse cx="70.917" cy="164.7979" fill="#FFFFFF" rx="8" ry="8" style="stroke:#000000;stroke-width:1;"/><path d="M70.917,172.7979 L70.917,199.7979 M57.917,180.7979 L83.917,180.7979 M70.917,199.7979 L57.917,214.7979 M70.917,199.7979 L83.917,214.7979" fill="none" style="stroke:#000000;stroke-width:1;"/><text fill="#000000" font-family="DejaVu Sans" font-size="14" lengthAdjust="spacing" textLength="119.834" x="11" y="229.9297">vLLM / OpenAI API</text><text fill="#000000" font-family="DejaVu Sans" font-size="14" lengthAdjust="spacing" textLength="100.3857" x="11" y="246.0283">Inference actors</text></g><!--entity CE--><g class="entity" data-qualified-name="CE" data-source-line="9" id="ent0003"><rect fill="#D6EAF8" height="62.1973" rx="6" ry="6" style="stroke:#000000;stroke-width:1;" width="132.5996" x="240.83" y="171.2979"/><rect fill="#D6EAF8" height="10" style="stroke:#000000;stroke-width:1;" width="15" x="353.4296" y="176.2979"/><rect fill="#D6EAF8" height="2" style="stroke:#000000;stroke-width:1;" width="4" x="351.4296" y="178.2979"/><rect fill="#D6EAF8" height="2" style="stroke:#000000;stroke-width:1;" width="4" x="351.4296" y="182.2979"/><text fill="#000000" font-family="DejaVu Sans" font-size="14" lengthAdjust="spacing" textLength="92.5996" x="255.83" y="204.4297">Coherence-CE</text><text fill="#000000" font-family="DejaVu Sans" font-size="14" lengthAdjust="spacing" textLength="88.6826" x="255.83" y="220.5283">Memory Mesh</text></g><!--entity Sched--><g class="entity" data-qualified-name="Sched" data-source-line="20" id="ent0012"><rect fill="#E8DAEF" height="62.1973" rx="6" ry="6" style="stroke:#000000;stroke-width:1;" width="169.958" x="648.89" y="58.2979"/><rect fill="#E8DAEF" height="10" style="stroke:#000000;stroke-width:1;" width="15" x="798.848" y="63.2979"/><rect fill="#E8DAEF" height="2" style="stroke:#000000;stroke-width:1;" width="4" x="796.848" y="65.2979"/><rect fill="#E8DAEF" height="2" style="stroke:#000000;stroke-width:1;" width="4" x="796.848" y="69.2979"/><text fill="#000000" font-family="DejaVu Sans" font-size="14" lengthAdjust="spacing" textLength="129.958" x="663.89" y="91.4297">Scheduler admission</text><text fill="#000000" font-family="DejaVu Sans" font-size="14" lengthAdjust="spacing" textLength="116.3203" x="663.89" y="107.5283">locality + telemetry</text></g><!--link Actor to CE--><g class="link" data-entity-1="ent0002" data-entity-2="ent0003" data-link-type="dependency" data-source-line="22" id="lnk13"><path d="M131.32,202.3979 C164.66,202.3979 200.32,202.3979 234.61,202.3979" fill="none" id="Actor-to-CE" style="stroke:#000000;stroke-width:1;"/><polygon fill="#000000" points="240.61,202.3979,231.61,198.3979,235.61,202.3979,231.61,206.3979,240.61,202.3979" style="stroke:#000000;stroke-width:1;"/><text fill="#000000" font-family="DejaVu Sans" font-size="13" lengthAdjust="spacing" textLength="48.4136" x="161.83" y="199.5917">API only</text></g><!--link CE to GPU--><g class="link" data-entity-1="ent0003" data-entity-2="ent0005" data-link-type="dependency" data-source-line="23" id="lnk14"><path d="M373.75,204.7379 C383.69,205.0079 393.83,205.2479 403.43,205.3979 C485.64,206.6879 573.401,205.698 639.821,204.478" fill="none" id="CE-to-GPU" style="stroke:#000000;stroke-width:1;"/><polygon fill="#000000" points="645.82,204.3679,636.7481,200.5338,640.8208,204.4597,636.895,208.5325,645.82,204.3679" style="stroke:#000000;stroke-width:1;"/><text fill="#000000" font-family="DejaVu Sans" font-size="13" lengthAdjust="spacing" textLength="156.1016" x="411.93" y="202.5917">hot KV / decode placement</text></g><!--link GPU to UAL--><g class="link" data-entity-1="ent0005" data-entity-2="ent0006" data-link-type="dependency" data-source-line="24" id="lnk15"><path d="M827.99,202.3979 C889.47,202.3979 960.38,202.3979 1026.9,202.3979" fill="none" id="GPU-UAL" style="stroke:#000000;stroke-width:1;"/><polygon fill="#000000" points="821.99,202.3979,830.99,206.3979,826.99,202.3979,830.99,198.3979,821.99,202.3979" style="stroke:#000000;stroke-width:1;"/><polygon fill="#000000" points="1032.9,202.3979,1023.9,198.3979,1027.9,202.3979,1023.9,206.3979,1032.9,202.3979" style="stroke:#000000;stroke-width:1;"/><text fill="#000000" font-family="DejaVu Sans" font-size="13" lengthAdjust="spacing" textLength="112.7153" x="890.31" y="199.5917">scale-up collectives</text></g><!--link CE to CXL--><g class="link" data-entity-1="ent0003" data-entity-2="ent0007" data-link-type="dependency" data-source-line="25" id="lnk16"><path d="M373.82,222.4379 C383.71,225.2379 393.82,227.9779 403.43,230.3979 C470.59,247.2679 540.2765,262.1313 602.0865,274.4913" fill="none" id="CE-to-CXL" style="stroke:#000000;stroke-width:1;"/><polygon fill="#000000" points="607.97,275.6679,599.9291,269.9807,603.0671,274.6874,598.3604,277.8254,607.97,275.6679" style="stroke:#000000;stroke-width:1;"/><text fill="#000000" font-family="DejaVu Sans" font-size="13" lengthAdjust="spacing" textLength="145.9517" x="417.43" y="227.5917">warm/recomputable state</text></g><!--link CE to RDMA--><g class="link" data-entity-1="ent0003" data-entity-2="ent0009" data-link-type="dependency" data-source-line="26" id="lnk17"><path d="M335.92,233.6279 C353.83,252.4179 378.38,275.8279 403.43,292.3979 C476.97,341.0379 564.0158,377.785 632.3258,402.795" fill="none" id="CE-to-RDMA" style="stroke:#000000;stroke-width:1;"/><polygon fill="#000000" points="637.96,404.8579,630.8839,398.0074,633.2648,403.1388,628.1334,405.5198,637.96,404.8579" style="stroke:#000000;stroke-width:1;"/><text fill="#000000" font-family="DejaVu Sans" font-size="13" lengthAdjust="spacing" textLength="166.918" x="406.93" y="289.5917">cross-pod / object / hydration</text></g><!--link RDMA to DPU--><g class="link" data-entity-1="ent0009" data-entity-2="ent0010" data-link-type="dependency" data-source-line="27" id="lnk18"><path d="M833.27,436.3979 C894.16,436.3979 966.45,436.3979 1029.42,436.3979" fill="none" id="RDMA-to-DPU" style="stroke:#000000;stroke-width:1;"/><polygon fill="#000000" points="1035.42,436.3979,1026.42,432.3979,1030.42,436.3979,1026.42,440.3979,1035.42,436.3979" style="stroke:#000000;stroke-width:1;"/></g><!--link DPU to ZFS--><g class="link" data-entity-1="ent0010" data-entity-2="ent0011" data-link-type="dependency" data-source-line="28" id="lnk19"><path d="M1257.94,436.3979 C1279.49,436.3979 1295.84,436.3979 1316.61,436.3979" fill="none" id="DPU-to-ZFS" style="stroke:#000000;stroke-width:1;"/><polygon fill="#000000" points="1322.61,436.3979,1313.61,432.3979,1317.61,436.3979,1313.61,440.3979,1322.61,436.3979" style="stroke:#000000;stroke-width:1;"/></g><!--link CE to Sched--><g class="link" data-entity-1="ent0003" data-entity-2="ent0012" data-link-type="dependency" data-source-line="29" id="lnk20"><path d="M340.21,170.8479 C357.52,155.7479 380.08,138.9179 403.43,129.3979 C482.39,97.1979 574.1611,88.9718 642.6011,87.6718" fill="none" id="CE-to-Sched" style="stroke:#000000;stroke-width:1;"/><polygon fill="#000000" points="648.6,87.5579,639.5257,83.7295,643.6009,87.6528,639.6776,91.7281,648.6,87.5579" style="stroke:#000000;stroke-width:1;"/><text fill="#000000" font-family="DejaVu Sans" font-size="13" lengthAdjust="spacing" textLength="41.8882" x="469.43" y="89.2417">metrics</text></g><!--link Sched to CE--><g class="link" data-entity-1="ent0012" data-entity-2="ent0003" data-link-type="dependency" data-source-line="30" id="lnk21"><path d="M663.05,120.9679 C636.37,132.1179 605.39,143.9579 576.43,152.3979 C566.7,155.2379 455.8331,175.5741 379.5831,189.4441" fill="none" id="Sched-to-CE" style="stroke:#000000;stroke-width:1;"/><polygon fill="#000000" points="373.68,190.5179,383.2506,192.8426,378.5993,189.623,381.8188,184.9717,373.68,190.5179" style="stroke:#000000;stroke-width:1;"/><text fill="#000000" font-family="DejaVu Sans" font-size="13" lengthAdjust="spacing" textLength="171.1899" x="404.43" y="149.5917">GREEN/AMBER/RED/DRAIN</text></g><?plantuml-src NPDTQzim58Rl_IlEqil5CstfA64CF7yKioGDILF6oCs9fCHkPSb8Sjemzjzt9ASbtOsHhVTyFUVr9rUBLa0diL6HQvmKiD0yNZ7q9ubAs0ciqtZQgESnPB-cOrZgh3XSZI5Vh67bjC6zYEnpepeqs8AjaUkNHkrXXzAUtnZTAywqKSB0vTNP1HSxxAKhjN9pf6PoyOIFFQnGsKYAdGEdmJJxsW5lZ62kqIgAa55f61scqnaaSDy9bLQGBggDgjHE6A6OWA2n8q0BgJz6JBUTLa8v66Mw7bHnLcpKJBJQ764cR1taMG4N-TSYBMyZNn7Ldd2CY0pLMY9xXW0eNdUGwvRGXI1_VL5cvNLMmfy8uApQtIA-8rm9lD9JQIxiHiqVgxnAwLiwo-bPAITao4FAZz4d_c13qRuZj5lJi8r2neGK1ZqAgP4dbauYeVUsOSFWwtJwCHdj41ukauVBBpVGQIsfanSqBVny74Ch779qE8Q327nhWNp8Gs7HttCO0u7xtb7l9nkS31FqgtiYU5FU5DV_inZyaoppMNgQIFTkemms4gXa9lMGmGi-HkO1uQf5u-PLvWdEABY4pq5BtVC6lJj2U1ue-ccsQAbVRv7VvGhQnXY2n66UplEDuht1BSspbPhMQlkjTSHJX1GafvdF6bYnMl2UY0Fojh6MQcqK1Q9it97Qe0tIt-JCSK3WrN1HtEPfKKPHi234yNVlhedtAcWbZn6z-O_U7nEejQDDq9HSCBA9_p4PfLGkylVVl90sIi9tBp0jfVyf3iA-fV8hde3VQa8Be_Px5sQqZYPx4mLa4s16MnjtmTbw-qIPw50VkGaaew3oSe_Jy_Tdp-MKPPXnufr3ZhJHyFu-vDsoAEP9EljHB9DbaIVvCgtc_m00?></g></svg>