<?plantuml 1.2026.1?><svg xmlns="http://www.w3.org/2000/svg" xmlns:xlink="http://www.w3.org/1999/xlink" contentStyleType="text/css" data-diagram-type="ACTIVITY" height="921px" preserveAspectRatio="none" style="width:1195px;height:921px;background:#FFFFFF;" version="1.1" viewBox="0 0 1195 921" width="1195px" zoomAndPan="magnify"><title>Project Coherent Storage - Prefix-Cache Namespace Modalities</title><defs/><g><g class="title" data-source-line="5"><text fill="#000000" font-family="DejaVu Sans" font-size="22" font-weight="bold" lengthAdjust="spacing" textLength="661.4287" x="265.2927" y="35.6357">Project Coherent Storage - Prefix-Cache Namespace Modalities</text></g><ellipse cx="603.3784" cy="61.2979" fill="#FFFFFF" rx="10" ry="10" style="stroke:#000000;stroke-width:1;"/><rect fill="#FFFFFF" height="33.7988" rx="6" ry="6" style="stroke:#000000;stroke-width:1;" width="265.4492" x="470.6538" y="91.2979"/><text fill="#000000" font-family="DejaVu Sans" font-size="12" lengthAdjust="spacing" textLength="245.4492" x="480.6538" y="112.5537">Client or adapter submits prefix-cache request</text><polygon fill="#FFFFFF" points="522.3501,145.0967,684.4067,145.0967,696.4067,157.0967,684.4067,169.0967,522.3501,169.0967,510.3501,157.0967,522.3501,145.0967" style="stroke:#000000;stroke-width:1;"/><text fill="#000000" font-family="DejaVu Sans" font-size="11" lengthAdjust="spacing" textLength="162.0566" x="522.3501" y="161.0901">operation is exact put/get/delete?</text><text fill="#000000" font-family="DejaVu Sans" font-size="11" lengthAdjust="spacing" textLength="17.1177" x="493.2324" y="154.7656">yes</text><text fill="#000000" font-family="DejaVu Sans" font-size="11" lengthAdjust="spacing" textLength="82.5483" x="696.4067" y="154.7656">search/invalidate</text><polygon fill="#FFFFFF" points="400.6719,179.0967,488.1133,179.0967,500.1133,191.0967,488.1133,203.0967,400.6719,203.0967,388.6719,191.0967,400.6719,179.0967" style="stroke:#000000;stroke-width:1;"/><text fill="#000000" font-family="DejaVu Sans" font-size="11" lengthAdjust="spacing" textLength="87.4414" x="400.6719" y="195.0901">prefix_id present?</text><text fill="#000000" font-family="DejaVu Sans" font-size="11" lengthAdjust="spacing" textLength="17.1177" x="371.5542" y="188.7656">yes</text><text fill="#000000" font-family="DejaVu Sans" font-size="11" lengthAdjust="spacing" textLength="12.2354" x="500.1133" y="188.7656">no</text><rect fill="#FFFFFF" height="33.7988" rx="6" ry="6" style="stroke:#000000;stroke-width:1;" width="68.0352" x="343.5117" y="213.0967"/><text fill="#000000" font-family="DejaVu Sans" font-size="12" lengthAdjust="spacing" textLength="48.0352" x="353.5117" y="234.3525">Continue</text><rect fill="#FFFFFF" height="33.7988" rx="6" ry="6" style="stroke:#000000;stroke-width:1;" width="159.418" x="431.5469" y="213.0967"/><text fill="#000000" font-family="DejaVu Sans" font-size="12" lengthAdjust="spacing" textLength="139.418" x="441.5469" y="234.3525">Reject 400 invalid_identity</text><ellipse cx="511.2559" cy="277.8955" fill="none" rx="11" ry="11" style="stroke:#000000;stroke-width:1;"/><ellipse cx="511.2559" cy="277.8955" fill="#FFFFFF" rx="6" ry="6" style="stroke:#000000;stroke-width:1;"/><rect fill="#FFFFFF" height="47.5977" rx="6" ry="6" style="stroke:#000000;stroke-width:1;" width="282.7988" x="620.9648" y="179.0967"/><text fill="#000000" font-family="DejaVu Sans" font-size="12" lengthAdjust="spacing" textLength="262.7988" x="630.9648" y="200.3525">Require request body with search vector, identity,</text><text fill="#000000" font-family="DejaVu Sans" font-size="12" lengthAdjust="spacing" textLength="176.7949" x="630.9648" y="214.1514">or bounded invalidation predicate</text><polygon fill="#FFFFFF" points="603.3784,298.8955,615.3784,310.8955,603.3784,322.8955,591.3784,310.8955,603.3784,298.8955" style="stroke:#000000;stroke-width:1;"/><polygon fill="#FFFFFF" points="127.2517,342.8955,212.26,342.8955,224.26,354.8955,212.26,366.8955,127.2517,366.8955,115.2517,354.8955,127.2517,342.8955" style="stroke:#000000;stroke-width:1;"/><text fill="#000000" font-family="DejaVu Sans" font-size="11" lengthAdjust="spacing" textLength="95.9922" x="173.7559" y="377.2134">Unified Namespace</text><text fill="#000000" font-family="DejaVu Sans" font-size="11" lengthAdjust="spacing" textLength="85.0083" x="127.2517" y="358.8889">mode == unified?</text><rect fill="#FFFFFF" height="47.5977" rx="6" ry="6" style="stroke:#000000;stroke-width:1;" width="327.5117" x="6" y="398.7134"/><text fill="#000000" font-family="DejaVu Sans" font-size="12" lengthAdjust="spacing" textLength="307.5117" x="16" y="419.9692">Use /prefix-cache/unified/{namespace}/prefixes/{prefix_id}</text><text fill="#000000" font-family="DejaVu Sans" font-size="12" lengthAdjust="spacing" textLength="105.3926" x="16" y="433.7681">for exact operations</text><rect fill="#FFFFFF" height="33.7988" rx="6" ry="6" style="stroke:#000000;stroke-width:1;" width="302.1699" x="18.6709" y="480.1099"/><text fill="#000000" font-family="DejaVu Sans" font-size="12" lengthAdjust="spacing" textLength="282.1699" x="28.6709" y="501.3657">Search/invalidate at unified search or invalidate route</text><rect fill="#FFFFFF" height="33.7988" rx="6" ry="6" style="stroke:#000000;stroke-width:1;" width="300.8281" x="19.3418" y="548.9087"/><text fill="#000000" font-family="DejaVu Sans" font-size="12" lengthAdjust="spacing" textLength="280.8281" x="29.3418" y="570.1646">Coherence-CE hides region/datacenter/mesh routing</text><polygon fill="#FFFFFF" points="552.9292,342.8955,708.8735,342.8955,720.8735,354.8955,708.8735,366.8955,552.9292,366.8955,540.9292,354.8955,552.9292,342.8955" style="stroke:#000000;stroke-width:1;"/><text fill="#000000" font-family="DejaVu Sans" font-size="11" lengthAdjust="spacing" textLength="164.479" x="634.9014" y="377.2134">Dimensional Indexed Namespace</text><text fill="#000000" font-family="DejaVu Sans" font-size="11" lengthAdjust="spacing" textLength="155.9443" x="552.9292" y="358.8889">mode == dimensional_indexed?</text><text fill="#000000" font-family="DejaVu Sans" font-size="11" lengthAdjust="spacing" textLength="57.4761" x="720.8735" y="352.5645">legacy alias</text><rect fill="#FFFFFF" height="33.7988" rx="6" ry="6" style="stroke:#000000;stroke-width:1;" width="256.8184" x="502.4922" y="398.7134"/><text fill="#000000" font-family="DejaVu Sans" font-size="12" lengthAdjust="spacing" textLength="236.8184" x="512.4922" y="419.9692">Require index_id and authorized dimensions</text><rect fill="#FFFFFF" height="33.7988" rx="6" ry="6" style="stroke:#000000;stroke-width:1;" width="456.9336" x="402.4346" y="466.311"/><text fill="#000000" font-family="DejaVu Sans" font-size="12" lengthAdjust="spacing" textLength="436.9336" x="412.4346" y="487.5669">Use /prefix-cache/dimensional/{namespace}/indexes/{index_id}/prefixes/{prefix_id}</text><rect fill="#FFFFFF" height="33.7988" rx="6" ry="6" style="stroke:#000000;stroke-width:1;" width="195.418" x="533.1924" y="535.1099"/><text fill="#000000" font-family="DejaVu Sans" font-size="12" lengthAdjust="spacing" textLength="175.418" x="543.1924" y="556.3657">Search/invalidate index-local first</text><polygon fill="#FFFFFF" points="575.8638,602.7075,685.939,602.7075,697.939,614.7075,685.939,626.7075,575.8638,626.7075,563.8638,614.7075,575.8638,602.7075" style="stroke:#000000;stroke-width:1;"/><text fill="#000000" font-family="DejaVu Sans" font-size="11" lengthAdjust="spacing" textLength="110.0752" x="575.8638" y="618.7009">escalation authorized?</text><text fill="#000000" font-family="DejaVu Sans" font-size="11" lengthAdjust="spacing" textLength="17.1177" x="546.7461" y="612.3765">yes</text><text fill="#000000" font-family="DejaVu Sans" font-size="11" lengthAdjust="spacing" textLength="12.2354" x="697.939" y="612.3765">no</text><rect fill="#FFFFFF" height="33.7988" rx="6" ry="6" style="stroke:#000000;stroke-width:1;" width="258.1484" x="355.2544" y="636.7075"/><text fill="#000000" font-family="DejaVu Sans" font-size="12" lengthAdjust="spacing" textLength="238.1484" x="365.2544" y="657.9634">Escalate to parent/region/global policy scope</text><rect fill="#FFFFFF" height="33.7988" rx="6" ry="6" style="stroke:#000000;stroke-width:1;" width="288.1426" x="633.4028" y="636.7075"/><text fill="#000000" font-family="DejaVu Sans" font-size="12" lengthAdjust="spacing" textLength="268.1426" x="643.4028" y="657.9634">Return local hit/miss or bounded invalidation result</text><polygon fill="#FFFFFF" points="630.9014,676.5063,642.9014,688.5063,630.9014,700.5063,618.9014,688.5063,630.9014,676.5063" style="stroke:#000000;stroke-width:1;"/><rect fill="#FFFFFF" height="47.5977" rx="6" ry="6" style="stroke:#000000;stroke-width:1;" width="257.4688" x="931.5454" y="522.4866"/><text fill="#000000" font-family="DejaVu Sans" font-size="12" lengthAdjust="spacing" textLength="230.8008" x="941.5454" y="543.7424">Allow /prefix-cache/{namespace}/{prefix_id}</text><text fill="#000000" font-family="DejaVu Sans" font-size="12" lengthAdjust="spacing" textLength="237.4688" x="941.5454" y="557.5413">only as deprecated Unified Namespace alias</text><rect fill="#FFFFFF" height="47.5977" rx="6" ry="6" style="stroke:#000000;stroke-width:1;" width="327.4824" x="439.6372" y="740.5063"/><text fill="#000000" font-family="DejaVu Sans" font-size="12" lengthAdjust="spacing" textLength="307.4824" x="449.6372" y="761.7622">Emit metrics by namespace_mode, namespace, index_id,</text><text fill="#000000" font-family="DejaVu Sans" font-size="12" lengthAdjust="spacing" textLength="182.1094" x="449.6372" y="775.561">cache_kind, locality_epoch, status</text><ellipse cx="603.3784" cy="819.104" fill="none" rx="11" ry="11" style="stroke:#000000;stroke-width:1;"/><ellipse cx="603.3784" cy="819.104" fill="#FFFFFF" rx="6" ry="6" style="stroke:#000000;stroke-width:1;"/><line style="stroke:#000000;stroke-width:1;" x1="603.3784" x2="603.3784" y1="71.2979" y2="91.2979"/><polygon fill="#000000" points="599.3784,81.2979,603.3784,91.2979,607.3784,81.2979,603.3784,85.2979" style="stroke:#000000;stroke-width:1;"/><line style="stroke:#000000;stroke-width:1;" x1="511.2559" x2="511.2559" y1="246.8955" y2="266.8955"/><polygon fill="#000000" points="507.2559,256.8955,511.2559,266.8955,515.2559,256.8955,511.2559,260.8955" style="stroke:#000000;stroke-width:1;"/><line style="stroke:#000000;stroke-width:1;" x1="388.6719" x2="377.5293" y1="191.0967" y2="191.0967"/><line style="stroke:#000000;stroke-width:1;" x1="377.5293" x2="377.5293" y1="191.0967" y2="213.0967"/><polygon fill="#000000" points="373.5293,203.0967,377.5293,213.0967,381.5293,203.0967,377.5293,207.0967" style="stroke:#000000;stroke-width:1;"/><line style="stroke:#000000;stroke-width:1;" x1="500.1133" x2="511.2559" y1="191.0967" y2="191.0967"/><line style="stroke:#000000;stroke-width:1;" x1="511.2559" x2="511.2559" y1="191.0967" y2="213.0967"/><polygon fill="#000000" points="507.2559,203.0967,511.2559,213.0967,515.2559,203.0967,511.2559,207.0967" style="stroke:#000000;stroke-width:1;"/><line style="stroke:#000000;stroke-width:1;" x1="377.5293" x2="377.5293" y1="246.8955" y2="310.8955"/><line style="stroke:#000000;stroke-width:1;" x1="377.5293" x2="591.3784" y1="310.8955" y2="310.8955"/><polygon fill="#000000" points="581.3784,306.8955,591.3784,310.8955,581.3784,314.8955,585.3784,310.8955" style="stroke:#000000;stroke-width:1;"/><line style="stroke:#000000;stroke-width:1;" x1="510.3501" x2="444.3926" y1="157.0967" y2="157.0967"/><line style="stroke:#000000;stroke-width:1;" x1="444.3926" x2="444.3926" y1="157.0967" y2="179.0967"/><polygon fill="#000000" points="440.3926,169.0967,444.3926,179.0967,448.3926,169.0967,444.3926,173.0967" style="stroke:#000000;stroke-width:1;"/><line style="stroke:#000000;stroke-width:1;" x1="696.4067" x2="762.3643" y1="157.0967" y2="157.0967"/><line style="stroke:#000000;stroke-width:1;" x1="762.3643" x2="762.3643" y1="157.0967" y2="179.0967"/><polygon fill="#000000" points="758.3643,169.0967,762.3643,179.0967,766.3643,169.0967,762.3643,173.0967" style="stroke:#000000;stroke-width:1;"/><line style="stroke:#000000;stroke-width:1;" x1="762.3643" x2="762.3643" y1="226.6943" y2="310.8955"/><line style="stroke:#000000;stroke-width:1;" x1="762.3643" x2="615.3784" y1="310.8955" y2="310.8955"/><polygon fill="#000000" points="625.3784,306.8955,615.3784,310.8955,625.3784,314.8955,621.3784,310.8955" style="stroke:#000000;stroke-width:1;"/><line style="stroke:#000000;stroke-width:1;" x1="603.3784" x2="603.3784" y1="125.0967" y2="145.0967"/><polygon fill="#000000" points="599.3784,135.0967,603.3784,145.0967,607.3784,135.0967,603.3784,139.0967" style="stroke:#000000;stroke-width:1;"/><line style="stroke:#000000;stroke-width:1;" x1="169.7559" x2="169.7559" y1="446.311" y2="480.1099"/><polygon fill="#000000" points="165.7559,470.1099,169.7559,480.1099,173.7559,470.1099,169.7559,474.1099" style="stroke:#000000;stroke-width:1;"/><line style="stroke:#000000;stroke-width:1;" x1="169.7559" x2="169.7559" y1="513.9087" y2="548.9087"/><polygon fill="#000000" points="165.7559,538.9087,169.7559,548.9087,173.7559,538.9087,169.7559,542.9087" style="stroke:#000000;stroke-width:1;"/><line style="stroke:#000000;stroke-width:1;" x1="630.9014" x2="630.9014" y1="432.5122" y2="466.311"/><polygon fill="#000000" points="626.9014,456.311,630.9014,466.311,634.9014,456.311,630.9014,460.311" style="stroke:#000000;stroke-width:1;"/><line style="stroke:#000000;stroke-width:1;" x1="630.9014" x2="630.9014" y1="500.1099" y2="535.1099"/><polygon fill="#000000" points="626.9014,525.1099,630.9014,535.1099,634.9014,525.1099,630.9014,529.1099" style="stroke:#000000;stroke-width:1;"/><line style="stroke:#000000;stroke-width:1;" x1="563.8638" x2="484.3286" y1="614.7075" y2="614.7075"/><line style="stroke:#000000;stroke-width:1;" x1="484.3286" x2="484.3286" y1="614.7075" y2="636.7075"/><polygon fill="#000000" points="480.3286,626.7075,484.3286,636.7075,488.3286,626.7075,484.3286,630.7075" style="stroke:#000000;stroke-width:1;"/><line style="stroke:#000000;stroke-width:1;" x1="697.939" x2="777.4741" y1="614.7075" y2="614.7075"/><line style="stroke:#000000;stroke-width:1;" x1="777.4741" x2="777.4741" y1="614.7075" y2="636.7075"/><polygon fill="#000000" points="773.4741,626.7075,777.4741,636.7075,781.4741,626.7075,777.4741,630.7075" style="stroke:#000000;stroke-width:1;"/><line style="stroke:#000000;stroke-width:1;" x1="484.3286" x2="484.3286" y1="670.5063" y2="688.5063"/><line style="stroke:#000000;stroke-width:1;" x1="484.3286" x2="618.9014" y1="688.5063" y2="688.5063"/><polygon fill="#000000" points="608.9014,684.5063,618.9014,688.5063,608.9014,692.5063,612.9014,688.5063" style="stroke:#000000;stroke-width:1;"/><line style="stroke:#000000;stroke-width:1;" x1="777.4741" x2="777.4741" y1="670.5063" y2="688.5063"/><line style="stroke:#000000;stroke-width:1;" x1="777.4741" x2="642.9014" y1="688.5063" y2="688.5063"/><polygon fill="#000000" points="652.9014,684.5063,642.9014,688.5063,652.9014,692.5063,648.9014,688.5063" style="stroke:#000000;stroke-width:1;"/><line style="stroke:#000000;stroke-width:1;" x1="630.9014" x2="630.9014" y1="568.9087" y2="602.7075"/><polygon fill="#000000" points="626.9014,592.7075,630.9014,602.7075,634.9014,592.7075,630.9014,596.7075" style="stroke:#000000;stroke-width:1;"/><line style="stroke:#000000;stroke-width:1;" x1="169.7559" x2="169.7559" y1="366.8955" y2="398.7134"/><polygon fill="#000000" points="165.7559,388.7134,169.7559,398.7134,173.7559,388.7134,169.7559,392.7134" style="stroke:#000000;stroke-width:1;"/><line style="stroke:#000000;stroke-width:1;" x1="169.7559" x2="169.7559" y1="582.7075" y2="720.5063"/><polygon fill="#000000" points="165.7559,710.5063,169.7559,720.5063,173.7559,710.5063,169.7559,714.5063" style="stroke:#000000;stroke-width:1;"/><line style="stroke:#000000;stroke-width:1;" x1="630.9014" x2="630.9014" y1="366.8955" y2="398.7134"/><polygon fill="#000000" points="626.9014,388.7134,630.9014,398.7134,634.9014,388.7134,630.9014,392.7134" style="stroke:#000000;stroke-width:1;"/><line style="stroke:#000000;stroke-width:1;" x1="630.9014" x2="630.9014" y1="700.5063" y2="720.5063"/><polygon fill="#000000" points="626.9014,710.5063,630.9014,720.5063,634.9014,710.5063,630.9014,714.5063" style="stroke:#000000;stroke-width:1;"/><line style="stroke:#000000;stroke-width:1;" x1="224.26" x2="540.9292" y1="354.8955" y2="354.8955"/><polygon fill="#000000" points="530.9292,350.8955,540.9292,354.8955,530.9292,358.8955,534.9292,354.8955" style="stroke:#000000;stroke-width:1;"/><line style="stroke:#000000;stroke-width:1;" x1="603.3784" x2="603.3784" y1="322.8955" y2="327.8955"/><line style="stroke:#000000;stroke-width:1;" x1="603.3784" x2="169.7559" y1="327.8955" y2="327.8955"/><line style="stroke:#000000;stroke-width:1;" x1="169.7559" x2="169.7559" y1="327.8955" y2="342.8955"/><polygon fill="#000000" points="165.7559,332.8955,169.7559,342.8955,173.7559,332.8955,169.7559,336.8955" style="stroke:#000000;stroke-width:1;"/><line style="stroke:#000000;stroke-width:1;" x1="720.8735" x2="1060.2798" y1="354.8955" y2="354.8955"/><line style="stroke:#000000;stroke-width:1;" x1="1060.2798" x2="1060.2798" y1="354.8955" y2="522.4866"/><polygon fill="#000000" points="1056.2798,512.4866,1060.2798,522.4866,1064.2798,512.4866,1060.2798,516.4866" style="stroke:#000000;stroke-width:1;"/><line style="stroke:#000000;stroke-width:1;" x1="1060.2798" x2="1060.2798" y1="570.0842" y2="720.5063"/><polygon fill="#000000" points="1056.2798,710.5063,1060.2798,720.5063,1064.2798,710.5063,1060.2798,714.5063" style="stroke:#000000;stroke-width:1;"/><line style="stroke:#000000;stroke-width:1;" x1="169.7559" x2="1060.2798" y1="720.5063" y2="720.5063"/><line style="stroke:#000000;stroke-width:1;" x1="603.3784" x2="603.3784" y1="720.5063" y2="740.5063"/><polygon fill="#000000" points="599.3784,730.5063,603.3784,740.5063,607.3784,730.5063,603.3784,734.5063" style="stroke:#000000;stroke-width:1;"/><line style="stroke:#000000;stroke-width:1;" x1="603.3784" x2="603.3784" y1="788.104" y2="808.104"/><polygon fill="#000000" points="599.3784,798.104,603.3784,808.104,607.3784,798.104,603.3784,802.104" style="stroke:#000000;stroke-width:1;"/><g class="legend" data-source-line="36"><rect fill="none" height="74.3945" rx="6" ry="6" style="stroke:#000000;stroke-width:1;" width="371.1016" x="810.9126" y="834.104"/><text fill="#000000" font-family="DejaVu Sans" font-size="14" lengthAdjust="spacing" textLength="173.5303" x="815.9126" y="852.2358">Recommended dimensions:</text><text fill="#000000" font-family="DejaVu Sans" font-size="14" lengthAdjust="spacing" textLength="328.4258" x="815.9126" y="868.3345">- tenant_id, region, datacenter, mesh_pool, pod, rack</text><text fill="#000000" font-family="DejaVu Sans" font-size="14" lengthAdjust="spacing" textLength="361.1016" x="815.9126" y="884.4331">- model_id, tokenizer_id, adapter_id, runtime_profile_hash</text><text fill="#000000" font-family="DejaVu Sans" font-size="14" lengthAdjust="spacing" textLength="275.4746" x="815.9126" y="900.5317">- durability_class, locality_epoch, data_class</text></g><?plantuml-src TLJ1Rjim3BtxAxXR2pXmD-oKO1Y6j0Dss32qw4u33CMYOxQov4fqswpelu-o7CTDsqCE3id7nyT7VU06MuJEAB9Pk2NRAQzQ28tIxe7i5cfb0iuYtlLMLyvRzF3nqooWiLQzuU_EyYybaETue_xqSALio9ZO8FpsxWOhXhLhqADbk6BdrHPX8I6iwN6nLbM34Cj3fog4dquhGqmOii3ASxPS6ugLpeFIgcCX4VfDInoWIn3L0E7nhiV0gungE74TUiNaB500V5H2eUkvs28N6WqoVZq5aS72oGx3QGOGYn9SIJe21-bvd0ImNCkiP7jSoIUAJ71YtHYwn67KpsTdGFPUXj029IZ4kzMG4TXriSngghDK753vgYd6VCKOiGJfhYS_ZGGRftVmGDn0oeTxQUHy3dly_AyLUJPnJwXXGelpooYQAa5UPQbndBHr6k7B5-WjrOHwclCwVH_MCT2v5gR5NEjYh2kUx3xnUKp0K3nDEZx_jRNmIlfFAmbHZUNLyUIWUCzdFwRKpk9YGnvqNuvkgd2nle16H0WYrLQW2qaKCbPCKWYnPgWHIwy6kUUJQshH1YbHfYHHxN6cmlaX1ZzIx4YH_OA6ocWOPUNNS-Cy_PFi2JtD-bh0MViN8YOgek4U-MrTtr5mA5eOLmdncdmyXkHi3F9NyiE1vHlklaXv2En0Jbo4B4PXjyPj1BLpXgeTX4gs-UO9SEyj90ODST5I2F2UDUN8vFLO7Ps4mQsI5fAc1bhBRyQuXoFzvfgzy9kpHcg3F4toRxIzXbUcJjZxUrXUo5i2BRAdAi1c1nDq6SsI7xxpQTzoRmEFKfv2dQTvvGnBx5pLv7BeYdjfC1oyp2EDmDEsuUmIAzVAwlKBaoop1J1QPJbYZrxEuM3c7AARoyuvayiEOewgRgKgCZH34RjRjB9MFtoDBsM2w-MDQB7ilAl9ODceq4YfxhtQq42xCYg4rsF4_YaMfKfp_0S0?></g></svg>