<?plantuml 1.2026.1?><svg xmlns="http://www.w3.org/2000/svg" xmlns:xlink="http://www.w3.org/1999/xlink" contentStyleType="text/css" data-diagram-type="DESCRIPTION" height="1223px" preserveAspectRatio="none" style="width:1528px;height:1223px;background:#FFFFFF;" version="1.1" viewBox="0 0 1528 1223" width="1528px" zoomAndPan="magnify"><title>Project Coherent Storage - Top-Down Engineering Deep Dive Stack</title><defs/><g><g class="title" data-source-line="5"><text fill="#000000" font-family="DejaVu Sans" font-size="22" font-weight="bold" lengthAdjust="spacing" textLength="702.8936" x="408.453" y="35.6357">Project Coherent Storage - Top-Down Engineering Deep Dive Stack</text></g><!--entity USER--><g class="entity" data-qualified-name="USER" data-source-line="11" id="ent0002"><rect fill="#FDFEFE" height="68.2959" rx="6" ry="6" style="stroke:#566573;stroke-width:1;" width="242.5576" x="593.17" y="58.2979"/><text fill="#000000" font-family="DejaVu Sans" font-size="14" lengthAdjust="spacing" textLength="127.6133" x="603.17" y="81.4297">OpenAI / User Layer</text><text fill="#000000" font-family="DejaVu Sans" font-size="14" lengthAdjust="spacing" textLength="73.1377" x="603.17" y="97.5283">HTTPS 443</text><text fill="#000000" font-family="DejaVu Sans" font-size="14" lengthAdjust="spacing" textLength="222.5576" x="603.17" y="113.627">/v1/chat/completions, /v1/responses</text></g><!--entity GLB--><g class="entity" data-qualified-name="GLB" data-source-line="12" id="ent0003"><rect fill="#FDFEFE" height="68.2959" rx="6" ry="6" style="stroke:#566573;stroke-width:1;" width="239.0508" x="594.92" y="202.5979"/><text fill="#000000" font-family="DejaVu Sans" font-size="14" lengthAdjust="spacing" textLength="212.4541" x="604.92" y="225.7297">Global Load-Balancer Mesh Pools</text><text fill="#000000" font-family="DejaVu Sans" font-size="14" lengthAdjust="spacing" textLength="219.0508" x="604.92" y="241.8283">GSLB/Anycast/DNS + tenant policy</text><text fill="#000000" font-family="DejaVu Sans" font-size="14" lengthAdjust="spacing" textLength="128.3789" x="604.92" y="257.927">TLS, auth, rate limits</text></g><!--entity RLB--><g class="entity" data-qualified-name="RLB" data-source-line="13" id="ent0004"><rect fill="#FDFEFE" height="52.1973" rx="6" ry="6" style="stroke:#566573;stroke-width:1;" width="287.3125" x="570.79" y="346.8879"/><text fill="#000000" font-family="DejaVu Sans" font-size="14" lengthAdjust="spacing" textLength="227.2471" x="580.79" y="370.0197">Regional Load-Balancer Mesh Pools</text><text fill="#000000" font-family="DejaVu Sans" font-size="14" lengthAdjust="spacing" textLength="267.3125" x="580.79" y="386.1183">region-local ingress + data-residency gates</text></g><!--entity DLB--><g class="entity" data-qualified-name="DLB" data-source-line="14" id="ent0005"><rect fill="#FDFEFE" height="52.1973" rx="6" ry="6" style="stroke:#566573;stroke-width:1;" width="300.1299" x="564.38" y="475.0879"/><text fill="#000000" font-family="DejaVu Sans" font-size="14" lengthAdjust="spacing" textLength="240.4678" x="574.38" y="498.2197">Datacenter Load-Balancer Mesh Pools</text><text fill="#000000" font-family="DejaVu Sans" font-size="14" lengthAdjust="spacing" textLength="280.1299" x="574.38" y="514.3183">L4/L7 VIPs, service discovery, rack/pod drain</text></g><!--entity CE--><g class="entity" data-qualified-name="CE" data-source-line="15" id="ent0006"><rect fill="#FDFEFE" height="68.2959" rx="6" ry="6" style="stroke:#566573;stroke-width:1;" width="371.7363" x="528.58" y="603.2879"/><text fill="#000000" font-family="DejaVu Sans" font-size="14" lengthAdjust="spacing" textLength="182.8477" x="538.58" y="626.4197">Coherence-CE Mesh Overlay</text><text fill="#000000" font-family="DejaVu Sans" font-size="14" lengthAdjust="spacing" textLength="148.627" x="538.58" y="642.5183">HTTPS 8443 native API</text><text fill="#000000" font-family="DejaVu Sans" font-size="14" lengthAdjust="spacing" textLength="351.7363" x="538.58" y="658.617">Unified Namespace or Dimensional Indexed Namespace</text></g><!--entity SCHED--><g class="entity" data-qualified-name="SCHED" data-source-line="16" id="ent0007"><rect fill="#FDFEFE" height="68.2959" rx="6" ry="6" style="stroke:#566573;stroke-width:1;" width="314.8887" x="12" y="747.5879"/><text fill="#000000" font-family="DejaVu Sans" font-size="14" lengthAdjust="spacing" textLength="131.5098" x="22" y="770.7197">Scheduler Admission</text><text fill="#000000" font-family="DejaVu Sans" font-size="14" lengthAdjust="spacing" textLength="184.3584" x="22" y="786.8183">GREEN/AMBER/RED/DRAIN</text><text fill="#000000" font-family="DejaVu Sans" font-size="14" lengthAdjust="spacing" textLength="294.8887" x="22" y="802.917">model, KV, fabric, CXL, DPU, storage telemetry</text></g><!--entity RUNTIME--><g class="entity" data-qualified-name="RUNTIME" data-source-line="17" id="ent0008"><rect fill="#FDFEFE" height="68.2959" rx="6" ry="6" style="stroke:#566573;stroke-width:1;" width="211.4131" x="426.74" y="747.5879"/><text fill="#000000" font-family="DejaVu Sans" font-size="14" lengthAdjust="spacing" textLength="153.3027" x="436.74" y="770.7197">Inference Runtime Layer</text><text fill="#000000" font-family="DejaVu Sans" font-size="14" lengthAdjust="spacing" textLength="191.4131" x="436.74" y="786.8183">vLLM adapters, model workers</text><text fill="#000000" font-family="DejaVu Sans" font-size="14" lengthAdjust="spacing" textLength="156.4473" x="436.74" y="802.917">opaque payload refs only</text></g><!--entity HBM--><g class="entity" data-qualified-name="HBM" data-source-line="18" id="ent0009"><rect fill="#FDFEFE" height="52.1973" rx="6" ry="6" style="stroke:#566573;stroke-width:1;" width="275.9717" x="145.46" y="899.9279"/><text fill="#000000" font-family="DejaVu Sans" font-size="14" lengthAdjust="spacing" textLength="164.165" x="155.46" y="923.0597">Accelerator Memory Layer</text><text fill="#000000" font-family="DejaVu Sans" font-size="14" lengthAdjust="spacing" textLength="255.9717" x="155.46" y="939.1583">kv_hbm_active, model HBM, local DRAM</text></g><!--entity WARM--><g class="entity" data-qualified-name="WARM" data-source-line="19" id="ent0010"><rect fill="#FDFEFE" height="52.1973" rx="6" ry="6" style="stroke:#566573;stroke-width:1;" width="334.3506" x="673.27" y="755.6279"/><text fill="#000000" font-family="DejaVu Sans" font-size="14" lengthAdjust="spacing" textLength="130.6826" x="683.27" y="778.7597">Warm Memory Layer</text><text fill="#000000" font-family="DejaVu Sans" font-size="14" lengthAdjust="spacing" textLength="314.3506" x="683.27" y="794.8583">kv_dram_warm, kv_cxl_warm, vector_head_cache</text></g><!--entity SCALEUP--><g class="entity" data-qualified-name="SCALEUP" data-source-line="20" id="ent0011"><rect fill="#FDFEFE" height="68.2959" rx="6" ry="6" style="stroke:#566573;stroke-width:1;" width="268.9922" x="455.95" y="891.8779"/><text fill="#000000" font-family="DejaVu Sans" font-size="14" lengthAdjust="spacing" textLength="100.3652" x="465.95" y="915.0097">Scale-Up Fabric</text><text fill="#000000" font-family="DejaVu Sans" font-size="14" lengthAdjust="spacing" textLength="248.9922" x="465.95" y="931.1083">UA-Link / vendor-local accelerator fabric</text><text fill="#000000" font-family="DejaVu Sans" font-size="14" lengthAdjust="spacing" textLength="86.3857" x="465.95" y="947.207">pod-local only</text></g><!--entity RDMA--><g class="entity" data-qualified-name="RDMA" data-source-line="21" id="ent0012"><rect fill="#FDFEFE" height="68.2959" rx="6" ry="6" style="stroke:#566573;stroke-width:1;" width="266.5996" x="1042.14" y="747.5879"/><text fill="#000000" font-family="DejaVu Sans" font-size="14" lengthAdjust="spacing" textLength="157.9238" x="1052.14" y="770.7197">Scale-Out / RDMA Fabric</text><text fill="#000000" font-family="DejaVu Sans" font-size="14" lengthAdjust="spacing" textLength="120.6133" x="1052.14" y="786.8183">RoCEv2 UDP 4791</text><text fill="#000000" font-family="DejaVu Sans" font-size="14" lengthAdjust="spacing" textLength="246.5996" x="1052.14" y="802.917">rail-A/rail-B, PFC scoped, ECN/DCQCN</text></g><!--entity DPU--><g class="entity" data-qualified-name="DPU" data-source-line="22" id="ent0013"><rect fill="#FDFEFE" height="68.2959" rx="6" ry="6" style="stroke:#566573;stroke-width:1;" width="306.3164" x="930.29" y="891.8779"/><text fill="#000000" font-family="DejaVu Sans" font-size="14" lengthAdjust="spacing" textLength="219.4199" x="940.29" y="915.0097">DPU / SmartNIC Storage Boundary</text><text fill="#000000" font-family="DejaVu Sans" font-size="14" lengthAdjust="spacing" textLength="286.3164" x="940.29" y="931.1083">NVMe-oF port 4420, RDMA MR/QP mediation</text><text fill="#000000" font-family="DejaVu Sans" font-size="14" lengthAdjust="spacing" textLength="167.7061" x="940.29" y="947.207">tenant isolation + telemetry</text></g><!--entity ZFS--><g class="entity" data-qualified-name="ZFS" data-source-line="23" id="ent0014"><rect fill="#FDFEFE" height="68.2959" rx="6" ry="6" style="stroke:#566573;stroke-width:1;" width="335.875" x="830.51" y="1036.1779"/><text fill="#000000" font-family="DejaVu Sans" font-size="14" lengthAdjust="spacing" textLength="220.9785" x="840.51" y="1059.3097">OpenZFS Durable NAND Substrate</text><text fill="#000000" font-family="DejaVu Sans" font-size="14" lengthAdjust="spacing" textLength="315.875" x="840.51" y="1075.4083">mirrored vdevs, checksums, zfs_slog, ARC/L2ARC</text><text fill="#000000" font-family="DejaVu Sans" font-size="14" lengthAdjust="spacing" textLength="121.3789" x="840.51" y="1091.507">scrub/resilver gates</text></g><!--entity OBS--><g class="entity" data-qualified-name="OBS" data-source-line="24" id="ent0015"><rect fill="#FDFEFE" height="52.1973" rx="6" ry="6" style="stroke:#566573;stroke-width:1;" width="445.7285" x="940.58" y="1165.4679"/><text fill="#000000" font-family="DejaVu Sans" font-size="14" lengthAdjust="spacing" textLength="154.0615" x="950.58" y="1188.5997">Observability and Timing</text><text fill="#000000" font-family="DejaVu Sans" font-size="14" lengthAdjust="spacing" textLength="425.7285" x="950.58" y="1204.6983">OTLP 4317/4318, Prometheus 9090/9100, gNMI 9339, PTP 319/320</text></g><g class="entity" data-qualified-name="GMN35" data-source-line="45" id="ent0036"><path d="M935.09,623.4879 L935.09,633.4379 L900.67,637.4379 L935.09,641.4379 L935.09,651.3853 A6,6 0 0 0 941.09,657.3853 L1515.7995,657.3853 A6,6 0 0 0 1521.7995,651.3853 L1521.7995,627.4879 L1511.7995,617.4879 L941.09,617.4879 A6,6 0 0 0 935.09,623.4879" fill="#FFFFFF" style="stroke:#000000;stroke-width:1;"/><path d="M1511.7995,617.4879 L1511.7995,624.4879 A3,3 0 0 0 1514.7995,627.4879 L1521.7995,627.4879 L1511.7995,617.4879" fill="#FFFFFF" style="stroke:#000000;stroke-width:1;"/><text fill="#000000" font-family="DejaVu Sans" font-size="13" lengthAdjust="spacing" textLength="296.2515" x="941.09" y="634.6817">Coherence-CE exposes logical API semantics only.</text><text fill="#000000" font-family="DejaVu Sans" font-size="13" lengthAdjust="spacing" textLength="565.7095" x="941.09" y="649.6304">No OpenZFS, DPU, RDMA, CXL, UA-Link, VLAN, or port internals leak to vLLM or OpenAI clients.</text></g><!--link USER to GLB--><g class="link" data-entity-1="ent0002" data-entity-2="ent0003" data-link-type="dependency" data-source-line="25" id="lnk16"><path d="M714.44,126.8079 C714.44,149.4779 714.44,173.3679 714.44,196.0979" fill="none" id="USER-to-GLB" style="stroke:#34495E;stroke-width:1;"/><polygon fill="#34495E" points="714.44,202.0979,718.44,193.0979,714.44,197.0979,710.44,193.0979,714.44,202.0979" style="stroke:#34495E;stroke-width:1;"/><text fill="#000000" font-family="DejaVu Sans" font-size="13" lengthAdjust="spacing" textLength="114.8989" x="715.44" y="169.7917">public/client request</text></g><!--link GLB to RLB--><g class="link" data-entity-1="ent0003" data-entity-2="ent0004" data-link-type="dependency" data-source-line="26" id="lnk17"><path d="M714.44,271.2779 C714.44,294.5779 714.44,319.1479 714.44,340.4679" fill="none" id="GLB-to-RLB" style="stroke:#34495E;stroke-width:1;"/><polygon fill="#34495E" points="714.44,346.4679,718.44,337.4679,714.44,341.4679,710.44,337.4679,714.44,346.4679" style="stroke:#34495E;stroke-width:1;"/><text fill="#000000" font-family="DejaVu Sans" font-size="13" lengthAdjust="spacing" textLength="88.1689" x="715.44" y="314.0817">selected region</text></g><!--link RLB to DLB--><g class="link" data-entity-1="ent0004" data-entity-2="ent0005" data-link-type="dependency" data-source-line="27" id="lnk18"><path d="M714.44,399.5279 C714.44,421.4279 714.44,446.8079 714.44,468.6879" fill="none" id="RLB-to-DLB" style="stroke:#34495E;stroke-width:1;"/><polygon fill="#34495E" points="714.44,474.6879,718.44,465.6879,714.44,469.6879,710.44,465.6879,714.44,474.6879" style="stroke:#34495E;stroke-width:1;"/><text fill="#000000" font-family="DejaVu Sans" font-size="13" lengthAdjust="spacing" textLength="113.4644" x="715.44" y="442.2817">selected datacenter</text></g><!--link DLB to CE--><g class="link" data-entity-1="ent0005" data-entity-2="ent0006" data-link-type="dependency" data-source-line="28" id="lnk19"><path d="M714.44,527.7579 C714.44,549.0579 714.44,573.5579 714.44,596.8379" fill="none" id="DLB-to-CE" style="stroke:#34495E;stroke-width:1;"/><polygon fill="#34495E" points="714.44,602.8379,718.44,593.8379,714.44,597.8379,710.44,593.8379,714.44,602.8379" style="stroke:#34495E;stroke-width:1;"/><text fill="#000000" font-family="DejaVu Sans" font-size="13" lengthAdjust="spacing" textLength="162.6079" x="715.44" y="570.4817">tenant/model routed request</text></g><!--link CE to SCHED--><g class="link" data-entity-1="ent0006" data-entity-2="ent0007" data-link-type="dependency" data-source-line="29" id="lnk20"><path d="M528.22,647.8079 C379,657.2779 190.64,674.4379 166.44,701.5879 C155.65,713.6979 154.3381,725.5599 157.2581,741.1899" fill="none" id="CE-to-SCHED" style="stroke:#34495E;stroke-width:1;"/><polygon fill="#34495E" points="158.36,747.0879,160.6392,737.5063,157.4418,742.1729,152.7752,738.9755,158.36,747.0879" style="stroke:#34495E;stroke-width:1;"/><text fill="#000000" font-family="DejaVu Sans" font-size="13" lengthAdjust="spacing" textLength="163.3062" x="167.44" y="714.7817">admission and locality query</text></g><!--link SCHED to CE--><g class="link" data-entity-1="ent0007" data-entity-2="ent0006" data-link-type="dependency" data-source-line="30" id="lnk21"><path d="M256.73,747.1279 C305.12,728.8179 360.43,708.5179 385.44,701.5879 C431.26,688.8779 475.4802,678.9925 522.4602,669.8625" fill="none" id="SCHED-to-CE" style="stroke:#34495E;stroke-width:1;"/><polygon fill="#34495E" points="528.35,668.7179,518.7522,666.5082,523.4418,669.6717,520.2784,674.3613,528.35,668.7179" style="stroke:#34495E;stroke-width:1;"/><text fill="#000000" font-family="DejaVu Sans" font-size="13" lengthAdjust="spacing" textLength="172.7451" x="386.44" y="714.7817">lease, action, deadline budget</text></g><!--link CE to RUNTIME--><g class="link" data-entity-1="ent0006" data-entity-2="ent0008" data-link-type="dependency" data-source-line="31" id="lnk22"><path d="M625.22,672.0179 C609.63,680.2479 594.3,690.0779 581.44,701.5879 C567.35,714.1879 558.7499,726.5225 550.4699,741.9325" fill="none" id="CE-to-RUNTIME" style="stroke:#34495E;stroke-width:1;"/><polygon fill="#34495E" points="547.63,747.2179,555.4134,741.1831,549.9966,742.8134,548.3663,737.3966,547.63,747.2179" style="stroke:#34495E;stroke-width:1;"/><text fill="#000000" font-family="DejaVu Sans" font-size="13" lengthAdjust="spacing" textLength="210.2979" x="582.44" y="714.7817">lookup/publish/reserve/flush handles</text></g><!--link RUNTIME to HBM--><g class="link" data-entity-1="ent0008" data-entity-2="ent0009" data-link-type="dependency" data-source-line="32" id="lnk23"><path d="M473.75,816.2679 C429.18,841.7479 374.0293,873.2607 333.3293,896.5207" fill="none" id="RUNTIME-to-HBM" style="stroke:#34495E;stroke-width:1;"/><polygon fill="#34495E" points="328.12,899.4979,337.9187,898.5051,332.4611,897.0169,333.9492,891.5593,328.12,899.4979" style="stroke:#34495E;stroke-width:1;"/><text fill="#000000" font-family="DejaVu Sans" font-size="13" lengthAdjust="spacing" textLength="101.1753" x="416.41" y="859.0717">active decode KV</text></g><!--link CE to WARM--><g class="link" data-entity-1="ent0006" data-entity-2="ent0010" data-link-type="dependency" data-source-line="33" id="lnk24"><path d="M768.98,671.7679 C780.62,680.5079 792.18,690.5979 801.44,701.5879 C814.87,717.5079 822.8175,733.2847 829.3975,749.7847" fill="none" id="CE-to-WARM" style="stroke:#34495E;stroke-width:1;"/><polygon fill="#34495E" points="831.62,755.3579,832.0017,745.5164,829.7679,750.7135,824.5708,748.4798,831.62,755.3579" style="stroke:#34495E;stroke-width:1;"/><text fill="#000000" font-family="DejaVu Sans" font-size="13" lengthAdjust="spacing" textLength="209.5361" x="813.68" y="714.7817">warm KV/prefix/metadata placement</text></g><!--link RUNTIME to SCALEUP--><g class="link" data-entity-1="ent0008" data-entity-2="ent0011" data-link-type="dependency" data-source-line="34" id="lnk25"><path d="M548.3046,821.6541 C557.5446,844.3241 565.1942,863.0921 574.4642,885.8221" fill="none" id="RUNTIME-SCALEUP" style="stroke:#34495E;stroke-width:1;"/><polygon fill="#34495E" points="546.04,816.0979,545.7328,825.9419,547.9272,820.728,553.1411,822.9224,546.04,816.0979" style="stroke:#34495E;stroke-width:1;"/><polygon fill="#34495E" points="576.73,891.3779,577.0351,881.5337,574.8418,886.7481,569.6275,884.5548,576.73,891.3779" style="stroke:#34495E;stroke-width:1;"/><text fill="#000000" font-family="DejaVu Sans" font-size="13" lengthAdjust="spacing" textLength="184.2534" x="564.18" y="859.0717">pod-local accelerator collectives</text></g><!--link CE to RDMA--><g class="link" data-entity-1="ent0006" data-entity-2="ent0012" data-link-type="dependency" data-source-line="35" id="lnk26"><path d="M906.5413,671.7647 C960.5913,682.1947 1006.01,692.3079 1031.44,701.5879 C1063.47,713.2579 1091.8289,728.2011 1118.4489,744.1011" fill="none" id="CE-RDMA" style="stroke:#34495E;stroke-width:1;"/><polygon fill="#34495E" points="900.65,670.6279,908.7291,676.2607,905.5594,671.5752,910.2449,668.4056,900.65,670.6279" style="stroke:#34495E;stroke-width:1;"/><polygon fill="#34495E" points="1123.6,747.1779,1117.9245,739.1287,1119.3074,744.6139,1113.8222,745.9968,1123.6,747.1779" style="stroke:#34495E;stroke-width:1;"/><text fill="#000000" font-family="DejaVu Sans" font-size="13" lengthAdjust="spacing" textLength="203.0425" x="1069.67" y="714.7817">remote hydration / mesh replication</text></g><!--link RDMA to DPU--><g class="link" data-entity-1="ent0012" data-entity-2="ent0013" data-link-type="dependency" data-source-line="36" id="lnk27"><path d="M1102.0729,819.7303 C1091.4729,827.9703 1086.71,834.1879 1080.44,845.8779 C1073.04,859.6979 1072.0029,870.9538 1074.0429,885.7938" fill="none" id="RDMA-DPU" style="stroke:#34495E;stroke-width:1;"/><polygon fill="#34495E" points="1106.81,816.0479,1097.2494,818.4134,1102.8624,819.1165,1102.1593,824.7295,1106.81,816.0479" style="stroke:#34495E;stroke-width:1;"/><polygon fill="#34495E" points="1074.86,891.7379,1077.5971,882.277,1074.1791,886.7844,1069.6716,883.3664,1074.86,891.7379" style="stroke:#34495E;stroke-width:1;"/><text fill="#000000" font-family="DejaVu Sans" font-size="13" lengthAdjust="spacing" textLength="182.1079" x="1081.44" y="859.0717">storage and RDMA offload path</text></g><!--link DPU to ZFS--><g class="link" data-entity-1="ent0013" data-entity-2="ent0014" data-link-type="dependency" data-source-line="37" id="lnk28"><path d="M1016.0161,964.207 C1005.8461,972.527 1001.37,978.6279 995.44,990.1779 C988.35,1003.9979 987.3165,1015.0892 989.2565,1029.8192" fill="none" id="DPU-ZFS" style="stroke:#34495E;stroke-width:1;"/><polygon fill="#34495E" points="1020.66,960.4079,1011.1613,963.0107,1016.79,963.5738,1016.2269,969.2026,1020.66,960.4079" style="stroke:#34495E;stroke-width:1;"/><polygon fill="#34495E" points="990.04,1035.7679,992.8306,1026.3226,989.3871,1030.8107,984.8991,1027.3672,990.04,1035.7679" style="stroke:#34495E;stroke-width:1;"/><text fill="#000000" font-family="DejaVu Sans" font-size="13" lengthAdjust="spacing" textLength="196.5171" x="996.44" y="1003.3717">durable writes/reads via NVMe-oF</text></g><!--link CE to OBS--><g class="link" data-entity-1="ent0006" data-entity-2="ent0015" data-link-type="dependency" data-source-line="38" id="lnk29"><path d="M900.76,669.4479 C906.38,670.1979 911.95,670.9079 917.44,671.5879 C998,681.4679 1207.71,667.6679 1281.44,701.5879 C1326.88,722.4879 1361.44,730.7179 1361.44,780.7279 C1361.44,780.7279 1361.44,780.7279 1361.44,1071.3179 C1361.44,1118.4679 1325.3212,1145.2811 1280.1912,1162.8511" fill="none" id="CE-to-OBS" style="stroke:#34495E;stroke-width:1;stroke-dasharray:7,7;"/><polygon fill="#34495E" points="1274.6,1165.0279,1284.438,1165.4902,1279.2593,1163.2139,1281.5356,1158.0352,1274.6,1165.0279" style="stroke:#34495E;stroke-width:1;"/></g><!--link SCHED to OBS--><g class="link" data-entity-1="ent0007" data-entity-2="ent0015" data-link-type="dependency" data-source-line="39" id="lnk30"><path d="M146.78,816.0979 C123.64,854.7179 95.43,918.3579 128.44,960.1779 C227.3,1085.3779 660.708,1146.0686 934.228,1172.5986" fill="none" id="SCHED-to-OBS" style="stroke:#34495E;stroke-width:1;stroke-dasharray:7,7;"/><polygon fill="#34495E" points="940.2,1173.1779,931.6282,1168.3277,935.2234,1172.6951,930.8559,1176.2903,940.2,1173.1779" style="stroke:#34495E;stroke-width:1;"/></g><!--link RUNTIME to OBS--><g class="link" data-entity-1="ent0008" data-entity-2="ent0015" data-link-type="dependency" data-source-line="40" id="lnk31"><path d="M638.41,811.4879 C694.84,827.0079 753.18,843.4879 755.44,845.8779 C836.4,931.4379 731.02,1020.3279 813.44,1104.4679 C839.01,1130.5679 908.158,1149.6343 982.228,1163.8843" fill="none" id="RUNTIME-to-OBS" style="stroke:#34495E;stroke-width:1;stroke-dasharray:7,7;"/><polygon fill="#34495E" points="988.12,1165.0179,980.0378,1159.3896,983.21,1164.0732,978.5264,1167.2455,988.12,1165.0179" style="stroke:#34495E;stroke-width:1;"/></g><!--link RDMA to OBS--><g class="link" data-entity-1="ent0012" data-entity-2="ent0015" data-link-type="dependency" data-source-line="41" id="lnk32"><path d="M1242.66,816.2679 C1253.04,824.4879 1262.32,834.3279 1268.44,845.8779 C1271.77,852.1579 1268.95,854.7879 1268.44,861.8779 C1266.56,888.4879 1237.15,1092.9079 1233.44,1104.4679 C1225.91,1127.9479 1212.6486,1145.2311 1197.0286,1160.8811" fill="none" id="RDMA-to-OBS" style="stroke:#34495E;stroke-width:1;stroke-dasharray:7,7;"/><polygon fill="#34495E" points="1192.79,1165.1279,1201.979,1161.5835,1196.3221,1161.5889,1196.3167,1155.9321,1192.79,1165.1279" style="stroke:#34495E;stroke-width:1;"/></g><!--link DPU to OBS--><g class="link" data-entity-1="ent0013" data-entity-2="ent0015" data-link-type="dependency" data-source-line="42" id="lnk33"><path d="M1169.19,960.6279 C1180.46,968.6379 1190.5,978.3779 1197.44,990.1779 C1230.41,1046.1179 1201.1649,1119.8326 1180.5649,1159.8726" fill="none" id="DPU-to-OBS" style="stroke:#34495E;stroke-width:1;stroke-dasharray:7,7;"/><polygon fill="#34495E" points="1177.82,1165.2079,1185.4943,1159.0349,1180.1074,1160.7618,1178.3805,1155.375,1177.82,1165.2079" style="stroke:#34495E;stroke-width:1;"/></g><!--link ZFS to OBS--><g class="link" data-entity-1="ent0014" data-entity-2="ent0015" data-link-type="dependency" data-source-line="43" id="lnk34"><path d="M1044.85,1104.8579 C1071.25,1123.9379 1098.9381,1143.9419 1123.2481,1161.5219" fill="none" id="ZFS-to-OBS" style="stroke:#34495E;stroke-width:1;stroke-dasharray:7,7;"/><polygon fill="#34495E" points="1128.11,1165.0379,1123.1611,1156.5227,1124.0584,1162.1079,1118.4732,1163.0052,1128.11,1165.0379" style="stroke:#34495E;stroke-width:1;"/></g><?plantuml-src VLPXS-8s4FtkNx6zVgo9av1SZapdPWo6EwQ6S0PodGup6I4Bh4EMN4acePt-zwvaGw4txPV4ijRxLhllFV63BLZ9e1A4oy3ikAo89YMOWkJgbSijR8Wmx6n7grhcL6d9DDpSdctaR4DgOKTAsYd1b0dxHfvhc1Df0ikjO33JwXkZ5WQgO9f92tEhDDaowC12LPr4lKeOoYsNZ6a7dJ1MGSBt30C9tPqNWMc8t6BEFmE0FcvkVLq39PI67qV9Q3WQkXsbSwRRj_Vltzy_T8E_plB4MglNThjxTzUx7mR_f7xtL34PZo62fS73fkJ0z4f-NYncSxYxwwvajB-9Q45iH5LP2MQvaYO4zrOpK-62cNT032pdm-myxoUXraH0gaZUwHD19CNq4sOAc2abp4f-cgVzA9O7IeoDakaSVWBB9C6ELKfmUbZ9HJeFWTIs244Joq3maji6xLFQFmVBs1Rh-byuxKCwGb4CmyPZzGOXSs991vzvpYGzm1Pn6eJi4Y71E8hZT3twJupqBaeVu7aymmvXD_USCiYveMhFzC4TWkwYIkMGQoIYHqakKLhIKDOP39lCJ_Yf88VZI3xWJ40Iw_WIpyOhkPHymraEZescmX81nvpmaadJT6GiS_Ps7k1n1nSScDE2vRN0qyHvoOtx4kUJ3OVJA9xqXrcK3PCeoUBnT2LBbJCHmY_F8QfchJaDOV1h6a8oM-AXMwvR9b1mLXyys7pmUPYSuutbfZacPBMqMEoHT_iqdG39IOLznXvwB7XLUeVBbLGL-Rr66PE3m16WFZO6b1GDIBQSBiQJYsF5b68TI1tbnbGgVJZYxFOlnRfy8TGryeZpkJy9eU47ddNYi-AxyunVYIw_JuNZB5zUSIi4ND4tqIxs-A7IBmKZ-Gibs6EVyckSJIwRJmJhB2iO-NRYIEDEokKE9RbdCbUwvImvEysc3KKojRkdFim7SJfSphv7UAejfioIINn2ojHWkB-5PJA3kuVU3Og4SD698_-l7y9iD01aRyNo48Q3QPGClWocJRSnpOKyPajCFY-9jjFnuEHvVUTNH2DzfyyJrb4ZrBQsQ2otrs5JoYIBlioWP3adrjEkzG1kbF1ll2sSimcX_krVlutcaDIQhF75D9ucCA_NnZhFGBvoj3-D0jZdR8-SmZ7GdQbBVFnZOrwCKDiGucmGfRVuToKDrVNQUHiNABqpGq2G2zorKpXPSy7j0OZCOO7s9BSh-RH8iP_TcuS8_tm8tOs0rHUiDj2xxbr7lPjhFFrsEXb3hzljOS1Y1jsRNjIzlVP8J_rvuEmKEfsFpkdW4QfwZPuOKS7TbQ8Pwi3OmEsvcCp766mJjSm9mrbTaBMxoULkVdAo86aZq6mUM_ED6YtWHTDaQe0mmCLv8MCeERg4FxSde6i2nkf3q0ITqWf634hCIKt942zGaWky_61TvrjsojogryKhjQkho1_O56uGs6OMRKIDRbWWdc0cE8QxJr6YhYGlPKnFiNvqfsDYfpRSTeB4jr65fi7V8fm7SNrmFmaeSalQKygVcuDw4Rd6dnHshZ-gXEic8Xe7vB_nT7x4bfKAxwhYWAxW-HiXkx5qpIgSe7yL-53_aTFDuyasNJVzdjfilCLLn1Q1Y_71ZkQFaBT4VzKSgOaD8hc1FIVGIimLT7NrqREecSLnTJpYQUsWZWk7SdnsGCTdwKwZ-RQmM9MxDoxkAFPMAVm5W5FRSjSal9EGQIKIYTF6dA-2gO9MfEqjuN3RMwFrkX2UqtWQkhlB6mHtzCJRopZwxC0gy3S3RhS_LneXcAi07H9SYNy3?></g></svg>