<?plantuml 1.2026.1?><svg xmlns="http://www.w3.org/2000/svg" xmlns:xlink="http://www.w3.org/1999/xlink" contentStyleType="text/css" data-diagram-type="DESCRIPTION" height="831px" preserveAspectRatio="none" style="width:2073px;height:831px;background:#FFFFFF;" version="1.1" viewBox="0 0 2073 831" width="2073px" zoomAndPan="magnify"><title>Project Coherent Storage - S3/Object REST Translator</title><defs/><g><g class="title" data-source-line="5"><text fill="#000000" font-family="DejaVu Sans" font-size="22" font-weight="bold" lengthAdjust="spacing" textLength="564.792" x="749.8925" y="35.6357">Project Coherent Storage - S3/Object REST Translator</text></g><!--cluster Translator services--><g class="cluster" data-qualified-name="Translator services" data-source-line="9" id="ent0004"><rect fill="#FFFFFF" height="187" rx="6" ry="6" style="stroke:#000000;stroke-width:1;" width="1576.09" x="375.81" y="165.8979"/><text fill="#000000" font-family="DejaVu Sans" font-size="14" font-weight="bold" lengthAdjust="spacing" textLength="128.4063" x="1099.6519" y="181.0297">Translator services</text></g><!--cluster Backend adapters--><g class="cluster" data-qualified-name="Backend adapters" data-source-line="15" id="ent0009"><rect fill="#FFFFFF" height="449" rx="6" ry="6" style="stroke:#000000;stroke-width:1;" width="239.17" x="1741.06" y="376.8979"/><text fill="#000000" font-family="DejaVu Sans" font-size="14" font-weight="bold" lengthAdjust="spacing" textLength="120.6064" x="1800.3418" y="392.0297">Backend adapters</text></g><!--entity S3NET--><g class="entity" data-qualified-name="Translator services.S3NET" data-source-line="10" id="ent0005"><rect fill="#FFFFFF" height="62.1973" rx="6" ry="6" style="stroke:#000000;stroke-width:1;" width="134.165" x="391.81" y="200.7979"/><rect fill="#FFFFFF" height="10" style="stroke:#000000;stroke-width:1;" width="15" x="505.975" y="205.7979"/><rect fill="#FFFFFF" height="2" style="stroke:#000000;stroke-width:1;" width="4" x="503.975" y="207.7979"/><rect fill="#FFFFFF" height="2" style="stroke:#000000;stroke-width:1;" width="4" x="503.975" y="211.7979"/><text fill="#000000" font-family="DejaVu Sans" font-size="14" lengthAdjust="spacing" textLength="94.165" x="406.81" y="233.9297">s3_net_service</text><text fill="#000000" font-family="DejaVu Sans" font-size="14" lengthAdjust="spacing" textLength="71.5859" x="406.81" y="250.0283">HTTP 8080</text></g><!--entity META--><g class="entity" data-qualified-name="Translator services.META" data-source-line="11" id="ent0006"><rect fill="#FFFFFF" height="62.1973" rx="6" ry="6" style="stroke:#000000;stroke-width:1;" width="184.7373" x="769.98" y="247.7979"/><rect fill="#FFFFFF" height="10" style="stroke:#000000;stroke-width:1;" width="15" x="934.7173" y="252.7979"/><rect fill="#FFFFFF" height="2" style="stroke:#000000;stroke-width:1;" width="4" x="932.7173" y="254.7979"/><rect fill="#FFFFFF" height="2" style="stroke:#000000;stroke-width:1;" width="4" x="932.7173" y="258.7979"/><text fill="#000000" font-family="DejaVu Sans" font-size="14" lengthAdjust="spacing" textLength="144.7373" x="784.98" y="280.9297">meta_translate_service</text><text fill="#000000" font-family="DejaVu Sans" font-size="14" lengthAdjust="spacing" textLength="71.5859" x="784.98" y="297.0283">HTTP 9000</text></g><!--entity RESTNET--><g class="entity" data-qualified-name="Translator services.RESTNET" data-source-line="12" id="ent0007"><rect fill="#FFFFFF" height="62.1973" rx="6" ry="6" style="stroke:#000000;stroke-width:1;" width="142.7168" x="1195.86" y="274.7979"/><rect fill="#FFFFFF" height="10" style="stroke:#000000;stroke-width:1;" width="15" x="1318.5768" y="279.7979"/><rect fill="#FFFFFF" height="2" style="stroke:#000000;stroke-width:1;" width="4" x="1316.5768" y="281.7979"/><rect fill="#FFFFFF" height="2" style="stroke:#000000;stroke-width:1;" width="4" x="1316.5768" y="285.7979"/><text fill="#000000" font-family="DejaVu Sans" font-size="14" lengthAdjust="spacing" textLength="102.7168" x="1210.86" y="307.9297">rest_net_service</text><text fill="#000000" font-family="DejaVu Sans" font-size="14" lengthAdjust="spacing" textLength="71.5859" x="1210.86" y="324.0283">HTTP 8000</text></g><!--entity METRICS--><g class="entity" data-qualified-name="Translator services.METRICS" data-source-line="13" id="ent0008"><rect fill="#FFFFFF" height="62.1973" rx="6" ry="6" style="stroke:#000000;stroke-width:1;" width="150.5166" x="1785.39" y="207.7979"/><rect fill="#FFFFFF" height="10" style="stroke:#000000;stroke-width:1;" width="15" x="1915.9066" y="212.7979"/><rect fill="#FFFFFF" height="2" style="stroke:#000000;stroke-width:1;" width="4" x="1913.9066" y="214.7979"/><rect fill="#FFFFFF" height="2" style="stroke:#000000;stroke-width:1;" width="4" x="1913.9066" y="218.7979"/><text fill="#000000" font-family="DejaVu Sans" font-size="14" lengthAdjust="spacing" textLength="104.2549" x="1800.39" y="240.9297">metrics_exporter</text><text fill="#000000" font-family="DejaVu Sans" font-size="14" lengthAdjust="spacing" textLength="110.5166" x="1800.39" y="257.0283">Prometheus 9100</text></g><!--entity OBJ--><g class="entity" data-qualified-name="Backend adapters.OBJ" data-source-line="16" id="ent0010"><path d="M1804.73,518.3479 C1804.73,508.3479 1860.647,508.3479 1860.647,508.3479 C1860.647,508.3479 1916.564,508.3479 1916.564,518.3479 L1916.564,543.4465 C1916.564,553.4465 1860.647,553.4465 1860.647,553.4465 C1860.647,553.4465 1804.73,553.4465 1804.73,543.4465 L1804.73,518.3479" fill="#FFFFFF" style="stroke:#000000;stroke-width:1;"/><path d="M1804.73,518.3479 C1804.73,528.3479 1860.647,528.3479 1860.647,528.3479 C1860.647,528.3479 1916.564,528.3479 1916.564,518.3479" fill="none" style="stroke:#000000;stroke-width:1;"/><text fill="#000000" font-family="DejaVu Sans" font-size="14" lengthAdjust="spacing" textLength="91.834" x="1814.73" y="545.4797">Object adapter</text></g><!--entity KV--><g class="entity" data-qualified-name="Backend adapters.KV" data-source-line="17" id="ent0011"><path d="M1815.62,598.3479 C1815.62,588.3479 1860.6439,588.3479 1860.6439,588.3479 C1860.6439,588.3479 1905.6679,588.3479 1905.6679,598.3479 L1905.6679,623.4465 C1905.6679,633.4465 1860.6439,633.4465 1860.6439,633.4465 C1860.6439,633.4465 1815.62,633.4465 1815.62,623.4465 L1815.62,598.3479" fill="#FFFFFF" style="stroke:#000000;stroke-width:1;"/><path d="M1815.62,598.3479 C1815.62,608.3479 1860.6439,608.3479 1860.6439,608.3479 C1860.6439,608.3479 1905.6679,608.3479 1905.6679,598.3479" fill="none" style="stroke:#000000;stroke-width:1;"/><text fill="#000000" font-family="DejaVu Sans" font-size="14" lengthAdjust="spacing" textLength="70.0479" x="1825.62" y="625.4797">KV adapter</text></g><!--entity VEC--><g class="entity" data-qualified-name="Backend adapters.VEC" data-source-line="18" id="ent0012"><path d="M1788,678.3479 C1788,668.3479 1860.6411,668.3479 1860.6411,668.3479 C1860.6411,668.3479 1933.2822,668.3479 1933.2822,678.3479 L1933.2822,703.4465 C1933.2822,713.4465 1860.6411,713.4465 1860.6411,713.4465 C1860.6411,713.4465 1788,713.4465 1788,703.4465 L1788,678.3479" fill="#FFFFFF" style="stroke:#000000;stroke-width:1;"/><path d="M1788,678.3479 C1788,688.3479 1860.6411,688.3479 1860.6411,688.3479 C1860.6411,688.3479 1933.2822,688.3479 1933.2822,678.3479" fill="none" style="stroke:#000000;stroke-width:1;"/><text fill="#000000" font-family="DejaVu Sans" font-size="14" lengthAdjust="spacing" textLength="125.2822" x="1798" y="705.4797">Vector/ANN adapter</text></g><!--entity PFX--><g class="entity" data-qualified-name="Backend adapters.PFX" data-source-line="19" id="ent0013"><path d="M1757.06,422.2979 C1757.06,412.2979 1860.6474,412.2979 1860.6474,412.2979 C1860.6474,412.2979 1964.2348,412.2979 1964.2348,422.2979 L1964.2348,463.4951 C1964.2348,473.4951 1860.6474,473.4951 1860.6474,473.4951 C1860.6474,473.4951 1757.06,473.4951 1757.06,463.4951 L1757.06,422.2979" fill="#FFFFFF" style="stroke:#000000;stroke-width:1;"/><path d="M1757.06,422.2979 C1757.06,432.2979 1860.6474,432.2979 1860.6474,432.2979 C1860.6474,432.2979 1964.2348,432.2979 1964.2348,422.2979" fill="none" style="stroke:#000000;stroke-width:1;"/><text fill="#000000" font-family="DejaVu Sans" font-size="14" lengthAdjust="spacing" textLength="129.1787" x="1767.06" y="449.4297">Prefix-cache adapter</text><text fill="#000000" font-family="DejaVu Sans" font-size="14" lengthAdjust="spacing" textLength="187.1748" x="1767.06" y="465.5283">Unified + dimensional indexed</text></g><!--entity MDB--><g class="entity" data-qualified-name="Backend adapters.MDB" data-source-line="20" id="ent0014"><path d="M1783.32,758.2979 C1783.32,748.2979 1860.6403,748.2979 1860.6403,748.2979 C1860.6403,748.2979 1937.9606,748.2979 1937.9606,758.2979 L1937.9606,799.4951 C1937.9606,809.4951 1860.6403,809.4951 1860.6403,809.4951 C1860.6403,809.4951 1783.32,809.4951 1783.32,799.4951 L1783.32,758.2979" fill="#FFFFFF" style="stroke:#000000;stroke-width:1;"/><path d="M1783.32,758.2979 C1783.32,768.2979 1860.6403,768.2979 1860.6403,768.2979 C1860.6403,768.2979 1937.9606,768.2979 1937.9606,758.2979" fill="none" style="stroke:#000000;stroke-width:1;"/><text fill="#000000" font-family="DejaVu Sans" font-size="14" lengthAdjust="spacing" textLength="81.71" x="1793.32" y="785.4297">Metadata DB</text><text fill="#000000" font-family="DejaVu Sans" font-size="14" lengthAdjust="spacing" textLength="134.6406" x="1793.32" y="801.5283">redacted audit modes</text></g><!--entity S3C--><g class="entity" data-qualified-name="S3C" data-source-line="7" id="ent0002"><ellipse cx="67.4067" cy="194.2979" fill="#FFFFFF" rx="8" ry="8" style="stroke:#000000;stroke-width:1;"/><path d="M67.4067,202.2979 L67.4067,229.2979 M54.4067,210.2979 L80.4067,210.2979 M67.4067,229.2979 L54.4067,244.2979 M67.4067,229.2979 L80.4067,244.2979" fill="none" style="stroke:#000000;stroke-width:1;"/><text fill="#000000" font-family="DejaVu Sans" font-size="14" lengthAdjust="spacing" textLength="53.6963" x="11" y="259.4297">S3 client</text><text fill="#000000" font-family="DejaVu Sans" font-size="14" lengthAdjust="spacing" textLength="112.8135" x="11" y="275.5283">awscli/SDK/rclone</text></g><!--entity RESTC--><g class="entity" data-qualified-name="RESTC" data-source-line="8" id="ent0003"><ellipse cx="862.3453" cy="65.2979" fill="#FFFFFF" rx="8" ry="8" style="stroke:#000000;stroke-width:1;"/><path d="M862.3453,73.2979 L862.3453,100.2979 M849.3453,81.2979 L875.3453,81.2979 M862.3453,100.2979 L849.3453,115.2979 M862.3453,100.2979 L875.3453,115.2979" fill="none" style="stroke:#000000;stroke-width:1;"/><text fill="#000000" font-family="DejaVu Sans" font-size="14" lengthAdjust="spacing" textLength="73.9102" x="811.38" y="130.4297">REST client</text><text fill="#000000" font-family="DejaVu Sans" font-size="14" lengthAdjust="spacing" textLength="101.9307" x="811.38" y="146.5283">SDK/SwaggerUI</text></g><g class="entity" data-qualified-name="GMN29" data-source-line="37" id="ent0030"><path d="M1654.72,101.4779 L1654.72,144.324 A6,6 0 0 0 1660.72,150.324 L2060.5769,150.324 A6,6 0 0 0 2066.5769,144.324 L2066.5769,105.4779 L2056.5769,95.4779 L1660.72,95.4779 A6,6 0 0 0 1654.72,101.4779" fill="#FFFFFF" style="stroke:#000000;stroke-width:1;"/><path d="M2056.5769,95.4779 L2056.5769,102.4779 A3,3 0 0 0 2059.5769,105.4779 L2066.5769,105.4779 L2056.5769,95.4779" fill="#FFFFFF" style="stroke:#000000;stroke-width:1;"/><text fill="#000000" font-family="DejaVu Sans" font-size="13" lengthAdjust="spacing" textLength="215.3506" x="1660.72" y="112.6717">Exact put/get/delete require prefix_id.</text><text fill="#000000" font-family="DejaVu Sans" font-size="13" lengthAdjust="spacing" textLength="228.3506" x="1660.72" y="127.6204">Search/invalidate are collection actions.</text><text fill="#000000" font-family="DejaVu Sans" font-size="13" lengthAdjust="spacing" textLength="390.8569" x="1660.72" y="142.5692">No OpenZFS, DPU, RDMA, CXL, or VLAN identifiers leak to clients.</text></g><!--link S3C to S3NET--><g class="link" data-entity-1="ent0002" data-entity-2="ent0005" data-link-type="dependency" data-source-line="22" id="lnk15"><path d="M124.21,231.8979 C194.78,231.8979 310.15,231.8979 385.43,231.8979" fill="none" id="S3C-to-S3NET" style="stroke:#000000;stroke-width:1;"/><polygon fill="#000000" points="391.43,231.8979,382.43,227.8979,386.43,231.8979,382.43,235.8979,391.43,231.8979" style="stroke:#000000;stroke-width:1;"/><text fill="#000000" font-family="DejaVu Sans" font-size="13" lengthAdjust="spacing" textLength="53.4536" x="230.29" y="214.0917">S3 HTTP</text><text fill="#000000" font-family="DejaVu Sans" font-size="13" lengthAdjust="spacing" textLength="204.4136" x="154.81" y="229.0404">PUT/GET/HEAD/LIST/MULTIPART</text></g><!--link RESTC to RESTNET--><g class="link" data-entity-1="ent0003" data-entity-2="ent0007" data-link-type="dependency" data-source-line="23" id="lnk16"><path d="M913.56,128.1979 C987.07,165.2379 1118.5316,231.4882 1198.4216,271.7382" fill="none" id="RESTC-to-RESTNET" style="stroke:#000000;stroke-width:1;"/><polygon fill="#000000" points="1203.78,274.4379,1197.5422,266.8162,1199.3147,272.1882,1193.9427,273.9606,1203.78,274.4379" style="stroke:#000000;stroke-width:1;"/><text fill="#000000" font-family="DejaVu Sans" font-size="13" lengthAdjust="spacing" textLength="72.2236" x="1034.1463" y="150.7517">REST HTTP</text><text fill="#000000" font-family="DejaVu Sans" font-size="13" lengthAdjust="spacing" textLength="169.0762" x="985.72" y="165.7004">object/KV/vector/prefix-cache</text></g><!--link S3NET to META--><g class="link" data-entity-1="ent0005" data-entity-2="ent0006" data-link-type="dependency" data-source-line="24" id="lnk17"><path d="M526.19,239.6579 C592.66,247.4379 689.5907,258.7903 763.8307,267.4803" fill="none" id="S3NET-to-META" style="stroke:#000000;stroke-width:1;"/><polygon fill="#000000" points="769.79,268.1779,761.3161,263.1586,764.8239,267.5966,760.386,271.1044,769.79,268.1779" style="stroke:#000000;stroke-width:1;"/><text fill="#000000" font-family="DejaVu Sans" font-size="13" lengthAdjust="spacing" textLength="139.4771" x="578.48" y="240.4517">normalized S3 envelope</text></g><!--link META to S3NET--><g class="link" data-entity-1="ent0006" data-entity-2="ent0005" data-link-type="dependency" data-source-line="27" id="lnk20"><path d="M769.54,295.2979 C708.05,302.9679 625.87,306.7779 555.98,287.8979 C537.34,282.8579 523.6966,276.384 507.7766,266.494" fill="none" id="META-to-S3NET" style="stroke:#000000;stroke-width:1;"/><polygon fill="#000000" points="502.68,263.3279,508.2141,271.4748,506.9272,265.9663,512.4357,264.6794,502.68,263.3279" style="stroke:#000000;stroke-width:1;"/><text fill="#000000" font-family="DejaVu Sans" font-size="13" lengthAdjust="spacing" textLength="182.1079" x="556.98" y="285.0917">S3-shaped status/XML/headers</text></g><!--link META to RESTNET--><g class="link" data-entity-1="ent0006" data-entity-2="ent0007" data-link-type="dependency" data-source-line="25" id="lnk18"><path d="M955.13,300.6579 C965.07,302.3779 975.07,303.8579 984.72,304.8979 C1056.14,312.5879 1132.364,311.9975 1189.424,309.9075" fill="none" id="META-to-RESTNET" style="stroke:#000000;stroke-width:1;"/><polygon fill="#000000" points="1195.42,309.6879,1186.2796,306.02,1190.4234,309.8709,1186.5724,314.0146,1195.42,309.6879" style="stroke:#000000;stroke-width:1;"/><text fill="#000000" font-family="DejaVu Sans" font-size="13" lengthAdjust="spacing" textLength="145.9517" x="997.72" y="302.0917">mapped REST command</text></g><!--link RESTNET to META--><g class="link" data-entity-1="ent0007" data-entity-2="ent0006" data-link-type="dependency" data-source-line="26" id="lnk19"><path d="M1195.44,290.6279 C1182.29,288.3179 1168.63,286.2479 1155.72,284.8979 C1088.81,277.9079 1018.8399,276.5046 961.1099,276.8246" fill="none" id="RESTNET-to-META" style="stroke:#000000;stroke-width:1;"/><polygon fill="#000000" points="955.11,276.8579,964.132,280.8079,960.1099,276.8301,964.0877,272.808,955.11,276.8579" style="stroke:#000000;stroke-width:1;"/><text fill="#000000" font-family="DejaVu Sans" font-size="13" lengthAdjust="spacing" textLength="91.7617" x="1024.72" y="274.0817">REST response</text></g><!--link RESTNET to OBJ--><g class="link" data-entity-1="ent0007" data-entity-2="ent0010" data-link-type="dependency" data-source-line="28" id="lnk21"><path d="M1293.75,337.2279 C1314.4,360.6479 1345.43,391.7979 1378.72,410.8979 C1518.47,491.1079 1705.1062,517.6175 1798.4862,526.3775" fill="none" id="RESTNET-to-OBJ" style="stroke:#000000;stroke-width:1;"/><polygon fill="#000000" points="1804.46,526.9379,1795.8729,522.1147,1799.4819,526.4709,1795.1257,530.0798,1804.46,526.9379" style="stroke:#000000;stroke-width:1;"/><text fill="#000000" font-family="DejaVu Sans" font-size="13" lengthAdjust="spacing" textLength="127.9243" x="1438.22" y="408.0917">/objects/{bucket}/{key}</text></g><!--link RESTNET to KV--><g class="link" data-entity-1="ent0007" data-entity-2="ent0011" data-link-type="dependency" data-source-line="29" id="lnk22"><path d="M1274.97,337.3379 C1287,385.2479 1316.91,475.8379 1378.72,521.8979 C1512.5,621.6079 1718.2721,621.0593 1809.4721,615.2493" fill="none" id="RESTNET-to-KV" style="stroke:#000000;stroke-width:1;"/><polygon fill="#000000" points="1815.46,614.8679,1806.2239,611.4481,1810.4701,615.1857,1806.7325,619.432,1815.46,614.8679" style="stroke:#000000;stroke-width:1;"/><text fill="#000000" font-family="DejaVu Sans" font-size="13" lengthAdjust="spacing" textLength="128.6416" x="1437.72" y="519.0917">/kv/{namespace}/{key}</text></g><!--link RESTNET to VEC--><g class="link" data-entity-1="ent0007" data-entity-2="ent0012" data-link-type="dependency" data-source-line="30" id="lnk23"><path d="M1268.49,337.3779 C1270.93,403.7679 1286.76,558.1579 1378.72,632.8979 C1495.86,728.1079 1679.2278,719.1488 1781.9178,704.7888" fill="none" id="RESTNET-to-VEC" style="stroke:#000000;stroke-width:1;"/><polygon fill="#000000" points="1787.86,703.9579,1778.3928,701.2428,1782.9082,704.6503,1779.5007,709.1657,1787.86,703.9579" style="stroke:#000000;stroke-width:1;"/><text fill="#000000" font-family="DejaVu Sans" font-size="13" lengthAdjust="spacing" textLength="182.4634" x="1410.72" y="630.0917">/vectors/{namespace} + /search</text></g><!--link RESTNET to PFX--><g class="link" data-entity-1="ent0007" data-entity-2="ent0013" data-link-type="dependency" data-source-line="31" id="lnk24"><path d="M1338.97,322.2879 C1442.83,346.3479 1631.3347,390.014 1750.9747,417.724" fill="none" id="RESTNET-to-PFX" style="stroke:#000000;stroke-width:1;"/><polygon fill="#000000" points="1756.82,419.0779,1748.9547,413.1503,1751.9489,417.9497,1747.1495,420.9439,1756.82,419.0779" style="stroke:#000000;stroke-width:1;"/><text fill="#000000" font-family="DejaVu Sans" font-size="13" lengthAdjust="spacing" textLength="244.2451" x="1379.72" y="329.3017">/prefix-cache/{mode}/.../prefixes/{prefix_id}</text></g><!--link META to MDB--><g class="link" data-entity-1="ent0006" data-entity-2="ent0014" data-link-type="dependency" data-source-line="32" id="lnk25"><path d="M888.24,310.3779 C956.36,393.9479 1155.64,621.6279 1378.72,719.8979 C1512.09,778.6479 1679.2014,785.0258 1777.1914,782.9358" fill="none" id="META-to-MDB" style="stroke:#000000;stroke-width:1;"/><polygon fill="#000000" points="1783.19,782.8079,1774.1068,779.0007,1778.1911,782.9145,1774.2773,786.9989,1783.19,782.8079" style="stroke:#000000;stroke-width:1;"/><text fill="#000000" font-family="DejaVu Sans" font-size="13" lengthAdjust="spacing" textLength="161.1543" x="1186.72" y="600.0417">mapping metadata by mode</text></g><!--link S3NET to METRICS--><g class="link" data-entity-1="ent0005" data-entity-2="ent0008" data-link-type="dependency" data-source-line="33" id="lnk26"><path d="M526.46,221.7179 C536.33,220.5479 546.41,219.5379 555.98,218.8979 C637.57,213.4079 658.2,218.8079 739.98,218.8979 C1133.2,219.3379 1231.8,205.4179 1624.72,220.8979 C1678.47,223.0179 1733.0031,227.182 1779.1531,231.242" fill="none" id="S3NET-to-METRICS" style="stroke:#000000;stroke-width:1;stroke-dasharray:7,7;"/><polygon fill="#000000" points="1785.13,231.7679,1776.5152,226.9945,1780.1492,231.3297,1775.8141,234.9637,1785.13,231.7679" style="stroke:#000000;stroke-width:1;"/></g><!--link META to METRICS--><g class="link" data-entity-1="ent0006" data-entity-2="ent0008" data-link-type="dependency" data-source-line="34" id="lnk27"><path d="M955.15,257.2679 C965.08,255.5079 975.08,253.9979 984.72,252.8979 C1279.42,219.2979 1627.5453,228.5546 1779.0153,234.9546" fill="none" id="META-to-METRICS" style="stroke:#000000;stroke-width:1;stroke-dasharray:7,7;"/><polygon fill="#000000" points="1785.01,235.2079,1776.1869,230.8315,1780.0145,234.9968,1775.8492,238.8244,1785.01,235.2079" style="stroke:#000000;stroke-width:1;"/></g><!--link RESTNET to METRICS--><g class="link" data-entity-1="ent0007" data-entity-2="ent0008" data-link-type="dependency" data-source-line="35" id="lnk28"><path d="M1338.97,297.8779 C1451.49,285.1379 1664.2681,261.0331 1779.1281,248.0231" fill="none" id="RESTNET-to-METRICS" style="stroke:#000000;stroke-width:1;stroke-dasharray:7,7;"/><polygon fill="#000000" points="1785.09,247.3479,1775.697,244.3862,1780.1218,247.9106,1776.5974,252.3354,1785.09,247.3479" style="stroke:#000000;stroke-width:1;"/></g><!--link PFX to GMN29--><g class="link" data-entity-1="ent0013" data-entity-2="ent0030" data-link-type="association" data-source-line="37" id="lnk31"><path d="M1756.96,443.1279 C1673.19,437.1179 1559.98,413.6679 1501.72,335.3979 C1466.42,287.9779 1464.71,248.4979 1501.72,202.3979 C1538.87,156.1079 1596.4,132.9579 1654.6,122.2479" fill="none" id="PFX-GMN29" style="stroke:#000000;stroke-width:1;stroke-dasharray:7,7;"/></g><?plantuml-src RLJHSjew47ttLsnvlG6bDozj7pf3WDpc1WWJ6oPpXnbciHPGiILN4YGjmxztPPl6lfCdZFQSezqzg_tWTvGJ51ag7RczqWLQpC7jK9eNfRUmmSnH8sBDGSlKM4qMFlxT24ZQu27pTqRxARBaaBxZuW0nQXTvvJE2cJNVAVKmC3kof3t4tbZS4dGXlX6FwpBuD8eJI2opCkHmbD76WpTWrNRdGIhB86LqX2b7eHFVG9ef5bjgV77yAUBXWx1fPZHr01qh3oxOKlg23h3u1RTRilFx4Xd2WoZeezvokfstBC2HFQgKN0TE4K1gyeBrkOAEkrbfygiwljJVacG6dwu_NTUNJqT9cv2JnvMlbUb_nC_NrnLnCahwRPubvz-zgcQ4xD-xpAhKhUYrCDQJNMhsW0ztT73m-UFRPK_tWpWwDuk_nNHFMW9AB9XPLoxHuneTnskxwd2fytZxRmloi6Y57nQjw8A2Aw8_dRPGYz6W1PjPsgZNRehfZYx0fPvhjL4auI-UY9oquud039IMz4gor9dTFRTq9jpty0-6jqjjIV9CC1yFKdd8ZGpMXbOCRxaDF3FGxNwjx8Cl_0kXsTozUIB-6INYswW_5EFxE16J-JYvd_MVagWSdv9MMy74Sk8ggYdx9HuMubWLNZGAYwgR0ZaupqnjR8wP-iKvyksaZvIPWg8oshuZnw9WL3NS9izHo-WIRGYMSHuY7WtNq7ahiSjlFWWvZ_xWnFDaB7Q4agrloR7931TLEKwSrWUU4tyMfptzFBUGR3y3zqTnqhmFN84flGTZmmEkwefhWjbTuGXjkciHsDb0QFPFd8A5Pz7hzUfpOgNgQwNa-QrUDhZkMLXk-MKerZ_B8QXzwFM-_daK9RDvS4cbUQQD9rWRxqqEPbFEtkYL9moAWnTRya9IHWonzEF06mp-PDQBuh90eVIHxUPSUCWPa9eignOTOFdZUj7Km6D1-h-x-0g6i_aLF0qd_IiOF8-lW5VKOjoVWfByxiFJi0uomdtOdDN6Ou7md4Eclm40?></g></svg>