<?plantuml 1.2026.1?><svg xmlns="http://www.w3.org/2000/svg" xmlns:xlink="http://www.w3.org/1999/xlink" contentStyleType="text/css" data-diagram-type="ACTIVITY" height="785px" preserveAspectRatio="none" style="width:499px;height:785px;background:#FFFFFF;" version="1.1" viewBox="0 0 499 785" width="499px" zoomAndPan="magnify"><title>RDMA/RoCEv2 Tuning and Admission Gates</title><defs/><g><g class="title" data-source-line="2"><text fill="#000000" font-family="DejaVu Sans" font-size="22" font-weight="bold" lengthAdjust="spacing" textLength="466.9307" x="15" y="35.6357">RDMA/RoCEv2 Tuning and Admission Gates</text></g><ellipse cx="254.9634" cy="61.2979" fill="#FFFFFF" rx="10" ry="10" style="stroke:#000000;stroke-width:1;"/><rect fill="#FFFFFF" height="33.7988" rx="6" ry="6" style="stroke:#000000;stroke-width:1;" width="130.707" x="189.6099" y="91.2979"/><text fill="#000000" font-family="DejaVu Sans" font-size="12" lengthAdjust="spacing" textLength="110.707" x="199.6099" y="112.5537">Define traffic classes</text><rect fill="#FFFFFF" height="33.7988" rx="6" ry="6" style="stroke:#000000;stroke-width:1;" width="165.0664" x="172.4302" y="145.0967"/><text fill="#000000" font-family="DejaVu Sans" font-size="12" lengthAdjust="spacing" textLength="145.0664" x="182.4302" y="166.3525">Map DSCP/PCP -&gt; queues</text><polygon fill="#FFFFFF" points="194.74,198.8955,315.1868,198.8955,327.1868,210.8955,315.1868,222.8955,194.74,222.8955,182.74,210.8955,194.74,198.8955" style="stroke:#000000;stroke-width:1;"/><text fill="#000000" font-family="DejaVu Sans" font-size="11" lengthAdjust="spacing" textLength="120.4468" x="194.74" y="214.8889">Lossless class required?</text><text fill="#000000" font-family="DejaVu Sans" font-size="11" lengthAdjust="spacing" textLength="17.1177" x="165.6223" y="208.5645">yes</text><text fill="#000000" font-family="DejaVu Sans" font-size="11" lengthAdjust="spacing" textLength="12.2354" x="327.1868" y="208.5645">no</text><rect fill="#FFFFFF" height="33.7988" rx="6" ry="6" style="stroke:#000000;stroke-width:1;" width="126.7285" x="72.3809" y="232.8955"/><text fill="#000000" font-family="DejaVu Sans" font-size="12" lengthAdjust="spacing" textLength="106.7285" x="82.3809" y="254.1514">Enable scoped PFC</text><rect fill="#FFFFFF" height="33.7988" rx="6" ry="6" style="stroke:#000000;stroke-width:1;" width="238.8184" x="16.3359" y="286.6943"/><text fill="#000000" font-family="DejaVu Sans" font-size="12" lengthAdjust="spacing" textLength="218.8184" x="26.3359" y="307.9502">Validate headroom and pause thresholds</text><rect fill="#FFFFFF" height="33.7988" rx="6" ry="6" style="stroke:#000000;stroke-width:1;" width="198.0547" x="275.1543" y="232.8955"/><text fill="#000000" font-family="DejaVu Sans" font-size="12" lengthAdjust="spacing" textLength="178.0547" x="285.1543" y="254.1514">Use best-effort or ECN-only class</text><polygon fill="#FFFFFF" points="254.9634,326.4932,266.9634,338.4932,254.9634,350.4932,242.9634,338.4932,254.9634,326.4932" style="stroke:#000000;stroke-width:1;"/><rect fill="#FFFFFF" height="33.7988" rx="6" ry="6" style="stroke:#000000;stroke-width:1;" width="274.7773" x="117.5747" y="370.4932"/><text fill="#000000" font-family="DejaVu Sans" font-size="12" lengthAdjust="spacing" textLength="254.7773" x="127.5747" y="391.749">Configure ECN/DCQCN per speed/buffer profile</text><rect fill="#FFFFFF" height="33.7988" rx="6" ry="6" style="stroke:#000000;stroke-width:1;" width="268.7715" x="120.5776" y="424.292"/><text fill="#000000" font-family="DejaVu Sans" font-size="12" lengthAdjust="spacing" textLength="248.7715" x="130.5776" y="445.5479">Validate MTU/FEC/link consistency end-to-end</text><rect fill="#FFFFFF" height="33.7988" rx="6" ry="6" style="stroke:#000000;stroke-width:1;" width="214.7305" x="147.5981" y="478.0908"/><text fill="#000000" font-family="DejaVu Sans" font-size="12" lengthAdjust="spacing" textLength="194.7305" x="157.5981" y="499.3467">Bind GPU/NIC rails and DPU locality</text><rect fill="#FFFFFF" height="33.7988" rx="6" ry="6" style="stroke:#000000;stroke-width:1;" width="342.1016" x="83.9126" y="531.8896"/><text fill="#000000" font-family="DejaVu Sans" font-size="12" lengthAdjust="spacing" textLength="322.1016" x="93.9126" y="553.1455">Collect telemetry: pause, ECN marks, CNP, drops, RTT, p99</text><polygon fill="#FFFFFF" points="150.7131,585.6885,359.2136,585.6885,371.2136,597.6885,359.2136,609.6885,150.7131,609.6885,138.7131,597.6885,150.7131,585.6885" style="stroke:#000000;stroke-width:1;"/><text fill="#000000" font-family="DejaVu Sans" font-size="11" lengthAdjust="spacing" textLength="208.5005" x="150.7131" y="601.6819">Telemetry stale or congestion above SLO?</text><text fill="#000000" font-family="DejaVu Sans" font-size="11" lengthAdjust="spacing" textLength="17.1177" x="121.5955" y="595.3574">yes</text><text fill="#000000" font-family="DejaVu Sans" font-size="11" lengthAdjust="spacing" textLength="12.2354" x="371.2136" y="595.3574">no</text><rect fill="#FFFFFF" height="33.7988" rx="6" ry="6" style="stroke:#000000;stroke-width:1;" width="189.3828" x="34.0217" y="619.6885"/><text fill="#000000" font-family="DejaVu Sans" font-size="12" lengthAdjust="spacing" textLength="169.3828" x="44.0217" y="640.9443">Scheduler AMBER/RED/DRAIN</text><rect fill="#FFFFFF" height="33.7988" rx="6" ry="6" style="stroke:#000000;stroke-width:1;" width="240.7637" x="8.3313" y="673.4873"/><text fill="#000000" font-family="DejaVu Sans" font-size="12" lengthAdjust="spacing" textLength="220.7637" x="18.3313" y="694.7432">Demote storage/KV/collective admissions</text><rect fill="#FFFFFF" height="33.7988" rx="6" ry="6" style="stroke:#000000;stroke-width:1;" width="220.7715" x="270.8279" y="619.6885"/><text fill="#000000" font-family="DejaVu Sans" font-size="12" lengthAdjust="spacing" textLength="200.7715" x="280.8279" y="640.9443">Scheduler GREEN for qualified scope</text><polygon fill="#FFFFFF" points="254.9634,713.2861,266.9634,725.2861,254.9634,737.2861,242.9634,725.2861,254.9634,713.2861" style="stroke:#000000;stroke-width:1;"/><ellipse cx="254.9634" cy="768.2861" fill="none" rx="11" ry="11" style="stroke:#000000;stroke-width:1;"/><ellipse cx="254.9634" cy="768.2861" fill="#FFFFFF" rx="6" ry="6" style="stroke:#000000;stroke-width:1;"/><line style="stroke:#000000;stroke-width:1;" x1="254.9634" x2="254.9634" y1="71.2979" y2="91.2979"/><polygon fill="#000000" points="250.9634,81.2979,254.9634,91.2979,258.9634,81.2979,254.9634,85.2979" style="stroke:#000000;stroke-width:1;"/><line style="stroke:#000000;stroke-width:1;" x1="254.9634" x2="254.9634" y1="125.0967" y2="145.0967"/><polygon fill="#000000" points="250.9634,135.0967,254.9634,145.0967,258.9634,135.0967,254.9634,139.0967" style="stroke:#000000;stroke-width:1;"/><line style="stroke:#000000;stroke-width:1;" x1="135.7451" x2="135.7451" y1="266.6943" y2="286.6943"/><polygon fill="#000000" points="131.7451,276.6943,135.7451,286.6943,139.7451,276.6943,135.7451,280.6943" style="stroke:#000000;stroke-width:1;"/><line style="stroke:#000000;stroke-width:1;" x1="182.74" x2="135.7451" y1="210.8955" y2="210.8955"/><line style="stroke:#000000;stroke-width:1;" x1="135.7451" x2="135.7451" y1="210.8955" y2="232.8955"/><polygon fill="#000000" points="131.7451,222.8955,135.7451,232.8955,139.7451,222.8955,135.7451,226.8955" style="stroke:#000000;stroke-width:1;"/><line style="stroke:#000000;stroke-width:1;" x1="327.1868" x2="374.1816" y1="210.8955" y2="210.8955"/><line style="stroke:#000000;stroke-width:1;" x1="374.1816" x2="374.1816" y1="210.8955" y2="232.8955"/><polygon fill="#000000" points="370.1816,222.8955,374.1816,232.8955,378.1816,222.8955,374.1816,226.8955" style="stroke:#000000;stroke-width:1;"/><line style="stroke:#000000;stroke-width:1;" x1="135.7451" x2="135.7451" y1="320.4932" y2="338.4932"/><line style="stroke:#000000;stroke-width:1;" x1="135.7451" x2="242.9634" y1="338.4932" y2="338.4932"/><polygon fill="#000000" points="232.9634,334.4932,242.9634,338.4932,232.9634,342.4932,236.9634,338.4932" style="stroke:#000000;stroke-width:1;"/><line style="stroke:#000000;stroke-width:1;" x1="374.1816" x2="374.1816" y1="266.6943" y2="338.4932"/><line style="stroke:#000000;stroke-width:1;" x1="374.1816" x2="266.9634" y1="338.4932" y2="338.4932"/><polygon fill="#000000" points="276.9634,334.4932,266.9634,338.4932,276.9634,342.4932,272.9634,338.4932" style="stroke:#000000;stroke-width:1;"/><line style="stroke:#000000;stroke-width:1;" x1="254.9634" x2="254.9634" y1="178.8955" y2="198.8955"/><polygon fill="#000000" points="250.9634,188.8955,254.9634,198.8955,258.9634,188.8955,254.9634,192.8955" style="stroke:#000000;stroke-width:1;"/><line style="stroke:#000000;stroke-width:1;" x1="254.9634" x2="254.9634" y1="350.4932" y2="370.4932"/><polygon fill="#000000" points="250.9634,360.4932,254.9634,370.4932,258.9634,360.4932,254.9634,364.4932" style="stroke:#000000;stroke-width:1;"/><line style="stroke:#000000;stroke-width:1;" x1="254.9634" x2="254.9634" y1="404.292" y2="424.292"/><polygon fill="#000000" points="250.9634,414.292,254.9634,424.292,258.9634,414.292,254.9634,418.292" style="stroke:#000000;stroke-width:1;"/><line style="stroke:#000000;stroke-width:1;" x1="254.9634" x2="254.9634" y1="458.0908" y2="478.0908"/><polygon fill="#000000" points="250.9634,468.0908,254.9634,478.0908,258.9634,468.0908,254.9634,472.0908" style="stroke:#000000;stroke-width:1;"/><line style="stroke:#000000;stroke-width:1;" x1="254.9634" x2="254.9634" y1="511.8896" y2="531.8896"/><polygon fill="#000000" points="250.9634,521.8896,254.9634,531.8896,258.9634,521.8896,254.9634,525.8896" style="stroke:#000000;stroke-width:1;"/><line style="stroke:#000000;stroke-width:1;" x1="128.7131" x2="128.7131" y1="653.4873" y2="673.4873"/><polygon fill="#000000" points="124.7131,663.4873,128.7131,673.4873,132.7131,663.4873,128.7131,667.4873" style="stroke:#000000;stroke-width:1;"/><line style="stroke:#000000;stroke-width:1;" x1="138.7131" x2="128.7131" y1="597.6885" y2="597.6885"/><line style="stroke:#000000;stroke-width:1;" x1="128.7131" x2="128.7131" y1="597.6885" y2="619.6885"/><polygon fill="#000000" points="124.7131,609.6885,128.7131,619.6885,132.7131,609.6885,128.7131,613.6885" style="stroke:#000000;stroke-width:1;"/><line style="stroke:#000000;stroke-width:1;" x1="371.2136" x2="381.2136" y1="597.6885" y2="597.6885"/><line style="stroke:#000000;stroke-width:1;" x1="381.2136" x2="381.2136" y1="597.6885" y2="619.6885"/><polygon fill="#000000" points="377.2136,609.6885,381.2136,619.6885,385.2136,609.6885,381.2136,613.6885" style="stroke:#000000;stroke-width:1;"/><line style="stroke:#000000;stroke-width:1;" x1="128.7131" x2="128.7131" y1="707.2861" y2="725.2861"/><line style="stroke:#000000;stroke-width:1;" x1="128.7131" x2="242.9634" y1="725.2861" y2="725.2861"/><polygon fill="#000000" points="232.9634,721.2861,242.9634,725.2861,232.9634,729.2861,236.9634,725.2861" style="stroke:#000000;stroke-width:1;"/><line style="stroke:#000000;stroke-width:1;" x1="381.2136" x2="381.2136" y1="653.4873" y2="725.2861"/><line style="stroke:#000000;stroke-width:1;" x1="381.2136" x2="266.9634" y1="725.2861" y2="725.2861"/><polygon fill="#000000" points="276.9634,721.2861,266.9634,725.2861,276.9634,729.2861,272.9634,725.2861" style="stroke:#000000;stroke-width:1;"/><line style="stroke:#000000;stroke-width:1;" x1="254.9634" x2="254.9634" y1="565.6885" y2="585.6885"/><polygon fill="#000000" points="250.9634,575.6885,254.9634,585.6885,258.9634,575.6885,254.9634,579.6885" style="stroke:#000000;stroke-width:1;"/><line style="stroke:#000000;stroke-width:1;" x1="254.9634" x2="254.9634" y1="737.2861" y2="757.2861"/><polygon fill="#000000" points="250.9634,747.2861,254.9634,757.2861,258.9634,747.2861,254.9634,751.2861" style="stroke:#000000;stroke-width:1;"/><?plantuml-src PP9FRzim3CNl_XJSBGKI6Ekj2R0XjPsWMEDvpfyxOr6n5bboHRb3llte1DcAxMJPf9_Uxv6VOaiTGM_Hk2IQQ0dgVBDCQvyLxu-m6vnn9q2dOAawmsoyWpL6ueJFnlKOi0DkKVbVOvz6o_IX4lpWLEE3em2V7pyK56aSR5nv5qkK-tFwYOS1jkX4E6A8oJmdRHn13AYrQQ2no4oyIEORx27VPbLQPHNCli3RGCDOC1echvxP4lEj7GAz3IQG-le0mkbWSY5-I03cXSEZe7BZUr9GhRB5-FM0rYY1WvPG1U-xAtYF0ukFDX2ttYgvYOGI9ivVfVPoFXB76MdjGmGVeCZAcNVsSdCX_KuPdSmpxxGv3O76XZJFVcGbz98CzqGgFGvQoqiVl3QMXFEFcyrkdwwABBN6dQ7nZWr7Siq5H7SM_KmUqlvinEkwsgVbImO1ZUMh-xpQW_MDQCNBOlHWBJKH8bcPUmoN-OrlEdg23iEPfv2LrHGaW5xEzMutXVxfwPRlxluRo9GaG84LGoV17nS3Z_wTOFlw_R-yjqrBQh32jzmy5tLQ5tcQrykNyffxJfqNJeu-u8dIRuUqkTaq8eVtlVit-B-QwxeeIf3qPHS4L1kPwNMqz-X5kVyD?></g></svg>