<?plantuml 1.2026.1?><svg xmlns="http://www.w3.org/2000/svg" xmlns:xlink="http://www.w3.org/1999/xlink" contentStyleType="text/css" data-diagram-type="DESCRIPTION" height="226px" preserveAspectRatio="none" style="width:1674px;height:226px;background:#FFFFFF;" version="1.1" viewBox="0 0 1674 226" width="1674px" zoomAndPan="magnify"><title>v4 CXL Memory Pool Governance for UA-Link Pods</title><defs/><g><g class="title" data-source-line="2"><text fill="#000000" font-family="DejaVu Sans" font-size="22" font-weight="bold" lengthAdjust="spacing" textLength="537.8828" x="564.0268" y="35.6357">v4 CXL Memory Pool Governance for UA-Link Pods</text></g><!--entity FM--><g class="entity" data-qualified-name="FM" data-source-line="8" id="ent0002"><rect fill="#D6EAF8" height="46.0986" rx="6" ry="6" style="stroke:#000000;stroke-width:1;" width="208.8545" x="12" y="98.2979"/><rect fill="#D6EAF8" height="10" style="stroke:#000000;stroke-width:1;" width="15" x="200.8545" y="103.2979"/><rect fill="#D6EAF8" height="2" style="stroke:#000000;stroke-width:1;" width="4" x="198.8545" y="105.2979"/><rect fill="#D6EAF8" height="2" style="stroke:#000000;stroke-width:1;" width="4" x="198.8545" y="109.2979"/><text fill="#000000" font-family="DejaVu Sans" font-size="14" lengthAdjust="spacing" textLength="168.8545" x="27" y="131.4297">CXL Fabric / Pool Manager</text></g><!--entity DEV--><g class="entity" data-qualified-name="DEV" data-source-line="9" id="ent0003"><rect fill="#FCF3CF" height="46.0986" rx="6" ry="6" style="stroke:#000000;stroke-width:1;" width="208.0684" x="478.12" y="98.2979"/><rect fill="#FCF3CF" height="10" style="stroke:#000000;stroke-width:1;" width="15" x="666.1884" y="103.2979"/><rect fill="#FCF3CF" height="2" style="stroke:#000000;stroke-width:1;" width="4" x="664.1884" y="105.2979"/><rect fill="#FCF3CF" height="2" style="stroke:#000000;stroke-width:1;" width="4" x="664.1884" y="109.2979"/><text fill="#000000" font-family="DejaVu Sans" font-size="14" lengthAdjust="spacing" textLength="168.0684" x="493.12" y="131.4297">CXL Type-3 / Pool Devices</text></g><!--entity CE--><g class="entity" data-qualified-name="CE" data-source-line="10" id="ent0004"><rect fill="#D5F5E3" height="46.0986" rx="6" ry="6" style="stroke:#000000;stroke-width:1;" width="243.8682" x="1001.46" y="98.2979"/><rect fill="#D5F5E3" height="10" style="stroke:#000000;stroke-width:1;" width="15" x="1225.3282" y="103.2979"/><rect fill="#D5F5E3" height="2" style="stroke:#000000;stroke-width:1;" width="4" x="1223.3282" y="105.2979"/><rect fill="#D5F5E3" height="2" style="stroke:#000000;stroke-width:1;" width="4" x="1223.3282" y="109.2979"/><text fill="#000000" font-family="DejaVu Sans" font-size="14" lengthAdjust="spacing" textLength="203.8682" x="1016.46" y="131.4297">Coherence-CE Placement Policy</text></g><!--entity S--><g class="entity" data-qualified-name="S" data-source-line="11" id="ent0005"><rect fill="#E8DAEF" height="46.0986" rx="6" ry="6" style="stroke:#000000;stroke-width:1;" width="171.5098" x="1492.38" y="58.2979"/><rect fill="#E8DAEF" height="10" style="stroke:#000000;stroke-width:1;" width="15" x="1643.8898" y="63.2979"/><rect fill="#E8DAEF" height="2" style="stroke:#000000;stroke-width:1;" width="4" x="1641.8898" y="65.2979"/><rect fill="#E8DAEF" height="2" style="stroke:#000000;stroke-width:1;" width="4" x="1641.8898" y="69.2979"/><text fill="#000000" font-family="DejaVu Sans" font-size="14" lengthAdjust="spacing" textLength="131.5098" x="1507.38" y="91.4297">Scheduler Admission</text></g><!--entity Z--><g class="entity" data-qualified-name="Z" data-source-line="12" id="ent0006"><rect fill="#FADBD8" height="46.0986" rx="6" ry="6" style="stroke:#000000;stroke-width:1;" width="181.6064" x="1487.33" y="154.2979"/><rect fill="#FADBD8" height="10" style="stroke:#000000;stroke-width:1;" width="15" x="1648.9364" y="159.2979"/><rect fill="#FADBD8" height="2" style="stroke:#000000;stroke-width:1;" width="4" x="1646.9364" y="161.2979"/><rect fill="#FADBD8" height="2" style="stroke:#000000;stroke-width:1;" width="4" x="1646.9364" y="165.2979"/><text fill="#000000" font-family="DejaVu Sans" font-size="14" lengthAdjust="spacing" textLength="141.6064" x="1502.33" y="187.4297">OpenZFS Durable Tier</text></g><g class="entity" data-qualified-name="GMN12" data-source-line="21" id="ent0013"><path d="M401.85,185.3979 L401.85,213.2953 A6,6 0 0 0 407.85,219.2953 L756.456,219.2953 A6,6 0 0 0 762.456,213.2953 L762.456,189.3979 L752.456,179.3979 L586.16,179.3979 L582.16,144.7479 L578.16,179.3979 L407.85,179.3979 A6,6 0 0 0 401.85,185.3979" fill="#FFFFFF" style="stroke:#000000;stroke-width:1;"/><path d="M752.456,179.3979 L752.456,186.3979 A3,3 0 0 0 755.456,189.3979 L762.456,189.3979 L752.456,179.3979" fill="#FFFFFF" style="stroke:#000000;stroke-width:1;"/><text fill="#000000" font-family="DejaVu Sans" font-size="13" lengthAdjust="spacing" textLength="252.9287" x="407.85" y="196.5917">Volatile CXL cannot acknowledge durability.</text><text fill="#000000" font-family="DejaVu Sans" font-size="13" lengthAdjust="spacing" textLength="339.606" x="407.85" y="211.5404">Persistent/block roles require ADR-015 media qualification.</text></g><!--link FM to DEV--><g class="link" data-entity-1="ent0002" data-entity-2="ent0003" data-link-type="dependency" data-source-line="14" id="lnk7"><path d="M221.21,121.3479 C297.7,121.3479 395.29,121.3479 471.71,121.3479" fill="none" id="FM-to-DEV" style="stroke:#000000;stroke-width:1;"/><polygon fill="#000000" points="477.71,121.3479,468.71,117.3479,472.71,121.3479,468.71,125.3479,477.71,121.3479" style="stroke:#000000;stroke-width:1;"/><text fill="#000000" font-family="DejaVu Sans" font-size="13" lengthAdjust="spacing" textLength="98.2871" x="262.3141" y="103.5417">ownership epoch</text><text fill="#000000" font-family="DejaVu Sans" font-size="13" lengthAdjust="spacing" textLength="119.2153" x="251.85" y="118.4904">link + RAS + thermal</text></g><!--link DEV to CE--><g class="link" data-entity-1="ent0003" data-entity-2="ent0004" data-link-type="dependency" data-source-line="15" id="lnk8"><path d="M686.49,121.3479 C776.25,121.3479 900.34,121.3479 995.03,121.3479" fill="none" id="DEV-to-CE" style="stroke:#000000;stroke-width:1;"/><polygon fill="#000000" points="1001.03,121.3479,992.03,117.3479,996.03,121.3479,992.03,125.3479,1001.03,121.3479" style="stroke:#000000;stroke-width:1;"/><text fill="#000000" font-family="DejaVu Sans" font-size="13" lengthAdjust="spacing" textLength="177.7788" x="793.46" y="118.5417">capacity + latency + bandwidth</text></g><!--link CE to S--><g class="link" data-entity-1="ent0004" data-entity-2="ent0005" data-link-type="dependency" data-source-line="16" id="lnk9"><path d="M1245.46,107.3279 C1255.56,106.2779 1265.62,105.2679 1275.33,104.3479 C1348.44,97.4479 1425.6846,91.6463 1486.1946,87.4163" fill="none" id="CE-to-S" style="stroke:#000000;stroke-width:1;"/><polygon fill="#000000" points="1492.18,86.9979,1482.923,83.6352,1487.1922,87.3465,1483.4809,91.6157,1492.18,86.9979" style="stroke:#000000;stroke-width:1;"/><text fill="#000000" font-family="DejaVu Sans" font-size="13" lengthAdjust="spacing" textLength="180.2798" x="1276.33" y="86.8717">pool pressure + class suitability</text></g><!--link S to CE--><g class="link" data-entity-1="ent0005" data-entity-2="ent0004" data-link-type="dependency" data-source-line="17" id="lnk10"><path d="M1528.19,104.8079 C1506.93,113.7579 1481.43,122.8779 1457.33,127.3479 C1387.98,140.2079 1315.1062,139.8547 1251.5462,135.5347" fill="none" id="S-to-CE" style="stroke:#000000;stroke-width:1;"/><polygon fill="#000000" points="1245.56,135.1279,1254.268,139.7289,1250.5485,135.4669,1254.8105,131.7474,1245.56,135.1279" style="stroke:#000000;stroke-width:1;"/><text fill="#000000" font-family="DejaVu Sans" font-size="13" lengthAdjust="spacing" textLength="125.728" x="1303.83" y="124.5417">admit / demote / drain</text></g><!--link CE to Z--><g class="link" data-entity-1="ent0004" data-entity-2="ent0006" data-link-type="dependency" data-source-line="18" id="lnk11"><path d="M1198.17,144.7979 C1222.5,151.6179 1249.85,158.3079 1275.33,162.3479 C1345.92,173.5579 1420.8606,177.0042 1481.1406,177.8442" fill="none" id="CE-to-Z" style="stroke:#000000;stroke-width:1;"/><polygon fill="#000000" points="1487.14,177.9279,1478.1966,173.8028,1482.1405,177.8582,1478.0851,181.8021,1487.14,177.9279" style="stroke:#000000;stroke-width:1;"/><text fill="#000000" font-family="DejaVu Sans" font-size="13" lengthAdjust="spacing" textLength="178.4644" x="1277.33" y="159.5417">durable classes via write policy</text></g><?plantuml-src NLB1Rjim3BthAxZcEBXTbtK8UXZWnVOkpHRKNJ04kz0I7MkH9LUI4-JlIxaPbkvY2EPxv7kFV1SxwWa6WzgAgACXE7o2vQy7M57l_0dMpXduvWxaBLf9q3eFF_FiGTizrrGGOQ_jW1vx21qgTzHs1osQG1SLxqQhfFEMFDn-l2WeQd4qiN8sVaVMKT0Vt8nGemt2K1iXEl1wrqLGsfECsbaXfEi7Pyb6k4f2Asoybd3pAdM55dVahm03L2kO5P_Bl5hyptaw3PJD_t8AEcX9OU8KvGPcrRAQBwit9DUH9muWMvQmDYWvDVw_TaRBqqJa_xFYhhehvvUyMdQaHiE-SzNh4DZ0XAvXLYwAl7mpvCT0TblLK8mU6zx4apuRsRAalFXQB8HWJrdsPP9v3-x8YOPE3q23azrlQz9QtiDZNlENL-jxD29X4uSLteF40QME9wuRZEmelHgqwgXLx0HZ4hHcv92Y6Jo5C7fYa3GO0eHHHsoquHQY_jSMsLtaF1LVJQJqyEcYpkssZ51dKrCR2d3G24Ul6JnC8GfX4xDnCReUN9iiYerZaPfPQMaIBKC0vTwweo6rezUcavXhiUOeT61ByQOnJkxvwWpFyVGyykr0NZnc7sxle2V5avz7DBhL4jD9NGko2jBu5m00?></g></svg>