<?plantuml 1.2026.1?><svg xmlns="http://www.w3.org/2000/svg" xmlns:xlink="http://www.w3.org/1999/xlink" contentStyleType="text/css" data-diagram-type="ACTIVITY" height="785px" preserveAspectRatio="none" style="width:530px;height:785px;background:#FFFFFF;" version="1.1" viewBox="0 0 530 785" width="530px" zoomAndPan="magnify"><title>v4 RDMA/RoCEv2 Tuning and Admission Gates</title><defs/><g><g class="title" data-source-line="2"><text fill="#000000" font-family="DejaVu Sans" font-size="22" font-weight="bold" lengthAdjust="spacing" textLength="497.5137" x="15" y="35.6357">v4 RDMA/RoCEv2 Tuning and Admission Gates</text></g><ellipse cx="270.2549" cy="61.2979" fill="#FFFFFF" rx="10" ry="10" style="stroke:#000000;stroke-width:1;"/><rect fill="#FFFFFF" height="33.7988" rx="6" ry="6" style="stroke:#000000;stroke-width:1;" width="130.707" x="204.9014" y="91.2979"/><text fill="#000000" font-family="DejaVu Sans" font-size="12" lengthAdjust="spacing" textLength="110.707" x="214.9014" y="112.5537">Define traffic classes</text><rect fill="#FFFFFF" height="33.7988" rx="6" ry="6" style="stroke:#000000;stroke-width:1;" width="165.0664" x="187.7217" y="145.0967"/><text fill="#000000" font-family="DejaVu Sans" font-size="12" lengthAdjust="spacing" textLength="145.0664" x="197.7217" y="166.3525">Map DSCP/PCP -&gt; queues</text><polygon fill="#FFFFFF" points="210.0315,198.8955,330.4783,198.8955,342.4783,210.8955,330.4783,222.8955,210.0315,222.8955,198.0315,210.8955,210.0315,198.8955" style="stroke:#000000;stroke-width:1;"/><text fill="#000000" font-family="DejaVu Sans" font-size="11" lengthAdjust="spacing" textLength="120.4468" x="210.0315" y="214.8889">Lossless class required?</text><text fill="#000000" font-family="DejaVu Sans" font-size="11" lengthAdjust="spacing" textLength="17.1177" x="180.9138" y="208.5645">yes</text><text fill="#000000" font-family="DejaVu Sans" font-size="11" lengthAdjust="spacing" textLength="12.2354" x="342.4783" y="208.5645">no</text><rect fill="#FFFFFF" height="33.7988" rx="6" ry="6" style="stroke:#000000;stroke-width:1;" width="126.7285" x="87.6724" y="232.8955"/><text fill="#000000" font-family="DejaVu Sans" font-size="12" lengthAdjust="spacing" textLength="106.7285" x="97.6724" y="254.1514">Enable scoped PFC</text><rect fill="#FFFFFF" height="33.7988" rx="6" ry="6" style="stroke:#000000;stroke-width:1;" width="238.8184" x="31.6274" y="286.6943"/><text fill="#000000" font-family="DejaVu Sans" font-size="12" lengthAdjust="spacing" textLength="218.8184" x="41.6274" y="307.9502">Validate headroom and pause thresholds</text><rect fill="#FFFFFF" height="33.7988" rx="6" ry="6" style="stroke:#000000;stroke-width:1;" width="198.0547" x="290.4458" y="232.8955"/><text fill="#000000" font-family="DejaVu Sans" font-size="12" lengthAdjust="spacing" textLength="178.0547" x="300.4458" y="254.1514">Use best-effort or ECN-only class</text><polygon fill="#FFFFFF" points="270.2549,326.4932,282.2549,338.4932,270.2549,350.4932,258.2549,338.4932,270.2549,326.4932" style="stroke:#000000;stroke-width:1;"/><rect fill="#FFFFFF" height="33.7988" rx="6" ry="6" style="stroke:#000000;stroke-width:1;" width="274.7773" x="132.8662" y="370.4932"/><text fill="#000000" font-family="DejaVu Sans" font-size="12" lengthAdjust="spacing" textLength="254.7773" x="142.8662" y="391.749">Configure ECN/DCQCN per speed/buffer profile</text><rect fill="#FFFFFF" height="33.7988" rx="6" ry="6" style="stroke:#000000;stroke-width:1;" width="268.7715" x="135.8691" y="424.292"/><text fill="#000000" font-family="DejaVu Sans" font-size="12" lengthAdjust="spacing" textLength="248.7715" x="145.8691" y="445.5479">Validate MTU/FEC/link consistency end-to-end</text><rect fill="#FFFFFF" height="33.7988" rx="6" ry="6" style="stroke:#000000;stroke-width:1;" width="214.7305" x="162.8896" y="478.0908"/><text fill="#000000" font-family="DejaVu Sans" font-size="12" lengthAdjust="spacing" textLength="194.7305" x="172.8896" y="499.3467">Bind GPU/NIC rails and DPU locality</text><rect fill="#FFFFFF" height="33.7988" rx="6" ry="6" style="stroke:#000000;stroke-width:1;" width="342.1016" x="99.2041" y="531.8896"/><text fill="#000000" font-family="DejaVu Sans" font-size="12" lengthAdjust="spacing" textLength="322.1016" x="109.2041" y="553.1455">Collect telemetry: pause, ECN marks, CNP, drops, RTT, p99</text><polygon fill="#FFFFFF" points="166.0046,585.6885,374.5051,585.6885,386.5051,597.6885,374.5051,609.6885,166.0046,609.6885,154.0046,597.6885,166.0046,585.6885" style="stroke:#000000;stroke-width:1;"/><text fill="#000000" font-family="DejaVu Sans" font-size="11" lengthAdjust="spacing" textLength="208.5005" x="166.0046" y="601.6819">Telemetry stale or congestion above SLO?</text><text fill="#000000" font-family="DejaVu Sans" font-size="11" lengthAdjust="spacing" textLength="17.1177" x="136.887" y="595.3574">yes</text><text fill="#000000" font-family="DejaVu Sans" font-size="11" lengthAdjust="spacing" textLength="12.2354" x="386.5051" y="595.3574">no</text><rect fill="#FFFFFF" height="33.7988" rx="6" ry="6" style="stroke:#000000;stroke-width:1;" width="189.3828" x="49.3132" y="619.6885"/><text fill="#000000" font-family="DejaVu Sans" font-size="12" lengthAdjust="spacing" textLength="169.3828" x="59.3132" y="640.9443">Scheduler AMBER/RED/DRAIN</text><rect fill="#FFFFFF" height="33.7988" rx="6" ry="6" style="stroke:#000000;stroke-width:1;" width="240.7637" x="23.6228" y="673.4873"/><text fill="#000000" font-family="DejaVu Sans" font-size="12" lengthAdjust="spacing" textLength="220.7637" x="33.6228" y="694.7432">Demote storage/KV/collective admissions</text><rect fill="#FFFFFF" height="33.7988" rx="6" ry="6" style="stroke:#000000;stroke-width:1;" width="220.7715" x="286.1194" y="619.6885"/><text fill="#000000" font-family="DejaVu Sans" font-size="12" lengthAdjust="spacing" textLength="200.7715" x="296.1194" y="640.9443">Scheduler GREEN for qualified scope</text><polygon fill="#FFFFFF" points="270.2549,713.2861,282.2549,725.2861,270.2549,737.2861,258.2549,725.2861,270.2549,713.2861" style="stroke:#000000;stroke-width:1;"/><ellipse cx="270.2549" cy="768.2861" fill="none" rx="11" ry="11" style="stroke:#000000;stroke-width:1;"/><ellipse cx="270.2549" cy="768.2861" fill="#FFFFFF" rx="6" ry="6" style="stroke:#000000;stroke-width:1;"/><line style="stroke:#000000;stroke-width:1;" x1="270.2549" x2="270.2549" y1="71.2979" y2="91.2979"/><polygon fill="#000000" points="266.2549,81.2979,270.2549,91.2979,274.2549,81.2979,270.2549,85.2979" style="stroke:#000000;stroke-width:1;"/><line style="stroke:#000000;stroke-width:1;" x1="270.2549" x2="270.2549" y1="125.0967" y2="145.0967"/><polygon fill="#000000" points="266.2549,135.0967,270.2549,145.0967,274.2549,135.0967,270.2549,139.0967" style="stroke:#000000;stroke-width:1;"/><line style="stroke:#000000;stroke-width:1;" x1="151.0366" x2="151.0366" y1="266.6943" y2="286.6943"/><polygon fill="#000000" points="147.0366,276.6943,151.0366,286.6943,155.0366,276.6943,151.0366,280.6943" style="stroke:#000000;stroke-width:1;"/><line style="stroke:#000000;stroke-width:1;" x1="198.0315" x2="151.0366" y1="210.8955" y2="210.8955"/><line style="stroke:#000000;stroke-width:1;" x1="151.0366" x2="151.0366" y1="210.8955" y2="232.8955"/><polygon fill="#000000" points="147.0366,222.8955,151.0366,232.8955,155.0366,222.8955,151.0366,226.8955" style="stroke:#000000;stroke-width:1;"/><line style="stroke:#000000;stroke-width:1;" x1="342.4783" x2="389.4731" y1="210.8955" y2="210.8955"/><line style="stroke:#000000;stroke-width:1;" x1="389.4731" x2="389.4731" y1="210.8955" y2="232.8955"/><polygon fill="#000000" points="385.4731,222.8955,389.4731,232.8955,393.4731,222.8955,389.4731,226.8955" style="stroke:#000000;stroke-width:1;"/><line style="stroke:#000000;stroke-width:1;" x1="151.0366" x2="151.0366" y1="320.4932" y2="338.4932"/><line style="stroke:#000000;stroke-width:1;" x1="151.0366" x2="258.2549" y1="338.4932" y2="338.4932"/><polygon fill="#000000" points="248.2549,334.4932,258.2549,338.4932,248.2549,342.4932,252.2549,338.4932" style="stroke:#000000;stroke-width:1;"/><line style="stroke:#000000;stroke-width:1;" x1="389.4731" x2="389.4731" y1="266.6943" y2="338.4932"/><line style="stroke:#000000;stroke-width:1;" x1="389.4731" x2="282.2549" y1="338.4932" y2="338.4932"/><polygon fill="#000000" points="292.2549,334.4932,282.2549,338.4932,292.2549,342.4932,288.2549,338.4932" style="stroke:#000000;stroke-width:1;"/><line style="stroke:#000000;stroke-width:1;" x1="270.2549" x2="270.2549" y1="178.8955" y2="198.8955"/><polygon fill="#000000" points="266.2549,188.8955,270.2549,198.8955,274.2549,188.8955,270.2549,192.8955" style="stroke:#000000;stroke-width:1;"/><line style="stroke:#000000;stroke-width:1;" x1="270.2549" x2="270.2549" y1="350.4932" y2="370.4932"/><polygon fill="#000000" points="266.2549,360.4932,270.2549,370.4932,274.2549,360.4932,270.2549,364.4932" style="stroke:#000000;stroke-width:1;"/><line style="stroke:#000000;stroke-width:1;" x1="270.2549" x2="270.2549" y1="404.292" y2="424.292"/><polygon fill="#000000" points="266.2549,414.292,270.2549,424.292,274.2549,414.292,270.2549,418.292" style="stroke:#000000;stroke-width:1;"/><line style="stroke:#000000;stroke-width:1;" x1="270.2549" x2="270.2549" y1="458.0908" y2="478.0908"/><polygon fill="#000000" points="266.2549,468.0908,270.2549,478.0908,274.2549,468.0908,270.2549,472.0908" style="stroke:#000000;stroke-width:1;"/><line style="stroke:#000000;stroke-width:1;" x1="270.2549" x2="270.2549" y1="511.8896" y2="531.8896"/><polygon fill="#000000" points="266.2549,521.8896,270.2549,531.8896,274.2549,521.8896,270.2549,525.8896" style="stroke:#000000;stroke-width:1;"/><line style="stroke:#000000;stroke-width:1;" x1="144.0046" x2="144.0046" y1="653.4873" y2="673.4873"/><polygon fill="#000000" points="140.0046,663.4873,144.0046,673.4873,148.0046,663.4873,144.0046,667.4873" style="stroke:#000000;stroke-width:1;"/><line style="stroke:#000000;stroke-width:1;" x1="154.0046" x2="144.0046" y1="597.6885" y2="597.6885"/><line style="stroke:#000000;stroke-width:1;" x1="144.0046" x2="144.0046" y1="597.6885" y2="619.6885"/><polygon fill="#000000" points="140.0046,609.6885,144.0046,619.6885,148.0046,609.6885,144.0046,613.6885" style="stroke:#000000;stroke-width:1;"/><line style="stroke:#000000;stroke-width:1;" x1="386.5051" x2="396.5051" y1="597.6885" y2="597.6885"/><line style="stroke:#000000;stroke-width:1;" x1="396.5051" x2="396.5051" y1="597.6885" y2="619.6885"/><polygon fill="#000000" points="392.5051,609.6885,396.5051,619.6885,400.5051,609.6885,396.5051,613.6885" style="stroke:#000000;stroke-width:1;"/><line style="stroke:#000000;stroke-width:1;" x1="144.0046" x2="144.0046" y1="707.2861" y2="725.2861"/><line style="stroke:#000000;stroke-width:1;" x1="144.0046" x2="258.2549" y1="725.2861" y2="725.2861"/><polygon fill="#000000" points="248.2549,721.2861,258.2549,725.2861,248.2549,729.2861,252.2549,725.2861" style="stroke:#000000;stroke-width:1;"/><line style="stroke:#000000;stroke-width:1;" x1="396.5051" x2="396.5051" y1="653.4873" y2="725.2861"/><line style="stroke:#000000;stroke-width:1;" x1="396.5051" x2="282.2549" y1="725.2861" y2="725.2861"/><polygon fill="#000000" points="292.2549,721.2861,282.2549,725.2861,292.2549,729.2861,288.2549,725.2861" style="stroke:#000000;stroke-width:1;"/><line style="stroke:#000000;stroke-width:1;" x1="270.2549" x2="270.2549" y1="565.6885" y2="585.6885"/><polygon fill="#000000" points="266.2549,575.6885,270.2549,585.6885,274.2549,575.6885,270.2549,579.6885" style="stroke:#000000;stroke-width:1;"/><line style="stroke:#000000;stroke-width:1;" x1="270.2549" x2="270.2549" y1="737.2861" y2="757.2861"/><polygon fill="#000000" points="266.2549,747.2861,270.2549,757.2861,274.2549,747.2861,270.2549,751.2861" style="stroke:#000000;stroke-width:1;"/><?plantuml-src PP9FZzem4CNlV8hfZPL0KLUzB4Yjs2IWLPSq3N_kGpmcBewTzJXKVFjEG6nNxIbEPlByVc_cKsoe9UWi6ZUA9bg2ynUeilKYgNoQdnzXsplZZe1EmKArXjbu1okCn2C-6TTXm1QuGUL_3tqQBTE7Il2zKxKFZW9yVlnGKAInjt7fNInGB6Jq2_SzRD29SCGGHxECj744CQ3MfeRQ8ZFnV3HROmVP9YsJCYrX-XNUUkg7Wj4mVlNCbfXlxH3ehJU1rBS745G7umlnmmXWbZiy22tNlYC5vJAT3r_tQ8qIE6W8LV2-lO9tsBFuQ09nuwsIcqWeOUpyLMedvmDnd9BMFaJm0VAqc7fdBpSNqk-KqQDPwfqsnpxGq91awS-qW4wIuOv89OTUQtdfWjV6ad2-krblTyaoJnDht0bgxzXm95TVG7IdqK_b8UtFHhokobrIlAGGq5Y-ki_A7LXVYrQyp0SFrb8T8PALqSTmcTtu9eCdQ36SU09fKKv00kZaN6st4-YUdcxvRk-_WKn90XHOCNGK_64nyE3F19lN7__blQaRKhqLliNwEQ-IAi-Ih5gy5DVSCsgzS7Bq0O-KVDydzSsc4Jcyxzs_mV_LN5LvNe2aBxiWeDh8JA-ZlKSlojqV?></g></svg>