<?plantuml 1.2026.1?><svg xmlns="http://www.w3.org/2000/svg" xmlns:xlink="http://www.w3.org/1999/xlink" contentStyleType="text/css" data-diagram-type="ACTIVITY" height="874px" preserveAspectRatio="none" style="width:668px;height:874px;background:#FFFFFF;" version="1.1" viewBox="0 0 668 874" width="668px" zoomAndPan="magnify"><title>ADR-025 Print Section 03 - Platform Semantics, Collect, Gate</title><defs/><g><g class="title" data-source-line="18"><text fill="#000000" font-family="DejaVu Sans" font-size="22" font-weight="bold" lengthAdjust="spacing" textLength="635.7334" x="15" y="35.6357">ADR-025 Print Section 03 - Platform Semantics, Collect, Gate</text></g><ellipse cx="320.2021" cy="61.2979" fill="#145A32" rx="10" ry="10" style="stroke:#000000;stroke-width:1;"/><rect fill="#FFFFFF" height="227.2939" rx="6" ry="6" style="stroke:#000000;stroke-width:1;" width="480.8809" x="87.9263" y="81.2979"/><path d="M294.7534,81.2979 L294.7534,90.3965 L284.7534,100.3965 L87.9263,100.3965" fill="none" style="stroke:#000000;stroke-width:1;"/><text fill="#000000" font-family="DejaVu Sans" font-size="14" lengthAdjust="spacing" textLength="196.8271" x="90.9263" y="95.4297">Cross-platform result semantics</text><polygon fill="#FCF3CF" points="249.873,117.3965,390.5313,117.3965,402.5313,129.3965,390.5313,141.3965,249.873,141.3965,237.873,129.3965,249.873,117.3965" style="stroke:#B7950B;stroke-width:1;"/><text fill="#000000" font-family="DejaVu Sans" font-size="11" lengthAdjust="spacing" textLength="140.6582" x="249.873" y="133.3899">backend unavailable on OS?</text><text fill="#000000" font-family="DejaVu Sans" font-size="11" lengthAdjust="spacing" textLength="85.6099" x="152.2632" y="127.0654">not feature failure</text><text fill="#000000" font-family="DejaVu Sans" font-size="11" lengthAdjust="spacing" textLength="40.9761" x="402.5313" y="127.0654">qualified</text><rect fill="#FDFEFE" height="47.5977" rx="6" ry="6" style="stroke:#566573;stroke-width:1;" width="188.709" x="108.6274" y="151.3965"/><text fill="#000000" font-family="DejaVu Sans" font-size="12" lengthAdjust="spacing" textLength="166.0488" x="118.6274" y="172.6523">Record SKIPPED_PLATFORM</text><text fill="#000000" font-family="DejaVu Sans" font-size="12" lengthAdjust="spacing" textLength="168.709" x="118.6274" y="186.4512">or INCONCLUSIVE_BACKEND</text><rect fill="#FDFEFE" height="47.5977" rx="6" ry="6" style="stroke:#566573;stroke-width:1;" width="206.1113" x="99.9263" y="218.9941"/><text fill="#000000" font-family="DejaVu Sans" font-size="12" lengthAdjust="spacing" textLength="177.4277" x="109.9263" y="240.25">Validate portable service contract</text><text fill="#000000" font-family="DejaVu Sans" font-size="12" lengthAdjust="spacing" textLength="186.1113" x="109.9263" y="254.0488">through abstraction where possible</text><rect fill="#FDFEFE" height="47.5977" rx="6" ry="6" style="stroke:#566573;stroke-width:1;" width="222.7695" x="326.0376" y="151.3965"/><text fill="#000000" font-family="DejaVu Sans" font-size="12" lengthAdjust="spacing" textLength="198.1055" x="336.0376" y="172.6523">Record backend-specific qualification</text><text fill="#000000" font-family="DejaVu Sans" font-size="12" lengthAdjust="spacing" textLength="202.7695" x="336.0376" y="186.4512">separately from portable feature result</text><polygon fill="#FCF3CF" points="320.2021,272.5918,332.2021,284.5918,320.2021,296.5918,308.2021,284.5918,320.2021,272.5918" style="stroke:#B7950B;stroke-width:1;"/><rect fill="#FFFFFF" height="297.0928" rx="6" ry="6" style="stroke:#000000;stroke-width:1;" width="197.4121" x="221.4961" y="318.5918"/><path d="M327.1924,318.5918 L327.1924,327.6904 L317.1924,337.6904 L221.4961,337.6904" fill="none" style="stroke:#000000;stroke-width:1;"/><text fill="#000000" font-family="DejaVu Sans" font-size="14" lengthAdjust="spacing" textLength="95.6963" x="224.4961" y="332.7236">Collect artifacts</text><rect fill="#FDFEFE" height="33.7988" rx="6" ry="6" style="stroke:#566573;stroke-width:1;" width="69.3535" x="285.5254" y="354.6904"/><text fill="#000000" font-family="DejaVu Sans" font-size="12" lengthAdjust="spacing" textLength="49.3535" x="295.5254" y="375.9463">Raw logs</text><rect fill="#FDFEFE" height="33.7988" rx="6" ry="6" style="stroke:#566573;stroke-width:1;" width="116.0234" x="262.1904" y="408.4893"/><text fill="#000000" font-family="DejaVu Sans" font-size="12" lengthAdjust="spacing" textLength="96.0234" x="272.1904" y="429.7451">Normalized JSON</text><rect fill="#FDFEFE" height="33.7988" rx="6" ry="6" style="stroke:#566573;stroke-width:1;" width="177.4121" x="231.4961" y="462.2881"/><text fill="#000000" font-family="DejaVu Sans" font-size="12" lengthAdjust="spacing" textLength="157.4121" x="241.4961" y="483.5439">Prometheus/OTLP snapshots</text><rect fill="#FDFEFE" height="33.7988" rx="6" ry="6" style="stroke:#566573;stroke-width:1;" width="173.4102" x="233.4971" y="516.0869"/><text fill="#000000" font-family="DejaVu Sans" font-size="12" lengthAdjust="spacing" textLength="153.4102" x="243.4971" y="537.3428">SLURM or adapter metadata</text><rect fill="#FDFEFE" height="33.7988" rx="6" ry="6" style="stroke:#566573;stroke-width:1;" width="167.3984" x="236.5029" y="569.8857"/><text fill="#000000" font-family="DejaVu Sans" font-size="12" lengthAdjust="spacing" textLength="147.3984" x="246.5029" y="591.1416">Configs, versions, inventory</text><rect fill="#FFFFFF" height="200.9941" rx="6" ry="6" style="stroke:#000000;stroke-width:1;" width="473.3696" x="107.4375" y="625.6846"/><path d="M147.7891,625.6846 L147.7891,634.7832 L137.7891,644.7832 L107.4375,644.7832" fill="none" style="stroke:#000000;stroke-width:1;"/><text fill="#000000" font-family="DejaVu Sans" font-size="14" lengthAdjust="spacing" textLength="30.3516" x="110.4375" y="639.8164">Gate</text><polygon fill="#FCF3CF" points="245.9199,661.7832,394.4844,661.7832,406.4844,674.4321,394.4844,687.0811,245.9199,687.0811,233.9199,674.4321,245.9199,661.7832" style="stroke:#B7950B;stroke-width:1;"/><text fill="#000000" font-family="DejaVu Sans" font-size="11" lengthAdjust="spacing" textLength="136.3237" x="245.9199" y="672.1011">SLO, correctness, recovery,</text><text fill="#000000" font-family="DejaVu Sans" font-size="11" lengthAdjust="spacing" textLength="142.4521" x="252.0322" y="684.75">telemetry freshness all pass?</text><text fill="#000000" font-family="DejaVu Sans" font-size="11" lengthAdjust="spacing" textLength="29.3477" x="204.5723" y="672.1011">PASS</text><text fill="#000000" font-family="DejaVu Sans" font-size="11" lengthAdjust="spacing" textLength="59.8931" x="406.4844" y="672.1011">WARN/FAIL</text><rect fill="#FDFEFE" height="33.7988" rx="6" ry="6" style="stroke:#566573;stroke-width:1;" width="156.0898" x="127.4375" y="697.0811"/><text fill="#000000" font-family="DejaVu Sans" font-size="12" lengthAdjust="spacing" textLength="136.0898" x="137.4375" y="718.3369">Promote evidence bundle</text><rect fill="#FDFEFE" height="33.7988" rx="6" ry="6" style="stroke:#566573;stroke-width:1;" width="158.0645" x="355.8896" y="697.0811"/><text fill="#000000" font-family="DejaVu Sans" font-size="12" lengthAdjust="spacing" textLength="138.0645" x="365.8896" y="718.3369">Assign owning subsystem</text><rect fill="#FDFEFE" height="33.7988" rx="6" ry="6" style="stroke:#566573;stroke-width:1;" width="262.7891" x="303.5273" y="750.8799"/><text fill="#000000" font-family="DejaVu Sans" font-size="12" lengthAdjust="spacing" textLength="242.7891" x="313.5273" y="772.1357">Publish rollback/remediation recommendation</text><polygon fill="#FCF3CF" points="320.2021,790.6787,332.2021,802.6787,320.2021,814.6787,308.2021,802.6787,320.2021,790.6787" style="stroke:#B7950B;stroke-width:1;"/><ellipse cx="320.2021" cy="857.6787" fill="none" rx="11" ry="11" style="stroke:#000000;stroke-width:1;"/><ellipse cx="320.2021" cy="857.6787" fill="#FFFFFF" rx="6" ry="6" style="stroke:#000000;stroke-width:1;"/><line style="stroke:#34495E;stroke-width:1;" x1="202.9819" x2="202.9819" y1="198.9941" y2="218.9941"/><polygon fill="#34495E" points="198.9819,208.9941,202.9819,218.9941,206.9819,208.9941,202.9819,212.9941" style="stroke:#34495E;stroke-width:1;"/><line style="stroke:#34495E;stroke-width:1;" x1="237.873" x2="202.9819" y1="129.3965" y2="129.3965"/><line style="stroke:#34495E;stroke-width:1;" x1="202.9819" x2="202.9819" y1="129.3965" y2="151.3965"/><polygon fill="#34495E" points="198.9819,141.3965,202.9819,151.3965,206.9819,141.3965,202.9819,145.3965" style="stroke:#34495E;stroke-width:1;"/><line style="stroke:#34495E;stroke-width:1;" x1="402.5313" x2="437.4224" y1="129.3965" y2="129.3965"/><line style="stroke:#34495E;stroke-width:1;" x1="437.4224" x2="437.4224" y1="129.3965" y2="151.3965"/><polygon fill="#34495E" points="433.4224,141.3965,437.4224,151.3965,441.4224,141.3965,437.4224,145.3965" style="stroke:#34495E;stroke-width:1;"/><line style="stroke:#34495E;stroke-width:1;" x1="202.9819" x2="202.9819" y1="266.5918" y2="284.5918"/><line style="stroke:#34495E;stroke-width:1;" x1="202.9819" x2="308.2021" y1="284.5918" y2="284.5918"/><polygon fill="#34495E" points="298.2021,280.5918,308.2021,284.5918,298.2021,288.5918,302.2021,284.5918" style="stroke:#34495E;stroke-width:1;"/><line style="stroke:#34495E;stroke-width:1;" x1="437.4224" x2="437.4224" y1="198.9941" y2="284.5918"/><line style="stroke:#34495E;stroke-width:1;" x1="437.4224" x2="332.2021" y1="284.5918" y2="284.5918"/><polygon fill="#34495E" points="342.2021,280.5918,332.2021,284.5918,342.2021,288.5918,338.2021,284.5918" style="stroke:#34495E;stroke-width:1;"/><line style="stroke:#34495E;stroke-width:1;" x1="320.2021" x2="320.2021" y1="71.2979" y2="117.3965"/><polygon fill="#34495E" points="316.2021,107.3965,320.2021,117.3965,324.2021,107.3965,320.2021,111.3965" style="stroke:#34495E;stroke-width:1;"/><line style="stroke:#34495E;stroke-width:1;" x1="320.2021" x2="320.2021" y1="388.4893" y2="408.4893"/><polygon fill="#34495E" points="316.2021,398.4893,320.2021,408.4893,324.2021,398.4893,320.2021,402.4893" style="stroke:#34495E;stroke-width:1;"/><line style="stroke:#34495E;stroke-width:1;" x1="320.2021" x2="320.2021" y1="442.2881" y2="462.2881"/><polygon fill="#34495E" points="316.2021,452.2881,320.2021,462.2881,324.2021,452.2881,320.2021,456.2881" style="stroke:#34495E;stroke-width:1;"/><line style="stroke:#34495E;stroke-width:1;" x1="320.2021" x2="320.2021" y1="496.0869" y2="516.0869"/><polygon fill="#34495E" points="316.2021,506.0869,320.2021,516.0869,324.2021,506.0869,320.2021,510.0869" style="stroke:#34495E;stroke-width:1;"/><line style="stroke:#34495E;stroke-width:1;" x1="320.2021" x2="320.2021" y1="549.8857" y2="569.8857"/><polygon fill="#34495E" points="316.2021,559.8857,320.2021,569.8857,324.2021,559.8857,320.2021,563.8857" style="stroke:#34495E;stroke-width:1;"/><line style="stroke:#34495E;stroke-width:1;" x1="320.2021" x2="320.2021" y1="296.5918" y2="354.6904"/><polygon fill="#34495E" points="316.2021,344.6904,320.2021,354.6904,324.2021,344.6904,320.2021,348.6904" style="stroke:#34495E;stroke-width:1;"/><line style="stroke:#34495E;stroke-width:1;" x1="434.9219" x2="434.9219" y1="730.8799" y2="750.8799"/><polygon fill="#34495E" points="430.9219,740.8799,434.9219,750.8799,438.9219,740.8799,434.9219,744.8799" style="stroke:#34495E;stroke-width:1;"/><line style="stroke:#34495E;stroke-width:1;" x1="233.9199" x2="205.4824" y1="674.4321" y2="674.4321"/><line style="stroke:#34495E;stroke-width:1;" x1="205.4824" x2="205.4824" y1="674.4321" y2="697.0811"/><polygon fill="#34495E" points="201.4824,687.0811,205.4824,697.0811,209.4824,687.0811,205.4824,691.0811" style="stroke:#34495E;stroke-width:1;"/><line style="stroke:#34495E;stroke-width:1;" x1="406.4844" x2="434.9219" y1="674.4321" y2="674.4321"/><line style="stroke:#34495E;stroke-width:1;" x1="434.9219" x2="434.9219" y1="674.4321" y2="697.0811"/><polygon fill="#34495E" points="430.9219,687.0811,434.9219,697.0811,438.9219,687.0811,434.9219,691.0811" style="stroke:#34495E;stroke-width:1;"/><line style="stroke:#34495E;stroke-width:1;" x1="205.4824" x2="205.4824" y1="730.8799" y2="802.6787"/><line style="stroke:#34495E;stroke-width:1;" x1="205.4824" x2="308.2021" y1="802.6787" y2="802.6787"/><polygon fill="#34495E" points="298.2021,798.6787,308.2021,802.6787,298.2021,806.6787,302.2021,802.6787" style="stroke:#34495E;stroke-width:1;"/><line style="stroke:#34495E;stroke-width:1;" x1="434.9219" x2="434.9219" y1="784.6787" y2="802.6787"/><line style="stroke:#34495E;stroke-width:1;" x1="434.9219" x2="332.2021" y1="802.6787" y2="802.6787"/><polygon fill="#34495E" points="342.2021,798.6787,332.2021,802.6787,342.2021,806.6787,338.2021,802.6787" style="stroke:#34495E;stroke-width:1;"/><line style="stroke:#34495E;stroke-width:1;" x1="320.2021" x2="320.2021" y1="603.6846" y2="661.7832"/><polygon fill="#34495E" points="316.2021,651.7832,320.2021,661.7832,324.2021,651.7832,320.2021,655.7832" style="stroke:#34495E;stroke-width:1;"/><line style="stroke:#34495E;stroke-width:1;" x1="320.2021" x2="320.2021" y1="814.6787" y2="846.6787"/><polygon fill="#34495E" points="316.2021,836.6787,320.2021,846.6787,324.2021,836.6787,320.2021,840.6787" style="stroke:#34495E;stroke-width:1;"/><?plantuml-src TLJ1Jjj04BtdAwRq0b8Y826WmA5o7BjA2OuL0psYZJsEjwnttTrrehJYtplh632jUeepCs_cpNjZVx85bWYLO5psp3EN5TEi15EmJEsut43EXC5EHgjQPgdI4ZMS3pk937DM2nigQID6BMVuWptMa31fEbMUrchdAw4qV1vTN4p6GIV9KikttExXTmzWojBdJJEjBGzdOH06BgDqXhgDZYylnrSZYiuuAvNC_eNvuSWFEmLTzFHgCZwRKZAnJDisU7unzaP32WPlJIR3uNHutdlfa9NAud-81k4akFgRQ3lgfMUv5GZUR3Ku6uuXrbnQI91MLnBEHZ20M32RArrIj6JIyjJqWPe8gkd3LsR93iUsHpoebuCT-LePCwXUWHeDMG7c5N_K4EKv7A-9BCeCQicsZ0ks9YhKO9byEG4w1Gd7j1Vao6ojaSpdWdvF20nmlKBoFOFaTXx7mUmfNdZtuN9rroHfmtdaBoD_yP3C7uEdgUVV1j7ive1yP89dH1mgfMqpqw3UyXGXfNFHv7jJPmkISLC0Mvicw5RR5QWTpXXEEDSFwI3X-6TDFNEEsKToxNu3Ks5AwHJQkfIvRasfGMUWHR67NAlodTFhrWVrcb4oupbPrbNwO0IuI4uSMsslLsm7GcsCWrr7P0AD_OKPV4kMKHEBQHQInBKvNTulOZ2ILQPGze185W-hEwSYorXbwTsYMdgqhCdwIkPyGsUmHMs81ZrnkKLfbTxVVEJdxkFTxcInx9F6MXDbYOPmzAIeoxvF5QG1lVnMEo7G5Au0c11GCMFUxY7sagJLsAtWhXwtF4D9xgtfwBkcVFTMqMdepHSjm2FNDXBKJhfFYQdNPcyibkrLnFLQS5FG9qK8vzkf9ZOPRvngU9Ob6T3yxPfXhAh-0000?></g></svg>