<?plantuml 1.2026.1?><svg xmlns="http://www.w3.org/2000/svg" xmlns:xlink="http://www.w3.org/1999/xlink" contentStyleType="text/css" data-diagram-type="ACTIVITY" height="1067px" preserveAspectRatio="none" style="width:802px;height:1067px;background:#FFFFFF;" version="1.1" viewBox="0 0 802 1067" width="802px" zoomAndPan="magnify"><title>ADR-010 - Coherence-CE Write Policy to OpenZFS</title><defs/><g><g class="title" data-source-line="18"><text fill="#000000" font-family="DejaVu Sans" font-size="22" font-weight="bold" lengthAdjust="spacing" textLength="525.6367" x="136.8232" y="35.6357">ADR-010 - Coherence-CE Write Policy to OpenZFS</text></g><ellipse cx="401.1416" cy="61.2979" fill="#145A32" rx="10" ry="10" style="stroke:#000000;stroke-width:1;"/><rect fill="#FFFFFF" height="239.1118" rx="6" ry="6" style="stroke:#000000;stroke-width:1;" width="790.2832" x="6" y="81.2979"/><path d="M131.917,81.2979 L131.917,90.3965 L121.917,100.3965 L6,100.3965" fill="none" style="stroke:#000000;stroke-width:1;"/><text fill="#000000" font-family="DejaVu Sans" font-size="14" lengthAdjust="spacing" textLength="115.917" x="9" y="95.4297">Write classification</text><rect fill="#FDFEFE" height="47.5977" rx="6" ry="6" style="stroke:#566573;stroke-width:1;" width="273.4531" x="264.415" y="117.3965"/><text fill="#000000" font-family="DejaVu Sans" font-size="12" lengthAdjust="spacing" textLength="253.4531" x="274.415" y="138.6523">Publish KV/object mutation with durability class,</text><text fill="#000000" font-family="DejaVu Sans" font-size="12" lengthAdjust="spacing" textLength="233.4902" x="274.415" y="152.4512">lease_epoch, idempotency_key, byte_count</text><polygon fill="#FCF3CF" points="87.49,184.9941,200.5784,184.9941,212.5784,196.9941,200.5784,208.9941,87.49,208.9941,75.49,196.9941,87.49,184.9941" style="stroke:#B7950B;stroke-width:1;"/><text fill="#000000" font-family="DejaVu Sans" font-size="11" lengthAdjust="spacing" textLength="66.6499" x="148.0342" y="219.312">recomputable</text><text fill="#000000" font-family="DejaVu Sans" font-size="11" lengthAdjust="spacing" textLength="113.0884" x="87.49" y="200.9875">class is KV-D0/KV-D1?</text><rect fill="#FDFEFE" height="47.5977" rx="6" ry="6" style="stroke:#566573;stroke-width:1;" width="256.0684" x="16" y="240.812"/><text fill="#000000" font-family="DejaVu Sans" font-size="12" lengthAdjust="spacing" textLength="236.0684" x="26" y="262.0679">Use write-around or memory-only write-back</text><text fill="#000000" font-family="DejaVu Sans" font-size="12" lengthAdjust="spacing" textLength="137.4082" x="26" y="275.8667">no durable ACK promised</text><polygon fill="#FCF3CF" points="348.2478,184.9941,461.3362,184.9941,473.3362,196.9941,461.3362,208.9941,348.2478,208.9941,336.2478,196.9941,348.2478,184.9941" style="stroke:#B7950B;stroke-width:1;"/><text fill="#000000" font-family="DejaVu Sans" font-size="11" lengthAdjust="spacing" textLength="65.4414" x="408.792" y="219.312">bounded loss</text><text fill="#000000" font-family="DejaVu Sans" font-size="11" lengthAdjust="spacing" textLength="113.0884" x="348.2478" y="200.9875">class is KV-D2/KV-D3?</text><text fill="#000000" font-family="DejaVu Sans" font-size="11" lengthAdjust="spacing" textLength="36.6953" x="473.3362" y="194.6631">durable</text><rect fill="#FDFEFE" height="47.5977" rx="6" ry="6" style="stroke:#566573;stroke-width:1;" width="225.4473" x="292.0684" y="240.812"/><text fill="#000000" font-family="DejaVu Sans" font-size="12" lengthAdjust="spacing" textLength="181.418" x="302.0684" y="262.0679">Use write-back with flush deadline</text><text fill="#000000" font-family="DejaVu Sans" font-size="12" lengthAdjust="spacing" textLength="205.4473" x="302.0684" y="275.8667">and scheduler-visible dirty-byte budget</text><rect fill="#FDFEFE" height="33.7988" rx="6" ry="6" style="stroke:#566573;stroke-width:1;" width="248.7676" x="537.5156" y="244.387"/><text fill="#000000" font-family="DejaVu Sans" font-size="12" lengthAdjust="spacing" textLength="228.7676" x="547.5156" y="265.6428">Use write-through to OpenZFS before ACK</text><rect fill="#FFFFFF" height="213.4951" rx="6" ry="6" style="stroke:#000000;stroke-width:1;" width="586.2461" x="93.8506" y="330.4097"/><path d="M159.8848,330.4097 L159.8848,339.5083 L149.8848,349.5083 L93.8506,349.5083" fill="none" style="stroke:#000000;stroke-width:1;"/><text fill="#000000" font-family="DejaVu Sans" font-size="14" lengthAdjust="spacing" textLength="56.0342" x="96.8506" y="344.5415">Buffering</text><rect fill="#FDFEFE" height="47.5977" rx="6" ry="6" style="stroke:#566573;stroke-width:1;" width="236.0703" x="283.1064" y="366.5083"/><text fill="#000000" font-family="DejaVu Sans" font-size="12" lengthAdjust="spacing" textLength="216.0703" x="293.1064" y="387.7642">Stage in kv_dram_warm or kv_cxl_warm</text><text fill="#000000" font-family="DejaVu Sans" font-size="12" lengthAdjust="spacing" textLength="190.7637" x="293.1064" y="401.563">track dirty_ranges and writer_epoch</text><polygon fill="#FCF3CF" points="343.9609,434.106,458.3223,434.106,470.3223,446.106,458.3223,458.106,343.9609,458.106,331.9609,446.106,343.9609,434.106" style="stroke:#B7950B;stroke-width:1;"/><text fill="#000000" font-family="DejaVu Sans" font-size="11" lengthAdjust="spacing" textLength="114.3613" x="343.9609" y="450.0994">dirty budget exceeded?</text><text fill="#000000" font-family="DejaVu Sans" font-size="11" lengthAdjust="spacing" textLength="17.1177" x="314.8433" y="443.7749">yes</text><text fill="#000000" font-family="DejaVu Sans" font-size="11" lengthAdjust="spacing" textLength="12.2354" x="470.3223" y="443.7749">no</text><rect fill="#FDFEFE" height="33.7988" rx="6" ry="6" style="stroke:#566573;stroke-width:1;" width="291.459" x="113.8506" y="468.106"/><text fill="#000000" font-family="DejaVu Sans" font-size="12" lengthAdjust="spacing" textLength="271.459" x="123.8506" y="489.3618">Force flush, throttle producer, or demote admission</text><rect fill="#FDFEFE" height="33.7988" rx="6" ry="6" style="stroke:#566573;stroke-width:1;" width="234.7871" x="425.3096" y="468.106"/><text fill="#000000" font-family="DejaVu Sans" font-size="12" lengthAdjust="spacing" textLength="214.7871" x="435.3096" y="489.3618">Continue coalescing and checksumming</text><polygon fill="#FCF3CF" points="401.1416,507.9048,413.1416,519.9048,401.1416,531.9048,389.1416,519.9048,401.1416,507.9048" style="stroke:#B7950B;stroke-width:1;"/><rect fill="#FFFFFF" height="267.2939" rx="6" ry="6" style="stroke:#000000;stroke-width:1;" width="596.2598" x="92.3521" y="553.9048"/><path d="M182.5171,553.9048 L182.5171,563.0034 L172.5171,573.0034 L92.3521,573.0034" fill="none" style="stroke:#000000;stroke-width:1;"/><text fill="#000000" font-family="DejaVu Sans" font-size="14" lengthAdjust="spacing" textLength="80.165" x="95.3521" y="568.0366">Durable path</text><rect fill="#FDFEFE" height="47.5977" rx="6" ry="6" style="stroke:#566573;stroke-width:1;" width="205.4023" x="298.4404" y="590.0034"/><text fill="#000000" font-family="DejaVu Sans" font-size="12" lengthAdjust="spacing" textLength="185.4023" x="308.4404" y="611.2593">Flush via DPU NVMe-oF port 4420</text><text fill="#000000" font-family="DejaVu Sans" font-size="12" lengthAdjust="spacing" textLength="177.416" x="308.4404" y="625.0581">RoCEv2 UDP 4791 storage class</text><rect fill="#FDFEFE" height="33.7988" rx="6" ry="6" style="stroke:#566573;stroke-width:1;" width="294.7227" x="253.7803" y="657.6011"/><text fill="#000000" font-family="DejaVu Sans" font-size="12" lengthAdjust="spacing" textLength="274.7227" x="263.7803" y="678.8569">OpenZFS commits zfs_slog, checksum, mirror write</text><polygon fill="#FCF3CF" points="307.6094,711.3999,494.6738,711.3999,506.6738,723.3999,494.6738,735.3999,307.6094,735.3999,295.6094,723.3999,307.6094,711.3999" style="stroke:#B7950B;stroke-width:1;"/><text fill="#000000" font-family="DejaVu Sans" font-size="11" lengthAdjust="spacing" textLength="187.0645" x="307.6094" y="727.3933">ACK mismatch, timeout, or split brain?</text><text fill="#000000" font-family="DejaVu Sans" font-size="11" lengthAdjust="spacing" textLength="29.96" x="265.6494" y="721.0688">failure</text><text fill="#000000" font-family="DejaVu Sans" font-size="11" lengthAdjust="spacing" textLength="39.7354" x="506.6738" y="721.0688">success</text><rect fill="#FDFEFE" height="33.7988" rx="6" ry="6" style="stroke:#566573;stroke-width:1;" width="289.4492" x="112.3521" y="745.3999"/><text fill="#000000" font-family="DejaVu Sans" font-size="12" lengthAdjust="spacing" textLength="269.4492" x="122.3521" y="766.6558">Fence writer epoch and trigger recovery semantics</text><rect fill="#FDFEFE" height="33.7988" rx="6" ry="6" style="stroke:#566573;stroke-width:1;" width="246.8105" x="421.8013" y="745.3999"/><text fill="#000000" font-family="DejaVu Sans" font-size="12" lengthAdjust="spacing" textLength="226.8105" x="431.8013" y="766.6558">Return durable_epoch to Coherence mesh</text><polygon fill="#FCF3CF" points="401.1416,785.1987,413.1416,797.1987,401.1416,809.1987,389.1416,797.1987,401.1416,785.1987" style="stroke:#B7950B;stroke-width:1;"/><ellipse cx="401.1416" cy="852.1987" fill="none" rx="11" ry="11" style="stroke:#000000;stroke-width:1;"/><ellipse cx="401.1416" cy="852.1987" fill="#FFFFFF" rx="6" ry="6" style="stroke:#000000;stroke-width:1;"/><line style="stroke:#34495E;stroke-width:1;" x1="144.0342" x2="144.0342" y1="208.9941" y2="240.812"/><polygon fill="#34495E" points="140.0342,230.812,144.0342,240.812,148.0342,230.812,144.0342,234.812" style="stroke:#34495E;stroke-width:1;"/><line style="stroke:#34495E;stroke-width:1;" x1="144.0342" x2="144.0342" y1="288.4097" y2="308.4097"/><polygon fill="#34495E" points="140.0342,298.4097,144.0342,308.4097,148.0342,298.4097,144.0342,302.4097" style="stroke:#34495E;stroke-width:1;"/><line style="stroke:#34495E;stroke-width:1;" x1="404.792" x2="404.792" y1="208.9941" y2="240.812"/><polygon fill="#34495E" points="400.792,230.812,404.792,240.812,408.792,230.812,404.792,234.812" style="stroke:#34495E;stroke-width:1;"/><line style="stroke:#34495E;stroke-width:1;" x1="404.792" x2="404.792" y1="288.4097" y2="308.4097"/><polygon fill="#34495E" points="400.792,298.4097,404.792,308.4097,408.792,298.4097,404.792,302.4097" style="stroke:#34495E;stroke-width:1;"/><line style="stroke:#34495E;stroke-width:1;" x1="212.5784" x2="336.2478" y1="196.9941" y2="196.9941"/><polygon fill="#34495E" points="326.2478,192.9941,336.2478,196.9941,326.2478,200.9941,330.2478,196.9941" style="stroke:#34495E;stroke-width:1;"/><line style="stroke:#34495E;stroke-width:1;" x1="401.1416" x2="401.1416" y1="164.9941" y2="169.9941"/><line style="stroke:#34495E;stroke-width:1;" x1="401.1416" x2="144.0342" y1="169.9941" y2="169.9941"/><line style="stroke:#34495E;stroke-width:1;" x1="144.0342" x2="144.0342" y1="169.9941" y2="184.9941"/><polygon fill="#34495E" points="140.0342,174.9941,144.0342,184.9941,148.0342,174.9941,144.0342,178.9941" style="stroke:#34495E;stroke-width:1;"/><line style="stroke:#34495E;stroke-width:1;" x1="473.3362" x2="661.8994" y1="196.9941" y2="196.9941"/><line style="stroke:#34495E;stroke-width:1;" x1="661.8994" x2="661.8994" y1="196.9941" y2="244.387"/><polygon fill="#34495E" points="657.8994,234.387,661.8994,244.387,665.8994,234.387,661.8994,238.387" style="stroke:#34495E;stroke-width:1;"/><line style="stroke:#34495E;stroke-width:1;" x1="661.8994" x2="661.8994" y1="278.1858" y2="308.4097"/><polygon fill="#34495E" points="657.8994,298.4097,661.8994,308.4097,665.8994,298.4097,661.8994,302.4097" style="stroke:#34495E;stroke-width:1;"/><line style="stroke:#34495E;stroke-width:1;" x1="144.0342" x2="661.8994" y1="308.4097" y2="308.4097"/><line style="stroke:#34495E;stroke-width:1;" x1="401.1416" x2="401.1416" y1="71.2979" y2="117.3965"/><polygon fill="#34495E" points="397.1416,107.3965,401.1416,117.3965,405.1416,107.3965,401.1416,111.3965" style="stroke:#34495E;stroke-width:1;"/><line style="stroke:#34495E;stroke-width:1;" x1="331.9609" x2="259.5801" y1="446.106" y2="446.106"/><line style="stroke:#34495E;stroke-width:1;" x1="259.5801" x2="259.5801" y1="446.106" y2="468.106"/><polygon fill="#34495E" points="255.5801,458.106,259.5801,468.106,263.5801,458.106,259.5801,462.106" style="stroke:#34495E;stroke-width:1;"/><line style="stroke:#34495E;stroke-width:1;" x1="470.3223" x2="542.7031" y1="446.106" y2="446.106"/><line style="stroke:#34495E;stroke-width:1;" x1="542.7031" x2="542.7031" y1="446.106" y2="468.106"/><polygon fill="#34495E" points="538.7031,458.106,542.7031,468.106,546.7031,458.106,542.7031,462.106" style="stroke:#34495E;stroke-width:1;"/><line style="stroke:#34495E;stroke-width:1;" x1="259.5801" x2="259.5801" y1="501.9048" y2="519.9048"/><line style="stroke:#34495E;stroke-width:1;" x1="259.5801" x2="389.1416" y1="519.9048" y2="519.9048"/><polygon fill="#34495E" points="379.1416,515.9048,389.1416,519.9048,379.1416,523.9048,383.1416,519.9048" style="stroke:#34495E;stroke-width:1;"/><line style="stroke:#34495E;stroke-width:1;" x1="542.7031" x2="542.7031" y1="501.9048" y2="519.9048"/><line style="stroke:#34495E;stroke-width:1;" x1="542.7031" x2="413.1416" y1="519.9048" y2="519.9048"/><polygon fill="#34495E" points="423.1416,515.9048,413.1416,519.9048,423.1416,523.9048,419.1416,519.9048" style="stroke:#34495E;stroke-width:1;"/><line style="stroke:#34495E;stroke-width:1;" x1="401.1416" x2="401.1416" y1="414.106" y2="434.106"/><polygon fill="#34495E" points="397.1416,424.106,401.1416,434.106,405.1416,424.106,401.1416,428.106" style="stroke:#34495E;stroke-width:1;"/><line style="stroke:#34495E;stroke-width:1;" x1="401.1416" x2="401.1416" y1="308.4097" y2="366.5083"/><polygon fill="#34495E" points="397.1416,356.5083,401.1416,366.5083,405.1416,356.5083,401.1416,360.5083" style="stroke:#34495E;stroke-width:1;"/><line style="stroke:#34495E;stroke-width:1;" x1="401.1416" x2="401.1416" y1="637.6011" y2="657.6011"/><polygon fill="#34495E" points="397.1416,647.6011,401.1416,657.6011,405.1416,647.6011,401.1416,651.6011" style="stroke:#34495E;stroke-width:1;"/><line style="stroke:#34495E;stroke-width:1;" x1="295.6094" x2="257.0767" y1="723.3999" y2="723.3999"/><line style="stroke:#34495E;stroke-width:1;" x1="257.0767" x2="257.0767" y1="723.3999" y2="745.3999"/><polygon fill="#34495E" points="253.0767,735.3999,257.0767,745.3999,261.0767,735.3999,257.0767,739.3999" style="stroke:#34495E;stroke-width:1;"/><line style="stroke:#34495E;stroke-width:1;" x1="506.6738" x2="545.2065" y1="723.3999" y2="723.3999"/><line style="stroke:#34495E;stroke-width:1;" x1="545.2065" x2="545.2065" y1="723.3999" y2="745.3999"/><polygon fill="#34495E" points="541.2065,735.3999,545.2065,745.3999,549.2065,735.3999,545.2065,739.3999" style="stroke:#34495E;stroke-width:1;"/><line style="stroke:#34495E;stroke-width:1;" x1="257.0767" x2="257.0767" y1="779.1987" y2="797.1987"/><line style="stroke:#34495E;stroke-width:1;" x1="257.0767" x2="389.1416" y1="797.1987" y2="797.1987"/><polygon fill="#34495E" points="379.1416,793.1987,389.1416,797.1987,379.1416,801.1987,383.1416,797.1987" style="stroke:#34495E;stroke-width:1;"/><line style="stroke:#34495E;stroke-width:1;" x1="545.2065" x2="545.2065" y1="779.1987" y2="797.1987"/><line style="stroke:#34495E;stroke-width:1;" x1="545.2065" x2="413.1416" y1="797.1987" y2="797.1987"/><polygon fill="#34495E" points="423.1416,793.1987,413.1416,797.1987,423.1416,801.1987,419.1416,797.1987" style="stroke:#34495E;stroke-width:1;"/><line style="stroke:#34495E;stroke-width:1;" x1="401.1416" x2="401.1416" y1="691.3999" y2="711.3999"/><polygon fill="#34495E" points="397.1416,701.3999,401.1416,711.3999,405.1416,701.3999,401.1416,705.3999" style="stroke:#34495E;stroke-width:1;"/><line style="stroke:#34495E;stroke-width:1;" x1="401.1416" x2="401.1416" y1="531.9048" y2="590.0034"/><polygon fill="#34495E" points="397.1416,580.0034,401.1416,590.0034,405.1416,580.0034,401.1416,584.0034" style="stroke:#34495E;stroke-width:1;"/><line style="stroke:#34495E;stroke-width:1;" x1="401.1416" x2="401.1416" y1="809.1987" y2="841.1987"/><polygon fill="#34495E" points="397.1416,831.1987,401.1416,841.1987,405.1416,831.1987,401.1416,835.1987" style="stroke:#34495E;stroke-width:1;"/><g class="legend" data-source-line="20"><rect fill="none" height="187.085" rx="6" ry="6" style="stroke:#000000;stroke-width:1;" width="577.1367" x="212.1465" y="867.1987"/><text fill="#000000" font-family="DejaVu Sans" font-size="14" lengthAdjust="spacing" textLength="368.0537" x="217.1465" y="885.3306">Design defaults for diagrams unless an ADR narrows them:</text><text fill="#000000" font-family="DejaVu Sans" font-size="14" lengthAdjust="spacing" textLength="528.3633" x="217.1465" y="901.4292">- Actor/API: HTTPS 443 or 8443; OpenAI-compatible API plus Coherence-native API.</text><text fill="#000000" font-family="DejaVu Sans" font-size="14" lengthAdjust="spacing" textLength="510.4258" x="217.1465" y="917.5278">- RoCEv2: UDP destination 4791; jumbo MTU 9000; PFC only on RDMA priorities.</text><text fill="#000000" font-family="DejaVu Sans" font-size="14" lengthAdjust="spacing" textLength="554.7432" x="217.1465" y="933.6265">- NVMe-oF: discovery/controller service on TCP/RDMA port 4420; DPU-mediated targets.</text><text fill="#000000" font-family="DejaVu Sans" font-size="14" lengthAdjust="spacing" textLength="544.7012" x="217.1465" y="949.7251">- Telemetry: OTLP gRPC 4317, OTLP HTTP 4318, Prometheus 9090/9100, gNMI 9339.</text><text fill="#000000" font-family="DejaVu Sans" font-size="14" lengthAdjust="spacing" textLength="519.8252" x="217.1465" y="965.8237">- Timing: PTP event/general UDP 319/320 on an isolated timing/management class.</text><text fill="#000000" font-family="DejaVu Sans" font-size="14" lengthAdjust="spacing" textLength="454.4121" x="217.1465" y="981.9224">- VLAN plan: site-specific IDs are allowed, but classes must stay isolated:</text><text fill="#000000" font-family="DejaVu Sans" font-size="14" lengthAdjust="spacing" textLength="559.3574" x="224.9258" y="998.021">mgmt/OOB, frontend/API, RDMA rail-A, RDMA rail-B, storage/NVMe-oF, telemetry, timing.</text><text fill="#000000" font-family="DejaVu Sans" font-size="14" lengthAdjust="spacing" textLength="507.3564" x="217.1465" y="1014.1196">- Trunks: 802.1Q tagged uplinks; rail-A and rail-B must not share a failure domain.</text><text fill="#000000" font-family="DejaVu Sans" font-size="14" lengthAdjust="spacing" textLength="464.4951" x="217.1465" y="1030.2183">- Buffers: kv_hbm_active, kv_dram_warm, kv_cxl_warm, kv_rdma_staging,</text><text fill="#000000" font-family="DejaVu Sans" font-size="14" lengthAdjust="spacing" textLength="392.2119" x="224.9258" y="1046.3169">zfs_slog, zfs_arc, zfs_l2arc, object_cache, vector_head_cache.</text></g><?plantuml-src TLLRRzis67tth_ZMlRI0N5_JrCx3uFY21MqIBxS1Gm23fZvBR2JI82cdtj3_laDAJhm5VR4bKlmkvpldy1UVSycqBOJIBVUaz5POKPBBHMgUbSve8mh7HplML3gLncgsrEiVRQIy4LNX5qRxAu6GC_uc7Ygw5TeTVJMnrZnFJM4i_JeO3aSdywDD8RtQAR-dVrf4vq8-PJ5Ry_bYjfWlvc77s9HjithowTF9wG2hCoLAezEtnwQBmNHnzC7nwVFJqKdt79ktNbZVBFQ69vD17ulpbo2ZVl-ytslzE2fM6yy_ANI-6CrF_rzea-f7oojVC4rcD-rkhqjjcfgSBMl9xUcS_hGAOPUcK79Ftj3rblLVYzjMg-2CTKfMPRblpTYfJ1yWTxH1WbI937KvgdJ1pf7G8GTf4H1t5EOyRhLf8hsndSdoOao_tzqjRsau712EVyR_MKmtkMXBKsw5L-jGv_82xAZSKPaQMxkuyn41RynqlkkFwNwsH47Egx1jD0rFHxqp-bQLQqENT_SqwdQxPxHSJCdeOeyVkfbTJcXhbK7FYbq8TlLmoMsp6ACR9ysExRuZGIXhYW9ySsntId8uUpTTTkhpndhqq4VisVA-NJ9my9mIvfcnZq7lk037lTsFwVhkwvAoc-MKXeFUQLA_1np2--U4bjRWovpHxwWxwdP6lMuteUpgye96Wy4eHbCbT36c9GxnZhNlO31iHH4H6FH6dK6_6qh409GpHLrDFDGfXHOPQj6UP25ShExXw-Ggw4-FoM7sRRTbgJPAqiKCGxHCeYZCCwS9hQlc63igA-V9UR5_oJ46uSgiz9thw_E4DXQmWJ1XqacDj1MgQ4-EN_2T0njGKgS1FY5_02jfYeuzsqe_kJ5zxlO_zlu0jbc6fgfjeR1yraH6msaJjouF2Wb64bg0ZQYYmbDgIZXDY7bURJPi4VHfjyhNvIgAdvFmceB7gsTXo_WclnUlBpOjnGfzPwWiGST_RzpA5IPBufEmidue-l7HhB-nz2ifP8x8EmxSN-KiqdhfOmi8rS9gjLnmW1Qq3Nq6_hwhfHW13_E8h7uN5JzULkj2kPo-F7Jg56ZOrxH_LZwdjB9YhOfWPV5yyWXD2iShtXgP9wHIBhVm3ottgoS6rEkzvvM4X_Wpn5SRUX_FORZ8qPvrE-6tzzk786DDxoq7XI8b5Fe11r3IlMDw3XMtHVIYeEcIIsFtxQYtUcyDhthKsjGL1dbFlq22fbIEqv2QuVPlqlTZ-i5B-dL8008KnhatwKEA6eKDR0DO06xmX1zru8S3x6a5CRTtoaM3IPNr-tO000HFeTb36VI-AV9D2f-ZnIm_yaTQCpmmjXEFwrHjOBL7qwpf1jOq8uJXPqnA_uTl0RGZnZt2UK8tiSIL5JfZ5raUox3rD0y3YnyrBH1_byo0w0MoFH-GMXWB2ulOG6Ben8Vh03D8Ayas2IM07U5o4Id6ub3zAoBQD56caBVI5VXf1EnUXgiwL0PuvPEhog3Sdo0nQqOFXyyRC1PnKZibWeSUJFZLMXzrRVBHuOAl7soZPdV8CpuC0iGi5QwaLs4UIageLBYBR8tU0RP0GBHP2X-40SjXK_c8WeEzU5h3KVGBZ8sD7A0Crr4p38h3Y1XuN98PLe9AmXM2UmF6wvLqhq2wIaf-OUyD-yhgWoZgkGPslTnva9BBZ_440Dj_0G00?></g></svg>