<?plantuml 1.2026.1?><svg xmlns="http://www.w3.org/2000/svg" xmlns:xlink="http://www.w3.org/1999/xlink" contentStyleType="text/css" data-diagram-type="ACTIVITY" height="736px" preserveAspectRatio="none" style="width:592px;height:736px;background:#FFFFFF;" version="1.1" viewBox="0 0 592 736" width="592px" zoomAndPan="magnify"><title>ADR-026 Print Section 02 - Manifest Commit</title><defs/><g><g class="title" data-source-line="18"><text fill="#000000" font-family="DejaVu Sans" font-size="22" font-weight="bold" lengthAdjust="spacing" textLength="460.8613" x="64.2463" y="35.6357">ADR-026 Print Section 02 - Manifest Commit</text></g><ellipse cx="334.9725" cy="61.2979" fill="#145A32" rx="10" ry="10" style="stroke:#000000;stroke-width:1;"/><rect fill="#FFFFFF" height="190.8916" rx="6" ry="6" style="stroke:#000000;stroke-width:1;" width="190.7559" x="239.5946" y="81.2979"/><path d="M345.3182,81.2979 L345.3182,90.3965 L335.3182,100.3965 L239.5946,100.3965" fill="none" style="stroke:#000000;stroke-width:1;"/><text fill="#000000" font-family="DejaVu Sans" font-size="14" lengthAdjust="spacing" textLength="95.7236" x="242.5946" y="95.4297">Upload session</text><rect fill="#FDFEFE" height="75.1953" rx="6" ry="6" style="stroke:#566573;stroke-width:1;" width="148.0742" x="260.9354" y="117.3965"/><text fill="#000000" font-family="DejaVu Sans" font-size="12" lengthAdjust="spacing" textLength="121.3945" x="270.9354" y="138.6523">Declare expected size,</text><text fill="#000000" font-family="DejaVu Sans" font-size="12" lengthAdjust="spacing" textLength="128.0742" x="270.9354" y="152.4512">object hash, chunk size,</text><text fill="#000000" font-family="DejaVu Sans" font-size="12" lengthAdjust="spacing" textLength="114.7324" x="270.9354" y="166.25">protocol, namespace,</text><text fill="#000000" font-family="DejaVu Sans" font-size="12" lengthAdjust="spacing" textLength="78.6973" x="270.9354" y="180.0488">durability class</text><rect fill="#FDFEFE" height="47.5977" rx="6" ry="6" style="stroke:#566573;stroke-width:1;" width="170.7559" x="249.5946" y="212.5918"/><text fill="#000000" font-family="DejaVu Sans" font-size="12" lengthAdjust="spacing" textLength="150.7559" x="259.5946" y="233.8477">Upload chunks idempotently</text><text fill="#000000" font-family="DejaVu Sans" font-size="12" lengthAdjust="spacing" textLength="109.4063" x="259.5946" y="247.6465">by number and hash</text><rect fill="#FFFFFF" height="206.8975" rx="6" ry="6" style="stroke:#000000;stroke-width:1;" width="580.354" x="6" y="282.1895"/><path d="M95.3584,282.1895 L95.3584,291.2881 L85.3584,301.2881 L6,301.2881" fill="none" style="stroke:#000000;stroke-width:1;"/><text fill="#000000" font-family="DejaVu Sans" font-size="14" lengthAdjust="spacing" textLength="79.3584" x="9" y="296.3213">Commit gate</text><polygon fill="#FCF3CF" points="286.3561,318.2881,383.589,318.2881,395.589,330.2881,383.589,342.2881,286.3561,342.2881,274.3561,330.2881,286.3561,318.2881" style="stroke:#B7950B;stroke-width:1;"/><text fill="#000000" font-family="DejaVu Sans" font-size="11" lengthAdjust="spacing" textLength="97.2329" x="286.3561" y="334.2815">chunks contiguous?</text><text fill="#000000" font-family="DejaVu Sans" font-size="11" lengthAdjust="spacing" textLength="17.1177" x="257.2384" y="327.957">yes</text><text fill="#000000" font-family="DejaVu Sans" font-size="11" lengthAdjust="spacing" textLength="37.2861" x="395.589" y="327.957">missing</text><polygon fill="#FCF3CF" points="116.3691,352.2881,265.5728,352.2881,277.5728,364.2881,265.5728,376.2881,116.3691,376.2881,104.3691,364.2881,116.3691,352.2881" style="stroke:#B7950B;stroke-width:1;"/><text fill="#000000" font-family="DejaVu Sans" font-size="11" lengthAdjust="spacing" textLength="149.2036" x="116.3691" y="368.2815">chunk sizes and hashes valid?</text><text fill="#000000" font-family="DejaVu Sans" font-size="11" lengthAdjust="spacing" textLength="17.1177" x="87.2515" y="361.957">yes</text><text fill="#000000" font-family="DejaVu Sans" font-size="11" lengthAdjust="spacing" textLength="47.0615" x="277.5728" y="361.957">mismatch</text><rect fill="#FDFEFE" height="33.7988" rx="6" ry="6" style="stroke:#566573;stroke-width:1;" width="152.7383" x="18" y="386.2881"/><text fill="#000000" font-family="DejaVu Sans" font-size="12" lengthAdjust="spacing" textLength="132.7383" x="28" y="407.5439">Compute full-object hash</text><rect fill="#FDFEFE" height="33.7988" rx="6" ry="6" style="stroke:#566573;stroke-width:1;" width="132.043" x="221.5513" y="386.2881"/><text fill="#000000" font-family="DejaVu Sans" font-size="12" lengthAdjust="spacing" textLength="112.043" x="231.5513" y="407.5439">Reject 422 mismatch</text><ellipse cx="287.5728" cy="466.0869" fill="none" rx="11" ry="11" style="stroke:#000000;stroke-width:1;"/><ellipse cx="287.5728" cy="466.0869" fill="#FFFFFF" rx="6" ry="6" style="stroke:#000000;stroke-width:1;"/><rect fill="#FDFEFE" height="33.7988" rx="6" ry="6" style="stroke:#566573;stroke-width:1;" width="190.7598" x="383.5942" y="352.2881"/><text fill="#000000" font-family="DejaVu Sans" font-size="12" lengthAdjust="spacing" textLength="170.7598" x="393.5942" y="373.5439">Reject 409 incomplete_manifest</text><ellipse cx="478.9741" cy="432.0869" fill="none" rx="11" ry="11" style="stroke:#000000;stroke-width:1;"/><ellipse cx="478.9741" cy="432.0869" fill="#FFFFFF" rx="6" ry="6" style="stroke:#000000;stroke-width:1;"/><rect fill="#FFFFFF" height="189.4951" rx="6" ry="6" style="stroke:#000000;stroke-width:1;" width="246.7539" x="211.5956" y="499.0869"/><path d="M312.6366,499.0869 L312.6366,508.1855 L302.6366,518.1855 L211.5956,518.1855" fill="none" style="stroke:#000000;stroke-width:1;"/><text fill="#000000" font-family="DejaVu Sans" font-size="14" lengthAdjust="spacing" textLength="91.041" x="214.5956" y="513.2188">Atomic publish</text><rect fill="#FDFEFE" height="33.7988" rx="6" ry="6" style="stroke:#566573;stroke-width:1;" width="170.7207" x="249.6122" y="535.1855"/><text fill="#000000" font-family="DejaVu Sans" font-size="12" lengthAdjust="spacing" textLength="150.7207" x="259.6122" y="556.4414">Commit manifest with epoch</text><rect fill="#FDFEFE" height="33.7988" rx="6" ry="6" style="stroke:#566573;stroke-width:1;" width="226.7539" x="221.5956" y="588.9844"/><text fill="#000000" font-family="DejaVu Sans" font-size="12" lengthAdjust="spacing" textLength="206.7539" x="231.5956" y="610.2402">Readers see only committed manifests</text><rect fill="#FDFEFE" height="33.7988" rx="6" ry="6" style="stroke:#566573;stroke-width:1;" width="185.416" x="242.2645" y="642.7832"/><text fill="#000000" font-family="DejaVu Sans" font-size="12" lengthAdjust="spacing" textLength="165.416" x="252.2645" y="664.0391">Partial uploads remain invisible</text><ellipse cx="334.9725" cy="719.582" fill="none" rx="11" ry="11" style="stroke:#000000;stroke-width:1;"/><ellipse cx="334.9725" cy="719.582" fill="#FFFFFF" rx="6" ry="6" style="stroke:#000000;stroke-width:1;"/><line style="stroke:#34495E;stroke-width:1;" x1="334.9725" x2="334.9725" y1="192.5918" y2="212.5918"/><polygon fill="#34495E" points="330.9725,202.5918,334.9725,212.5918,338.9725,202.5918,334.9725,206.5918" style="stroke:#34495E;stroke-width:1;"/><line style="stroke:#34495E;stroke-width:1;" x1="334.9725" x2="334.9725" y1="71.2979" y2="117.3965"/><polygon fill="#34495E" points="330.9725,107.3965,334.9725,117.3965,338.9725,107.3965,334.9725,111.3965" style="stroke:#34495E;stroke-width:1;"/><line style="stroke:#34495E;stroke-width:1;" x1="287.5728" x2="287.5728" y1="420.0869" y2="455.0869"/><polygon fill="#34495E" points="283.5728,445.0869,287.5728,455.0869,291.5728,445.0869,287.5728,449.0869" style="stroke:#34495E;stroke-width:1;"/><line style="stroke:#34495E;stroke-width:1;" x1="104.3691" x2="94.3691" y1="364.2881" y2="364.2881"/><line style="stroke:#34495E;stroke-width:1;" x1="94.3691" x2="94.3691" y1="364.2881" y2="386.2881"/><polygon fill="#34495E" points="90.3691,376.2881,94.3691,386.2881,98.3691,376.2881,94.3691,380.2881" style="stroke:#34495E;stroke-width:1;"/><line style="stroke:#34495E;stroke-width:1;" x1="277.5728" x2="287.5728" y1="364.2881" y2="364.2881"/><line style="stroke:#34495E;stroke-width:1;" x1="287.5728" x2="287.5728" y1="364.2881" y2="386.2881"/><polygon fill="#34495E" points="283.5728,376.2881,287.5728,386.2881,291.5728,376.2881,287.5728,380.2881" style="stroke:#34495E;stroke-width:1;"/><line style="stroke:#34495E;stroke-width:1;" x1="94.3691" x2="94.3691" y1="420.0869" y2="482.0869"/><line style="stroke:#34495E;stroke-width:1;" x1="94.3691" x2="334.9725" y1="482.0869" y2="482.0869"/><line style="stroke:#34495E;stroke-width:1;" x1="334.9725" x2="334.9725" y1="482.0869" y2="535.1855"/><polygon fill="#34495E" points="330.9725,525.1855,334.9725,535.1855,338.9725,525.1855,334.9725,529.1855" style="stroke:#34495E;stroke-width:1;"/><line style="stroke:#34495E;stroke-width:1;" x1="478.9741" x2="478.9741" y1="386.0869" y2="421.0869"/><polygon fill="#34495E" points="474.9741,411.0869,478.9741,421.0869,482.9741,411.0869,478.9741,415.0869" style="stroke:#34495E;stroke-width:1;"/><line style="stroke:#34495E;stroke-width:1;" x1="274.3561" x2="190.9709" y1="330.2881" y2="330.2881"/><line style="stroke:#34495E;stroke-width:1;" x1="190.9709" x2="190.9709" y1="330.2881" y2="352.2881"/><polygon fill="#34495E" points="186.9709,342.2881,190.9709,352.2881,194.9709,342.2881,190.9709,346.2881" style="stroke:#34495E;stroke-width:1;"/><line style="stroke:#34495E;stroke-width:1;" x1="395.589" x2="478.9741" y1="330.2881" y2="330.2881"/><line style="stroke:#34495E;stroke-width:1;" x1="478.9741" x2="478.9741" y1="330.2881" y2="352.2881"/><polygon fill="#34495E" points="474.9741,342.2881,478.9741,352.2881,482.9741,342.2881,478.9741,346.2881" style="stroke:#34495E;stroke-width:1;"/><line style="stroke:#34495E;stroke-width:1;" x1="334.9725" x2="334.9725" y1="260.1895" y2="318.2881"/><polygon fill="#34495E" points="330.9725,308.2881,334.9725,318.2881,338.9725,308.2881,334.9725,312.2881" style="stroke:#34495E;stroke-width:1;"/><line style="stroke:#34495E;stroke-width:1;" x1="334.9725" x2="334.9725" y1="568.9844" y2="588.9844"/><polygon fill="#34495E" points="330.9725,578.9844,334.9725,588.9844,338.9725,578.9844,334.9725,582.9844" style="stroke:#34495E;stroke-width:1;"/><line style="stroke:#34495E;stroke-width:1;" x1="334.9725" x2="334.9725" y1="622.7832" y2="642.7832"/><polygon fill="#34495E" points="330.9725,632.7832,334.9725,642.7832,338.9725,632.7832,334.9725,636.7832" style="stroke:#34495E;stroke-width:1;"/><line style="stroke:#34495E;stroke-width:1;" x1="334.9725" x2="334.9725" y1="676.582" y2="708.582"/><polygon fill="#34495E" points="330.9725,698.582,334.9725,708.582,338.9725,698.582,334.9725,702.582" style="stroke:#34495E;stroke-width:1;"/><?plantuml-src TLF9Rjj03BthAzZquW0sOCiRN1yARxgr26AqruAIA6lYMOHPdBf5_htKOaDjq9l4z_ZuPXxdWoz94LGIXOxSMUWABIfm9URcLUWJ52WTzH1hWiupOpLPcCGz8AS2W_I9qVuhikIUNl1xW2DgrsDjh3MlEoEDXO_JsMmrF_H0pBou27-5tn705hFpgPdMqPDzSaWEDM9iJhQhpXUB-NBArRr0PNJ-lcsNJ7T9Zz3ltYvNy_6MmQD7wxlYP3RVJ6Ck7kuYgpZUnfFehMTM6q__CNf8LeVblqQxKM-H5ruIRFRFet6yW2Shj8SZyT6DXd4C8_Y2MXJaFEoCKi97hlOMyLJkh4aFtoffC0T7pl7_G-FYqvuoYPQ0VbOiHWoBNpHanAGlN80INJc4h0pwV8SgQxp9Z1o2viXSXLbJpeF5LCWw2TPqRbthTqCR0GSY9rNn3MWlhuocLz11fRmJgFDcr9fFshFS7WLEwAdrAmeOT5ePhumu1HFSvqVWVTGmk99xP5AFrdXsTtd-lA0K-ViEjih3gi3f547AKU_uwuP0lD0mKC8fz5bvRtgcXZUBOxXXwmvptbHjgyv54VKa73-HLk7UFrw1q1axaEJfX-goRAKweLRch_lPUAD41bL8fN1b5sbtQJSDU1M-1AfCwumd8g-NupqWC5foM0s_plxMqaRtLCz12Q69q84bnS-TRLw44wcaEglQsXy0?></g></svg>