<?plantuml 1.2026.1?><svg xmlns="http://www.w3.org/2000/svg" xmlns:xlink="http://www.w3.org/1999/xlink" contentStyleType="text/css" data-diagram-type="ACTIVITY" height="913px" preserveAspectRatio="none" style="width:585px;height:913px;background:#FFFFFF;" version="1.1" viewBox="0 0 585 913" width="585px" zoomAndPan="magnify"><title>ADR-025 Print Section 01 - Plan, Allocate, Fast Gates</title><defs/><g><g class="title" data-source-line="18"><text fill="#000000" font-family="DejaVu Sans" font-size="22" font-weight="bold" lengthAdjust="spacing" textLength="552.6104" x="15" y="35.6357">ADR-025 Print Section 01 - Plan, Allocate, Fast Gates</text></g><ellipse cx="285.8052" cy="61.2979" fill="#145A32" rx="10" ry="10" style="stroke:#000000;stroke-width:1;"/><rect fill="#FFFFFF" height="337.0149" rx="6" ry="6" style="stroke:#000000;stroke-width:1;" width="223.751" x="178.4272" y="81.2979"/><path d="M295.8403,81.2979 L295.8403,90.3965 L285.8403,100.3965 L178.4272,100.3965" fill="none" style="stroke:#000000;stroke-width:1;"/><text fill="#000000" font-family="DejaVu Sans" font-size="14" lengthAdjust="spacing" textLength="107.4131" x="181.4272" y="95.4297">Plan and allocate</text><rect fill="#FDFEFE" height="33.7988" rx="6" ry="6" style="stroke:#566573;stroke-width:1;" width="194.7559" x="188.4272" y="117.3965"/><text fill="#000000" font-family="DejaVu Sans" font-size="12" lengthAdjust="spacing" textLength="174.7559" x="198.4272" y="138.6523">Select E2ET profile and manifest</text><rect fill="#FDFEFE" height="75.1953" rx="6" ry="6" style="stroke:#566573;stroke-width:1;" width="186.0488" x="192.7808" y="171.1953"/><text fill="#000000" font-family="DejaVu Sans" font-size="12" lengthAdjust="spacing" textLength="146.0918" x="202.7808" y="192.4512">Allocate loadgen, LB mesh,</text><text fill="#000000" font-family="DejaVu Sans" font-size="12" lengthAdjust="spacing" textLength="157.4121" x="202.7808" y="206.25">Coherence-CE, model/cache,</text><text fill="#000000" font-family="DejaVu Sans" font-size="12" lengthAdjust="spacing" textLength="166.0488" x="202.7808" y="220.0488">RDMA/DPU/OpenZFS storage,</text><text fill="#000000" font-family="DejaVu Sans" font-size="12" lengthAdjust="spacing" textLength="128.0625" x="202.7808" y="233.8477">telemetry and fault roles</text><rect fill="#FDFEFE" height="47.5977" rx="6" ry="6" style="stroke:#566573;stroke-width:1;" width="168.7461" x="201.4321" y="314.7151"/><text fill="#000000" font-family="DejaVu Sans" font-size="12" lengthAdjust="spacing" textLength="148.7461" x="211.4321" y="335.9709">Require exclusive allocation</text><text fill="#000000" font-family="DejaVu Sans" font-size="12" lengthAdjust="spacing" textLength="132.7559" x="211.4321" y="349.7698">and noisy-neighbor proof</text><polygon fill="#FCF3CF" points="214.2649,266.3906,357.3455,266.3906,369.3455,278.3906,357.3455,290.3906,214.2649,290.3906,202.2649,278.3906,214.2649,266.3906" style="stroke:#B7950B;stroke-width:1;"/><text fill="#000000" font-family="DejaVu Sans" font-size="11" lengthAdjust="spacing" textLength="45.2407" x="289.8052" y="300.7085">exclusive</text><text fill="#000000" font-family="DejaVu Sans" font-size="11" lengthAdjust="spacing" textLength="143.0806" x="214.2649" y="282.384">decision-grade performance?</text><polygon fill="#FCF3CF" points="285.8052,382.3127,297.8052,394.3127,285.8052,406.3127,273.8052,394.3127,285.8052,382.3127" style="stroke:#B7950B;stroke-width:1;"/><rect fill="#FFFFFF" height="437.0149" rx="6" ry="6" style="stroke:#000000;stroke-width:1;" width="263.4531" x="161.0786" y="428.3127"/><path d="M312.6919,428.3127 L312.6919,437.4114 L302.6919,447.4114 L161.0786,447.4114" fill="none" style="stroke:#000000;stroke-width:1;"/><text fill="#000000" font-family="DejaVu Sans" font-size="14" lengthAdjust="spacing" textLength="141.6133" x="164.0786" y="442.4446">Fast correctness gates</text><rect fill="#FDFEFE" height="33.7988" rx="6" ry="6" style="stroke:#566573;stroke-width:1;" width="139.3789" x="216.1157" y="464.4114"/><text fill="#000000" font-family="DejaVu Sans" font-size="12" lengthAdjust="spacing" textLength="119.3789" x="226.1157" y="485.6672">Static manifest checks</text><rect fill="#FDFEFE" height="47.5977" rx="6" ry="6" style="stroke:#566573;stroke-width:1;" width="182.0586" x="194.7759" y="518.2102"/><text fill="#000000" font-family="DejaVu Sans" font-size="12" lengthAdjust="spacing" textLength="162.0586" x="204.7759" y="539.4661">Unit tests for harness libraries,</text><text fill="#000000" font-family="DejaVu Sans" font-size="12" lengthAdjust="spacing" textLength="148.7461" x="204.7759" y="553.2649">parsers, scheduler adapters</text><rect fill="#FDFEFE" height="47.5977" rx="6" ry="6" style="stroke:#566573;stroke-width:1;" width="212.7852" x="179.4126" y="585.8079"/><text fill="#000000" font-family="DejaVu Sans" font-size="12" lengthAdjust="spacing" textLength="160.7344" x="189.4126" y="607.0637">Smoke tests for service health</text><text fill="#000000" font-family="DejaVu Sans" font-size="12" lengthAdjust="spacing" textLength="192.7852" x="189.4126" y="620.8625">and one minimal end-to-end request</text><rect fill="#FDFEFE" height="33.7988" rx="6" ry="6" style="stroke:#566573;stroke-width:1;" width="128.7383" x="221.436" y="701.73"/><text fill="#000000" font-family="DejaVu Sans" font-size="12" lengthAdjust="spacing" textLength="108.7383" x="231.436" y="722.9858">Abort long allocation</text><rect fill="#FDFEFE" height="33.7988" rx="6" ry="6" style="stroke:#566573;stroke-width:1;" width="225.4531" x="173.0786" y="755.5288"/><text fill="#000000" font-family="DejaVu Sans" font-size="12" lengthAdjust="spacing" textLength="205.4531" x="183.0786" y="776.7847">Preserve logs and scheduler metadata</text><ellipse cx="285.8052" cy="820.3276" fill="none" rx="11" ry="11" style="stroke:#000000;stroke-width:1;"/><ellipse cx="285.8052" cy="820.3276" fill="#FFFFFF" rx="6" ry="6" style="stroke:#000000;stroke-width:1;"/><polygon fill="#FCF3CF" points="247.5925,653.4055,324.0178,653.4055,336.0178,665.4055,324.0178,677.4055,247.5925,677.4055,235.5925,665.4055,247.5925,653.4055" style="stroke:#B7950B;stroke-width:1;"/><text fill="#000000" font-family="DejaVu Sans" font-size="11" lengthAdjust="spacing" textLength="47.6899" x="289.8052" y="687.7234">stop early</text><text fill="#000000" font-family="DejaVu Sans" font-size="11" lengthAdjust="spacing" textLength="76.4253" x="247.5925" y="669.3989">unit/smoke fail?</text><ellipse cx="285.8052" cy="896.3276" fill="none" rx="11" ry="11" style="stroke:#000000;stroke-width:1;"/><ellipse cx="285.8052" cy="896.3276" fill="#FFFFFF" rx="6" ry="6" style="stroke:#000000;stroke-width:1;"/><line style="stroke:#34495E;stroke-width:1;" x1="285.8052" x2="285.8052" y1="151.1953" y2="171.1953"/><polygon fill="#34495E" points="281.8052,161.1953,285.8052,171.1953,289.8052,161.1953,285.8052,165.1953" style="stroke:#34495E;stroke-width:1;"/><line style="stroke:#34495E;stroke-width:1;" x1="285.8052" x2="285.8052" y1="290.3906" y2="314.7151"/><polygon fill="#34495E" points="281.8052,304.7151,285.8052,314.7151,289.8052,304.7151,285.8052,308.7151" style="stroke:#34495E;stroke-width:1;"/><line style="stroke:#34495E;stroke-width:1;" x1="369.3455" x2="381.3455" y1="278.3906" y2="278.3906"/><polygon fill="#34495E" points="377.3455,328.5139,381.3455,338.5139,385.3455,328.5139,381.3455,332.5139" style="stroke:#34495E;stroke-width:1;"/><line style="stroke:#34495E;stroke-width:1;" x1="381.3455" x2="381.3455" y1="278.3906" y2="394.3127"/><line style="stroke:#34495E;stroke-width:1;" x1="381.3455" x2="297.8052" y1="394.3127" y2="394.3127"/><polygon fill="#34495E" points="307.8052,390.3127,297.8052,394.3127,307.8052,398.3127,303.8052,394.3127" style="stroke:#34495E;stroke-width:1;"/><line style="stroke:#34495E;stroke-width:1;" x1="285.8052" x2="285.8052" y1="362.3127" y2="382.3127"/><polygon fill="#34495E" points="281.8052,372.3127,285.8052,382.3127,289.8052,372.3127,285.8052,376.3127" style="stroke:#34495E;stroke-width:1;"/><line style="stroke:#34495E;stroke-width:1;" x1="285.8052" x2="285.8052" y1="246.3906" y2="266.3906"/><polygon fill="#34495E" points="281.8052,256.3906,285.8052,266.3906,289.8052,256.3906,285.8052,260.3906" style="stroke:#34495E;stroke-width:1;"/><line style="stroke:#34495E;stroke-width:1;" x1="285.8052" x2="285.8052" y1="71.2979" y2="117.3965"/><polygon fill="#34495E" points="281.8052,107.3965,285.8052,117.3965,289.8052,107.3965,285.8052,111.3965" style="stroke:#34495E;stroke-width:1;"/><line style="stroke:#34495E;stroke-width:1;" x1="285.8052" x2="285.8052" y1="498.2102" y2="518.2102"/><polygon fill="#34495E" points="281.8052,508.2102,285.8052,518.2102,289.8052,508.2102,285.8052,512.2102" style="stroke:#34495E;stroke-width:1;"/><line style="stroke:#34495E;stroke-width:1;" x1="285.8052" x2="285.8052" y1="565.8079" y2="585.8079"/><polygon fill="#34495E" points="281.8052,575.8079,285.8052,585.8079,289.8052,575.8079,285.8052,579.8079" style="stroke:#34495E;stroke-width:1;"/><line style="stroke:#34495E;stroke-width:1;" x1="285.8052" x2="285.8052" y1="735.5288" y2="755.5288"/><polygon fill="#34495E" points="281.8052,745.5288,285.8052,755.5288,289.8052,745.5288,285.8052,749.5288" style="stroke:#34495E;stroke-width:1;"/><line style="stroke:#34495E;stroke-width:1;" x1="285.8052" x2="285.8052" y1="789.3276" y2="809.3276"/><polygon fill="#34495E" points="281.8052,799.3276,285.8052,809.3276,289.8052,799.3276,285.8052,803.3276" style="stroke:#34495E;stroke-width:1;"/><line style="stroke:#34495E;stroke-width:1;" x1="285.8052" x2="285.8052" y1="677.4055" y2="701.73"/><polygon fill="#34495E" points="281.8052,691.73,285.8052,701.73,289.8052,691.73,285.8052,695.73" style="stroke:#34495E;stroke-width:1;"/><line style="stroke:#34495E;stroke-width:1;" x1="336.0178" x2="408.5317" y1="665.4055" y2="665.4055"/><polygon fill="#34495E" points="404.5317,753.5288,408.5317,763.5288,412.5317,753.5288,408.5317,757.5288" style="stroke:#34495E;stroke-width:1;"/><line style="stroke:#34495E;stroke-width:1;" x1="408.5317" x2="408.5317" y1="665.4055" y2="853.3276"/><line style="stroke:#34495E;stroke-width:1;" x1="408.5317" x2="285.8052" y1="853.3276" y2="853.3276"/><line style="stroke:#34495E;stroke-width:1;" x1="285.8052" x2="285.8052" y1="853.3276" y2="885.3276"/><polygon fill="#34495E" points="281.8052,875.3276,285.8052,885.3276,289.8052,875.3276,285.8052,879.3276" style="stroke:#34495E;stroke-width:1;"/><line style="stroke:#34495E;stroke-width:1;" x1="285.8052" x2="285.8052" y1="633.4055" y2="653.4055"/><polygon fill="#34495E" points="281.8052,643.4055,285.8052,653.4055,289.8052,643.4055,285.8052,647.4055" style="stroke:#34495E;stroke-width:1;"/><line style="stroke:#34495E;stroke-width:1;" x1="285.8052" x2="285.8052" y1="406.3127" y2="464.4114"/><polygon fill="#34495E" points="281.8052,454.4114,285.8052,464.4114,289.8052,454.4114,285.8052,458.4114" style="stroke:#34495E;stroke-width:1;"/><?plantuml-src TLFBRjim4BpxAxRf9G4is9RZ64uEXHzIBtqOSTD3Rnjf9R6cI7T99J6A_7kNYk88BNgIj3kScHsktlcAQeA3HcK6Rg_C0HbhS1Nczb6P4WhKZdeTjet9Cyk662Pnhv5JWOtsgJN-2mhbXdxYzmPsQ5mFjMIsZskhBSFxwUNbOfRqcfXvzQ3y4NuF05QOxSjMhOEdcpH9az2nd1DtrTdLrMm-bUf6OMrD_k-nTJfTfpr0__HglfYDLzBSUMJV5IUNi-Kqbc9o8bd4yIgU39vxPetrz1-ZIRf8vdyRxQIU1rvvJR3St4RZU0PRLiR3ZcHqQs0yWGYs6iqGbbhR33qD8KNduQEyIf31va0C24d0dmKieCa1E_XPw-bwHree8OcJRt1WMoYH3B0QZIh8-Pi0UfK0RJ4lIKG_hQ0cLmsbkxOLCPcCedKoXDhcf4SPPXM5vktcytAqsTwDlXx8_4XtuBnbBDkU5-cQF1zRmNOfP6iqkQ2f2ZZFALDEt4SbOowxHrnO5cCPVRW0sKS3v_IKwSQf1xgGC-BqbdurYWbEzTTvXQP512bZbJj6XbHPtKlYChOjWYQPN1KIV2-sDbBPOfQG33a7POZtDJillDafAf2Pitth_lhEA2y3Ekz0F4E5t9xMwfwH5RamlyWuOZS49mVpHikFWZaUlDHQZbrjzzGZ4V23oWWgGkshmSiirX3KogWQTV0VUHl90rXow6ul9Dc8dP5h-GfK-XIVtCO125aVk_oM4eYNQvOV-YsucvVUbYbO25jGkbRypRZSetZt-08DjBqym-SV?></g></svg>