<?plantuml 1.2026.1?><svg xmlns="http://www.w3.org/2000/svg" xmlns:xlink="http://www.w3.org/1999/xlink" contentStyleType="text/css" data-diagram-type="ACTIVITY" height="1103px" preserveAspectRatio="none" style="width:661px;height:1103px;background:#FFFFFF;" version="1.1" viewBox="0 0 661 1103" width="661px" zoomAndPan="magnify"><title>ADR-026 Print Section 03 - Validation and Failure Semantics</title><defs/><g><g class="title" data-source-line="18"><text fill="#000000" font-family="DejaVu Sans" font-size="22" font-weight="bold" lengthAdjust="spacing" textLength="628.3857" x="15" y="35.6357">ADR-026 Print Section 03 - Validation and Failure Semantics</text></g><ellipse cx="330.0405" cy="61.2979" fill="#145A32" rx="10" ry="10" style="stroke:#000000;stroke-width:1;"/><rect fill="#FFFFFF" height="297.0928" rx="6" ry="6" style="stroke:#000000;stroke-width:1;" width="215.4063" x="222.3374" y="81.2979"/><path d="M293.8267,81.2979 L293.8267,90.3965 L283.8267,100.3965 L222.3374,100.3965" fill="none" style="stroke:#000000;stroke-width:1;"/><text fill="#000000" font-family="DejaVu Sans" font-size="14" lengthAdjust="spacing" textLength="61.4893" x="225.3374" y="95.4297">Validation</text><rect fill="#FDFEFE" height="33.7988" rx="6" ry="6" style="stroke:#566573;stroke-width:1;" width="122.7031" x="268.689" y="117.3965"/><text fill="#000000" font-family="DejaVu Sans" font-size="12" lengthAdjust="spacing" textLength="102.7031" x="278.689" y="138.6523">Run manifest verify</text><rect fill="#FDFEFE" height="33.7988" rx="6" ry="6" style="stroke:#566573;stroke-width:1;" width="118.7246" x="270.6782" y="171.1953"/><text fill="#000000" font-family="DejaVu Sans" font-size="12" lengthAdjust="spacing" textLength="98.7246" x="280.6782" y="192.4512">Check object hash</text><rect fill="#FDFEFE" height="33.7988" rx="6" ry="6" style="stroke:#566573;stroke-width:1;" width="149.3984" x="255.3413" y="224.9941"/><text fill="#000000" font-family="DejaVu Sans" font-size="12" lengthAdjust="spacing" textLength="129.3984" x="265.3413" y="246.25">Check chunk references</text><rect fill="#FDFEFE" height="33.7988" rx="6" ry="6" style="stroke:#566573;stroke-width:1;" width="192.7344" x="233.6733" y="278.793"/><text fill="#000000" font-family="DejaVu Sans" font-size="12" lengthAdjust="spacing" textLength="172.7344" x="243.6733" y="300.0488">Check durability and mirror state</text><rect fill="#FDFEFE" height="33.7988" rx="6" ry="6" style="stroke:#566573;stroke-width:1;" width="195.4063" x="232.3374" y="332.5918"/><text fill="#000000" font-family="DejaVu Sans" font-size="12" lengthAdjust="spacing" textLength="175.4063" x="242.3374" y="353.8477">Check Git LFS locks if applicable</text><rect fill="#FFFFFF" height="507.865" rx="6" ry="6" style="stroke:#000000;stroke-width:1;" width="231.3867" x="220.3472" y="388.3906"/><path d="M329.9673,388.3906 L329.9673,397.4893 L319.9673,407.4893 L220.3472,407.4893" fill="none" style="stroke:#000000;stroke-width:1;"/><text fill="#000000" font-family="DejaVu Sans" font-size="14" lengthAdjust="spacing" textLength="99.6201" x="223.3472" y="402.5225">Failure handling</text><rect fill="#FDFEFE" height="47.5977" rx="6" ry="6" style="stroke:#566573;stroke-width:1;" width="179.3867" x="240.3472" y="472.8137"/><text fill="#000000" font-family="DejaVu Sans" font-size="12" lengthAdjust="spacing" textLength="159.3867" x="250.3472" y="494.0696">Serve prior committed version</text><text fill="#000000" font-family="DejaVu Sans" font-size="12" lengthAdjust="spacing" textLength="64.0488" x="250.3472" y="507.8684">or not found</text><polygon fill="#FCF3CF" points="276.2222,424.4893,383.8589,424.4893,395.8589,436.4893,383.8589,448.4893,276.2222,448.4893,264.2222,436.4893,276.2222,424.4893" style="stroke:#B7950B;stroke-width:1;"/><text fill="#000000" font-family="DejaVu Sans" font-size="11" lengthAdjust="spacing" textLength="66.0483" x="334.0405" y="458.8071">partial hidden</text><text fill="#000000" font-family="DejaVu Sans" font-size="11" lengthAdjust="spacing" textLength="107.6367" x="276.2222" y="440.4827">reader during upload?</text><polygon fill="#FCF3CF" points="330.0405,540.4114,342.0405,552.4114,330.0405,564.4114,318.0405,552.4114,330.0405,540.4114" style="stroke:#B7950B;stroke-width:1;"/><rect fill="#FDFEFE" height="47.5977" rx="6" ry="6" style="stroke:#566573;stroke-width:1;" width="165.4063" x="247.3374" y="632.7358"/><text fill="#000000" font-family="DejaVu Sans" font-size="12" lengthAdjust="spacing" textLength="145.4063" x="257.3374" y="653.9917">Fail fast unless namespace</text><text fill="#000000" font-family="DejaVu Sans" font-size="12" lengthAdjust="spacing" textLength="122.707" x="257.3374" y="667.7905">permits lower durability</text><polygon fill="#FCF3CF" points="265.2275,584.4114,394.8535,584.4114,406.8535,596.4114,394.8535,608.4114,265.2275,608.4114,253.2275,596.4114,265.2275,584.4114" style="stroke:#B7950B;stroke-width:1;"/><text fill="#000000" font-family="DejaVu Sans" font-size="11" lengthAdjust="spacing" textLength="52.5884" x="334.0405" y="618.7292">policy gate</text><text fill="#000000" font-family="DejaVu Sans" font-size="11" lengthAdjust="spacing" textLength="129.626" x="265.2275" y="600.4048">DPU/OpenZFS degraded?</text><polygon fill="#FCF3CF" points="330.0405,700.3335,342.0405,712.3335,330.0405,724.3335,318.0405,712.3335,330.0405,700.3335" style="stroke:#B7950B;stroke-width:1;"/><rect fill="#FDFEFE" height="47.5977" rx="6" ry="6" style="stroke:#566573;stroke-width:1;" width="140.0352" x="260.0229" y="792.658"/><text fill="#000000" font-family="DejaVu Sans" font-size="12" lengthAdjust="spacing" textLength="120.0352" x="270.0229" y="813.9138">Mark committed_local,</text><text fill="#000000" font-family="DejaVu Sans" font-size="12" lengthAdjust="spacing" textLength="80.6953" x="270.0229" y="827.7126">not mirror_safe</text><polygon fill="#FCF3CF" points="303.7571,744.3335,356.324,744.3335,368.324,756.3335,356.324,768.3335,303.7571,768.3335,291.7571,756.3335,303.7571,744.3335" style="stroke:#B7950B;stroke-width:1;"/><text fill="#000000" font-family="DejaVu Sans" font-size="11" lengthAdjust="spacing" textLength="23.8423" x="334.0405" y="778.6514">warn</text><text fill="#000000" font-family="DejaVu Sans" font-size="11" lengthAdjust="spacing" textLength="52.5669" x="303.7571" y="760.3269">mirror lag?</text><polygon fill="#FCF3CF" points="330.0405,860.2556,342.0405,872.2556,330.0405,884.2556,318.0405,872.2556,330.0405,860.2556" style="stroke:#B7950B;stroke-width:1;"/><rect fill="#FFFFFF" height="149.4951" rx="6" ry="6" style="stroke:#000000;stroke-width:1;" width="240.7773" x="209.6519" y="906.2556"/><path d="M336.3892,906.2556 L336.3892,915.3542 L326.3892,925.3542 L209.6519,925.3542" fill="none" style="stroke:#000000;stroke-width:1;"/><text fill="#000000" font-family="DejaVu Sans" font-size="14" lengthAdjust="spacing" textLength="116.7373" x="212.6519" y="920.3875">Garbage collection</text><rect fill="#FDFEFE" height="33.7988" rx="6" ry="6" style="stroke:#566573;stroke-width:1;" width="212.0996" x="223.9907" y="942.3542"/><text fill="#000000" font-family="DejaVu Sans" font-size="12" lengthAdjust="spacing" textLength="192.0996" x="233.9907" y="963.6101">Tombstone deletes at manifest level</text><rect fill="#FDFEFE" height="47.5977" rx="6" ry="6" style="stroke:#566573;stroke-width:1;" width="220.7773" x="219.6519" y="996.1531"/><text fill="#000000" font-family="DejaVu Sans" font-size="12" lengthAdjust="spacing" textLength="156.7441" x="229.6519" y="1017.4089">Collect expired partial chunks</text><text fill="#000000" font-family="DejaVu Sans" font-size="12" lengthAdjust="spacing" textLength="200.7773" x="229.6519" y="1031.2078">only after grace and reference checks</text><ellipse cx="330.0405" cy="1086.7507" fill="none" rx="11" ry="11" style="stroke:#000000;stroke-width:1;"/><ellipse cx="330.0405" cy="1086.7507" fill="#FFFFFF" rx="6" ry="6" style="stroke:#000000;stroke-width:1;"/><line style="stroke:#34495E;stroke-width:1;" x1="330.0405" x2="330.0405" y1="151.1953" y2="171.1953"/><polygon fill="#34495E" points="326.0405,161.1953,330.0405,171.1953,334.0405,161.1953,330.0405,165.1953" style="stroke:#34495E;stroke-width:1;"/><line style="stroke:#34495E;stroke-width:1;" x1="330.0405" x2="330.0405" y1="204.9941" y2="224.9941"/><polygon fill="#34495E" points="326.0405,214.9941,330.0405,224.9941,334.0405,214.9941,330.0405,218.9941" style="stroke:#34495E;stroke-width:1;"/><line style="stroke:#34495E;stroke-width:1;" x1="330.0405" x2="330.0405" y1="258.793" y2="278.793"/><polygon fill="#34495E" points="326.0405,268.793,330.0405,278.793,334.0405,268.793,330.0405,272.793" style="stroke:#34495E;stroke-width:1;"/><line style="stroke:#34495E;stroke-width:1;" x1="330.0405" x2="330.0405" y1="312.5918" y2="332.5918"/><polygon fill="#34495E" points="326.0405,322.5918,330.0405,332.5918,334.0405,322.5918,330.0405,326.5918" style="stroke:#34495E;stroke-width:1;"/><line style="stroke:#34495E;stroke-width:1;" x1="330.0405" x2="330.0405" y1="71.2979" y2="117.3965"/><polygon fill="#34495E" points="326.0405,107.3965,330.0405,117.3965,334.0405,107.3965,330.0405,111.3965" style="stroke:#34495E;stroke-width:1;"/><line style="stroke:#34495E;stroke-width:1;" x1="330.0405" x2="330.0405" y1="448.4893" y2="472.8137"/><polygon fill="#34495E" points="326.0405,462.8137,330.0405,472.8137,334.0405,462.8137,330.0405,466.8137" style="stroke:#34495E;stroke-width:1;"/><line style="stroke:#34495E;stroke-width:1;" x1="395.8589" x2="429.7339" y1="436.4893" y2="436.4893"/><polygon fill="#34495E" points="425.7339,486.6125,429.7339,496.6125,433.7339,486.6125,429.7339,490.6125" style="stroke:#34495E;stroke-width:1;"/><line style="stroke:#34495E;stroke-width:1;" x1="429.7339" x2="429.7339" y1="436.4893" y2="552.4114"/><line style="stroke:#34495E;stroke-width:1;" x1="429.7339" x2="342.0405" y1="552.4114" y2="552.4114"/><polygon fill="#34495E" points="352.0405,548.4114,342.0405,552.4114,352.0405,556.4114,348.0405,552.4114" style="stroke:#34495E;stroke-width:1;"/><line style="stroke:#34495E;stroke-width:1;" x1="330.0405" x2="330.0405" y1="520.4114" y2="540.4114"/><polygon fill="#34495E" points="326.0405,530.4114,330.0405,540.4114,334.0405,530.4114,330.0405,534.4114" style="stroke:#34495E;stroke-width:1;"/><line style="stroke:#34495E;stroke-width:1;" x1="330.0405" x2="330.0405" y1="608.4114" y2="632.7358"/><polygon fill="#34495E" points="326.0405,622.7358,330.0405,632.7358,334.0405,622.7358,330.0405,626.7358" style="stroke:#34495E;stroke-width:1;"/><line style="stroke:#34495E;stroke-width:1;" x1="406.8535" x2="422.7437" y1="596.4114" y2="596.4114"/><polygon fill="#34495E" points="418.7437,646.5347,422.7437,656.5347,426.7437,646.5347,422.7437,650.5347" style="stroke:#34495E;stroke-width:1;"/><line style="stroke:#34495E;stroke-width:1;" x1="422.7437" x2="422.7437" y1="596.4114" y2="712.3335"/><line style="stroke:#34495E;stroke-width:1;" x1="422.7437" x2="342.0405" y1="712.3335" y2="712.3335"/><polygon fill="#34495E" points="352.0405,708.3335,342.0405,712.3335,352.0405,716.3335,348.0405,712.3335" style="stroke:#34495E;stroke-width:1;"/><line style="stroke:#34495E;stroke-width:1;" x1="330.0405" x2="330.0405" y1="680.3335" y2="700.3335"/><polygon fill="#34495E" points="326.0405,690.3335,330.0405,700.3335,334.0405,690.3335,330.0405,694.3335" style="stroke:#34495E;stroke-width:1;"/><line style="stroke:#34495E;stroke-width:1;" x1="330.0405" x2="330.0405" y1="564.4114" y2="584.4114"/><polygon fill="#34495E" points="326.0405,574.4114,330.0405,584.4114,334.0405,574.4114,330.0405,578.4114" style="stroke:#34495E;stroke-width:1;"/><line style="stroke:#34495E;stroke-width:1;" x1="330.0405" x2="330.0405" y1="768.3335" y2="792.658"/><polygon fill="#34495E" points="326.0405,782.658,330.0405,792.658,334.0405,782.658,330.0405,786.658" style="stroke:#34495E;stroke-width:1;"/><line style="stroke:#34495E;stroke-width:1;" x1="368.324" x2="410.0581" y1="756.3335" y2="756.3335"/><polygon fill="#34495E" points="406.0581,806.4568,410.0581,816.4568,414.0581,806.4568,410.0581,810.4568" style="stroke:#34495E;stroke-width:1;"/><line style="stroke:#34495E;stroke-width:1;" x1="410.0581" x2="410.0581" y1="756.3335" y2="872.2556"/><line style="stroke:#34495E;stroke-width:1;" x1="410.0581" x2="342.0405" y1="872.2556" y2="872.2556"/><polygon fill="#34495E" points="352.0405,868.2556,342.0405,872.2556,352.0405,876.2556,348.0405,872.2556" style="stroke:#34495E;stroke-width:1;"/><line style="stroke:#34495E;stroke-width:1;" x1="330.0405" x2="330.0405" y1="840.2556" y2="860.2556"/><polygon fill="#34495E" points="326.0405,850.2556,330.0405,860.2556,334.0405,850.2556,330.0405,854.2556" style="stroke:#34495E;stroke-width:1;"/><line style="stroke:#34495E;stroke-width:1;" x1="330.0405" x2="330.0405" y1="724.3335" y2="744.3335"/><polygon fill="#34495E" points="326.0405,734.3335,330.0405,744.3335,334.0405,734.3335,330.0405,738.3335" style="stroke:#34495E;stroke-width:1;"/><line style="stroke:#34495E;stroke-width:1;" x1="330.0405" x2="330.0405" y1="366.3906" y2="424.4893"/><polygon fill="#34495E" points="326.0405,414.4893,330.0405,424.4893,334.0405,414.4893,330.0405,418.4893" style="stroke:#34495E;stroke-width:1;"/><line style="stroke:#34495E;stroke-width:1;" x1="330.0405" x2="330.0405" y1="976.1531" y2="996.1531"/><polygon fill="#34495E" points="326.0405,986.1531,330.0405,996.1531,334.0405,986.1531,330.0405,990.1531" style="stroke:#34495E;stroke-width:1;"/><line style="stroke:#34495E;stroke-width:1;" x1="330.0405" x2="330.0405" y1="884.2556" y2="942.3542"/><polygon fill="#34495E" points="326.0405,932.3542,330.0405,942.3542,334.0405,932.3542,330.0405,936.3542" style="stroke:#34495E;stroke-width:1;"/><line style="stroke:#34495E;stroke-width:1;" x1="330.0405" x2="330.0405" y1="1043.7507" y2="1075.7507"/><polygon fill="#34495E" points="326.0405,1065.7507,330.0405,1075.7507,334.0405,1065.7507,330.0405,1069.7507" style="stroke:#34495E;stroke-width:1;"/><?plantuml-src TLFBRjj03BpxAzZqaW0D6hyIk3qKyKEvz174RGwz1BIMiZPQxGhSbTsWyB-NAykscg97BOUSuN3q9kHK4bG6jUtvGjiA6KlmEIgtrNOD6HfFdGgxsghKiIM6_g1JK9HXRKBYRFYACd9Ep_XOmnAjxw1kcTrsvenZU3iSZIRZHQU8QT0R7LxWTmzWYccnRjXQU39F5iaYLXmhulPrV7qzlXdAwrnZwQpwjssM36T91z3jdjvCnbTJAIu3ScWV-wFnxN0WZulZaCbWC1tqUxkEMEi2_KVe8faiRbuBRQbslQ238RYTFrnU3QxXdhKDi2HPtLcu6i8bFABH2fjlj0eIrAPc4ao9DkXKx8nYUo93HaNKsQdZh97quQ6s86YTaG-m8TRPoyVuFiifBS2jdeKFSlHvvpNDQri0KqPCDYNVAQcQSQLDF4rKL6gv8eF82DH1tUa0dvCb69SM7dG6M5L6fxWoWjfrzHvMocMQaPJjLKl7EHEAPP4mXg-kZ4FrwG8afHREcmbe8DTAaRsG5k5U4cyamAn5KUhAKeT0AkxiXQg1I46E1LayKPHBLkcivPlV_tZ_hIBxKtGhMhEmT_YSo7-1jQpPaaNXyak8gRKrv3rOYRglCAMcNX4BlnS7jlibMjTUixO66bmVkRR8Xus-81UdLPx4JZJlcb9SOz_xv36ZqzY_tBr3Nk6QP8Gn-rorgVZkofKFpfAiQYYG1modc1ZQaDcVSzy8zAlIB6OUV6yIuWNXh94aP46M5CjIQb9nJ8xW90u-tbpOgZy0?></g></svg>