<?plantuml 1.2026.1?><svg xmlns="http://www.w3.org/2000/svg" xmlns:xlink="http://www.w3.org/1999/xlink" contentStyleType="text/css" data-diagram-type="ACTIVITY" height="844px" preserveAspectRatio="none" style="width:602px;height:844px;background:#FFFFFF;" version="1.1" viewBox="0 0 602 844" width="602px" zoomAndPan="magnify"><title>ADR-024 Print Section 01 - Manifest, Scope, Scheduler</title><defs/><g><g class="title" data-source-line="18"><text fill="#000000" font-family="DejaVu Sans" font-size="22" font-weight="bold" lengthAdjust="spacing" textLength="569.7012" x="15" y="35.6357">ADR-024 Print Section 01 - Manifest, Scope, Scheduler</text></g><ellipse cx="310.9553" cy="61.2979" fill="#145A32" rx="10" ry="10" style="stroke:#000000;stroke-width:1;"/><rect fill="#FFFFFF" height="241.0928" rx="6" ry="6" style="stroke:#000000;stroke-width:1;" width="433.1392" x="104.3767" y="81.2979"/><path d="M203.0867,81.2979 L203.0867,90.3965 L193.0867,100.3965 L104.3767,100.3965" fill="none" style="stroke:#000000;stroke-width:1;"/><text fill="#000000" font-family="DejaVu Sans" font-size="14" lengthAdjust="spacing" textLength="88.71" x="107.3767" y="95.4297">Suite manifest</text><rect fill="#FDFEFE" height="75.1953" rx="6" ry="6" style="stroke:#566573;stroke-width:1;" width="213.4004" x="204.2551" y="117.3965"/><text fill="#000000" font-family="DejaVu Sans" font-size="12" lengthAdjust="spacing" textLength="184.7754" x="214.2551" y="138.6523">Declare suite_id, component_type,</text><text fill="#000000" font-family="DejaVu Sans" font-size="12" lengthAdjust="spacing" textLength="184.7754" x="214.2551" y="152.4512">service_type, test_intent, topology,</text><text fill="#000000" font-family="DejaVu Sans" font-size="12" lengthAdjust="spacing" textLength="193.4004" x="214.2551" y="166.25">platform matrix, toolchain, telemetry,</text><text fill="#000000" font-family="DejaVu Sans" font-size="12" lengthAdjust="spacing" textLength="105.4102" x="214.2551" y="180.0488">and gate thresholds</text><polygon fill="#FCF3CF" points="257.1504,212.5918,364.7603,212.5918,376.7603,224.5918,364.7603,236.5918,257.1504,236.5918,245.1504,224.5918,257.1504,212.5918" style="stroke:#B7950B;stroke-width:1;"/><text fill="#000000" font-family="DejaVu Sans" font-size="11" lengthAdjust="spacing" textLength="107.6099" x="257.1504" y="228.5852">compiled benchmark?</text><text fill="#000000" font-family="DejaVu Sans" font-size="11" lengthAdjust="spacing" textLength="17.1177" x="228.0327" y="222.2607">yes</text><text fill="#000000" font-family="DejaVu Sans" font-size="11" lengthAdjust="spacing" textLength="12.2354" x="376.7603" y="222.2607">no</text><rect fill="#FDFEFE" height="33.7988" rx="6" ry="6" style="stroke:#566573;stroke-width:1;" width="166.0801" x="124.3767" y="246.5918"/><text fill="#000000" font-family="DejaVu Sans" font-size="12" lengthAdjust="spacing" textLength="146.0801" x="134.3767" y="267.8477">Use LLVM/Clang by default</text><rect fill="#FDFEFE" height="33.7988" rx="6" ry="6" style="stroke:#566573;stroke-width:1;" width="208.0742" x="310.4568" y="246.5918"/><text fill="#000000" font-family="DejaVu Sans" font-size="12" lengthAdjust="spacing" textLength="188.0742" x="320.4568" y="267.8477">Record interpreter/runtime versions</text><polygon fill="#FCF3CF" points="310.9553,286.3906,322.9553,298.3906,310.9553,310.3906,298.9553,298.3906,310.9553,286.3906" style="stroke:#B7950B;stroke-width:1;"/><rect fill="#FFFFFF" height="187.2939" rx="6" ry="6" style="stroke:#000000;stroke-width:1;" width="421.4453" x="102.9104" y="332.3906"/><path d="M235.8616,332.3906 L235.8616,341.4893 L225.8616,351.4893 L102.9104,351.4893" fill="none" style="stroke:#000000;stroke-width:1;"/><text fill="#000000" font-family="DejaVu Sans" font-size="14" lengthAdjust="spacing" textLength="122.9512" x="105.9104" y="346.5225">Scope classification</text><polygon fill="#FCF3CF" points="251.9485,368.4893,369.9622,368.4893,381.9622,380.4893,369.9622,392.4893,251.9485,392.4893,239.9485,380.4893,251.9485,368.4893" style="stroke:#B7950B;stroke-width:1;"/><text fill="#000000" font-family="DejaVu Sans" font-size="11" lengthAdjust="spacing" textLength="118.0137" x="251.9485" y="384.4827">component benchmark?</text><text fill="#000000" font-family="DejaVu Sans" font-size="11" lengthAdjust="spacing" textLength="54.4253" x="185.5232" y="378.1582">component</text><text fill="#000000" font-family="DejaVu Sans" font-size="11" lengthAdjust="spacing" textLength="34.8423" x="381.9622" y="378.1582">service</text><rect fill="#FDFEFE" height="61.3965" rx="6" ry="6" style="stroke:#566573;stroke-width:1;" width="175.3672" x="122.9104" y="402.4893"/><text fill="#000000" font-family="DejaVu Sans" font-size="12" lengthAdjust="spacing" textLength="155.3672" x="132.9104" y="423.7451">CPU, memory, disk, network,</text><text fill="#000000" font-family="DejaVu Sans" font-size="12" lengthAdjust="spacing" textLength="152.7129" x="132.9104" y="437.5439">accelerator, CXL, DPU/QAT,</text><text fill="#000000" font-family="DejaVu Sans" font-size="12" lengthAdjust="spacing" textLength="118.6934" x="132.9104" y="451.3428">ZFS, filesystem profile</text><rect fill="#FDFEFE" height="75.1953" rx="6" ry="6" style="stroke:#566573;stroke-width:1;" width="186.0781" x="318.2776" y="402.4893"/><text fill="#000000" font-family="DejaVu Sans" font-size="12" lengthAdjust="spacing" textLength="160.0254" x="328.2776" y="423.7451">NFS, OLTP, HTTP/REST, LB,</text><text fill="#000000" font-family="DejaVu Sans" font-size="12" lengthAdjust="spacing" textLength="142.0605" x="328.2776" y="437.5439">firewall, LLM model/cache,</text><text fill="#000000" font-family="DejaVu Sans" font-size="12" lengthAdjust="spacing" textLength="166.0781" x="328.2776" y="451.3428">proxy/cache, vector, scheduler,</text><text fill="#000000" font-family="DejaVu Sans" font-size="12" lengthAdjust="spacing" textLength="102.7148" x="328.2776" y="465.1416">observability profile</text><polygon fill="#FCF3CF" points="310.9553,483.6846,322.9553,495.6846,310.9553,507.6846,298.9553,495.6846,310.9553,483.6846" style="stroke:#B7950B;stroke-width:1;"/><rect fill="#FFFFFF" height="267.2939" rx="6" ry="6" style="stroke:#000000;stroke-width:1;" width="471.1704" x="65.1853" y="529.6846"/><path d="M202.0466,529.6846 L202.0466,538.7832 L192.0466,548.7832 L65.1853,548.7832" fill="none" style="stroke:#000000;stroke-width:1;"/><text fill="#000000" font-family="DejaVu Sans" font-size="14" lengthAdjust="spacing" textLength="126.8613" x="68.1853" y="543.8164">Scheduler execution</text><polygon fill="#FCF3CF" points="265.4058,565.7832,356.5049,565.7832,368.5049,577.7832,356.5049,589.7832,265.4058,589.7832,253.4058,577.7832,265.4058,565.7832" style="stroke:#B7950B;stroke-width:1;"/><text fill="#000000" font-family="DejaVu Sans" font-size="11" lengthAdjust="spacing" textLength="91.0991" x="265.4058" y="581.7766">SLURM available?</text><text fill="#000000" font-family="DejaVu Sans" font-size="11" lengthAdjust="spacing" textLength="36.6685" x="216.7373" y="575.4521">primary</text><text fill="#000000" font-family="DejaVu Sans" font-size="11" lengthAdjust="spacing" textLength="37.3076" x="368.5049" y="575.4521">adapter</text><rect fill="#FDFEFE" height="33.7988" rx="6" ry="6" style="stroke:#566573;stroke-width:1;" width="82.0332" x="154.8923" y="599.7832"/><text fill="#000000" font-family="DejaVu Sans" font-size="12" lengthAdjust="spacing" textLength="62.0332" x="164.8923" y="621.0391">sbatch/srun</text><rect fill="#FDFEFE" height="33.7988" rx="6" ry="6" style="stroke:#566573;stroke-width:1;" width="134.0469" x="128.8855" y="667.3809"/><text fill="#000000" font-family="DejaVu Sans" font-size="12" lengthAdjust="spacing" textLength="114.0469" x="138.8855" y="688.6367">job arrays for sweeps</text><rect fill="#FDFEFE" height="33.7988" rx="6" ry="6" style="stroke:#566573;stroke-width:1;" width="237.4473" x="77.1853" y="721.1797"/><text fill="#000000" font-family="DejaVu Sans" font-size="12" lengthAdjust="spacing" textLength="217.4473" x="87.1853" y="742.4355">heterogeneous jobs for multi-role profiles</text><rect fill="#FDFEFE" height="47.5977" rx="6" ry="6" style="stroke:#566573;stroke-width:1;" width="182.7383" x="334.6326" y="599.7832"/><text fill="#000000" font-family="DejaVu Sans" font-size="12" lengthAdjust="spacing" textLength="162.7383" x="344.6326" y="621.0391">local, Flux, OpenPBS, Nomad,</text><text fill="#000000" font-family="DejaVu Sans" font-size="12" lengthAdjust="spacing" textLength="156.0879" x="344.6326" y="634.8379">Kubernetes, or site scheduler</text><polygon fill="#FCF3CF" points="310.9553,760.9785,322.9553,772.9785,310.9553,784.9785,298.9553,772.9785,310.9553,760.9785" style="stroke:#B7950B;stroke-width:1;"/><ellipse cx="310.9553" cy="827.9785" fill="none" rx="11" ry="11" style="stroke:#000000;stroke-width:1;"/><ellipse cx="310.9553" cy="827.9785" fill="#FFFFFF" rx="6" ry="6" style="stroke:#000000;stroke-width:1;"/><line style="stroke:#34495E;stroke-width:1;" x1="245.1504" x2="207.4167" y1="224.5918" y2="224.5918"/><line style="stroke:#34495E;stroke-width:1;" x1="207.4167" x2="207.4167" y1="224.5918" y2="246.5918"/><polygon fill="#34495E" points="203.4167,236.5918,207.4167,246.5918,211.4167,236.5918,207.4167,240.5918" style="stroke:#34495E;stroke-width:1;"/><line style="stroke:#34495E;stroke-width:1;" x1="376.7603" x2="414.4939" y1="224.5918" y2="224.5918"/><line style="stroke:#34495E;stroke-width:1;" x1="414.4939" x2="414.4939" y1="224.5918" y2="246.5918"/><polygon fill="#34495E" points="410.4939,236.5918,414.4939,246.5918,418.4939,236.5918,414.4939,240.5918" style="stroke:#34495E;stroke-width:1;"/><line style="stroke:#34495E;stroke-width:1;" x1="207.4167" x2="207.4167" y1="280.3906" y2="298.3906"/><line style="stroke:#34495E;stroke-width:1;" x1="207.4167" x2="298.9553" y1="298.3906" y2="298.3906"/><polygon fill="#34495E" points="288.9553,294.3906,298.9553,298.3906,288.9553,302.3906,292.9553,298.3906" style="stroke:#34495E;stroke-width:1;"/><line style="stroke:#34495E;stroke-width:1;" x1="414.4939" x2="414.4939" y1="280.3906" y2="298.3906"/><line style="stroke:#34495E;stroke-width:1;" x1="414.4939" x2="322.9553" y1="298.3906" y2="298.3906"/><polygon fill="#34495E" points="332.9553,294.3906,322.9553,298.3906,332.9553,302.3906,328.9553,298.3906" style="stroke:#34495E;stroke-width:1;"/><line style="stroke:#34495E;stroke-width:1;" x1="310.9553" x2="310.9553" y1="192.5918" y2="212.5918"/><polygon fill="#34495E" points="306.9553,202.5918,310.9553,212.5918,314.9553,202.5918,310.9553,206.5918" style="stroke:#34495E;stroke-width:1;"/><line style="stroke:#34495E;stroke-width:1;" x1="310.9553" x2="310.9553" y1="71.2979" y2="117.3965"/><polygon fill="#34495E" points="306.9553,107.3965,310.9553,117.3965,314.9553,107.3965,310.9553,111.3965" style="stroke:#34495E;stroke-width:1;"/><line style="stroke:#34495E;stroke-width:1;" x1="239.9485" x2="210.594" y1="380.4893" y2="380.4893"/><line style="stroke:#34495E;stroke-width:1;" x1="210.594" x2="210.594" y1="380.4893" y2="402.4893"/><polygon fill="#34495E" points="206.594,392.4893,210.594,402.4893,214.594,392.4893,210.594,396.4893" style="stroke:#34495E;stroke-width:1;"/><line style="stroke:#34495E;stroke-width:1;" x1="381.9622" x2="411.3167" y1="380.4893" y2="380.4893"/><line style="stroke:#34495E;stroke-width:1;" x1="411.3167" x2="411.3167" y1="380.4893" y2="402.4893"/><polygon fill="#34495E" points="407.3167,392.4893,411.3167,402.4893,415.3167,392.4893,411.3167,396.4893" style="stroke:#34495E;stroke-width:1;"/><line style="stroke:#34495E;stroke-width:1;" x1="210.594" x2="210.594" y1="463.8857" y2="495.6846"/><line style="stroke:#34495E;stroke-width:1;" x1="210.594" x2="298.9553" y1="495.6846" y2="495.6846"/><polygon fill="#34495E" points="288.9553,491.6846,298.9553,495.6846,288.9553,499.6846,292.9553,495.6846" style="stroke:#34495E;stroke-width:1;"/><line style="stroke:#34495E;stroke-width:1;" x1="411.3167" x2="411.3167" y1="477.6846" y2="495.6846"/><line style="stroke:#34495E;stroke-width:1;" x1="411.3167" x2="322.9553" y1="495.6846" y2="495.6846"/><polygon fill="#34495E" points="332.9553,491.6846,322.9553,495.6846,332.9553,499.6846,328.9553,495.6846" style="stroke:#34495E;stroke-width:1;"/><line style="stroke:#34495E;stroke-width:1;" x1="310.9553" x2="310.9553" y1="310.3906" y2="368.4893"/><polygon fill="#34495E" points="306.9553,358.4893,310.9553,368.4893,314.9553,358.4893,310.9553,362.4893" style="stroke:#34495E;stroke-width:1;"/><line style="stroke:#34495E;stroke-width:1;" x1="195.9089" x2="195.9089" y1="633.582" y2="667.3809"/><polygon fill="#34495E" points="191.9089,657.3809,195.9089,667.3809,199.9089,657.3809,195.9089,661.3809" style="stroke:#34495E;stroke-width:1;"/><line style="stroke:#34495E;stroke-width:1;" x1="195.9089" x2="195.9089" y1="701.1797" y2="721.1797"/><polygon fill="#34495E" points="191.9089,711.1797,195.9089,721.1797,199.9089,711.1797,195.9089,715.1797" style="stroke:#34495E;stroke-width:1;"/><line style="stroke:#34495E;stroke-width:1;" x1="253.4058" x2="195.9089" y1="577.7832" y2="577.7832"/><line style="stroke:#34495E;stroke-width:1;" x1="195.9089" x2="195.9089" y1="577.7832" y2="599.7832"/><polygon fill="#34495E" points="191.9089,589.7832,195.9089,599.7832,199.9089,589.7832,195.9089,593.7832" style="stroke:#34495E;stroke-width:1;"/><line style="stroke:#34495E;stroke-width:1;" x1="368.5049" x2="426.0017" y1="577.7832" y2="577.7832"/><line style="stroke:#34495E;stroke-width:1;" x1="426.0017" x2="426.0017" y1="577.7832" y2="599.7832"/><polygon fill="#34495E" points="422.0017,589.7832,426.0017,599.7832,430.0017,589.7832,426.0017,593.7832" style="stroke:#34495E;stroke-width:1;"/><line style="stroke:#34495E;stroke-width:1;" x1="195.9089" x2="195.9089" y1="754.9785" y2="772.9785"/><line style="stroke:#34495E;stroke-width:1;" x1="195.9089" x2="298.9553" y1="772.9785" y2="772.9785"/><polygon fill="#34495E" points="288.9553,768.9785,298.9553,772.9785,288.9553,776.9785,292.9553,772.9785" style="stroke:#34495E;stroke-width:1;"/><line style="stroke:#34495E;stroke-width:1;" x1="426.0017" x2="426.0017" y1="647.3809" y2="772.9785"/><line style="stroke:#34495E;stroke-width:1;" x1="426.0017" x2="322.9553" y1="772.9785" y2="772.9785"/><polygon fill="#34495E" points="332.9553,768.9785,322.9553,772.9785,332.9553,776.9785,328.9553,772.9785" style="stroke:#34495E;stroke-width:1;"/><line style="stroke:#34495E;stroke-width:1;" x1="310.9553" x2="310.9553" y1="507.6846" y2="565.7832"/><polygon fill="#34495E" points="306.9553,555.7832,310.9553,565.7832,314.9553,555.7832,310.9553,559.7832" style="stroke:#34495E;stroke-width:1;"/><line style="stroke:#34495E;stroke-width:1;" x1="310.9553" x2="310.9553" y1="784.9785" y2="816.9785"/><polygon fill="#34495E" points="306.9553,806.9785,310.9553,816.9785,314.9553,806.9785,310.9553,810.9785" style="stroke:#34495E;stroke-width:1;"/><?plantuml-src TLHDJzj04BtdLqpfXKf6WK10AOUAV5YL6Y0b2QfwGPFrE5wothLsrmbMnN_lR6p0RUabqSwycNdpzgq_-8noWaAXr1staRf0Ypcu31EpateDAIf7hOmrfKw4iPeidFHQYOHIB9MFZVOto2t7z8Zt9SnHknRgobgp6nbbB7myFJiRz2Uj90eljz9NyAi3C4InMU-dDV1u74_YISWOcv1jeltpy_x5AKV74dEZat_BHl7fA6u1sjN3Yq7_UCZ9kKVhc-39MV_gjCV1oMkJGQytx9rqdbjajV7q7wAJU32v-9jeC-gvuwLN15VZkwFZtXdChDGUviIh6mt79t04rwXbIiv7C1UceF2NKL8giXqNQ7QO03S9-8DvAPb6tbGSx0bz7fDGQ0bSI3x8909Xyi9eqlx1LzoHGOxiLWggp-2v-869C88Ffc3Awoh0s1W-DJRd4TxAfv0qIcJibb2as3lUxe6e4rWZS_6P9PSPbRXB3iiK3iDmgIY15McHvMWtNpunZ3GSLkG-COevBnt1T7f_tHqfPDkjgXT3XIx47eH3RHhi7R414mXyRM69Vxksr5wowxPa7GkpdqqwaIaBtfOh20giZdCobG93j1RjXUXUfNUOlkOQ3gFPCeASSiFhGoBT9W9DVcVi9je3K0YMnw8tDeBHZsa4uzco-_rgKQT_nlC8KbR5LSvJ3eKruVIsR7C_pRIR0B-TBcOHV5qiPjsxoNmHmNHODqkbfHqgnP7fDUGc8TKLoAQfqzpxgMe2B93OKt8ldgenPXK6uaggyFxQRDuJiIa5UY9H_gdXVBgykmRSebIuKlIgNs4bwrar-xWLUf5r7L_RPHrvD2j0Qx5om7u3joCgN9FBmXMRDMaofGD6rfYStI6FhE7Nr11sR_fXWWLNDVEK4SZonAfa2zyMf6T35lJ6v9ZK-tyhLyJVD7u74OJnuLMzIjJMmV7h-0q0?></g></svg>