<?plantuml 1.2026.1?><svg xmlns="http://www.w3.org/2000/svg" xmlns:xlink="http://www.w3.org/1999/xlink" contentStyleType="text/css" data-diagram-type="ACTIVITY" height="1214px" preserveAspectRatio="none" style="width:810px;height:1214px;background:#FFFFFF;" version="1.1" viewBox="0 0 810 1214" width="810px" zoomAndPan="magnify"><title>ADR-022 - S3/Object REST Translator and Prefix-Cache Routes</title><defs/><g><g class="title" data-source-line="18"><text fill="#000000" font-family="DejaVu Sans" font-size="22" font-weight="bold" lengthAdjust="spacing" textLength="657.7227" x="74.7399" y="35.6357">ADR-022 - S3/Object REST Translator and Prefix-Cache Routes</text></g><ellipse cx="480.1331" cy="61.2979" fill="#145A32" rx="10" ry="10" style="stroke:#000000;stroke-width:1;"/><rect fill="#FFFFFF" height="163.2939" rx="6" ry="6" style="stroke:#000000;stroke-width:1;" width="222.0684" x="369.0989" y="81.2979"/><path d="M485.7053,81.2979 L485.7053,90.3965 L475.7053,100.3965 L369.0989,100.3965" fill="none" style="stroke:#000000;stroke-width:1;"/><text fill="#000000" font-family="DejaVu Sans" font-size="14" lengthAdjust="spacing" textLength="106.6064" x="372.0989" y="95.4297">Ingress protocols</text><rect fill="#FDFEFE" height="47.5977" rx="6" ry="6" style="stroke:#566573;stroke-width:1;" width="180.752" x="389.7571" y="117.3965"/><text fill="#000000" font-family="DejaVu Sans" font-size="12" lengthAdjust="spacing" textLength="157.4121" x="399.7571" y="138.6523">S3 client calls s3_net_service</text><text fill="#000000" font-family="DejaVu Sans" font-size="12" lengthAdjust="spacing" textLength="160.752" x="399.7571" y="152.4512">HTTP 8080 S3 object protocol</text><rect fill="#FDFEFE" height="47.5977" rx="6" ry="6" style="stroke:#566573;stroke-width:1;" width="202.0684" x="379.0989" y="184.9941"/><text fill="#000000" font-family="DejaVu Sans" font-size="12" lengthAdjust="spacing" textLength="182.0684" x="389.0989" y="206.25">REST client calls rest_net_service</text><text fill="#000000" font-family="DejaVu Sans" font-size="12" lengthAdjust="spacing" textLength="168.0527" x="389.0989" y="220.0488">HTTP 8000 JSON/binary REST</text><rect fill="#FFFFFF" height="291.2939" rx="6" ry="6" style="stroke:#000000;stroke-width:1;" width="749.6934" x="42.509" y="254.5918"/><path d="M155.9983,254.5918 L155.9983,263.6904 L145.9983,273.6904 L42.509,273.6904" fill="none" style="stroke:#000000;stroke-width:1;"/><text fill="#000000" font-family="DejaVu Sans" font-size="14" lengthAdjust="spacing" textLength="103.4893" x="45.509" y="268.7236">Translation layer</text><polygon fill="#FCF3CF" points="450.4739,290.6904,509.7922,290.6904,521.7922,302.6904,509.7922,314.6904,450.4739,314.6904,438.4739,302.6904,450.4739,290.6904" style="stroke:#B7950B;stroke-width:1;"/><text fill="#000000" font-family="DejaVu Sans" font-size="11" lengthAdjust="spacing" textLength="59.3184" x="450.4739" y="306.6838">S3 request?</text><text fill="#000000" font-family="DejaVu Sans" font-size="11" lengthAdjust="spacing" textLength="17.1177" x="421.3562" y="300.3594">yes</text><text fill="#000000" font-family="DejaVu Sans" font-size="11" lengthAdjust="spacing" textLength="61.7461" x="521.7922" y="300.3594">REST native</text><rect fill="#FDFEFE" height="47.5977" rx="6" ry="6" style="stroke:#566573;stroke-width:1;" width="214.1094" x="198.0745" y="324.6904"/><text fill="#000000" font-family="DejaVu Sans" font-size="12" lengthAdjust="spacing" textLength="185.4141" x="208.0745" y="345.9463">meta_translate_service normalizes</text><text fill="#000000" font-family="DejaVu Sans" font-size="12" lengthAdjust="spacing" textLength="194.1094" x="208.0745" y="359.7451">method, bucket, key, query, headers</text><polygon fill="#FCF3CF" points="233.2881,392.2881,376.9702,392.2881,388.9702,404.2881,376.9702,416.2881,233.2881,416.2881,221.2881,404.2881,233.2881,392.2881" style="stroke:#B7950B;stroke-width:1;"/><text fill="#000000" font-family="DejaVu Sans" font-size="11" lengthAdjust="spacing" textLength="143.6821" x="233.2881" y="408.2815">bucket maps to prefix-cache?</text><text fill="#000000" font-family="DejaVu Sans" font-size="11" lengthAdjust="spacing" textLength="26.8984" x="194.3896" y="401.957">prefix</text><text fill="#000000" font-family="DejaVu Sans" font-size="11" lengthAdjust="spacing" textLength="29.353" x="388.9702" y="401.957">object</text><rect fill="#FDFEFE" height="47.5977" rx="6" ry="6" style="stroke:#566573;stroke-width:1;" width="237.459" x="72.509" y="426.2881"/><text fill="#000000" font-family="DejaVu Sans" font-size="12" lengthAdjust="spacing" textLength="217.459" x="82.509" y="447.5439">Resolve namespace_mode, namespace,</text><text fill="#000000" font-family="DejaVu Sans" font-size="12" lengthAdjust="spacing" textLength="215.4727" x="82.509" y="461.3428">optional index_id, and prefix_id by policy</text><rect fill="#FDFEFE" height="33.7988" rx="6" ry="6" style="stroke:#566573;stroke-width:1;" width="178.1035" x="329.968" y="426.2881"/><text fill="#000000" font-family="DejaVu Sans" font-size="12" lengthAdjust="spacing" textLength="158.1035" x="339.968" y="447.5439">Map to /objects/{bucket}/{key}</text><polygon fill="#FCF3CF" points="305.1292,479.8857,317.1292,491.8857,305.1292,503.8857,293.1292,491.8857,305.1292,479.8857" style="stroke:#B7950B;stroke-width:1;"/><rect fill="#FDFEFE" height="33.7988" rx="6" ry="6" style="stroke:#566573;stroke-width:1;" width="234.1309" x="538.0715" y="324.6904"/><text fill="#000000" font-family="DejaVu Sans" font-size="12" lengthAdjust="spacing" textLength="214.1309" x="548.0715" y="345.9463">Validate route against OpenAPI contract</text><polygon fill="#FCF3CF" points="480.1331,509.8857,492.1331,521.8857,480.1331,533.8857,468.1331,521.8857,480.1331,509.8857" style="stroke:#B7950B;stroke-width:1;"/><rect fill="#FFFFFF" height="239.6963" rx="6" ry="6" style="stroke:#000000;stroke-width:1;" width="798.2024" x="6" y="555.8857"/><path d="M147.4961,555.8857 L147.4961,564.9844 L137.4961,574.9844 L6,574.9844" fill="none" style="stroke:#000000;stroke-width:1;"/><text fill="#000000" font-family="DejaVu Sans" font-size="14" lengthAdjust="spacing" textLength="131.4961" x="9" y="570.0176">Prefix-cache contract</text><polygon fill="#FCF3CF" points="429.0674,591.9844,531.1987,591.9844,543.1987,603.9844,531.1987,615.9844,429.0674,615.9844,417.0674,603.9844,429.0674,591.9844" style="stroke:#B7950B;stroke-width:1;"/><text fill="#000000" font-family="DejaVu Sans" font-size="11" lengthAdjust="spacing" textLength="102.1313" x="429.0674" y="607.9778">exact put/get/delete?</text><text fill="#000000" font-family="DejaVu Sans" font-size="11" lengthAdjust="spacing" textLength="26.2915" x="390.7759" y="601.6533">exact</text><text fill="#000000" font-family="DejaVu Sans" font-size="11" lengthAdjust="spacing" textLength="45.8584" x="543.1987" y="601.6533">collection</text><polygon fill="#FCF3CF" points="250.5825,625.9844,338.0239,625.9844,350.0239,637.9844,338.0239,649.9844,250.5825,649.9844,238.5825,637.9844,250.5825,625.9844" style="stroke:#B7950B;stroke-width:1;"/><text fill="#000000" font-family="DejaVu Sans" font-size="11" lengthAdjust="spacing" textLength="87.4414" x="250.5825" y="641.9778">prefix_id present?</text><text fill="#000000" font-family="DejaVu Sans" font-size="11" lengthAdjust="spacing" textLength="22.623" x="215.9595" y="635.6533">valid</text><text fill="#000000" font-family="DejaVu Sans" font-size="11" lengthAdjust="spacing" textLength="31.1846" x="350.0239" y="635.6533">invalid</text><rect fill="#FDFEFE" height="33.7988" rx="6" ry="6" style="stroke:#566573;stroke-width:1;" width="294.1543" x="18" y="659.9844"/><text fill="#000000" font-family="DejaVu Sans" font-size="12" lengthAdjust="spacing" textLength="274.1543" x="28" y="681.2402">Route to /prefix-cache/{mode}/.../prefixes/{prefix_id}</text><rect fill="#FDFEFE" height="47.5977" rx="6" ry="6" style="stroke:#566573;stroke-width:1;" width="182.75" x="332.1543" y="659.9844"/><text fill="#000000" font-family="DejaVu Sans" font-size="12" lengthAdjust="spacing" textLength="162.75" x="342.1543" y="681.2402">Reject keyless exact operation</text><text fill="#000000" font-family="DejaVu Sans" font-size="12" lengthAdjust="spacing" textLength="102.0703" x="342.1543" y="695.0391">400 invalid_identity</text><ellipse cx="423.5293" cy="738.582" fill="none" rx="11" ry="11" style="stroke:#000000;stroke-width:1;"/><ellipse cx="423.5293" cy="738.582" fill="#FFFFFF" rx="6" ry="6" style="stroke:#000000;stroke-width:1;"/><rect fill="#FDFEFE" height="47.5977" rx="6" ry="6" style="stroke:#566573;stroke-width:1;" width="242.1172" x="544.9043" y="625.9844"/><text fill="#000000" font-family="DejaVu Sans" font-size="12" lengthAdjust="spacing" textLength="222.1172" x="554.9043" y="647.2402">Search or invalidate requires explicit body</text><text fill="#000000" font-family="DejaVu Sans" font-size="12" lengthAdjust="spacing" textLength="214.1543" x="554.9043" y="661.0391">and bounded predicate/escalation policy</text><polygon fill="#FCF3CF" points="480.1331,759.582,492.1331,771.582,480.1331,783.582,468.1331,771.582,480.1331,759.582" style="stroke:#B7950B;stroke-width:1;"/><rect fill="#FFFFFF" height="163.2939" rx="6" ry="6" style="stroke:#000000;stroke-width:1;" width="284.1133" x="338.0764" y="805.582"/><path d="M460.9309,805.582 L460.9309,814.6807 L450.9309,824.6807 L338.0764,824.6807" fill="none" style="stroke:#000000;stroke-width:1;"/><text fill="#000000" font-family="DejaVu Sans" font-size="14" lengthAdjust="spacing" textLength="112.8545" x="341.0764" y="819.7139">Backend adapters</text><rect fill="#FDFEFE" height="47.5977" rx="6" ry="6" style="stroke:#566573;stroke-width:1;" width="215.4512" x="372.4075" y="841.6807"/><text fill="#000000" font-family="DejaVu Sans" font-size="12" lengthAdjust="spacing" textLength="187.4297" x="382.4075" y="862.9365">Use replaceable object, KV, vector,</text><text fill="#000000" font-family="DejaVu Sans" font-size="12" lengthAdjust="spacing" textLength="195.4512" x="382.4075" y="876.7354">prefix-cache, and metadata adapters</text><rect fill="#FDFEFE" height="47.5977" rx="6" ry="6" style="stroke:#566573;stroke-width:1;" width="264.1133" x="348.0764" y="909.2783"/><text fill="#000000" font-family="DejaVu Sans" font-size="12" lengthAdjust="spacing" textLength="244.1133" x="358.0764" y="930.5342">Emit metrics by operation, namespace_mode,</text><text fill="#000000" font-family="DejaVu Sans" font-size="12" lengthAdjust="spacing" textLength="204.0879" x="358.0764" y="944.333">index_id, cache hit/miss, latency, error</text><ellipse cx="480.1331" cy="999.876" fill="none" rx="11" ry="11" style="stroke:#000000;stroke-width:1;"/><ellipse cx="480.1331" cy="999.876" fill="#FFFFFF" rx="6" ry="6" style="stroke:#000000;stroke-width:1;"/><line style="stroke:#34495E;stroke-width:1;" x1="480.1331" x2="480.1331" y1="164.9941" y2="184.9941"/><polygon fill="#34495E" points="476.1331,174.9941,480.1331,184.9941,484.1331,174.9941,480.1331,178.9941" style="stroke:#34495E;stroke-width:1;"/><line style="stroke:#34495E;stroke-width:1;" x1="480.1331" x2="480.1331" y1="71.2979" y2="117.3965"/><polygon fill="#34495E" points="476.1331,107.3965,480.1331,117.3965,484.1331,107.3965,480.1331,111.3965" style="stroke:#34495E;stroke-width:1;"/><line style="stroke:#34495E;stroke-width:1;" x1="221.2881" x2="191.2385" y1="404.2881" y2="404.2881"/><line style="stroke:#34495E;stroke-width:1;" x1="191.2385" x2="191.2385" y1="404.2881" y2="426.2881"/><polygon fill="#34495E" points="187.2385,416.2881,191.2385,426.2881,195.2385,416.2881,191.2385,420.2881" style="stroke:#34495E;stroke-width:1;"/><line style="stroke:#34495E;stroke-width:1;" x1="388.9702" x2="419.0198" y1="404.2881" y2="404.2881"/><line style="stroke:#34495E;stroke-width:1;" x1="419.0198" x2="419.0198" y1="404.2881" y2="426.2881"/><polygon fill="#34495E" points="415.0198,416.2881,419.0198,426.2881,423.0198,416.2881,419.0198,420.2881" style="stroke:#34495E;stroke-width:1;"/><line style="stroke:#34495E;stroke-width:1;" x1="191.2385" x2="191.2385" y1="473.8857" y2="491.8857"/><line style="stroke:#34495E;stroke-width:1;" x1="191.2385" x2="293.1292" y1="491.8857" y2="491.8857"/><polygon fill="#34495E" points="283.1292,487.8857,293.1292,491.8857,283.1292,495.8857,287.1292,491.8857" style="stroke:#34495E;stroke-width:1;"/><line style="stroke:#34495E;stroke-width:1;" x1="419.0198" x2="419.0198" y1="460.0869" y2="491.8857"/><line style="stroke:#34495E;stroke-width:1;" x1="419.0198" x2="317.1292" y1="491.8857" y2="491.8857"/><polygon fill="#34495E" points="327.1292,487.8857,317.1292,491.8857,327.1292,495.8857,323.1292,491.8857" style="stroke:#34495E;stroke-width:1;"/><line style="stroke:#34495E;stroke-width:1;" x1="305.1292" x2="305.1292" y1="372.2881" y2="392.2881"/><polygon fill="#34495E" points="301.1292,382.2881,305.1292,392.2881,309.1292,382.2881,305.1292,386.2881" style="stroke:#34495E;stroke-width:1;"/><line style="stroke:#34495E;stroke-width:1;" x1="438.4739" x2="305.1292" y1="302.6904" y2="302.6904"/><line style="stroke:#34495E;stroke-width:1;" x1="305.1292" x2="305.1292" y1="302.6904" y2="324.6904"/><polygon fill="#34495E" points="301.1292,314.6904,305.1292,324.6904,309.1292,314.6904,305.1292,318.6904" style="stroke:#34495E;stroke-width:1;"/><line style="stroke:#34495E;stroke-width:1;" x1="521.7922" x2="655.137" y1="302.6904" y2="302.6904"/><line style="stroke:#34495E;stroke-width:1;" x1="655.137" x2="655.137" y1="302.6904" y2="324.6904"/><polygon fill="#34495E" points="651.137,314.6904,655.137,324.6904,659.137,314.6904,655.137,318.6904" style="stroke:#34495E;stroke-width:1;"/><line style="stroke:#34495E;stroke-width:1;" x1="305.1292" x2="305.1292" y1="503.8857" y2="521.8857"/><line style="stroke:#34495E;stroke-width:1;" x1="305.1292" x2="468.1331" y1="521.8857" y2="521.8857"/><polygon fill="#34495E" points="458.1331,517.8857,468.1331,521.8857,458.1331,525.8857,462.1331,521.8857" style="stroke:#34495E;stroke-width:1;"/><line style="stroke:#34495E;stroke-width:1;" x1="655.137" x2="655.137" y1="358.4893" y2="521.8857"/><line style="stroke:#34495E;stroke-width:1;" x1="655.137" x2="492.1331" y1="521.8857" y2="521.8857"/><polygon fill="#34495E" points="502.1331,517.8857,492.1331,521.8857,502.1331,525.8857,498.1331,521.8857" style="stroke:#34495E;stroke-width:1;"/><line style="stroke:#34495E;stroke-width:1;" x1="480.1331" x2="480.1331" y1="232.5918" y2="290.6904"/><polygon fill="#34495E" points="476.1331,280.6904,480.1331,290.6904,484.1331,280.6904,480.1331,284.6904" style="stroke:#34495E;stroke-width:1;"/><line style="stroke:#34495E;stroke-width:1;" x1="423.5293" x2="423.5293" y1="707.582" y2="727.582"/><polygon fill="#34495E" points="419.5293,717.582,423.5293,727.582,427.5293,717.582,423.5293,721.582" style="stroke:#34495E;stroke-width:1;"/><line style="stroke:#34495E;stroke-width:1;" x1="238.5825" x2="165.0771" y1="637.9844" y2="637.9844"/><line style="stroke:#34495E;stroke-width:1;" x1="165.0771" x2="165.0771" y1="637.9844" y2="659.9844"/><polygon fill="#34495E" points="161.0771,649.9844,165.0771,659.9844,169.0771,649.9844,165.0771,653.9844" style="stroke:#34495E;stroke-width:1;"/><line style="stroke:#34495E;stroke-width:1;" x1="350.0239" x2="423.5293" y1="637.9844" y2="637.9844"/><line style="stroke:#34495E;stroke-width:1;" x1="423.5293" x2="423.5293" y1="637.9844" y2="659.9844"/><polygon fill="#34495E" points="419.5293,649.9844,423.5293,659.9844,427.5293,649.9844,423.5293,653.9844" style="stroke:#34495E;stroke-width:1;"/><line style="stroke:#34495E;stroke-width:1;" x1="165.0771" x2="165.0771" y1="693.7832" y2="771.582"/><line style="stroke:#34495E;stroke-width:1;" x1="165.0771" x2="468.1331" y1="771.582" y2="771.582"/><polygon fill="#34495E" points="458.1331,767.582,468.1331,771.582,458.1331,775.582,462.1331,771.582" style="stroke:#34495E;stroke-width:1;"/><line style="stroke:#34495E;stroke-width:1;" x1="417.0674" x2="294.3032" y1="603.9844" y2="603.9844"/><line style="stroke:#34495E;stroke-width:1;" x1="294.3032" x2="294.3032" y1="603.9844" y2="625.9844"/><polygon fill="#34495E" points="290.3032,615.9844,294.3032,625.9844,298.3032,615.9844,294.3032,619.9844" style="stroke:#34495E;stroke-width:1;"/><line style="stroke:#34495E;stroke-width:1;" x1="543.1987" x2="665.9629" y1="603.9844" y2="603.9844"/><line style="stroke:#34495E;stroke-width:1;" x1="665.9629" x2="665.9629" y1="603.9844" y2="625.9844"/><polygon fill="#34495E" points="661.9629,615.9844,665.9629,625.9844,669.9629,615.9844,665.9629,619.9844" style="stroke:#34495E;stroke-width:1;"/><line style="stroke:#34495E;stroke-width:1;" x1="665.9629" x2="665.9629" y1="673.582" y2="771.582"/><line style="stroke:#34495E;stroke-width:1;" x1="665.9629" x2="492.1331" y1="771.582" y2="771.582"/><polygon fill="#34495E" points="502.1331,767.582,492.1331,771.582,502.1331,775.582,498.1331,771.582" style="stroke:#34495E;stroke-width:1;"/><line style="stroke:#34495E;stroke-width:1;" x1="480.1331" x2="480.1331" y1="533.8857" y2="591.9844"/><polygon fill="#34495E" points="476.1331,581.9844,480.1331,591.9844,484.1331,581.9844,480.1331,585.9844" style="stroke:#34495E;stroke-width:1;"/><line style="stroke:#34495E;stroke-width:1;" x1="480.1331" x2="480.1331" y1="889.2783" y2="909.2783"/><polygon fill="#34495E" points="476.1331,899.2783,480.1331,909.2783,484.1331,899.2783,480.1331,903.2783" style="stroke:#34495E;stroke-width:1;"/><line style="stroke:#34495E;stroke-width:1;" x1="480.1331" x2="480.1331" y1="783.582" y2="841.6807"/><polygon fill="#34495E" points="476.1331,831.6807,480.1331,841.6807,484.1331,831.6807,480.1331,835.6807" style="stroke:#34495E;stroke-width:1;"/><line style="stroke:#34495E;stroke-width:1;" x1="480.1331" x2="480.1331" y1="956.876" y2="988.876"/><polygon fill="#34495E" points="476.1331,978.876,480.1331,988.876,484.1331,978.876,480.1331,982.876" style="stroke:#34495E;stroke-width:1;"/><g class="legend" data-source-line="20"><rect fill="none" height="187.085" rx="6" ry="6" style="stroke:#000000;stroke-width:1;" width="577.1367" x="220.0657" y="1014.876"/><text fill="#000000" font-family="DejaVu Sans" font-size="14" lengthAdjust="spacing" textLength="368.0537" x="225.0657" y="1033.0078">Design defaults for diagrams unless an ADR narrows them:</text><text fill="#000000" font-family="DejaVu Sans" font-size="14" lengthAdjust="spacing" textLength="528.3633" x="225.0657" y="1049.1064">- Actor/API: HTTPS 443 or 8443; OpenAI-compatible API plus Coherence-native API.</text><text fill="#000000" font-family="DejaVu Sans" font-size="14" lengthAdjust="spacing" textLength="510.4258" x="225.0657" y="1065.2051">- RoCEv2: UDP destination 4791; jumbo MTU 9000; PFC only on RDMA priorities.</text><text fill="#000000" font-family="DejaVu Sans" font-size="14" lengthAdjust="spacing" textLength="554.7432" x="225.0657" y="1081.3037">- NVMe-oF: discovery/controller service on TCP/RDMA port 4420; DPU-mediated targets.</text><text fill="#000000" font-family="DejaVu Sans" font-size="14" lengthAdjust="spacing" textLength="544.7012" x="225.0657" y="1097.4023">- Telemetry: OTLP gRPC 4317, OTLP HTTP 4318, Prometheus 9090/9100, gNMI 9339.</text><text fill="#000000" font-family="DejaVu Sans" font-size="14" lengthAdjust="spacing" textLength="519.8252" x="225.0657" y="1113.501">- Timing: PTP event/general UDP 319/320 on an isolated timing/management class.</text><text fill="#000000" font-family="DejaVu Sans" font-size="14" lengthAdjust="spacing" textLength="454.4121" x="225.0657" y="1129.5996">- VLAN plan: site-specific IDs are allowed, but classes must stay isolated:</text><text fill="#000000" font-family="DejaVu Sans" font-size="14" lengthAdjust="spacing" textLength="559.3574" x="232.845" y="1145.6982">mgmt/OOB, frontend/API, RDMA rail-A, RDMA rail-B, storage/NVMe-oF, telemetry, timing.</text><text fill="#000000" font-family="DejaVu Sans" font-size="14" lengthAdjust="spacing" textLength="507.3564" x="225.0657" y="1161.7969">- Trunks: 802.1Q tagged uplinks; rail-A and rail-B must not share a failure domain.</text><text fill="#000000" font-family="DejaVu Sans" font-size="14" lengthAdjust="spacing" textLength="464.4951" x="225.0657" y="1177.8955">- Buffers: kv_hbm_active, kv_dram_warm, kv_cxl_warm, kv_rdma_staging,</text><text fill="#000000" font-family="DejaVu Sans" font-size="14" lengthAdjust="spacing" textLength="392.2119" x="232.845" y="1193.9941">zfs_slog, zfs_arc, zfs_l2arc, object_cache, vector_head_cache.</text></g><?plantuml-src TLNRSXev47tdAtgpBqdLuE7csC335kPIwztOPWtsawieCTCCYcSa8WbiulA_xv5cZ4as-mAZItUVFdswzPjRSy6qoOLKDVierKOOKP1TYrG_IPNHIkIMZqwCtgeqqKQneMRhw23bbTZcRgALknPmEUAludvBCw7iqQs1CVffg7DjwFTsfzCz7HyTYiJ9dNHxUgaHNOZaCGlHgkkJqMGy6ViJRL8srUxfvy-dPstiZgGej4h_QpQSj8UJeml7rXTdtTF61GvdJXXNRJOxfuDs2vlZWvDkgtNHQjPUZy0gxVX_W8udtV7Ppq2hKAyr9rtED1ZTrXkj5jLfrevlbbyvSNGxdirfRi1OBXniX4ffQdWbd-j3aQoPRlNMiQtLSiuOPqPcQrSRiPMPUkFVqWgMgHGPG5hQgfojXISVa9Jmz5loHU_LwZH842OUJ2zxzETyFfrHfzCcc9_Zlqyt6rQ3otgYYurmSkb1JoyXbQsbeLwpOPLmNU5e5qvEuF1M3yUxLe_kHbC0iaxwOwseSzPjzkdhjbXgkfhVKRVHQFHfEXcILlaUFtGxkXhGnaXjf9DilRFh-okkwqaFsTX4xzZiumJgCZhF8JxBPYSJzhRpuJGkxRLnoA45twFfNRrWyE0u9HGtOnUSpZc7u9tPz-Xc_cLAsUrqI9rsyomgrvu7lpwFGBt6pJKZtswZsuYxpKOZekpwwfAwxNOtU9C5cgH7KnZnZfMBKHWs8WyCj9lTkDrgU8WeWBGwBz44exWGIcJ0eXmbkR01tVsNmRLlHjKZAntNxOOJkP89NOvGHCCaybm_SHhHSbkPiQLYQnrP9_Q763sehyWA5z_SN4IqCg0DWl6LZagcZP1vVN2ym3qBDG1IN14VaNiZAwf0XvpDLZtQ7fqtMYVDVy1jbY6fxIQNsEvNdeDsIxybFBIBdoe-1SmKcM_nbUe2OyVxlDYkLcpWz76tM2-BHPW47Fbb2XqldeGfmYfvpjyN9Yt40dbdG1OXu-yhkx2vpgBm9KnIVkIjyAb3aoqItqaHxTXhVx5caPPR9pKmL3PMhMRzEAYXqT6iNhyVBbLcV2DjZ7OwqRdz47g_DskZ2ZBK4AMnPDiBnMvHYVD11JcTDyuRQFCAmS57tpi8FV-32yHnltJIQD1VivlhU8ckClimBVgO9qSetsQ7N-HYpwP4ALVq4U4DVzl2zn-VVFyh-hXd-mcd084QYuMhZFajC6fc2f7BxsmVbEy47NINFB83_GnHm9_NXYSHrUi7PpvOUOaAiS6iqKWupB10yo5wkLa2y3mmf8j1el1ss8r8U57e57KwhAC7fJS-CpINL2a_BoJWU9cLdh2avHuZ89V9leJ2UBheOydw8T2Ls7XCSRbjuvSIx6lyWfHUAqELobNjpK4eKJddAhxkmKeAflnhY5-HGSRGU1YO695XIa72tbdfweSgJO_eEDnzhnG_2o-IhPybBaxHWkwTjN3uwK3qU-huij3GuUBEGtndD-3qQH_N8dxn7B_69oSdrJw3ZuFFrsCMfVh98mSjWxFmm9IWzGQppoVve3fGQsK3Lq26TxrV6MFER7x1S-87U-BDAvfdZCPT-mUfyXGeXuebaaL8Z9n4EbhgTF-Wl1AM_XNcG4Og4zoEsQAfoePuLyOlQk8VSV-aYbHi7BHSjVUTzG4na1CM_W4iHHFHt_Tl4mIoFAQqLAJl9u0L1tUXrSS5mFfnAXFhfNfWA_fPzG_gNU6bJDRInOMqDYBVeIf1rp7USkC7WAVpNm00?></g></svg>