<?plantuml 1.2026.1?><svg xmlns="http://www.w3.org/2000/svg" xmlns:xlink="http://www.w3.org/1999/xlink" contentStyleType="text/css" data-diagram-type="ACTIVITY" height="1738px" preserveAspectRatio="none" style="width:734px;height:1738px;background:#FFFFFF;" version="1.1" viewBox="0 0 734 1738" width="734px" zoomAndPan="magnify"><title>ADR-026 - Coherence-CE Object Chunking and Manifest Semantics</title><defs/><g><g class="title" data-source-line="18"><text fill="#000000" font-family="DejaVu Sans" font-size="22" font-weight="bold" lengthAdjust="spacing" textLength="701.6904" x="15" y="35.6357">ADR-026 - Coherence-CE Object Chunking and Manifest Semantics</text></g><ellipse cx="367.3452" cy="61.2979" fill="#145A32" rx="10" ry="10" style="stroke:#000000;stroke-width:1;"/><rect fill="#FFFFFF" height="284.6904" rx="6" ry="6" style="stroke:#000000;stroke-width:1;" width="234.0684" x="250.311" y="81.2979"/><path d="M426.0552,81.2979 L426.0552,90.3965 L416.0552,100.3965 L250.311,100.3965" fill="none" style="stroke:#000000;stroke-width:1;"/><text fill="#000000" font-family="DejaVu Sans" font-size="14" lengthAdjust="spacing" textLength="165.7441" x="253.311" y="95.4297">External protocol contracts</text><rect fill="#FDFEFE" height="33.7988" rx="6" ry="6" style="stroke:#566573;stroke-width:1;" width="214.0684" x="260.311" y="117.3965"/><text fill="#000000" font-family="DejaVu Sans" font-size="12" lengthAdjust="spacing" textLength="194.0684" x="270.311" y="138.6523">S3 client uses S3 CRUD or multipart</text><rect fill="#FDFEFE" height="47.5977" rx="6" ry="6" style="stroke:#566573;stroke-width:1;" width="180.7344" x="276.978" y="171.1953"/><text fill="#000000" font-family="DejaVu Sans" font-size="12" lengthAdjust="spacing" textLength="160.7344" x="286.978" y="192.4512">Git LFS client uses Batch API,</text><text fill="#000000" font-family="DejaVu Sans" font-size="12" lengthAdjust="spacing" textLength="129.3926" x="286.978" y="206.25">basic transfer, and locks</text><rect fill="#FDFEFE" height="47.5977" rx="6" ry="6" style="stroke:#566573;stroke-width:1;" width="205.4316" x="264.6294" y="238.793"/><text fill="#000000" font-family="DejaVu Sans" font-size="12" lengthAdjust="spacing" textLength="178.084" x="274.6294" y="260.0488">RAG pipeline stores source bytes</text><text fill="#000000" font-family="DejaVu Sans" font-size="12" lengthAdjust="spacing" textLength="185.4316" x="274.6294" y="273.8477">and semantic extraction separately</text><rect fill="#FDFEFE" height="47.5977" rx="6" ry="6" style="stroke:#566573;stroke-width:1;" width="192.7344" x="270.978" y="306.3906"/><text fill="#000000" font-family="DejaVu Sans" font-size="12" lengthAdjust="spacing" textLength="172.7344" x="280.978" y="327.6465">Coherence REST client may call</text><text fill="#000000" font-family="DejaVu Sans" font-size="12" lengthAdjust="spacing" textLength="150.7266" x="280.978" y="341.4453">manifest/chunk APIs directly</text><rect fill="#FFFFFF" height="257.1118" rx="6" ry="6" style="stroke:#000000;stroke-width:1;" width="622.3125" x="56.189" y="375.9883"/><path d="M163.4712,375.9883 L163.4712,385.0869 L153.4712,395.0869 L56.189,395.0869" fill="none" style="stroke:#000000;stroke-width:1;"/><text fill="#000000" font-family="DejaVu Sans" font-size="14" lengthAdjust="spacing" textLength="97.2822" x="59.189" y="390.1201">Protocol facade</text><polygon fill="#FCF3CF" points="118.3298,415.0869,201.4797,415.0869,213.4797,427.0869,201.4797,439.0869,118.3298,439.0869,106.3298,427.0869,118.3298,415.0869" style="stroke:#B7950B;stroke-width:1;"/><text fill="#000000" font-family="DejaVu Sans" font-size="11" lengthAdjust="spacing" textLength="20.1738" x="163.9048" y="449.4048">LFS</text><text fill="#000000" font-family="DejaVu Sans" font-size="11" lengthAdjust="spacing" textLength="83.1499" x="118.3298" y="431.0803">Git LFS request?</text><rect fill="#FDFEFE" height="47.5977" rx="6" ry="6" style="stroke:#566573;stroke-width:1;" width="187.4316" x="66.189" y="470.9048"/><text fill="#000000" font-family="DejaVu Sans" font-size="12" lengthAdjust="spacing" textLength="160.1016" x="76.189" y="492.1606">Validate repo/ref authorization</text><text fill="#000000" font-family="DejaVu Sans" font-size="12" lengthAdjust="spacing" textLength="167.4316" x="76.189" y="505.9595">through Gitolite or control plane</text><rect fill="#FDFEFE" height="47.5977" rx="6" ry="6" style="stroke:#566573;stroke-width:1;" width="167.7383" x="76.0356" y="553.5024"/><text fill="#000000" font-family="DejaVu Sans" font-size="12" lengthAdjust="spacing" textLength="147.7383" x="86.0356" y="574.7583">Map OID + size to object_id</text><text fill="#000000" font-family="DejaVu Sans" font-size="12" lengthAdjust="spacing" textLength="66.7324" x="86.0356" y="588.5571">sha256:{oid}</text><polygon fill="#FCF3CF" points="344.4453,415.0869,409.2529,415.0869,421.2529,427.0869,409.2529,439.0869,344.4453,439.0869,332.4453,427.0869,344.4453,415.0869" style="stroke:#B7950B;stroke-width:1;"/><text fill="#000000" font-family="DejaVu Sans" font-size="11" lengthAdjust="spacing" textLength="13.4546" x="380.8491" y="449.4048">S3</text><text fill="#000000" font-family="DejaVu Sans" font-size="11" lengthAdjust="spacing" textLength="64.8076" x="344.4453" y="431.0803">S3 multipart?</text><text fill="#000000" font-family="DejaVu Sans" font-size="11" lengthAdjust="spacing" textLength="56.2461" x="421.2529" y="424.7559">native/RAG</text><rect fill="#FDFEFE" height="47.5977" rx="6" ry="6" style="stroke:#566573;stroke-width:1;" width="206.457" x="273.6206" y="470.9048"/><text fill="#000000" font-family="DejaVu Sans" font-size="12" lengthAdjust="spacing" textLength="155.7598" x="283.6206" y="492.1606">Map upload_id + partNumber</text><text fill="#000000" font-family="DejaVu Sans" font-size="12" lengthAdjust="spacing" textLength="186.457" x="283.6206" y="505.9595">to upload session + chunk_number</text><rect fill="#FDFEFE" height="47.5977" rx="6" ry="6" style="stroke:#566573;stroke-width:1;" width="168.4238" x="500.0776" y="508.8792"/><text fill="#000000" font-family="DejaVu Sans" font-size="12" lengthAdjust="spacing" textLength="148.4238" x="510.0776" y="530.135">Use namespace + object_id</text><text fill="#000000" font-family="DejaVu Sans" font-size="12" lengthAdjust="spacing" textLength="102.0527" x="510.0776" y="543.9338">and durability class</text><rect fill="#FFFFFF" height="346.2881" rx="6" ry="6" style="stroke:#000000;stroke-width:1;" width="473.6323" x="131.2029" y="643.1001"/><path d="M324.0642,643.1001 L324.0642,652.1987 L314.0642,662.1987 L131.2029,662.1987" fill="none" style="stroke:#000000;stroke-width:1;"/><text fill="#000000" font-family="DejaVu Sans" font-size="14" lengthAdjust="spacing" textLength="182.8613" x="134.2029" y="657.2319">Chunk and manifest workflow</text><rect fill="#FDFEFE" height="61.3965" rx="6" ry="6" style="stroke:#566573;stroke-width:1;" width="174.0957" x="280.2974" y="679.1987"/><text fill="#000000" font-family="DejaVu Sans" font-size="12" lengthAdjust="spacing" textLength="154.0957" x="290.2974" y="700.4546">Allocate upload_session with</text><text fill="#000000" font-family="DejaVu Sans" font-size="12" lengthAdjust="spacing" textLength="143.4141" x="290.2974" y="714.2534">expected size, chunk_size,</text><text fill="#000000" font-family="DejaVu Sans" font-size="12" lengthAdjust="spacing" textLength="146.748" x="290.2974" y="728.0522">external_protocol, durability</text><rect fill="#FDFEFE" height="47.5977" rx="6" ry="6" style="stroke:#566573;stroke-width:1;" width="173.4277" x="280.6313" y="760.5952"/><text fill="#000000" font-family="DejaVu Sans" font-size="12" lengthAdjust="spacing" textLength="144.0469" x="290.6313" y="781.8511">Write immutable chunks by</text><text fill="#000000" font-family="DejaVu Sans" font-size="12" lengthAdjust="spacing" textLength="153.4277" x="290.6313" y="795.6499">chunk_number, size, sha256</text><polygon fill="#FCF3CF" points="268.8904,828.1929,465.8,828.1929,477.8,840.1929,465.8,852.1929,268.8904,852.1929,256.8904,840.1929,268.8904,828.1929" style="stroke:#B7950B;stroke-width:1;"/><text fill="#000000" font-family="DejaVu Sans" font-size="11" lengthAdjust="spacing" textLength="196.9097" x="268.8904" y="844.1863">all chunks contiguous and hashes valid?</text><text fill="#000000" font-family="DejaVu Sans" font-size="11" lengthAdjust="spacing" textLength="22.623" x="234.2673" y="837.8618">valid</text><text fill="#000000" font-family="DejaVu Sans" font-size="11" lengthAdjust="spacing" textLength="31.1846" x="477.8" y="837.8618">invalid</text><rect fill="#FDFEFE" height="33.7988" rx="6" ry="6" style="stroke:#566573;stroke-width:1;" width="171.4121" x="161.1843" y="862.1929"/><text fill="#000000" font-family="DejaVu Sans" font-size="12" lengthAdjust="spacing" textLength="151.4121" x="171.1843" y="883.4487">Compute full-object SHA256</text><rect fill="#FDFEFE" height="47.5977" rx="6" ry="6" style="stroke:#566573;stroke-width:1;" width="191.375" x="151.2029" y="929.7905"/><text fill="#000000" font-family="DejaVu Sans" font-size="12" lengthAdjust="spacing" textLength="171.375" x="161.2029" y="951.0464">Commit manifest atomically with</text><text fill="#000000" font-family="DejaVu Sans" font-size="12" lengthAdjust="spacing" textLength="165.4629" x="161.2029" y="964.8452">end_chunk_number and epoch</text><rect fill="#FDFEFE" height="47.5977" rx="6" ry="6" style="stroke:#566573;stroke-width:1;" width="194.0703" x="390.7649" y="862.1929"/><text fill="#000000" font-family="DejaVu Sans" font-size="12" lengthAdjust="spacing" textLength="174.0703" x="400.7649" y="883.4487">Reject commit; keep partial state</text><text fill="#000000" font-family="DejaVu Sans" font-size="12" lengthAdjust="spacing" textLength="163.3887" x="400.7649" y="897.2476">session-scoped for retry or GC</text><ellipse cx="487.8" cy="954.5894" fill="none" rx="11" ry="11" style="stroke:#000000;stroke-width:1;"/><ellipse cx="487.8" cy="954.5894" fill="#FFFFFF" rx="6" ry="6" style="stroke:#000000;stroke-width:1;"/><rect fill="#FFFFFF" height="227.2939" rx="6" ry="6" style="stroke:#000000;stroke-width:1;" width="486.7773" x="131.9575" y="999.3882"/><path d="M303.0396,999.3882 L303.0396,1008.4868 L293.0396,1018.4868 L131.9575,1018.4868" fill="none" style="stroke:#000000;stroke-width:1;"/><text fill="#000000" font-family="DejaVu Sans" font-size="14" lengthAdjust="spacing" textLength="161.082" x="134.9575" y="1013.52">Coherence-CE placement</text><polygon fill="#FCF3CF" points="299.178,1035.4868,435.5125,1035.4868,447.5125,1047.4868,435.5125,1059.4868,299.178,1059.4868,287.178,1047.4868,299.178,1035.4868" style="stroke:#B7950B;stroke-width:1;"/><text fill="#000000" font-family="DejaVu Sans" font-size="11" lengthAdjust="spacing" textLength="136.3345" x="299.178" y="1051.4802">durability class &gt;= OBJ-D3?</text><text fill="#000000" font-family="DejaVu Sans" font-size="11" lengthAdjust="spacing" textLength="36.6953" x="250.4827" y="1045.1558">durable</text><text fill="#000000" font-family="DejaVu Sans" font-size="11" lengthAdjust="spacing" textLength="67.8638" x="447.5125" y="1045.1558">cache/scratch</text><rect fill="#FDFEFE" height="47.5977" rx="6" ry="6" style="stroke:#566573;stroke-width:1;" width="197.3867" x="151.9575" y="1069.4868"/><text fill="#000000" font-family="DejaVu Sans" font-size="12" lengthAdjust="spacing" textLength="161.4082" x="161.9575" y="1090.7427">Place through DPU/OpenZFS,</text><text fill="#000000" font-family="DejaVu Sans" font-size="12" lengthAdjust="spacing" textLength="177.3867" x="161.9575" y="1104.5415">mirrored RDMA fabric, snapshots</text><rect fill="#FDFEFE" height="47.5977" rx="6" ry="6" style="stroke:#566573;stroke-width:1;" width="229.3906" x="369.3442" y="1069.4868"/><text fill="#000000" font-family="DejaVu Sans" font-size="12" lengthAdjust="spacing" textLength="209.3906" x="379.3442" y="1090.7427">Use local cache, DRAM/CXL warm tier,</text><text fill="#000000" font-family="DejaVu Sans" font-size="12" lengthAdjust="spacing" textLength="156.082" x="379.3442" y="1104.5415">or recomputable object policy</text><polygon fill="#FCF3CF" points="367.3452,1123.0845,379.3452,1135.0845,367.3452,1147.0845,355.3452,1135.0845,367.3452,1123.0845" style="stroke:#B7950B;stroke-width:1;"/><rect fill="#FDFEFE" height="47.5977" rx="6" ry="6" style="stroke:#566573;stroke-width:1;" width="220.7656" x="256.9624" y="1167.0845"/><text fill="#000000" font-family="DejaVu Sans" font-size="12" lengthAdjust="spacing" textLength="200.7656" x="266.9624" y="1188.3403">Expose only committed object identity</text><text fill="#000000" font-family="DejaVu Sans" font-size="12" lengthAdjust="spacing" textLength="160.7637" x="266.9624" y="1202.1392">and protocol-native responses</text><rect fill="#FFFFFF" height="255.6184" rx="6" ry="6" style="stroke:#000000;stroke-width:1;" width="254.0977" x="246.2964" y="1236.6821"/><path d="M377.689,1236.6821 L377.689,1245.7808 L367.689,1255.7808 L246.2964,1255.7808" fill="none" style="stroke:#000000;stroke-width:1;"/><text fill="#000000" font-family="DejaVu Sans" font-size="14" lengthAdjust="spacing" textLength="121.3926" x="249.2964" y="1250.814">Verification and GC</text><rect fill="#FDFEFE" height="47.5977" rx="6" ry="6" style="stroke:#566573;stroke-width:1;" width="201.4121" x="266.6392" y="1272.7808"/><text fill="#000000" font-family="DejaVu Sans" font-size="12" lengthAdjust="spacing" textLength="181.4121" x="276.6392" y="1294.0366">Verify manifest, chunk references,</text><text fill="#000000" font-family="DejaVu Sans" font-size="12" lengthAdjust="spacing" textLength="146.0508" x="276.6392" y="1307.8354">mirror state, and lock policy</text><rect fill="#FDFEFE" height="47.5977" rx="6" ry="6" style="stroke:#566573;stroke-width:1;" width="202.0977" x="266.2964" y="1388.7029"/><text fill="#000000" font-family="DejaVu Sans" font-size="12" lengthAdjust="spacing" textLength="182.0977" x="276.2964" y="1409.9587">Garbage-collect after grace period</text><text fill="#000000" font-family="DejaVu Sans" font-size="12" lengthAdjust="spacing" textLength="131.373" x="276.2964" y="1423.7576">and mirror-safety checks</text><polygon fill="#FCF3CF" points="276.845,1340.3784,457.8455,1340.3784,469.8455,1352.3784,457.8455,1364.3784,276.845,1364.3784,264.845,1352.3784,276.845,1340.3784" style="stroke:#B7950B;stroke-width:1;"/><text fill="#000000" font-family="DejaVu Sans" font-size="11" lengthAdjust="spacing" textLength="31.1792" x="371.3452" y="1374.6963">collect</text><text fill="#000000" font-family="DejaVu Sans" font-size="11" lengthAdjust="spacing" textLength="181.0005" x="276.845" y="1356.3718">unreferenced partial chunks expired?</text><polygon fill="#FCF3CF" points="367.3452,1456.3005,379.3452,1468.3005,367.3452,1480.3005,355.3452,1468.3005,367.3452,1456.3005" style="stroke:#B7950B;stroke-width:1;"/><ellipse cx="367.3452" cy="1523.3005" fill="none" rx="11" ry="11" style="stroke:#000000;stroke-width:1;"/><ellipse cx="367.3452" cy="1523.3005" fill="#FFFFFF" rx="6" ry="6" style="stroke:#000000;stroke-width:1;"/><line style="stroke:#34495E;stroke-width:1;" x1="367.3452" x2="367.3452" y1="151.1953" y2="171.1953"/><polygon fill="#34495E" points="363.3452,161.1953,367.3452,171.1953,371.3452,161.1953,367.3452,165.1953" style="stroke:#34495E;stroke-width:1;"/><line style="stroke:#34495E;stroke-width:1;" x1="367.3452" x2="367.3452" y1="218.793" y2="238.793"/><polygon fill="#34495E" points="363.3452,228.793,367.3452,238.793,371.3452,228.793,367.3452,232.793" style="stroke:#34495E;stroke-width:1;"/><line style="stroke:#34495E;stroke-width:1;" x1="367.3452" x2="367.3452" y1="286.3906" y2="306.3906"/><polygon fill="#34495E" points="363.3452,296.3906,367.3452,306.3906,371.3452,296.3906,367.3452,300.3906" style="stroke:#34495E;stroke-width:1;"/><line style="stroke:#34495E;stroke-width:1;" x1="367.3452" x2="367.3452" y1="71.2979" y2="117.3965"/><polygon fill="#34495E" points="363.3452,107.3965,367.3452,117.3965,371.3452,107.3965,367.3452,111.3965" style="stroke:#34495E;stroke-width:1;"/><line style="stroke:#34495E;stroke-width:1;" x1="159.9048" x2="159.9048" y1="518.5024" y2="553.5024"/><polygon fill="#34495E" points="155.9048,543.5024,159.9048,553.5024,163.9048,543.5024,159.9048,547.5024" style="stroke:#34495E;stroke-width:1;"/><line style="stroke:#34495E;stroke-width:1;" x1="159.9048" x2="159.9048" y1="439.0869" y2="470.9048"/><polygon fill="#34495E" points="155.9048,460.9048,159.9048,470.9048,163.9048,460.9048,159.9048,464.9048" style="stroke:#34495E;stroke-width:1;"/><line style="stroke:#34495E;stroke-width:1;" x1="159.9048" x2="159.9048" y1="601.1001" y2="621.1001"/><polygon fill="#34495E" points="155.9048,611.1001,159.9048,621.1001,163.9048,611.1001,159.9048,615.1001" style="stroke:#34495E;stroke-width:1;"/><line style="stroke:#34495E;stroke-width:1;" x1="376.8491" x2="376.8491" y1="439.0869" y2="470.9048"/><polygon fill="#34495E" points="372.8491,460.9048,376.8491,470.9048,380.8491,460.9048,376.8491,464.9048" style="stroke:#34495E;stroke-width:1;"/><line style="stroke:#34495E;stroke-width:1;" x1="376.8491" x2="376.8491" y1="518.5024" y2="621.1001"/><polygon fill="#34495E" points="372.8491,611.1001,376.8491,621.1001,380.8491,611.1001,376.8491,615.1001" style="stroke:#34495E;stroke-width:1;"/><line style="stroke:#34495E;stroke-width:1;" x1="213.4797" x2="332.4453" y1="427.0869" y2="427.0869"/><polygon fill="#34495E" points="322.4453,423.0869,332.4453,427.0869,322.4453,431.0869,326.4453,427.0869" style="stroke:#34495E;stroke-width:1;"/><line style="stroke:#34495E;stroke-width:1;" x1="367.3452" x2="367.3452" y1="353.9883" y2="400.0869"/><line style="stroke:#34495E;stroke-width:1;" x1="367.3452" x2="159.9048" y1="400.0869" y2="400.0869"/><line style="stroke:#34495E;stroke-width:1;" x1="159.9048" x2="159.9048" y1="400.0869" y2="415.0869"/><polygon fill="#34495E" points="155.9048,405.0869,159.9048,415.0869,163.9048,405.0869,159.9048,409.0869" style="stroke:#34495E;stroke-width:1;"/><line style="stroke:#34495E;stroke-width:1;" x1="421.2529" x2="584.2896" y1="427.0869" y2="427.0869"/><line style="stroke:#34495E;stroke-width:1;" x1="584.2896" x2="584.2896" y1="427.0869" y2="508.8792"/><polygon fill="#34495E" points="580.2896,498.8792,584.2896,508.8792,588.2896,498.8792,584.2896,502.8792" style="stroke:#34495E;stroke-width:1;"/><line style="stroke:#34495E;stroke-width:1;" x1="584.2896" x2="584.2896" y1="556.4768" y2="621.1001"/><polygon fill="#34495E" points="580.2896,611.1001,584.2896,621.1001,588.2896,611.1001,584.2896,615.1001" style="stroke:#34495E;stroke-width:1;"/><line style="stroke:#34495E;stroke-width:1;" x1="159.9048" x2="584.2896" y1="621.1001" y2="621.1001"/><line style="stroke:#34495E;stroke-width:1;" x1="367.3452" x2="367.3452" y1="740.5952" y2="760.5952"/><polygon fill="#34495E" points="363.3452,750.5952,367.3452,760.5952,371.3452,750.5952,367.3452,754.5952" style="stroke:#34495E;stroke-width:1;"/><line style="stroke:#34495E;stroke-width:1;" x1="246.8904" x2="246.8904" y1="895.9917" y2="929.7905"/><polygon fill="#34495E" points="242.8904,919.7905,246.8904,929.7905,250.8904,919.7905,246.8904,923.7905" style="stroke:#34495E;stroke-width:1;"/><line style="stroke:#34495E;stroke-width:1;" x1="487.8" x2="487.8" y1="909.7905" y2="943.5894"/><polygon fill="#34495E" points="483.8,933.5894,487.8,943.5894,491.8,933.5894,487.8,937.5894" style="stroke:#34495E;stroke-width:1;"/><line style="stroke:#34495E;stroke-width:1;" x1="256.8904" x2="246.8904" y1="840.1929" y2="840.1929"/><line style="stroke:#34495E;stroke-width:1;" x1="246.8904" x2="246.8904" y1="840.1929" y2="862.1929"/><polygon fill="#34495E" points="242.8904,852.1929,246.8904,862.1929,250.8904,852.1929,246.8904,856.1929" style="stroke:#34495E;stroke-width:1;"/><line style="stroke:#34495E;stroke-width:1;" x1="477.8" x2="487.8" y1="840.1929" y2="840.1929"/><line style="stroke:#34495E;stroke-width:1;" x1="487.8" x2="487.8" y1="840.1929" y2="862.1929"/><polygon fill="#34495E" points="483.8,852.1929,487.8,862.1929,491.8,852.1929,487.8,856.1929" style="stroke:#34495E;stroke-width:1;"/><line style="stroke:#34495E;stroke-width:1;" x1="246.8904" x2="246.8904" y1="977.3882" y2="982.3882"/><line style="stroke:#34495E;stroke-width:1;" x1="246.8904" x2="367.3452" y1="982.3882" y2="982.3882"/><line style="stroke:#34495E;stroke-width:1;" x1="367.3452" x2="367.3452" y1="982.3882" y2="1035.4868"/><polygon fill="#34495E" points="363.3452,1025.4868,367.3452,1035.4868,371.3452,1025.4868,367.3452,1029.4868" style="stroke:#34495E;stroke-width:1;"/><line style="stroke:#34495E;stroke-width:1;" x1="367.3452" x2="367.3452" y1="808.1929" y2="828.1929"/><polygon fill="#34495E" points="363.3452,818.1929,367.3452,828.1929,371.3452,818.1929,367.3452,822.1929" style="stroke:#34495E;stroke-width:1;"/><line style="stroke:#34495E;stroke-width:1;" x1="367.3452" x2="367.3452" y1="621.1001" y2="679.1987"/><polygon fill="#34495E" points="363.3452,669.1987,367.3452,679.1987,371.3452,669.1987,367.3452,673.1987" style="stroke:#34495E;stroke-width:1;"/><line style="stroke:#34495E;stroke-width:1;" x1="287.178" x2="250.6509" y1="1047.4868" y2="1047.4868"/><line style="stroke:#34495E;stroke-width:1;" x1="250.6509" x2="250.6509" y1="1047.4868" y2="1069.4868"/><polygon fill="#34495E" points="246.6509,1059.4868,250.6509,1069.4868,254.6509,1059.4868,250.6509,1063.4868" style="stroke:#34495E;stroke-width:1;"/><line style="stroke:#34495E;stroke-width:1;" x1="447.5125" x2="484.0396" y1="1047.4868" y2="1047.4868"/><line style="stroke:#34495E;stroke-width:1;" x1="484.0396" x2="484.0396" y1="1047.4868" y2="1069.4868"/><polygon fill="#34495E" points="480.0396,1059.4868,484.0396,1069.4868,488.0396,1059.4868,484.0396,1063.4868" style="stroke:#34495E;stroke-width:1;"/><line style="stroke:#34495E;stroke-width:1;" x1="250.6509" x2="250.6509" y1="1117.0845" y2="1135.0845"/><line style="stroke:#34495E;stroke-width:1;" x1="250.6509" x2="355.3452" y1="1135.0845" y2="1135.0845"/><polygon fill="#34495E" points="345.3452,1131.0845,355.3452,1135.0845,345.3452,1139.0845,349.3452,1135.0845" style="stroke:#34495E;stroke-width:1;"/><line style="stroke:#34495E;stroke-width:1;" x1="484.0396" x2="484.0396" y1="1117.0845" y2="1135.0845"/><line style="stroke:#34495E;stroke-width:1;" x1="484.0396" x2="379.3452" y1="1135.0845" y2="1135.0845"/><polygon fill="#34495E" points="389.3452,1131.0845,379.3452,1135.0845,389.3452,1139.0845,385.3452,1135.0845" style="stroke:#34495E;stroke-width:1;"/><line style="stroke:#34495E;stroke-width:1;" x1="367.3452" x2="367.3452" y1="1147.0845" y2="1167.0845"/><polygon fill="#34495E" points="363.3452,1157.0845,367.3452,1167.0845,371.3452,1157.0845,367.3452,1161.0845" style="stroke:#34495E;stroke-width:1;"/><line style="stroke:#34495E;stroke-width:1;" x1="367.3452" x2="367.3452" y1="1364.3784" y2="1388.7029"/><polygon fill="#34495E" points="363.3452,1378.7029,367.3452,1388.7029,371.3452,1378.7029,367.3452,1382.7029" style="stroke:#34495E;stroke-width:1;"/><line style="stroke:#34495E;stroke-width:1;" x1="469.8455" x2="481.8455" y1="1352.3784" y2="1352.3784"/><polygon fill="#34495E" points="477.8455,1402.5017,481.8455,1412.5017,485.8455,1402.5017,481.8455,1406.5017" style="stroke:#34495E;stroke-width:1;"/><line style="stroke:#34495E;stroke-width:1;" x1="481.8455" x2="481.8455" y1="1352.3784" y2="1468.3005"/><line style="stroke:#34495E;stroke-width:1;" x1="481.8455" x2="379.3452" y1="1468.3005" y2="1468.3005"/><polygon fill="#34495E" points="389.3452,1464.3005,379.3452,1468.3005,389.3452,1472.3005,385.3452,1468.3005" style="stroke:#34495E;stroke-width:1;"/><line style="stroke:#34495E;stroke-width:1;" x1="367.3452" x2="367.3452" y1="1436.3005" y2="1456.3005"/><polygon fill="#34495E" points="363.3452,1446.3005,367.3452,1456.3005,371.3452,1446.3005,367.3452,1450.3005" style="stroke:#34495E;stroke-width:1;"/><line style="stroke:#34495E;stroke-width:1;" x1="367.3452" x2="367.3452" y1="1320.3784" y2="1340.3784"/><polygon fill="#34495E" points="363.3452,1330.3784,367.3452,1340.3784,371.3452,1330.3784,367.3452,1334.3784" style="stroke:#34495E;stroke-width:1;"/><line style="stroke:#34495E;stroke-width:1;" x1="367.3452" x2="367.3452" y1="1214.6821" y2="1272.7808"/><polygon fill="#34495E" points="363.3452,1262.7808,367.3452,1272.7808,371.3452,1262.7808,367.3452,1266.7808" style="stroke:#34495E;stroke-width:1;"/><line style="stroke:#34495E;stroke-width:1;" x1="367.3452" x2="367.3452" y1="1480.3005" y2="1512.3005"/><polygon fill="#34495E" points="363.3452,1502.3005,367.3452,1512.3005,371.3452,1502.3005,367.3452,1506.3005" style="stroke:#34495E;stroke-width:1;"/><g class="legend" data-source-line="20"><rect fill="none" height="187.085" rx="6" ry="6" style="stroke:#000000;stroke-width:1;" width="577.1367" x="94.3647" y="1538.3005"/><text fill="#000000" font-family="DejaVu Sans" font-size="14" lengthAdjust="spacing" textLength="368.0537" x="99.3647" y="1556.4324">Design defaults for diagrams unless an ADR narrows them:</text><text fill="#000000" font-family="DejaVu Sans" font-size="14" lengthAdjust="spacing" textLength="528.3633" x="99.3647" y="1572.531">- Actor/API: HTTPS 443 or 8443; OpenAI-compatible API plus Coherence-native API.</text><text fill="#000000" font-family="DejaVu Sans" font-size="14" lengthAdjust="spacing" textLength="510.4258" x="99.3647" y="1588.6296">- RoCEv2: UDP destination 4791; jumbo MTU 9000; PFC only on RDMA priorities.</text><text fill="#000000" font-family="DejaVu Sans" font-size="14" lengthAdjust="spacing" textLength="554.7432" x="99.3647" y="1604.7283">- NVMe-oF: discovery/controller service on TCP/RDMA port 4420; DPU-mediated targets.</text><text fill="#000000" font-family="DejaVu Sans" font-size="14" lengthAdjust="spacing" textLength="544.7012" x="99.3647" y="1620.8269">- Telemetry: OTLP gRPC 4317, OTLP HTTP 4318, Prometheus 9090/9100, gNMI 9339.</text><text fill="#000000" font-family="DejaVu Sans" font-size="14" lengthAdjust="spacing" textLength="519.8252" x="99.3647" y="1636.9255">- Timing: PTP event/general UDP 319/320 on an isolated timing/management class.</text><text fill="#000000" font-family="DejaVu Sans" font-size="14" lengthAdjust="spacing" textLength="454.4121" x="99.3647" y="1653.0242">- VLAN plan: site-specific IDs are allowed, but classes must stay isolated:</text><text fill="#000000" font-family="DejaVu Sans" font-size="14" lengthAdjust="spacing" textLength="559.3574" x="107.144" y="1669.1228">mgmt/OOB, frontend/API, RDMA rail-A, RDMA rail-B, storage/NVMe-oF, telemetry, timing.</text><text fill="#000000" font-family="DejaVu Sans" font-size="14" lengthAdjust="spacing" textLength="507.3564" x="99.3647" y="1685.2214">- Trunks: 802.1Q tagged uplinks; rail-A and rail-B must not share a failure domain.</text><text fill="#000000" font-family="DejaVu Sans" font-size="14" lengthAdjust="spacing" textLength="464.4951" x="99.3647" y="1701.3201">- Buffers: kv_hbm_active, kv_dram_warm, kv_cxl_warm, kv_rdma_staging,</text><text fill="#000000" font-family="DejaVu Sans" font-size="14" lengthAdjust="spacing" textLength="392.2119" x="107.144" y="1717.4187">zfs_slog, zfs_arc, zfs_l2arc, object_cache, vector_head_cache.</text></g><?plantuml-src TLPTS-8u5dtdLzoPVUckXeP0qcb8xKuHFZAPwYGi9DcjVQ64BMDrRCaZoIJqLF_tELSsuEcjUKcGT7LrTCwvL_x9fpANL6H2wPPxKReGLkJaKX6RLwMtb8ZCoSQADQME8sErj7JMRop4CX5bvkT6-tk1b5FvLJoNj1BQDQB6rfhNYScCfNyCpi-75xF6eeYysYc_fpzQHDSYUjc6q-hm-NG-cyzunTXOsdhsujEdYyi1PgTAv4R7_xzjCXzCves0vkxho-55xngBAo-ihoVFpY_6WpucPySamtx_kd_M-ju0gusNVmDqDX_EBdy4MX_rlUMLpoIDfyjEh_-9EZGngRHIHx8pcT73vgkCF4tIKhym_KB7T2UqIgJpj9Avq5v5hjNAv5PYoQfjwbjJwTHM7nHmbE2yM8ajO3egTIQTGo8-ahHW0HonxADMXyQHDxOxNjoEwDV7nyMApiy7XEsVyV-A7WgfnxUToEI5y6h3i1UtC4lf6gWrbdPXvICIBirajkkFw6cw023d5IyRJUUNmxCh-bhc6qDtZqyqxFLwLxIOJyZeR8y_j9pUZQcmobZbbNISxFxvJdRCV8JRkCZifDrt8_ZBcYo3_PoqEnL9tliuMNIh_SPwtA6FtDF5KoUNuC7Bc23lLlgGz55ciBot-n4zF7vPq7QvcD3vuEooNOsP1nv_RjF26aIc4lSTzeQzxl2irslJzlxkbeQ3mJ1aKpbq6j42c-HEQj-5CDAAB30mE1js1_qUGuG0ofciGXCsTQ6cs0ABzXHbmWLqpr_6zroEUaHEUTbnXOnKeYAwdK94AqbacNcLSPisPRrDEifBsCDviJ-UCOB_yctkkmyFrsrAB6Y3OLZfTiMq5IhhZ9i3n3cu0P2wDV5jyWUosZNeS6SBTxeHVUxrFvxz6znkjxXKMMGAqrTrvc3TAcy53mN3VOMlWAwYiXA_OfEZyN3Ewp99f4NIbzqwtUJhq0jacuSnVBn-5JOFe-WjEmrid8irxhq5iZPk_2rnQvUPRJly4ZQgVcJzyDE4ubf78agHUIVP--jKYhYQ-jW2GrLXjLgE6q8BfOvoPV_-F7lpqcheMbZZJMGo2bO4JlTpw0EZrG1wA5QpP4qmd2oVfbnDESfISQuhZhjHdhxCLty9lXO-Ihc6-1ORuI0uSci7Jjg1oSn4u9QtByStLAX2WcqP1CDsPqgBIjZilNI8uGskRXOatm9AleIJtBkWwJvaEjOmBMUhnmEU72wAu38sKDrvkX7t8uRdK8eMn766xqrw5WTM4X69M5QKg8JU7MvhvUybKltoddkFfdUOUuyGm7WMcOg12Y65wLgPa2XzYZRmBRIE4EHJTDXjIiXcCjG5irgtWb0jyghATISAUhYTqWTKppT9tXn4Lt48W07x5vz6VnWLV-Sj4gyReuHOHv6E45U3zwUiiBU1KrICt1nrZrOcRGNErAiWs3ccumC5njOw11qEedTLh-n2mZhp4sOrdajN2CZmuGUqh6DSMh5H6J-BeTf3CXshvA_yXnSZR3Y8Hg_6lYHe5hKznsWS4TDSt-I0zLNvb7E-eTDmSsBYsZN-y3iiLkPV7ypVRk0ANlgFPLLKdfTUy4CHzZiu4ejDBjfr_ag8gzeaiDjX1wkgjgKfNRXDAbmAW-_O8qTXmgXcS8B7gSJHIPbbdOe-MlqwhfDN0Rdo9rg4DxbYW-yFLm-4hfiemz5mOvIUj5EwUUnIXfEYaFoANgGiWYqKEWHwXvULtIgEEtYz2b3B3xFbRihslPbK0572nTzeslmoWCkZy5QSIkj7Qz2__aaFrxzrfeCZKo4aapNe1USurX8Uo2w_yF-RhzfXFLVuEB306Tw4H6oiGjTqMXGkDTwTg0ZjikiYorshuMGs68Ii-kjqERxhJlxxXRXRu_M0zY4oS105rO9JQiqAr7MqFxaRAMTlXN6o-a2eY6P_rl4g1XUuUjtk3iOyV8wWAnP6W_yV-jIpjFoSLXyblF5cKjT7MDaVVLAN018bbGYEuLSKLGgV6dC3FEjIwkEc-6YAsjueCpJGavKZ_fQ9V4tYZR0RlB-TUfP4WheZVCX1jWBupAalL4WwJYIIzKzb_JuSVCIs-XC0?></g></svg>