<?plantuml 1.2026.1?><svg xmlns="http://www.w3.org/2000/svg" xmlns:xlink="http://www.w3.org/1999/xlink" contentStyleType="text/css" data-diagram-type="ACTIVITY" height="986px" preserveAspectRatio="none" style="width:586px;height:986px;background:#FFFFFF;" version="1.1" viewBox="0 0 586 986" width="586px" zoomAndPan="magnify"><title>ADR-026 Print Section 01 - Protocol Mapping</title><defs/><g><g class="title" data-source-line="18"><text fill="#000000" font-family="DejaVu Sans" font-size="22" font-weight="bold" lengthAdjust="spacing" textLength="469.3906" x="57.2769" y="35.6357">ADR-026 Print Section 01 - Protocol Mapping</text></g><ellipse cx="290.4805" cy="61.2979" fill="#145A32" rx="10" ry="10" style="stroke:#000000;stroke-width:1;"/><rect fill="#FFFFFF" height="243.2939" rx="6" ry="6" style="stroke:#000000;stroke-width:1;" width="196.0527" x="192.4541" y="81.2979"/><path d="M248.3643,81.2979 L248.3643,90.3965 L238.3643,100.3965 L192.4541,100.3965" fill="none" style="stroke:#000000;stroke-width:1;"/><text fill="#000000" font-family="DejaVu Sans" font-size="14" lengthAdjust="spacing" textLength="45.9102" x="195.4541" y="95.4297">Ingress</text><rect fill="#FDFEFE" height="33.7988" rx="6" ry="6" style="stroke:#566573;stroke-width:1;" width="122.0234" x="229.4688" y="117.3965"/><text fill="#000000" font-family="DejaVu Sans" font-size="12" lengthAdjust="spacing" textLength="102.0234" x="239.4688" y="138.6523">S3 CRUD/multipart</text><rect fill="#FDFEFE" height="33.7988" rx="6" ry="6" style="stroke:#566573;stroke-width:1;" width="176.0527" x="202.4541" y="171.1953"/><text fill="#000000" font-family="DejaVu Sans" font-size="12" lengthAdjust="spacing" textLength="156.0527" x="212.4541" y="192.4512">Git LFS Batch, transfer, locks</text><rect fill="#FDFEFE" height="33.7988" rx="6" ry="6" style="stroke:#566573;stroke-width:1;" width="150.0605" x="215.4502" y="224.9941"/><text fill="#000000" font-family="DejaVu Sans" font-size="12" lengthAdjust="spacing" textLength="130.0605" x="225.4502" y="246.25">Coherence-native REST</text><rect fill="#FDFEFE" height="33.7988" rx="6" ry="6" style="stroke:#566573;stroke-width:1;" width="154.7305" x="213.1152" y="278.793"/><text fill="#000000" font-family="DejaVu Sans" font-size="12" lengthAdjust="spacing" textLength="134.7305" x="223.1152" y="300.0488">RAG corpus byte storage</text><rect fill="#FFFFFF" height="243.313" rx="6" ry="6" style="stroke:#000000;stroke-width:1;" width="574.9443" x="6" y="334.5918"/><path d="M96.9307,334.5918 L96.9307,343.6904 L86.9307,353.6904 L6,353.6904" fill="none" style="stroke:#000000;stroke-width:1;"/><text fill="#000000" font-family="DejaVu Sans" font-size="14" lengthAdjust="spacing" textLength="80.9307" x="9" y="348.7236">Facade rules</text><polygon fill="#FCF3CF" points="68.5198,373.6904,111.9236,373.6904,123.9236,385.6904,111.9236,397.6904,68.5198,397.6904,56.5198,385.6904,68.5198,373.6904" style="stroke:#B7950B;stroke-width:1;"/><text fill="#000000" font-family="DejaVu Sans" font-size="11" lengthAdjust="spacing" textLength="17.1177" x="94.2217" y="408.0083">yes</text><text fill="#000000" font-family="DejaVu Sans" font-size="11" lengthAdjust="spacing" textLength="43.4038" x="68.5198" y="389.6838">Git LFS?</text><rect fill="#FDFEFE" height="33.7988" rx="6" ry="6" style="stroke:#566573;stroke-width:1;" width="134.7031" x="22.8701" y="429.5083"/><text fill="#000000" font-family="DejaVu Sans" font-size="12" lengthAdjust="spacing" textLength="114.7031" x="32.8701" y="450.7642">Preserve Git LFS API</text><rect fill="#FDFEFE" height="33.7988" rx="6" ry="6" style="stroke:#566573;stroke-width:1;" width="148.4434" x="16" y="498.3071"/><text fill="#000000" font-family="DejaVu Sans" font-size="12" lengthAdjust="spacing" textLength="128.4434" x="26" y="519.563">object_id = sha256:{oid}</text><polygon fill="#FCF3CF" points="248.0864,373.6904,312.894,373.6904,324.894,385.6904,312.894,397.6904,248.0864,397.6904,236.0864,385.6904,248.0864,373.6904" style="stroke:#B7950B;stroke-width:1;"/><text fill="#000000" font-family="DejaVu Sans" font-size="11" lengthAdjust="spacing" textLength="17.1177" x="284.4902" y="408.0083">yes</text><text fill="#000000" font-family="DejaVu Sans" font-size="11" lengthAdjust="spacing" textLength="64.8076" x="248.0864" y="389.6838">S3 multipart?</text><text fill="#000000" font-family="DejaVu Sans" font-size="11" lengthAdjust="spacing" textLength="29.353" x="324.894" y="383.3594">native</text><rect fill="#FDFEFE" height="33.7988" rx="6" ry="6" style="stroke:#566573;stroke-width:1;" width="167.3926" x="196.7939" y="429.5083"/><text fill="#000000" font-family="DejaVu Sans" font-size="12" lengthAdjust="spacing" textLength="147.3926" x="206.7939" y="450.7642">Preserve S3 part semantics</text><rect fill="#FDFEFE" height="47.5977" rx="6" ry="6" style="stroke:#566573;stroke-width:1;" width="212.0938" x="174.4434" y="498.3071"/><text fill="#000000" font-family="DejaVu Sans" font-size="12" lengthAdjust="spacing" textLength="192.0938" x="184.4434" y="519.563">partNumber maps to chunk_number</text><text fill="#000000" font-family="DejaVu Sans" font-size="12" lengthAdjust="spacing" textLength="103.3945" x="184.4434" y="533.3618">only after validation</text><rect fill="#FDFEFE" height="47.5977" rx="6" ry="6" style="stroke:#566573;stroke-width:1;" width="168.4238" x="402.5205" y="460.5833"/><text fill="#000000" font-family="DejaVu Sans" font-size="12" lengthAdjust="spacing" textLength="148.4238" x="412.5205" y="481.8391">Use namespace + object_id</text><text fill="#000000" font-family="DejaVu Sans" font-size="12" lengthAdjust="spacing" textLength="100.7051" x="412.5205" y="495.6379">direct manifest API</text><rect fill="#FFFFFF" height="350.8916" rx="6" ry="6" style="stroke:#000000;stroke-width:1;" width="204.0801" x="188.4404" y="587.9048"/><path d="M328.4053,587.9048 L328.4053,597.0034 L318.4053,607.0034 L188.4404,607.0034" fill="none" style="stroke:#000000;stroke-width:1;"/><text fill="#000000" font-family="DejaVu Sans" font-size="14" lengthAdjust="spacing" textLength="129.9648" x="191.4404" y="602.0366">Internal object model</text><rect fill="#FDFEFE" height="33.7988" rx="6" ry="6" style="stroke:#566573;stroke-width:1;" width="117.377" x="231.792" y="624.0034"/><text fill="#000000" font-family="DejaVu Sans" font-size="12" lengthAdjust="spacing" textLength="97.377" x="241.792" y="645.2593">Immutable chunks</text><rect fill="#FDFEFE" height="33.7988" rx="6" ry="6" style="stroke:#566573;stroke-width:1;" width="184.0801" x="198.4404" y="677.8022"/><text fill="#000000" font-family="DejaVu Sans" font-size="12" lengthAdjust="spacing" textLength="164.0801" x="208.4404" y="699.0581">Ordered chunk_number from 0</text><rect fill="#FDFEFE" height="33.7988" rx="6" ry="6" style="stroke:#566573;stroke-width:1;" width="126.0781" x="227.4414" y="731.6011"/><text fill="#000000" font-family="DejaVu Sans" font-size="12" lengthAdjust="spacing" textLength="106.0781" x="237.4414" y="752.8569">end_chunk_number</text><rect fill="#FDFEFE" height="33.7988" rx="6" ry="6" style="stroke:#566573;stroke-width:1;" width="80.0352" x="250.4629" y="785.3999"/><text fill="#000000" font-family="DejaVu Sans" font-size="12" lengthAdjust="spacing" textLength="60.0352" x="260.4629" y="806.6558">chunk_size</text><rect fill="#FDFEFE" height="33.7988" rx="6" ry="6" style="stroke:#566573;stroke-width:1;" width="121.3906" x="229.7852" y="839.1987"/><text fill="#000000" font-family="DejaVu Sans" font-size="12" lengthAdjust="spacing" textLength="101.3906" x="239.7852" y="860.4546">per-chunk SHA256</text><rect fill="#FDFEFE" height="33.7988" rx="6" ry="6" style="stroke:#566573;stroke-width:1;" width="119.3867" x="230.7871" y="892.9976"/><text fill="#000000" font-family="DejaVu Sans" font-size="12" lengthAdjust="spacing" textLength="99.3867" x="240.7871" y="914.2534">full-object SHA256</text><ellipse cx="290.4805" cy="969.7964" fill="none" rx="11" ry="11" style="stroke:#000000;stroke-width:1;"/><ellipse cx="290.4805" cy="969.7964" fill="#FFFFFF" rx="6" ry="6" style="stroke:#000000;stroke-width:1;"/><line style="stroke:#34495E;stroke-width:1;" x1="290.4805" x2="290.4805" y1="151.1953" y2="171.1953"/><polygon fill="#34495E" points="286.4805,161.1953,290.4805,171.1953,294.4805,161.1953,290.4805,165.1953" style="stroke:#34495E;stroke-width:1;"/><line style="stroke:#34495E;stroke-width:1;" x1="290.4805" x2="290.4805" y1="204.9941" y2="224.9941"/><polygon fill="#34495E" points="286.4805,214.9941,290.4805,224.9941,294.4805,214.9941,290.4805,218.9941" style="stroke:#34495E;stroke-width:1;"/><line style="stroke:#34495E;stroke-width:1;" x1="290.4805" x2="290.4805" y1="258.793" y2="278.793"/><polygon fill="#34495E" points="286.4805,268.793,290.4805,278.793,294.4805,268.793,290.4805,272.793" style="stroke:#34495E;stroke-width:1;"/><line style="stroke:#34495E;stroke-width:1;" x1="290.4805" x2="290.4805" y1="71.2979" y2="117.3965"/><polygon fill="#34495E" points="286.4805,107.3965,290.4805,117.3965,294.4805,107.3965,290.4805,111.3965" style="stroke:#34495E;stroke-width:1;"/><line style="stroke:#34495E;stroke-width:1;" x1="90.2217" x2="90.2217" y1="463.3071" y2="498.3071"/><polygon fill="#34495E" points="86.2217,488.3071,90.2217,498.3071,94.2217,488.3071,90.2217,492.3071" style="stroke:#34495E;stroke-width:1;"/><line style="stroke:#34495E;stroke-width:1;" x1="280.4902" x2="280.4902" y1="463.3071" y2="498.3071"/><polygon fill="#34495E" points="276.4902,488.3071,280.4902,498.3071,284.4902,488.3071,280.4902,492.3071" style="stroke:#34495E;stroke-width:1;"/><line style="stroke:#34495E;stroke-width:1;" x1="90.2217" x2="90.2217" y1="397.6904" y2="429.5083"/><polygon fill="#34495E" points="86.2217,419.5083,90.2217,429.5083,94.2217,419.5083,90.2217,423.5083" style="stroke:#34495E;stroke-width:1;"/><line style="stroke:#34495E;stroke-width:1;" x1="90.2217" x2="90.2217" y1="532.106" y2="565.9048"/><polygon fill="#34495E" points="86.2217,555.9048,90.2217,565.9048,94.2217,555.9048,90.2217,559.9048" style="stroke:#34495E;stroke-width:1;"/><line style="stroke:#34495E;stroke-width:1;" x1="280.4902" x2="280.4902" y1="397.6904" y2="429.5083"/><polygon fill="#34495E" points="276.4902,419.5083,280.4902,429.5083,284.4902,419.5083,280.4902,423.5083" style="stroke:#34495E;stroke-width:1;"/><line style="stroke:#34495E;stroke-width:1;" x1="280.4902" x2="280.4902" y1="545.9048" y2="565.9048"/><polygon fill="#34495E" points="276.4902,555.9048,280.4902,565.9048,284.4902,555.9048,280.4902,559.9048" style="stroke:#34495E;stroke-width:1;"/><line style="stroke:#34495E;stroke-width:1;" x1="123.9236" x2="236.0864" y1="385.6904" y2="385.6904"/><polygon fill="#34495E" points="226.0864,381.6904,236.0864,385.6904,226.0864,389.6904,230.0864,385.6904" style="stroke:#34495E;stroke-width:1;"/><line style="stroke:#34495E;stroke-width:1;" x1="290.4805" x2="290.4805" y1="312.5918" y2="358.6904"/><line style="stroke:#34495E;stroke-width:1;" x1="290.4805" x2="90.2217" y1="358.6904" y2="358.6904"/><line style="stroke:#34495E;stroke-width:1;" x1="90.2217" x2="90.2217" y1="358.6904" y2="373.6904"/><polygon fill="#34495E" points="86.2217,363.6904,90.2217,373.6904,94.2217,363.6904,90.2217,367.6904" style="stroke:#34495E;stroke-width:1;"/><line style="stroke:#34495E;stroke-width:1;" x1="324.894" x2="486.7324" y1="385.6904" y2="385.6904"/><line style="stroke:#34495E;stroke-width:1;" x1="486.7324" x2="486.7324" y1="385.6904" y2="460.5833"/><polygon fill="#34495E" points="482.7324,450.5833,486.7324,460.5833,490.7324,450.5833,486.7324,454.5833" style="stroke:#34495E;stroke-width:1;"/><line style="stroke:#34495E;stroke-width:1;" x1="486.7324" x2="486.7324" y1="508.1809" y2="565.9048"/><polygon fill="#34495E" points="482.7324,555.9048,486.7324,565.9048,490.7324,555.9048,486.7324,559.9048" style="stroke:#34495E;stroke-width:1;"/><line style="stroke:#34495E;stroke-width:1;" x1="90.2217" x2="486.7324" y1="565.9048" y2="565.9048"/><line style="stroke:#34495E;stroke-width:1;" x1="290.4805" x2="290.4805" y1="657.8022" y2="677.8022"/><polygon fill="#34495E" points="286.4805,667.8022,290.4805,677.8022,294.4805,667.8022,290.4805,671.8022" style="stroke:#34495E;stroke-width:1;"/><line style="stroke:#34495E;stroke-width:1;" x1="290.4805" x2="290.4805" y1="711.6011" y2="731.6011"/><polygon fill="#34495E" points="286.4805,721.6011,290.4805,731.6011,294.4805,721.6011,290.4805,725.6011" style="stroke:#34495E;stroke-width:1;"/><line style="stroke:#34495E;stroke-width:1;" x1="290.4805" x2="290.4805" y1="765.3999" y2="785.3999"/><polygon fill="#34495E" points="286.4805,775.3999,290.4805,785.3999,294.4805,775.3999,290.4805,779.3999" style="stroke:#34495E;stroke-width:1;"/><line style="stroke:#34495E;stroke-width:1;" x1="290.4805" x2="290.4805" y1="819.1987" y2="839.1987"/><polygon fill="#34495E" points="286.4805,829.1987,290.4805,839.1987,294.4805,829.1987,290.4805,833.1987" style="stroke:#34495E;stroke-width:1;"/><line style="stroke:#34495E;stroke-width:1;" x1="290.4805" x2="290.4805" y1="872.9976" y2="892.9976"/><polygon fill="#34495E" points="286.4805,882.9976,290.4805,892.9976,294.4805,882.9976,290.4805,886.9976" style="stroke:#34495E;stroke-width:1;"/><line style="stroke:#34495E;stroke-width:1;" x1="290.4805" x2="290.4805" y1="565.9048" y2="624.0034"/><polygon fill="#34495E" points="286.4805,614.0034,290.4805,624.0034,294.4805,614.0034,290.4805,618.0034" style="stroke:#34495E;stroke-width:1;"/><line style="stroke:#34495E;stroke-width:1;" x1="290.4805" x2="290.4805" y1="926.7964" y2="958.7964"/><polygon fill="#34495E" points="286.4805,948.7964,290.4805,958.7964,294.4805,948.7964,290.4805,952.7964" style="stroke:#34495E;stroke-width:1;"/><?plantuml-src VLBBRjim4BpxAxRf9K5Zr9OVWHCKXHzIQg1D0wlfDLYBAvinHGeabS0DykzTqNAWj6YFd1dkp3xU-IqL1AL2gJjk9tM95WjmMnJcIUeDvAWSjHXhAYqoOpLPw4SjGb2EbVA9qVu6kUI27l1d1Ibgrr9DhJLFSwECXVU3uN0oYbiaPbu-Ih-7vmx03BFT9hWrycIHn4bSCyOAiWqw6ez75mD65n8BeyNVt-R9O9wq1EtViul9g3TZClLeVGFsXwFf868mVYqoYQ9PrE-yjC9gu-aVGUDa4b_y6RInUkbuwHN1TB7gzg8nt5gfFQJ4hHiDlJvq6JBUP4R1DonBta77rU4wRCjVQzN9KcyiENSI_2_J0SnNTukF1OzVrggh6hsM7hucASVpsVOSlEL5v6JFGPbivu9aRhPaIMVKrSYJ9rZ5wO_0hARNm4ikAmVhFVVflB6ueIkEtugHO8Q2m5QAcYmoXzF6-FCPy6rfEDsJEsEAgzvoQBBiSymslLrU7IYpVk0Ht4i1d-hZYqRZosSZnKjD4rzWNPZxV6tnVzLPLql0KO7Qoymr7ZLuKnLhljm2ImVUGBQjzEvU1p28Z5PxmDopvX6L55XtUWm1fuSvDOPtZ6W-TLTYHl01Ndi8j92MN-oaPKxE7tibBMJ-TenBpNOQLLC02YD8DRjT5aNbSSq74w8UzlQzFYiIRz93Raq1lS2pntsR2-01SF8NXMT9jXiWIBzCUTm1p2kbkasA8ymtxqtv6m00?></g></svg>