<?plantuml 1.2026.1?><svg xmlns="http://www.w3.org/2000/svg" xmlns:xlink="http://www.w3.org/1999/xlink" contentStyleType="text/css" data-diagram-type="ACTIVITY" height="974px" preserveAspectRatio="none" style="width:678px;height:974px;background:#FFFFFF;" version="1.1" viewBox="0 0 678 974" width="678px" zoomAndPan="magnify"><title>ADR-011 - KV Durability Classes and Recovery Contracts</title><defs/><g><g class="title" data-source-line="18"><text fill="#000000" font-family="DejaVu Sans" font-size="22" font-weight="bold" lengthAdjust="spacing" textLength="597.8672" x="38.8564" y="35.6357">ADR-011 - KV Durability Classes and Recovery Contracts</text></g><ellipse cx="339.29" cy="61.2979" fill="#145A32" rx="10" ry="10" style="stroke:#000000;stroke-width:1;"/><rect fill="#FFFFFF" height="239.9429" rx="6" ry="6" style="stroke:#000000;stroke-width:1;" width="666.5801" x="6" y="81.2979"/><path d="M126.4893,81.2979 L126.4893,90.3965 L116.4893,100.3965 L6,100.3965" fill="none" style="stroke:#000000;stroke-width:1;"/><text fill="#000000" font-family="DejaVu Sans" font-size="14" lengthAdjust="spacing" textLength="110.4893" x="9" y="95.4297">Class assignment</text><rect fill="#FDFEFE" height="47.5977" rx="6" ry="6" style="stroke:#566573;stroke-width:1;" width="312.1602" x="183.21" y="117.3965"/><text fill="#000000" font-family="DejaVu Sans" font-size="12" lengthAdjust="spacing" textLength="242.0859" x="193.21" y="138.6523">Classify KV block by recompute cost, privacy,</text><text fill="#000000" font-family="DejaVu Sans" font-size="12" lengthAdjust="spacing" textLength="292.1602" x="193.21" y="152.4512">reuse probability, active session, and correctness need</text><polygon fill="#FCF3CF" points="51.0684,184.9941,166.0313,184.9941,178.0313,196.9941,166.0313,208.9941,51.0684,208.9941,39.0684,196.9941,51.0684,184.9941" style="stroke:#B7950B;stroke-width:1;"/><text fill="#000000" font-family="DejaVu Sans" font-size="11" lengthAdjust="spacing" textLength="32.3984" x="112.5498" y="219.312">KV-D0</text><text fill="#000000" font-family="DejaVu Sans" font-size="11" lengthAdjust="spacing" textLength="114.9629" x="51.0684" y="200.9875">ephemeral token state?</text><rect fill="#FDFEFE" height="47.5977" rx="6" ry="6" style="stroke:#566573;stroke-width:1;" width="185.0996" x="16" y="241.6431"/><text fill="#000000" font-family="DejaVu Sans" font-size="12" lengthAdjust="spacing" textLength="150.0762" x="26" y="262.8989">Store only in kv_hbm_active</text><text fill="#000000" font-family="DejaVu Sans" font-size="12" lengthAdjust="spacing" textLength="165.0996" x="26" y="276.6978">loss = recompute/abort decode</text><polygon fill="#FCF3CF" points="273.6824,184.9941,381.8938,184.9941,393.8938,196.9941,381.8938,208.9941,273.6824,208.9941,261.6824,196.9941,273.6824,184.9941" style="stroke:#B7950B;stroke-width:1;"/><text fill="#000000" font-family="DejaVu Sans" font-size="11" lengthAdjust="spacing" textLength="49.5161" x="331.7881" y="219.312">KV-D1/D2</text><text fill="#000000" font-family="DejaVu Sans" font-size="11" lengthAdjust="spacing" textLength="108.2114" x="273.6824" y="200.9875">warm reusable prefix?</text><text fill="#000000" font-family="DejaVu Sans" font-size="11" lengthAdjust="spacing" textLength="113.7222" x="393.8938" y="194.6631">checkpoint/audit critical</text><rect fill="#FDFEFE" height="47.5977" rx="6" ry="6" style="stroke:#566573;stroke-width:1;" width="213.377" x="221.0996" y="241.6431"/><text fill="#000000" font-family="DejaVu Sans" font-size="12" lengthAdjust="spacing" textLength="193.377" x="231.0996" y="262.8989">Use kv_dram_warm or kv_cxl_warm</text><text fill="#000000" font-family="DejaVu Sans" font-size="12" lengthAdjust="spacing" textLength="148.7578" x="231.0996" y="276.6978">optional write-back deadline</text><rect fill="#FDFEFE" height="47.5977" rx="6" ry="6" style="stroke:#566573;stroke-width:1;" width="208.1035" x="454.4766" y="238.3186"/><text fill="#000000" font-family="DejaVu Sans" font-size="12" lengthAdjust="spacing" textLength="188.1035" x="464.4766" y="259.5745">Require KV-D3/D4/D5 durable path</text><text fill="#000000" font-family="DejaVu Sans" font-size="12" lengthAdjust="spacing" textLength="122.7188" x="464.4766" y="273.3733">OpenZFS-backed ACK</text><rect fill="#FFFFFF" height="227.2939" rx="6" ry="6" style="stroke:#000000;stroke-width:1;" width="513.4961" x="87.5488" y="331.2407"/><path d="M205.6934,331.2407 L205.6934,340.3394 L195.6934,350.3394 L87.5488,350.3394" fill="none" style="stroke:#000000;stroke-width:1;"/><text fill="#000000" font-family="DejaVu Sans" font-size="14" lengthAdjust="spacing" textLength="108.1445" x="90.5488" y="345.3726">Placement matrix</text><rect fill="#FDFEFE" height="47.5977" rx="6" ry="6" style="stroke:#566573;stroke-width:1;" width="268.7949" x="204.8926" y="367.3394"/><text fill="#000000" font-family="DejaVu Sans" font-size="12" lengthAdjust="spacing" textLength="248.7949" x="214.8926" y="388.5952">Map class to allowed buffers, replication count,</text><text fill="#000000" font-family="DejaVu Sans" font-size="12" lengthAdjust="spacing" textLength="234.123" x="214.8926" y="402.394">flush interval, encryption, and eviction policy</text><polygon fill="#FCF3CF" points="253.3955,434.937,425.1846,434.937,437.1846,446.937,425.1846,458.937,253.3955,458.937,241.3955,446.937,253.3955,434.937" style="stroke:#B7950B;stroke-width:1;"/><text fill="#000000" font-family="DejaVu Sans" font-size="11" lengthAdjust="spacing" textLength="171.7891" x="253.3955" y="450.9304">class requires cross-node survival?</text><text fill="#000000" font-family="DejaVu Sans" font-size="11" lengthAdjust="spacing" textLength="17.1177" x="224.2778" y="444.606">yes</text><text fill="#000000" font-family="DejaVu Sans" font-size="11" lengthAdjust="spacing" textLength="12.2354" x="437.1846" y="444.606">no</text><rect fill="#FDFEFE" height="47.5977" rx="6" ry="6" style="stroke:#566573;stroke-width:1;" width="216.7344" x="107.5488" y="468.937"/><text fill="#000000" font-family="DejaVu Sans" font-size="12" lengthAdjust="spacing" textLength="196.7344" x="117.5488" y="490.1929">Require DPU/OpenZFS mirror health</text><text fill="#000000" font-family="DejaVu Sans" font-size="12" lengthAdjust="spacing" textLength="167.4492" x="117.5488" y="503.9917">and independent rail availability</text><rect fill="#FDFEFE" height="33.7988" rx="6" ry="6" style="stroke:#566573;stroke-width:1;" width="236.7617" x="344.2832" y="468.937"/><text fill="#000000" font-family="DejaVu Sans" font-size="12" lengthAdjust="spacing" textLength="216.7617" x="354.2832" y="490.1929">Permit local-only eviction under pressure</text><polygon fill="#FCF3CF" points="339.29,522.5347,351.29,534.5347,339.29,546.5347,327.29,534.5347,339.29,522.5347" style="stroke:#B7950B;stroke-width:1;"/><rect fill="#FFFFFF" height="159.6963" rx="6" ry="6" style="stroke:#000000;stroke-width:1;" width="535.5566" x="62.6772" y="568.5347"/><path d="M173.063,568.5347 L173.063,577.6333 L163.063,587.6333 L62.6772,587.6333" fill="none" style="stroke:#000000;stroke-width:1;"/><text fill="#000000" font-family="DejaVu Sans" font-size="14" lengthAdjust="spacing" textLength="100.3857" x="65.6772" y="582.6665">Failure behavior</text><polygon fill="#FCF3CF" points="270.1963,604.6333,408.3838,604.6333,420.3838,616.6333,408.3838,628.6333,270.1963,628.6333,258.1963,616.6333,270.1963,604.6333" style="stroke:#B7950B;stroke-width:1;"/><text fill="#000000" font-family="DejaVu Sans" font-size="11" lengthAdjust="spacing" textLength="138.1875" x="270.1963" y="620.6267">node, CXL pool, or rail fails?</text><text fill="#000000" font-family="DejaVu Sans" font-size="11" lengthAdjust="spacing" textLength="29.96" x="228.2363" y="614.3022">failure</text><text fill="#000000" font-family="DejaVu Sans" font-size="11" lengthAdjust="spacing" textLength="33.623" x="420.3838" y="614.3022">normal</text><rect fill="#FDFEFE" height="47.5977" rx="6" ry="6" style="stroke:#566573;stroke-width:1;" width="255.4473" x="82.6772" y="638.6333"/><text fill="#000000" font-family="DejaVu Sans" font-size="12" lengthAdjust="spacing" textLength="220.7461" x="92.6772" y="659.8892">Apply class-specific recovery: recompute,</text><text fill="#000000" font-family="DejaVu Sans" font-size="12" lengthAdjust="spacing" textLength="235.4473" x="92.6772" y="673.688">rehydrate, fail session, or restore checkpoint</text><rect fill="#FDFEFE" height="33.7988" rx="6" ry="6" style="stroke:#566573;stroke-width:1;" width="220.1094" x="358.1245" y="638.6333"/><text fill="#000000" font-family="DejaVu Sans" font-size="12" lengthAdjust="spacing" textLength="200.1094" x="368.1245" y="659.8892">Expose class occupancy to scheduler</text><polygon fill="#FCF3CF" points="339.29,692.231,351.29,704.231,339.29,716.231,327.29,704.231,339.29,692.231" style="stroke:#B7950B;stroke-width:1;"/><ellipse cx="339.29" cy="759.231" fill="none" rx="11" ry="11" style="stroke:#000000;stroke-width:1;"/><ellipse cx="339.29" cy="759.231" fill="#FFFFFF" rx="6" ry="6" style="stroke:#000000;stroke-width:1;"/><line style="stroke:#34495E;stroke-width:1;" x1="108.5498" x2="108.5498" y1="208.9941" y2="241.6431"/><polygon fill="#34495E" points="104.5498,231.6431,108.5498,241.6431,112.5498,231.6431,108.5498,235.6431" style="stroke:#34495E;stroke-width:1;"/><line style="stroke:#34495E;stroke-width:1;" x1="108.5498" x2="108.5498" y1="289.2407" y2="309.2407"/><polygon fill="#34495E" points="104.5498,299.2407,108.5498,309.2407,112.5498,299.2407,108.5498,303.2407" style="stroke:#34495E;stroke-width:1;"/><line style="stroke:#34495E;stroke-width:1;" x1="327.7881" x2="327.7881" y1="208.9941" y2="241.6431"/><polygon fill="#34495E" points="323.7881,231.6431,327.7881,241.6431,331.7881,231.6431,327.7881,235.6431" style="stroke:#34495E;stroke-width:1;"/><line style="stroke:#34495E;stroke-width:1;" x1="327.7881" x2="327.7881" y1="289.2407" y2="309.2407"/><polygon fill="#34495E" points="323.7881,299.2407,327.7881,309.2407,331.7881,299.2407,327.7881,303.2407" style="stroke:#34495E;stroke-width:1;"/><line style="stroke:#34495E;stroke-width:1;" x1="178.0313" x2="261.6824" y1="196.9941" y2="196.9941"/><polygon fill="#34495E" points="251.6824,192.9941,261.6824,196.9941,251.6824,200.9941,255.6824,196.9941" style="stroke:#34495E;stroke-width:1;"/><line style="stroke:#34495E;stroke-width:1;" x1="339.29" x2="339.29" y1="164.9941" y2="169.9941"/><line style="stroke:#34495E;stroke-width:1;" x1="339.29" x2="108.5498" y1="169.9941" y2="169.9941"/><line style="stroke:#34495E;stroke-width:1;" x1="108.5498" x2="108.5498" y1="169.9941" y2="184.9941"/><polygon fill="#34495E" points="104.5498,174.9941,108.5498,184.9941,112.5498,174.9941,108.5498,178.9941" style="stroke:#34495E;stroke-width:1;"/><line style="stroke:#34495E;stroke-width:1;" x1="393.8938" x2="558.5283" y1="196.9941" y2="196.9941"/><line style="stroke:#34495E;stroke-width:1;" x1="558.5283" x2="558.5283" y1="196.9941" y2="238.3186"/><polygon fill="#34495E" points="554.5283,228.3186,558.5283,238.3186,562.5283,228.3186,558.5283,232.3186" style="stroke:#34495E;stroke-width:1;"/><line style="stroke:#34495E;stroke-width:1;" x1="558.5283" x2="558.5283" y1="285.9163" y2="309.2407"/><polygon fill="#34495E" points="554.5283,299.2407,558.5283,309.2407,562.5283,299.2407,558.5283,303.2407" style="stroke:#34495E;stroke-width:1;"/><line style="stroke:#34495E;stroke-width:1;" x1="108.5498" x2="558.5283" y1="309.2407" y2="309.2407"/><line style="stroke:#34495E;stroke-width:1;" x1="339.29" x2="339.29" y1="71.2979" y2="117.3965"/><polygon fill="#34495E" points="335.29,107.3965,339.29,117.3965,343.29,107.3965,339.29,111.3965" style="stroke:#34495E;stroke-width:1;"/><line style="stroke:#34495E;stroke-width:1;" x1="241.3955" x2="215.916" y1="446.937" y2="446.937"/><line style="stroke:#34495E;stroke-width:1;" x1="215.916" x2="215.916" y1="446.937" y2="468.937"/><polygon fill="#34495E" points="211.916,458.937,215.916,468.937,219.916,458.937,215.916,462.937" style="stroke:#34495E;stroke-width:1;"/><line style="stroke:#34495E;stroke-width:1;" x1="437.1846" x2="462.6641" y1="446.937" y2="446.937"/><line style="stroke:#34495E;stroke-width:1;" x1="462.6641" x2="462.6641" y1="446.937" y2="468.937"/><polygon fill="#34495E" points="458.6641,458.937,462.6641,468.937,466.6641,458.937,462.6641,462.937" style="stroke:#34495E;stroke-width:1;"/><line style="stroke:#34495E;stroke-width:1;" x1="215.916" x2="215.916" y1="516.5347" y2="534.5347"/><line style="stroke:#34495E;stroke-width:1;" x1="215.916" x2="327.29" y1="534.5347" y2="534.5347"/><polygon fill="#34495E" points="317.29,530.5347,327.29,534.5347,317.29,538.5347,321.29,534.5347" style="stroke:#34495E;stroke-width:1;"/><line style="stroke:#34495E;stroke-width:1;" x1="462.6641" x2="462.6641" y1="502.7358" y2="534.5347"/><line style="stroke:#34495E;stroke-width:1;" x1="462.6641" x2="351.29" y1="534.5347" y2="534.5347"/><polygon fill="#34495E" points="361.29,530.5347,351.29,534.5347,361.29,538.5347,357.29,534.5347" style="stroke:#34495E;stroke-width:1;"/><line style="stroke:#34495E;stroke-width:1;" x1="339.29" x2="339.29" y1="414.937" y2="434.937"/><polygon fill="#34495E" points="335.29,424.937,339.29,434.937,343.29,424.937,339.29,428.937" style="stroke:#34495E;stroke-width:1;"/><line style="stroke:#34495E;stroke-width:1;" x1="339.29" x2="339.29" y1="309.2407" y2="367.3394"/><polygon fill="#34495E" points="335.29,357.3394,339.29,367.3394,343.29,357.3394,339.29,361.3394" style="stroke:#34495E;stroke-width:1;"/><line style="stroke:#34495E;stroke-width:1;" x1="258.1963" x2="210.4009" y1="616.6333" y2="616.6333"/><line style="stroke:#34495E;stroke-width:1;" x1="210.4009" x2="210.4009" y1="616.6333" y2="638.6333"/><polygon fill="#34495E" points="206.4009,628.6333,210.4009,638.6333,214.4009,628.6333,210.4009,632.6333" style="stroke:#34495E;stroke-width:1;"/><line style="stroke:#34495E;stroke-width:1;" x1="420.3838" x2="468.1792" y1="616.6333" y2="616.6333"/><line style="stroke:#34495E;stroke-width:1;" x1="468.1792" x2="468.1792" y1="616.6333" y2="638.6333"/><polygon fill="#34495E" points="464.1792,628.6333,468.1792,638.6333,472.1792,628.6333,468.1792,632.6333" style="stroke:#34495E;stroke-width:1;"/><line style="stroke:#34495E;stroke-width:1;" x1="210.4009" x2="210.4009" y1="686.231" y2="704.231"/><line style="stroke:#34495E;stroke-width:1;" x1="210.4009" x2="327.29" y1="704.231" y2="704.231"/><polygon fill="#34495E" points="317.29,700.231,327.29,704.231,317.29,708.231,321.29,704.231" style="stroke:#34495E;stroke-width:1;"/><line style="stroke:#34495E;stroke-width:1;" x1="468.1792" x2="468.1792" y1="672.4321" y2="704.231"/><line style="stroke:#34495E;stroke-width:1;" x1="468.1792" x2="351.29" y1="704.231" y2="704.231"/><polygon fill="#34495E" points="361.29,700.231,351.29,704.231,361.29,708.231,357.29,704.231" style="stroke:#34495E;stroke-width:1;"/><line style="stroke:#34495E;stroke-width:1;" x1="339.29" x2="339.29" y1="546.5347" y2="604.6333"/><polygon fill="#34495E" points="335.29,594.6333,339.29,604.6333,343.29,594.6333,339.29,598.6333" style="stroke:#34495E;stroke-width:1;"/><line style="stroke:#34495E;stroke-width:1;" x1="339.29" x2="339.29" y1="716.231" y2="748.231"/><polygon fill="#34495E" points="335.29,738.231,339.29,748.231,343.29,738.231,339.29,742.231" style="stroke:#34495E;stroke-width:1;"/><g class="legend" data-source-line="20"><rect fill="none" height="187.085" rx="6" ry="6" style="stroke:#000000;stroke-width:1;" width="577.1367" x="88.4434" y="774.231"/><text fill="#000000" font-family="DejaVu Sans" font-size="14" lengthAdjust="spacing" textLength="368.0537" x="93.4434" y="792.3628">Design defaults for diagrams unless an ADR narrows them:</text><text fill="#000000" font-family="DejaVu Sans" font-size="14" lengthAdjust="spacing" textLength="528.3633" x="93.4434" y="808.4614">- Actor/API: HTTPS 443 or 8443; OpenAI-compatible API plus Coherence-native API.</text><text fill="#000000" font-family="DejaVu Sans" font-size="14" lengthAdjust="spacing" textLength="510.4258" x="93.4434" y="824.5601">- RoCEv2: UDP destination 4791; jumbo MTU 9000; PFC only on RDMA priorities.</text><text fill="#000000" font-family="DejaVu Sans" font-size="14" lengthAdjust="spacing" textLength="554.7432" x="93.4434" y="840.6587">- NVMe-oF: discovery/controller service on TCP/RDMA port 4420; DPU-mediated targets.</text><text fill="#000000" font-family="DejaVu Sans" font-size="14" lengthAdjust="spacing" textLength="544.7012" x="93.4434" y="856.7573">- Telemetry: OTLP gRPC 4317, OTLP HTTP 4318, Prometheus 9090/9100, gNMI 9339.</text><text fill="#000000" font-family="DejaVu Sans" font-size="14" lengthAdjust="spacing" textLength="519.8252" x="93.4434" y="872.856">- Timing: PTP event/general UDP 319/320 on an isolated timing/management class.</text><text fill="#000000" font-family="DejaVu Sans" font-size="14" lengthAdjust="spacing" textLength="454.4121" x="93.4434" y="888.9546">- VLAN plan: site-specific IDs are allowed, but classes must stay isolated:</text><text fill="#000000" font-family="DejaVu Sans" font-size="14" lengthAdjust="spacing" textLength="559.3574" x="101.2227" y="905.0532">mgmt/OOB, frontend/API, RDMA rail-A, RDMA rail-B, storage/NVMe-oF, telemetry, timing.</text><text fill="#000000" font-family="DejaVu Sans" font-size="14" lengthAdjust="spacing" textLength="507.3564" x="93.4434" y="921.1519">- Trunks: 802.1Q tagged uplinks; rail-A and rail-B must not share a failure domain.</text><text fill="#000000" font-family="DejaVu Sans" font-size="14" lengthAdjust="spacing" textLength="464.4951" x="93.4434" y="937.2505">- Buffers: kv_hbm_active, kv_dram_warm, kv_cxl_warm, kv_rdma_staging,</text><text fill="#000000" font-family="DejaVu Sans" font-size="14" lengthAdjust="spacing" textLength="392.2119" x="101.2227" y="953.3491">zfs_slog, zfs_arc, zfs_l2arc, object_cache, vector_head_cache.</text></g><?plantuml-src TLLhRzis5FtkNt7NVMa1kNwcgHqCW-C76hH9lBmm3042chgMsL2aHb9ElA7_VOUI4hiT-Y6EI8htSUuvHx-43UTCXHRAjFoZCeLm8YU_4QbzKYQZjT2U3qwSBKqghJFigDS_E4XvBKeT5jQ42u6GC_ugxagw5iOVl3LnpZvDhRQEVXqCXwEZ-S6Xa45jLTZHlosYKo4ViofRy_fYjfWlvl74kfHTitlquSFHyG2xCoLoQzB_Nvik1jF5mGk7jq-FHqVTKnnU1-52izaR7aq6VMpENuEC-ltJVg_rxQ1OOmF_fD3vOZG__h7G9jMtLb11CqrcL-rkhqTj-dn7izA9bTAnzQaMthCdOLAwOcctxB09K1tGyQsMvennv5Is2QqPUvMP5-WzhP4eLI93VPvAezd7G34N6H6HznJdFMwrQIA3TPt9ycnCdsvkbjSq70u8rp_Y_mbT5cmcPsrfyq84jOhrBi_0ajAZbWqxDfBR1aVRwkGz0bxPwNpR7zFjR8c2V53ns1eQ7ezw9_Irp5UMpczkQTJjTazekPYIDNg77xgQdK-eSCew5HJx6EpYxfpRTZ56Dxx6e2CZ1bPhyCwpsoh9yUxDTDcfxriNq4CViMVBstREm25mIfXhng4AUiCQN0zkDwRBcozBogwMKneEUiT9lOuunFN7X9REuiqDezzHTzJjZ7hTRaBPnVaPZGQ3KHLDvT37c9Qun5iseOF1i1EwGc3G6tK6_Mui4GDGtkgwckfI9nT6PAZ5199ntZ7UtPV9HTIX6PDNWTk-OAdMIjBP34DqJ49h-yHfGgkokGQQvAKFv8FOlUOOWtXvbeVEvULfGci7s42OEEcaHje9fTkJmmNUys03Ikeqm2SKNi1AcgAhdbrf7lsOFdRxxtj_0DiiGrDbeHMsJvh85NNhk7LvK4eqbDW2x4Jf4a-fpU4uCUPfkLwpGz37xSDcbJzK9i19NARWySEJS7craizwlt1fBXxGTuRA4dJypze_U6spf7eIJjOFkbyzsjLNbk512hb1v2r7xZziMAJrrliM4Ag5rMhvw0GjQ1mwZVnzKocIy0UfnP6zgLG_hhRLUXVrkz9MFj9gHuwZP4euWxG-997LMo5toRrnu19yrjbLe_IajZi6cn77cgJ23SwA6C54vHhcz0Ifr9hUSX5zEh8hs4SsSUI1VtyNvMpexUUxzgpx3g-YhclqnhMsbFaUr7kZBUB-jY-p8rPHDodMASTS3BUF-IBG56iMKVo5uxLw_YvThpFhDnblqTZXjAAD7CphtjWY8edQdrnazWg6YPGY1MrUaz9R348-5bP1IQ9C5JWU_K0AtQIvuhzBXTPYza5dDkpCZYYDnXaB565pRw9h_RMuhXA0bvFfvogwITKQldimqgKMifPVBe9Jpyr8pqLH2miWlyWDQglucG0Dy5pMfYPXzm5JNSCHDy0vm964Jf1BkbtLRJrEXazL5mgBkxkNQTP9NDsGHwCOIzjW1EHBM1j2lMAzO_z3_x2tJjCfvGgkxWXKrX60c5APb76QnkwY2abiyTkGRe-siKtO9RiSO8F1GhShshmMZKyQt1R3zoYBVuBbeb7qYZTY2m-liOnTneOIclxv1TrRW8D2guAY1_ZN1Xj7QAgP50KggF3PEw1hleFZFN4hHMrsu1oUguXx7SKyx2iPx3brsBdBNqarVouiDkk1M2dBGXYvY_Ftk9kM-DmSzesenNy0?></g></svg>